<svg xmlns="http://www.w3.org/2000/svg" viewBox="0 0 384.09 381.85"><defs><style>.cls-1{fill:#c6ff00;}.cls-2,.cls-4,.cls-5{fill:#fff;}.cls-2{opacity:0.75;}.cls-3{fill:#263238;}.cls-4{opacity:0.4;}</style></defs><title>business-men</title><g id="Background_Simple" data-name="Background Simple"><path class="cls-1" d="M186.39,78.37s-63.23,24.53-82.8,90.5S113,306.51,135,365.08s75.87,90.5,130.26,79,49.62-60.43,97.34-104.7,67.9-48.92,81.08-111.7S399.09,94.29,318.77,74.86,186.39,78.37,186.39,78.37Z" transform="translate(-61.44 -64.58)"/><path class="cls-2" d="M186.39,78.37s-63.23,24.53-82.8,90.5S113,306.51,135,365.08s75.87,90.5,130.26,79,49.62-60.43,97.34-104.7,67.9-48.92,81.08-111.7S399.09,94.29,318.77,74.86,186.39,78.37,186.39,78.37Z" transform="translate(-61.44 -64.58)"/></g><g id="Device"><path class="cls-3" d="M328.57,320.56H276.69a14.78,14.78,0,0,1-14.76-14.76V127.57a14.77,14.77,0,0,1,14.76-14.76h51.88v1H276.69a13.77,13.77,0,0,0-13.76,13.76V305.8a13.77,13.77,0,0,0,13.76,13.76h51.88Z" transform="translate(-61.44 -64.58)"/><path class="cls-3" d="M382.57,320.56H295.24a16,16,0,0,1-16-16V128.82a16,16,0,0,1,16-16h87.33a16,16,0,0,1,16,16V304.56A16,16,0,0,1,382.57,320.56ZM295.24,113.82a15,15,0,0,0-15,15V304.56a15,15,0,0,0,15,15h87.33a15,15,0,0,0,15-15V128.82a15,15,0,0,0-15-15Z" transform="translate(-61.44 -64.58)"/><path class="cls-3" d="M381,152.31H296.13a4.78,4.78,0,0,1,0-9.56H381a4.78,4.78,0,0,1,0,9.56Zm-84.84-8.56a3.78,3.78,0,0,0,0,7.56H381a3.78,3.78,0,0,0,0-7.56Z" transform="translate(-61.44 -64.58)"/><path class="cls-3" d="M381,293.3H296.13a4.78,4.78,0,0,1,0-9.56H381a4.78,4.78,0,0,1,0,9.56Zm-84.84-8.56a3.78,3.78,0,0,0,0,7.56H381a3.78,3.78,0,0,0,0-7.56Z" transform="translate(-61.44 -64.58)"/><path class="cls-3" d="M355.3,169.42H296.13a4.78,4.78,0,0,1,0-9.56H355.3a4.78,4.78,0,0,1,0,9.56Zm-59.17-8.56a3.78,3.78,0,0,0,0,7.56H355.3a3.78,3.78,0,0,0,0-7.56Z" transform="translate(-61.44 -64.58)"/><circle class="cls-1" cx="311.68" cy="100.07" r="7.13"/><path class="cls-3" d="M373.12,172.28a7.63,7.63,0,1,1,7.63-7.63A7.64,7.64,0,0,1,373.12,172.28Zm0-14.26a6.63,6.63,0,1,0,6.63,6.63A6.64,6.64,0,0,0,373.12,158Z" transform="translate(-61.44 -64.58)"/><path class="cls-3" d="M303.61,208.63a10.84,10.84,0,1,1,10.84-10.84A10.85,10.85,0,0,1,303.61,208.63Zm0-20.67a9.84,9.84,0,1,0,9.84,9.84A9.85,9.85,0,0,0,303.61,188Z" transform="translate(-61.44 -64.58)"/><path class="cls-3" d="M338.9,208.63a10.84,10.84,0,1,1,10.84-10.84A10.85,10.85,0,0,1,338.9,208.63Zm0-20.67a9.84,9.84,0,1,0,9.84,9.84A9.85,9.85,0,0,0,338.9,188Z" transform="translate(-61.44 -64.58)"/><path class="cls-3" d="M374.19,208.63A10.84,10.84,0,1,1,385,197.8,10.85,10.85,0,0,1,374.19,208.63Zm0-20.67A9.84,9.84,0,1,0,384,197.8,9.85,9.85,0,0,0,374.19,188Z" transform="translate(-61.44 -64.58)"/><path class="cls-3" d="M303.61,235.73a10.84,10.84,0,1,1,10.84-10.84A10.85,10.85,0,0,1,303.61,235.73Zm0-20.67a9.84,9.84,0,1,0,9.84,9.84A9.85,9.85,0,0,0,303.61,215.05Z" transform="translate(-61.44 -64.58)"/><path class="cls-3" d="M338.9,235.73a10.84,10.84,0,1,1,10.84-10.84A10.85,10.85,0,0,1,338.9,235.73Zm0-20.67a9.84,9.84,0,1,0,9.84,9.84A9.85,9.85,0,0,0,338.9,215.05Z" transform="translate(-61.44 -64.58)"/><path class="cls-3" d="M374.19,235.73A10.84,10.84,0,1,1,385,224.89,10.85,10.85,0,0,1,374.19,235.73Zm0-20.67a9.84,9.84,0,1,0,9.84,9.84A9.85,9.85,0,0,0,374.19,215.05Z" transform="translate(-61.44 -64.58)"/><path class="cls-3" d="M303.61,262.82A10.84,10.84,0,1,1,314.45,252,10.85,10.85,0,0,1,303.61,262.82Zm0-20.67a9.84,9.84,0,1,0,9.84,9.84A9.85,9.85,0,0,0,303.61,242.14Z" transform="translate(-61.44 -64.58)"/><path class="cls-3" d="M338.9,262.82A10.84,10.84,0,1,1,349.74,252,10.85,10.85,0,0,1,338.9,262.82Zm0-20.67a9.84,9.84,0,1,0,9.84,9.84A9.85,9.85,0,0,0,338.9,242.14Z" transform="translate(-61.44 -64.58)"/><path class="cls-3" d="M374.19,262.82A10.84,10.84,0,1,1,385,252,10.85,10.85,0,0,1,374.19,262.82Zm0-20.67A9.84,9.84,0,1,0,384,252,9.85,9.85,0,0,0,374.19,242.14Z" transform="translate(-61.44 -64.58)"/><rect class="cls-3" x="133.74" width="1" height="377"/><rect class="cls-3" x="145.17" width="1" height="377"/><rect class="cls-3" x="184.74" width="1" height="377"/><rect class="cls-3" x="78.59" y="158.29" width="133.31" height="1" transform="translate(-130.56 75.3) rotate(-42.51)"/><rect class="cls-3" x="147.96" y="162.18" width="10.65" height="1" transform="translate(-131.08 81.75) rotate(-42.51)"/><rect class="cls-3" x="161.2" y="137.42" width="38.21" height="1" transform="translate(-107.25 93.51) rotate(-42.51)"/><rect class="cls-3" x="122.02" y="229.2" width="83.32" height="1" transform="translate(-173.59 106.2) rotate(-42.47)"/><rect class="cls-3" x="165.38" y="231.63" width="6.66" height="1" transform="translate(-173.95 110.4) rotate(-42.5)"/><rect class="cls-3" x="173.65" y="216.16" width="23.88" height="1" transform="translate(-159.06 117.75) rotate(-42.5)"/></g><g id="Plant"><path class="cls-1" d="M139.91,303.2c-3.5,8.64-7.09,1.69-6.52-34.53.27-17,1.46-51.67,20.24-44,18,7.34-5.73,58.63-5.73,58.63Zm25.79,5.14s39.14-40.79,24.46-53.59c-15.28-13.32-27.68,19.1-33.44,35.07-12.3,34.08-11.16,41.82-5,34.78Zm8.25,36.61s35.84-25.51,26.47-37.43c-9.75-12.4-23.93,10.59-30.65,22-14.34,24.27-14.59,30.35-8.9,25.86Zm9.7,36.5s35.84-25.51,26.47-37.43c-9.75-12.4-23.93,10.59-30.65,22-14.34,24.27-14.59,30.35-8.9,25.86Zm-62.59-73.38s-50.15-26.1-58.3-8.42c-8.49,18.41,26.11,21.19,43.06,22.24,36.16,2.23,43.27-1,34.8-4.93Zm7.06,28.73s-54.33-15.61-58.81,3.34c-4.66,19.73,29.8,15.58,46.62,13.23,35.88-5,42.2-9.62,33.12-11.75Zm12.44,31.33s-46.31-11.95-49.66,4.19c-3.48,16.79,25.56,12.49,39.73,10.11,30.23-5.06,35.46-9.11,27.74-10.7ZM147.81,394S103,377.19,98,392.88c-5.25,16.33,24.09,15.13,38.43,14.27,30.6-1.82,36.23-5.29,28.72-7.7Zm-30-131s-20.44-63.53-43.65-52C50,223,77.93,251.64,91.89,265.36c29.78,29.26,39,31.32,35.08,21.1Z" transform="translate(-61.44 -64.58)"/><path class="cls-4" d="M139.91,303.2c-3.5,8.64-7.09,1.69-6.52-34.53.27-17,1.46-51.67,20.24-44,18,7.34-5.73,58.63-5.73,58.63Zm25.79,5.14s39.14-40.79,24.46-53.59c-15.28-13.32-27.68,19.1-33.44,35.07-12.3,34.08-11.16,41.82-5,34.78Zm8.25,36.61s35.84-25.51,26.47-37.43c-9.75-12.4-23.93,10.59-30.65,22-14.34,24.27-14.59,30.35-8.9,25.86Zm9.7,36.5s35.84-25.51,26.47-37.43c-9.75-12.4-23.93,10.59-30.65,22-14.34,24.27-14.59,30.35-8.9,25.86Zm-62.59-73.38s-50.15-26.1-58.3-8.42c-8.49,18.41,26.11,21.19,43.06,22.24,36.16,2.23,43.27-1,34.8-4.93Zm7.06,28.73s-54.33-15.61-58.81,3.34c-4.66,19.73,29.8,15.58,46.62,13.23,35.88-5,42.2-9.62,33.12-11.75Zm12.44,31.33s-46.31-11.95-49.66,4.19c-3.48,16.79,25.56,12.49,39.73,10.11,30.23-5.06,35.46-9.11,27.74-10.7ZM147.81,394S103,377.19,98,392.88c-5.25,16.33,24.09,15.13,38.43,14.27,30.6-1.82,36.23-5.29,28.72-7.7Zm-30-131s-20.44-63.53-43.65-52C50,223,77.93,251.64,91.89,265.36c29.78,29.26,39,31.32,35.08,21.1Z" transform="translate(-61.44 -64.58)"/><path class="cls-3" d="M172.92,439.38a.63.63,0,0,1-.62-.59c-1.92-33.82-11.4-75.29-25.37-110.95-12.11-30.91-63-93.21-63.53-93.83a.63.63,0,1,1,1-.79c.51.63,51.55,63.08,63.73,94.17,14,35.77,23.53,77.39,25.45,111.33a.63.63,0,0,1-.59.66Z" transform="translate(-61.44 -64.58)"/><path class="cls-3" d="M137.29,307.79h-.08a.63.63,0,0,1-.55-.7l7.14-59.74a.63.63,0,1,1,1.24.15l-7.14,59.74A.63.63,0,0,1,137.29,307.79Z" transform="translate(-61.44 -64.58)"/><path class="cls-3" d="M147.52,328.24a.63.63,0,0,1-.56-.91l25.83-50.21a.63.63,0,0,1,1.11.57L148.07,327.9A.63.63,0,0,1,147.52,328.24Z" transform="translate(-61.44 -64.58)"/><path class="cls-3" d="M143.74,320.8h-.13l-54.09-11a.63.63,0,0,1,.25-1.23l54.09,11a.63.63,0,0,1-.12,1.24Z" transform="translate(-61.44 -64.58)"/><path class="cls-3" d="M157.68,356.73a.63.63,0,0,1-.47-1L189,319.46a.63.63,0,1,1,.94.83l-31.81,36.24A.63.63,0,0,1,157.68,356.73Z" transform="translate(-61.44 -64.58)"/><path class="cls-3" d="M153.23,344.79h0l-40.84-.35a.63.63,0,0,1,0-1.25h0l40.84.35a.63.63,0,0,1,0,1.25Z" transform="translate(-61.44 -64.58)"/><path class="cls-3" d="M129.78,375.68a.63.63,0,0,1,0-1.25l31.32-1.24a.63.63,0,0,1,0,1.25l-31.32,1.24Z" transform="translate(-61.44 -64.58)"/><path class="cls-3" d="M167.53,393.36a.63.63,0,0,1-.5-1L183.8,370a.63.63,0,0,1,1,.75L168,393.11A.62.62,0,0,1,167.53,393.36Z" transform="translate(-61.44 -64.58)"/><path class="cls-3" d="M168.76,401.68h0l-36.63-1.82a.62.62,0,0,1-.59-.66.6.6,0,0,1,.66-.59l36.63,1.82a.63.63,0,0,1,0,1.25Z" transform="translate(-61.44 -64.58)"/></g><g id="ID_Card" data-name="ID Card"><path class="cls-3" d="M135.31,391.86a61.21,61.21,0,0,1-11.2-1c-11.76-2.19-21.4-8.41-26.46-17.07-8.29-14.22-3-32.29,5.84-43.9,11.26-14.72,28.23-23.26,43.34-29.68,29-12.3,59.72-20.2,89.46-27.84,8.5-2.18,17.3-4.44,25.92-6.77,4.3-1.16,8.68-2.3,13.13-3.45,31.47-8.17,67.14-17.43,90.73-40.68,17.08-16.83,29.75-36.4,36.62-56.58a86.67,86.67,0,0,0,4.94-26.14,135,135,0,0,0-2.06-28.6l-.65-.49c-14.44-10.9-30.53-17.56-44.15-18.25C339.09,90.33,296,98,272.91,123.37l-1,1.1a241.87,241.87,0,0,0-25.79,39.43,2,2,0,1,1-3.59-1.76,223.39,223.39,0,0,1,13.1-22.21,2,2,0,0,1,.21-2,190.25,190.25,0,0,1,12.11-15q1.5-1.9,3.09-3.82c16.69-20.17,43.52-45,76.53-49,21.17-2.54,36.62.89,47.22,10.47,7,6.34,11.76,15.28,14.39,27.36,16,12.9,22.26,29.22,18.57,48.53-5.55,29-20.79,50.6-38.67,73.81C341.52,292,289.75,337,235.23,363.78a295.85,295.85,0,0,1-79.83,26A117.46,117.46,0,0,1,135.31,391.86Zm275-277.64a151.26,151.26,0,0,1,1.32,24.63,90.69,90.69,0,0,1-5.15,27.36c-7.07,20.77-20.07,40.87-37.6,58.14-24.35,24-60.57,33.4-92.53,41.7-4.43,1.15-8.81,2.29-13.09,3.44-8.64,2.33-17.45,4.6-26,6.78-29.59,7.6-60.19,15.46-88.89,27.65-14.63,6.21-31,14.45-41.73,28.43-8.07,10.55-12.92,26.84-5.56,39.45,4.47,7.66,13.12,13.18,23.73,15.15,10,1.86,20.25.56,29.87-1.12a291.82,291.82,0,0,0,78.75-25.64C286.67,334,339.39,288.25,385.9,227.83c17.55-22.8,32.52-44,37.91-72.12C426.91,139.51,422.37,125.59,410.31,114.22Zm-50-40.93a103,103,0,0,0-12.22.78c-22.67,2.72-42.54,15.77-58.57,31.11,24-14.09,54.27-18.62,71.5-17.74,17.55.89,33.58,10,43.13,16.71-2.56-8.9-6.53-15.66-12-20.61C384.51,76.67,374,73.28,360.26,73.28Z" transform="translate(-61.44 -64.58)"/><path class="cls-5" d="M185.48,208.85,212.93,402a5.14,5.14,0,0,0,5.82,4.37l116.88-16.62a5.14,5.14,0,0,0,4.37-5.82L312.54,190.79a5.14,5.14,0,0,0-5.82-4.37L189.84,203A5.14,5.14,0,0,0,185.48,208.85Zm76.45-3.34-23.75,3.38a3.9,3.9,0,1,1-1.1-7.72l23.75-3.38a3.9,3.9,0,0,1,1.1,7.72Z" transform="translate(-61.44 -64.58)"/><path class="cls-3" d="M218,406.91a5.65,5.65,0,0,1-5.58-4.85L185,208.92a5.64,5.64,0,0,1,4.79-6.38l116.88-16.62a5.66,5.66,0,0,1,6.38,4.79l27.46,193.13a5.64,5.64,0,0,1-4.79,6.38L218.82,406.85A5.66,5.66,0,0,1,218,406.91Zm89.43-220a4.68,4.68,0,0,0-.66,0L189.91,203.53a4.64,4.64,0,0,0-3.94,5.25l27.46,193.13a4.65,4.65,0,0,0,5.25,3.94l116.88-16.62A4.64,4.64,0,0,0,339.5,384L312,190.86A4.65,4.65,0,0,0,307.45,186.87Zm-69.82,22.55a4.4,4.4,0,0,1-.62-8.75l23.75-3.38A4.4,4.4,0,1,1,262,206l-23.75,3.38A4.41,4.41,0,0,1,237.63,209.42Zm23.76-11.17a3.47,3.47,0,0,0-.49,0l-23.75,3.38a3.4,3.4,0,1,0,1,6.73L261.86,205a3.4,3.4,0,0,0-.47-6.76Z" transform="translate(-61.44 -64.58)"/><rect class="cls-1" x="205.96" y="215.82" width="115.65" height="175.98" transform="translate(-101.58 -24.42) rotate(-8.09)"/><path class="cls-3" d="M218.92,399.56a.5.5,0,0,1-.49-.43L193.66,224.91a.5.5,0,0,1,.42-.57l114.5-16.28a.5.5,0,0,1,.57.42l24.77,174.23a.5.5,0,0,1-.42.57L219,399.56Zm-24.2-174.3L219.35,398.5l113.51-16.14L308.23,209.12Z" transform="translate(-61.44 -64.58)"/><path class="cls-5" d="M232,157.15l6.49,45.66a1.77,1.77,0,0,0,2,1.5l17.87-2.54a1.77,1.77,0,0,0,1.5-2l-6.49-45.66Zm12.36,10.26a3.8,3.8,0,1,1,3.23-4.3A3.8,3.8,0,0,1,244.4,167.41Z" transform="translate(-61.44 -64.58)"/><path class="cls-3" d="M240.28,204.83a2.27,2.27,0,0,1-2.24-1.95l-6.49-45.66a.5.5,0,0,1,.42-.57l21.37-3a.51.51,0,0,1,.37.1.5.5,0,0,1,.2.33l6.49,45.66a2.27,2.27,0,0,1-1.93,2.56l-17.87,2.54Zm-7.67-47.26L239,202.74a1.26,1.26,0,0,0,1.43,1.08l17.87-2.54a1.27,1.27,0,0,0,1.08-1.43L253,154.68Zm11.25,10.37a4.3,4.3,0,1,1,.61,0h0A4.34,4.34,0,0,1,243.86,167.94Zm.54-.54h0Zm-.53-7.06a3.33,3.33,0,0,0-.47,0,3.3,3.3,0,1,0,.93,6.53h0a3.3,3.3,0,0,0-.46-6.56Z" transform="translate(-61.44 -64.58)"/><path class="cls-5" d="M236.69,175h21.59a0,0,0,0,1,0,0v26.26a1.92,1.92,0,0,1-1.92,1.92H238.61a1.92,1.92,0,0,1-1.92-1.92V175A0,0,0,0,1,236.69,175Z" transform="translate(-85.59 -27.86) rotate(-8.09)"/><path class="cls-3" d="M240.41,204.81a2.43,2.43,0,0,1-2.4-2.08l-3.7-26a.5.5,0,0,1,.42-.57l21.37-3a.5.5,0,0,1,.57.42l3.7,26a2.42,2.42,0,0,1-2.06,2.74l-17.57,2.5Zm-5-27.73L239,202.59a1.42,1.42,0,0,0,1.61,1.21l17.57-2.5a1.42,1.42,0,0,0,1.21-1.61l-3.63-25.5Z" transform="translate(-61.44 -64.58)"/><circle class="cls-5" cx="246.64" cy="183.15" r="3.9" transform="translate(-84.76 -28.04) rotate(-8.09)"/><path class="cls-3" d="M246.63,187.55a4.41,4.41,0,1,1,.63,0A4.47,4.47,0,0,1,246.63,187.55Zm0-7.8a3.47,3.47,0,0,0-.49,0,3.4,3.4,0,0,0-1.56,6.08,3.4,3.4,0,0,0,5.4-3.19h0a3.4,3.4,0,0,0-3.36-2.92Z" transform="translate(-61.44 -64.58)"/><circle class="cls-5" cx="246.64" cy="183.15" r="1.45" transform="translate(-84.76 -28.04) rotate(-8.09)"/><path class="cls-3" d="M246.64,185.1a1.95,1.95,0,1,1,1.93-2.22h0a1.95,1.95,0,0,1-1.66,2.2Zm0-2.9h-.13a.95.95,0,1,0,.13,0Z" transform="translate(-61.44 -64.58)"/><path class="cls-5" d="M243.14,158.55a5.15,5.15,0,1,0,5.82,4.37A5.15,5.15,0,0,0,243.14,158.55Zm1.26,8.86a3.8,3.8,0,1,1,3.23-4.3A3.8,3.8,0,0,1,244.4,167.41Z" transform="translate(-61.44 -64.58)"/><path class="cls-3" d="M243.86,169.3a5.65,5.65,0,0,1-.79-11.25h0a5.65,5.65,0,1,1,.79,11.25ZM243.21,159a4.65,4.65,0,1,0,3.45.89,4.66,4.66,0,0,0-3.45-.89Zm-.07-.5h0Zm.72,9.4a4.3,4.3,0,0,1-.6-8.56,4.3,4.3,0,0,1,1.21,8.51h0A4.34,4.34,0,0,1,243.86,167.94Zm.54-.54h0Zm-.53-7.06a3.3,3.3,0,1,0,3.26,2.83A3.28,3.28,0,0,0,243.87,160.35Z" transform="translate(-61.44 -64.58)"/><rect class="cls-5" x="221.43" y="223.43" width="78.15" height="114.51" transform="translate(-98.35 -25.12) rotate(-8.09)"/><path class="cls-3" d="M229.88,343.37a.5.5,0,0,1-.5-.43L213.26,229.57a.5.5,0,0,1,.42-.57l77.37-11a.5.5,0,0,1,.57.42L307.75,331.8a.5.5,0,0,1-.42.57l-77.38,11ZM214.32,229.92l16,112.38,76.39-10.86-16-112.38Z" transform="translate(-61.44 -64.58)"/><path class="cls-5" d="M229.88,342.87c14.77-2,61.35-9,77.38-11-1.32-9.26-3.06-21.3-3.27-27.07-2.09-1.51-5.74-2.8-11-5.57-8.24-4.35-21.64-13.49-21.64-13.49l-5.44.57,0-.32-4.36.78-4.4.46,0,.32-5.38,1s-10.32,12.51-17,19c-4.42,4.27-7.18,6.21-8.72,8.3C226.11,316.21,228.38,332.17,229.88,342.87Z" transform="translate(-61.44 -64.58)"/><path class="cls-3" d="M229.87,343.25a.38.38,0,0,1-.37-.32c-1.51-10.79-3.76-26.6-3.84-27a.38.38,0,0,1,.06-.3,29.37,29.37,0,0,1,4.14-4.11c1.25-1.11,2.81-2.49,4.62-4.24,6.61-6.39,16.89-18.83,17-19a.37.37,0,0,1,.22-.13l5-.9a.38.38,0,0,1,.34-.39l4.4-.46,4.33-.78a.38.38,0,0,1,.29.07.38.38,0,0,1,.14.21l5.08-.54a.4.4,0,0,1,.25.06c.13.09,13.47,9.18,21.6,13.47,2.29,1.21,4.24,2.12,6,2.92a33.79,33.79,0,0,1,5.08,2.68.37.37,0,0,1,.16.29c.19,5.47,1.79,16.67,3.07,25.67l.19,1.36a.37.37,0,0,1-.33.42c-10.1,1.24-31.88,4.41-51.1,7.22-11.17,1.63-20.81,3-26.27,3.78Zm-3.45-27.34c.28,1.83,2.44,17.09,3.77,26.54,5.52-.76,15-2.14,25.9-3.73,19-2.77,40.47-5.9,50.73-7.17l-.14-1c-1.27-8.92-2.85-20-3.07-25.56a35.93,35.93,0,0,0-4.81-2.5c-1.73-.81-3.69-1.72-6-2.94-7.77-4.1-20.23-12.53-21.56-13.43l-5.3.56a.39.39,0,0,1-.39-.25l-4,.71-4,.43a.38.38,0,0,1-.31.35l-5.25.94c-1,1.23-10.65,12.81-17,18.91-1.82,1.76-3.38,3.14-4.64,4.26A30.57,30.57,0,0,0,226.42,315.91Z" transform="translate(-61.44 -64.58)"/><path class="cls-3" d="M304,304.8a46.11,46.11,0,0,0-6.39-3.29l-.55-.26-.73-.35-1-.49-.59-.3-1.73-.89c-8.24-4.35-21.64-13.49-21.64-13.49l-5.44.57,0-.32-4.36.78-4.4.46,0,.32-5.38,1s-10.32,12.51-17,19l-1.31,1.24c-3.66,3.42-6,5.19-7.4,7.06,0,.14.31,2,.72,4.93l77.61-11C304.16,307.82,304,306.14,304,304.8Z" transform="translate(-61.44 -64.58)"/><path class="cls-3" d="M305.33,318l-77.41,11,1.24,8.76,77.37-11C306.11,323.86,305.7,320.86,305.33,318Z" transform="translate(-61.44 -64.58)"/><path class="cls-5" d="M264.08,306.76l2.9,18.52,4.64-.66-4.48-18.56S264.45,305.66,264.08,306.76Z" transform="translate(-61.44 -64.58)"/><path class="cls-3" d="M267,325.65a.37.37,0,0,1-.37-.32l-2.9-18.52a.36.36,0,0,1,0-.18c.46-1.36,3.16-1,3.47-1a.37.37,0,0,1,.31.28L272,324.53a.37.37,0,0,1-.31.46l-4.64.66Zm-2.51-18.84,2.82,18,3.86-.55-4.32-17.9C265.93,306.31,264.73,306.37,264.47,306.81Z" transform="translate(-61.44 -64.58)"/><circle class="cls-5" cx="266.48" cy="311.91" r="0.74" transform="translate(-102.69 -23.97) rotate(-8.09)"/><path class="cls-3" d="M266.48,313a1.13,1.13,0,1,1,.16,0Zm0-1.48h-.05a.37.37,0,0,0-.17.65.38.38,0,0,0,.27.07.37.37,0,0,0-.05-.73Z" transform="translate(-61.44 -64.58)"/><circle class="cls-5" cx="268.48" cy="320.73" r="0.74" transform="matrix(0.99, -0.14, 0.14, 0.99, -103.91, -23.59)"/><path class="cls-3" d="M268.48,321.84a1.12,1.12,0,1,1,.16,0Zm0-1.48h-.05a.37.37,0,0,0,.1.72.37.37,0,0,0,.31-.41h0A.37.37,0,0,0,268.48,320.36Z" transform="translate(-61.44 -64.58)"/><path class="cls-5" d="M252.54,282.9s-3,1.21-3.83,6.33-.09,17.89-.46,20.84.48,3.35,2.43,2.28,3.76-5,6.85-5.44a41.3,41.3,0,0,1,8.17.15s4.49-3.53,7.59-4,7.76,4.68,9.05,4.5-1.83-11-4.66-18-7.69-9.69-13.1-8.92S252.54,282.9,252.54,282.9Z" transform="translate(-61.44 -64.58)"/><path class="cls-3" d="M249.14,313.26a1.21,1.21,0,0,1-.7-.2c-.6-.41-.77-1.35-.56-3,.15-1.15.11-3.9.07-7.08-.06-4.75-.13-10.66.39-13.77.87-5.26,3.93-6.56,4.06-6.62l.06,0c.07,0,6.7-1.48,12.07-2.24,6-.85,10.76,2.4,13.5,9.15,2.23,5.49,5.76,16.57,4.82,18.2a.62.62,0,0,1-.45.32c-.63.09-1.48-.5-3.05-1.64-1.8-1.31-4.28-3.1-6-2.85-3,.42-7.36,3.86-7.41,3.89a.37.37,0,0,1-.27.08,41.27,41.27,0,0,0-8.08-.15c-1.78.25-3.16,1.83-4.38,3.21a10,10,0,0,1-2.34,2.19A3.92,3.92,0,0,1,249.14,313.26Zm3.52-30c-.28.13-2.82,1.46-3.58,6-.5,3-.43,8.91-.38,13.63,0,3.21.07,6-.08,7.19-.22,1.74.05,2.21.23,2.33s.61.14,1.64-.42a9.53,9.53,0,0,0,2.14-2c1.31-1.48,2.79-3.17,4.84-3.46a40,40,0,0,1,8.12.13c.76-.58,4.74-3.54,7.64-4,2-.28,4.53,1.53,6.55,3a10,10,0,0,0,2.44,1.51c.48-1.11-1.91-10.15-4.89-17.49-2.6-6.4-7.11-9.48-12.7-8.69C259.5,281.76,253.2,283.13,252.66,283.25Z" transform="translate(-61.44 -64.58)"/><path class="cls-5" d="M231.39,319c-2.12-3.74-4-3.24-5.18-2,.57,3.94,2.39,16.78,3.66,25.85l.29,0,9.21-1.31.17-.08C237.19,333.78,233.74,323.18,231.39,319Z" transform="translate(-61.44 -64.58)"/><path class="cls-3" d="M229.87,343.23a.38.38,0,0,1-.37-.32c-1.2-8.58-3.07-21.74-3.66-25.84a.38.38,0,0,1,.11-.32,2.84,2.84,0,0,1,2.41-1c1.16.16,2.28,1.2,3.35,3.09,2.34,4.13,5.75,14.51,8.19,22.49a.38.38,0,0,1-.23.46l-.15.08-.09,0c-3.68.53-6.83,1-9.21,1.31l-.32,0Zm-3.27-26.08c.62,4.25,2.4,16.85,3.59,25.31l8.88-1.26c-2.43-7.89-5.75-18-8-22-.95-1.67-1.89-2.59-2.8-2.71A2,2,0,0,0,226.61,317.14Z" transform="translate(-61.44 -64.58)"/><path class="cls-5" d="M298.48,333a82.54,82.54,0,0,1,8.73-1.31c-1.15-8.11-2.62-18.25-3.1-24.48C297.73,309.85,297.7,323.57,298.48,333Z" transform="translate(-61.44 -64.58)"/><path class="cls-3" d="M298.48,333.33a.37.37,0,0,1-.37-.34c-.87-10.45-.56-23.46,5.87-26.17a.37.37,0,0,1,.52.32c.45,5.91,1.82,15.53,2.92,23.26l.17,1.2a.37.37,0,0,1-.08.28.38.38,0,0,1-.26.14,81.84,81.84,0,0,0-8.7,1.3Zm5.31-25.59c-5.74,3.12-5.62,16.58-5,24.76,2.49-.5,5.11-.89,8-1.19l-.12-.82C305.61,323,304.29,313.71,303.79,307.74Z" transform="translate(-61.44 -64.58)"/><path class="cls-5" d="M272.77,256.77s.39-8.34,4.37-2.59-3,14.64-4,13.2S272.77,256.77,272.77,256.77Z" transform="translate(-61.44 -64.58)"/><path class="cls-3" d="M273.41,267.91a.72.72,0,0,1-.62-.32c-1-1.5-.46-9.87-.39-10.84,0-.47.26-4.43,2-4.92.9-.25,1.91.44,3.08,2.13,2.3,3.33,1,7.3,0,9.38-1.15,2.43-2.94,4.48-4,4.57Zm1.33-15.38-.16,0c-.94.27-1.37,3-1.43,4.24h0c-.25,3.5-.41,9.4.26,10.37.17,0,1.09-.51,2.23-2.15,2-2.85,3.47-7.35,1.2-10.63C276,253.18,275.26,252.53,274.74,252.53Zm-2,4.24h0Z" transform="translate(-61.44 -64.58)"/><path class="cls-3" d="M273.25,261.58h-.07a.38.38,0,0,1-.3-.44c.17-.86,1.05-5.19,2.21-5.89a1.16,1.16,0,0,1,1.08-.13,2,2,0,0,1,1,1.33.38.38,0,0,1-.73.18c-.05-.22-.25-.71-.51-.81,0,0-.16-.06-.4.08-.64.39-1.48,3.39-1.87,5.4A.37.37,0,0,1,273.25,261.58Z" transform="translate(-61.44 -64.58)"/><path class="cls-3" d="M275.75,261.55a.37.37,0,0,1-.21-.68,1.24,1.24,0,0,0,.44-1.34.3.3,0,0,0-.17-.21,3,3,0,0,0-1.84.3.38.38,0,0,1-.5-.19.38.38,0,0,1,.19-.5,3.72,3.72,0,0,1,2.46-.3,1,1,0,0,1,.58.68,2,2,0,0,1-.73,2.17A.37.37,0,0,1,275.75,261.55Z" transform="translate(-61.44 -64.58)"/><path class="cls-5" d="M242,261.15s-2.7-7.9-4.92-1.27,7,13.21,7.56,11.55S242,261.15,242,261.15Z" transform="translate(-61.44 -64.58)"/><path class="cls-3" d="M244.21,272.06a2.14,2.14,0,0,1-.67-.13c-2.44-.81-8.73-6.43-6.8-12.18.65-2,1.42-2.9,2.36-2.91h0c1.78,0,3.11,3.72,3.26,4.17.34.92,3.23,8.8,2.65,10.53A.76.76,0,0,1,244.21,272.06ZM239.1,257.6h0c-.55,0-1.14.85-1.65,2.39-1.27,3.79,1.43,7.69,4.12,9.88,1.54,1.26,2.58,1.53,2.75,1.43.36-1.1-1.43-6.73-2.65-10h0C241.13,259.74,240,257.6,239.1,257.6Z" transform="translate(-61.44 -64.58)"/><path class="cls-3" d="M242.79,265.91a.38.38,0,0,1-.33-.2c-.93-1.82-2.57-4.46-3.3-4.66-.27-.07-.37,0-.41,0a1.36,1.36,0,0,0-.27.92.37.37,0,0,1-.75,0,2,2,0,0,1,.55-1.54,1.16,1.16,0,0,1,1.07-.17c1.31.35,3.37,4.26,3.77,5a.38.38,0,0,1-.16.5A.38.38,0,0,1,242.79,265.91Z" transform="translate(-61.44 -64.58)"/><path class="cls-3" d="M240.37,266.58l-.12,0a2,2,0,0,1-1.31-1.88,1,1,0,0,1,.37-.81,3.71,3.71,0,0,1,2.45-.4.37.37,0,0,1,.32.42.37.37,0,0,1-.42.32,3,3,0,0,0-1.85.23.3.3,0,0,0-.11.25,1.24,1.24,0,0,0,.8,1.17.38.38,0,0,1-.12.73Z" transform="translate(-61.44 -64.58)"/><path class="cls-5" d="M250.23,277.7s4.33,15.14,5.18,17.93c1,3.28,6.84,11.12,9.82,9.91s3.54-10.23,3.95-12.92-.39-17.56-.39-17.56Z" transform="translate(-61.44 -64.58)"/><path class="cls-3" d="M264.55,306a3.56,3.56,0,0,1-1.52-.39c-3.16-1.51-7.16-7.16-8-9.91s-5.14-17.78-5.18-17.94a.38.38,0,0,1,0-.31.37.37,0,0,1,.26-.17l18.56-2.64a.37.37,0,0,1,.43.35c0,.61.8,14.94.39,17.64-.06.4-.13,1-.2,1.59-.6,5.08-1.45,10.59-4,11.62A2.15,2.15,0,0,1,264.55,306ZM250.7,278c.7,2.45,4.3,15,5.06,17.51s4.65,8,7.59,9.45a2.15,2.15,0,0,0,1.73.22c2.33-.95,3.13-7.74,3.51-11,.08-.65.14-1.21.2-1.62.36-2.37-.25-14.67-.38-17.08Z" transform="translate(-61.44 -64.58)"/><path class="cls-5" d="M239.76,242.92s.87,14.48,3.91,24.7,12.09,18.41,16.79,18.14,13.6-12.59,13.05-19.22.62-23.37-2.63-29.62-7.79-7.58-17.13-6.64S238,236.45,239.76,242.92Z" transform="translate(-61.44 -64.58)"/><path class="cls-3" d="M260.22,286.14c-5.12,0-14-8.49-16.91-18.41s-3.87-23.92-3.92-24.75a8,8,0,0,1,1.22-6.79c2.36-3.4,7.13-5.69,13.1-6.28,9.9-1,14.31.74,17.5,6.84,2.37,4.55,2.43,14.31,2.48,22.16,0,3.08,0,5.73.19,7.6.36,4.32-3.14,10.83-6.78,15-1.44,1.66-4.22,4.47-6.63,4.61Zm-1.76-55.76c-1.4,0-2.95.09-4.68.26-5.67.57-10.36,2.8-12.56,6a7.32,7.32,0,0,0-1.1,6.21.4.4,0,0,1,0,.07c0,.14.91,14.55,3.89,24.62s12.12,18.13,16.41,17.87c1.55-.09,3.78-1.68,6.1-4.35,3.54-4.07,6.94-10.35,6.6-14.46-.16-1.9-.17-4.57-.19-7.66,0-7.76-.11-17.43-2.4-21.82C268,232.29,264.85,230.38,258.46,230.38Z" transform="translate(-61.44 -64.58)"/><path class="cls-3" d="M241.13,260.08s1.59-.56,1.22-3.19-.93-4.22,0-4.85,2.34-1.17,2.27-4-3.65-4.5-2.9-7.45a7.14,7.14,0,0,1,7.5-4.91c3.4.35,4.31,5.58,9.72,8.32s11.78,1.67,11.78,1.67a2.48,2.48,0,0,0,.26,3,5.3,5.3,0,0,1,1.24,2.84s.46,5.62,1.45,5.48.5-13,.22-14.92.08-10-6-12.7-14.83-1.91-20.1-.15-8,4.66-9.19,9.5S241.13,260.08,241.13,260.08Z" transform="translate(-61.44 -64.58)"/><path class="cls-3" d="M241.13,260.45a.38.38,0,0,1-.37-.29c-.15-.68-3.7-16.68-2.54-21.56s4.09-8,9.44-9.77c5.64-1.87,14.45-2.42,20.37.17,5.45,2.38,5.9,8.82,6.12,11.91,0,.45.06.82.09,1.08.15,1,.33,4.75.37,8.2.07,7-.5,7.09-.91,7.15a.66.66,0,0,1-.51-.15c-.89-.71-1.26-4.52-1.36-5.67a5.06,5.06,0,0,0-1.17-2.64,3.05,3.05,0,0,1-.58-2.74,21.27,21.27,0,0,1-11.32-1.8,17.07,17.07,0,0,1-5.78-5.22c-1.28-1.63-2.28-2.91-3.8-3.07a6.79,6.79,0,0,0-7.1,4.63c-.37,1.44.45,2.58,1.31,3.78A6.48,6.48,0,0,1,245,248c.07,2.72-1.19,3.52-2.12,4.11l-.32.21c-.49.34-.37,1.23-.08,2.9.08.48.17,1,.26,1.58.41,2.89-1.39,3.56-1.47,3.59ZM258.21,228a33.93,33.93,0,0,0-10.31,1.56c-5.14,1.71-7.81,4.47-8.94,9.24-1,4.23,1.81,17.84,2.43,20.69a2.73,2.73,0,0,0,.6-2.52c-.08-.57-.17-1.09-.25-1.56-.31-1.82-.52-3,.39-3.65l.34-.23c.86-.55,1.82-1.16,1.77-3.46a5.83,5.83,0,0,0-1.46-3.15c-.93-1.29-1.89-2.62-1.43-4.4a7.56,7.56,0,0,1,7.9-5.19c1.84.19,3,1.66,4.32,3.35a16.21,16.21,0,0,0,5.53,5c5.24,2.66,11.49,1.65,11.55,1.64a.36.36,0,0,1,.38.17.37.37,0,0,1,0,.42,2.11,2.11,0,0,0,.26,2.53,5.64,5.64,0,0,1,1.31,3.06,16.51,16.51,0,0,0,1,5c.57-1.71.25-12.3,0-14.38,0-.27-.07-.66-.1-1.13-.2-2.95-.63-9.08-5.67-11.28A24.32,24.32,0,0,0,258.21,228Z" transform="translate(-61.44 -64.58)"/><path class="cls-3" d="M249.67,266.08a7.37,7.37,0,1,1,1-.07A7.37,7.37,0,0,1,249.67,266.08Zm0-14a6.7,6.7,0,0,0-.94.07,6.6,6.6,0,1,0,.94-.07Z" transform="translate(-61.44 -64.58)"/><path class="cls-3" d="M265.58,263.82a7.36,7.36,0,1,1,7.29-8.4h0a7.37,7.37,0,0,1-7.29,8.4Zm0-14a6.61,6.61,0,1,0,6.54,5.68A6.68,6.68,0,0,0,265.58,249.85Z" transform="translate(-61.44 -64.58)"/><ellipse class="cls-3" cx="250.27" cy="259.03" rx="1.08" ry="2.07" transform="translate(-95.41 -26.77) rotate(-8.09)"/><ellipse class="cls-3" cx="263.72" cy="257.12" rx="1.08" ry="2.07" transform="matrix(0.99, -0.14, 0.14, 0.99, -95.01, -24.9)"/><path class="cls-5" d="M258,253.15a83.89,83.89,0,0,0,.65,10.45c.61,3.09,1.21,5-.75,5.29s-1.94-3.07-1.94-3.07" transform="translate(-61.44 -64.58)"/><path class="cls-3" d="M257.72,269.29a1.62,1.62,0,0,1-1.09-.4c-1-.89-1-3-1-3.06a.38.38,0,0,1,.38-.37h0a.38.38,0,0,1,.37.38,3.91,3.91,0,0,0,.75,2.49.9.9,0,0,0,.76.21,1.13,1.13,0,0,0,.81-.4c.41-.58.14-1.91-.2-3.58l-.17-.86a82.75,82.75,0,0,1-.66-10.52.38.38,0,0,1,.37-.38.37.37,0,0,1,.38.37,84,84,0,0,0,.64,10.38l.17.86c.39,1.93.68,3.32.08,4.17a1.83,1.83,0,0,1-1.32.71Z" transform="translate(-61.44 -64.58)"/><path class="cls-5" d="M252.25,271.21s5.71,3.71,12.79-1.82" transform="translate(-61.44 -64.58)"/><path class="cls-3" d="M257.07,272.79a10.06,10.06,0,0,1-5-1.26.38.38,0,0,1,.41-.63c.23.15,5.59,3.49,12.36-1.8a.38.38,0,1,1,.46.59A13.2,13.2,0,0,1,257.07,272.79Z" transform="translate(-61.44 -64.58)"/><path class="cls-3" d="M256.76,257.39a.37.37,0,0,1-.05-.75l2-.28a.37.37,0,0,1,.42.32.37.37,0,0,1-.32.42l-2,.28Z" transform="translate(-61.44 -64.58)"/><path class="cls-3" d="M240.87,259.82a.37.37,0,0,1-.05-.75l1.48-.21a.37.37,0,0,1,.42.32.37.37,0,0,1-.32.42l-1.48.21Z" transform="translate(-61.44 -64.58)"/><path class="cls-3" d="M272.52,255.32a.37.37,0,0,1-.05-.75l1.48-.21a.37.37,0,1,1,.11.74l-1.48.21Z" transform="translate(-61.44 -64.58)"/><path class="cls-3" d="M244.88,253.35a1,1,0,0,1-.88-1.48c1-1.8,4.08-4.59,8.74-2.31a1,1,0,1,1-.88,1.8c-4.13-2-6,1.33-6.11,1.48A1,1,0,0,1,244.88,253.35Z" transform="translate(-61.44 -64.58)"/><path class="cls-3" d="M260.63,251.11a1,1,0,0,1-.88-1.48c1-1.8,4.09-4.59,8.74-2.31a1,1,0,1,1-.88,1.8c-4.13-2-6,1.33-6.11,1.48A1,1,0,0,1,260.63,251.11Z" transform="translate(-61.44 -64.58)"/><line class="cls-5" x1="187.7" y1="197.71" x2="190.98" y2="197.24"/><path class="cls-3" d="M249.14,262.66a.37.37,0,0,1-.05-.75l3.28-.47a.37.37,0,1,1,.11.74l-3.28.47Z" transform="translate(-61.44 -64.58)"/><line class="cls-5" x1="201.15" y1="195.8" x2="204.43" y2="195.33"/><path class="cls-3" d="M262.59,260.75a.37.37,0,0,1-.05-.75l3.28-.47a.37.37,0,1,1,.11.74l-3.28.47Z" transform="translate(-61.44 -64.58)"/><rect class="cls-3" x="215.56" y="351.48" width="115.65" height="39.64" transform="translate(-110.98 -22.4) rotate(-8.09)"/><rect class="cls-5" x="253.99" y="357.49" width="34.81" height="2" transform="matrix(0.99, -0.14, 0.14, 0.99, -109.14, -22.87)"/><rect class="cls-5" x="230.76" y="378.94" width="87.38" height="2" transform="translate(-112.13 -22.22) rotate(-8.08)"/><rect class="cls-5" x="249.77" y="362.76" width="44.76" height="2" transform="translate(-109.87 -22.71) rotate(-8.08)"/><rect class="cls-3" x="243.49" y="370.22" width="0.46" height="7.93" transform="matrix(0.99, -0.14, 0.14, 0.99, -111.68, -26.55)"/><rect class="cls-3" x="248.16" y="369.56" width="0.46" height="7.93" transform="matrix(0.99, -0.14, 0.14, 0.99, -111.54, -25.9)"/><rect class="cls-3" x="249.1" y="369.43" width="0.46" height="7.93" transform="translate(-111.5 -25.78) rotate(-8.09)"/><rect class="cls-3" x="250.22" y="369.27" width="0.46" height="7.93" transform="translate(-111.47 -25.62) rotate(-8.09)"/><rect class="cls-3" x="252.67" y="368.92" width="0.46" height="7.93" transform="translate(-111.4 -25.28) rotate(-8.09)"/><rect class="cls-3" x="253.61" y="368.79" width="0.46" height="7.93" transform="translate(-111.37 -25.15) rotate(-8.09)"/><rect class="cls-3" x="244.76" y="370.01" width="0.92" height="7.93" transform="matrix(0.99, -0.14, 0.14, 0.99, -111.63, -26.34)"/><rect class="cls-3" x="258.07" y="368.15" width="0.46" height="7.93" transform="translate(-111.24 -24.53) rotate(-8.09)"/><rect class="cls-3" x="259.34" y="367.94" width="0.92" height="7.93" transform="translate(-111.2 -24.31) rotate(-8.09)"/><rect class="cls-3" x="247" y="369.69" width="0.92" height="7.93" transform="translate(-111.56 -26.03) rotate(-8.09)"/><rect class="cls-3" x="251.51" y="369.05" width="0.92" height="7.93" transform="matrix(0.99, -0.14, 0.14, 0.99, -111.43, -25.4)"/><rect class="cls-3" x="255.66" y="368.49" width="0.46" height="7.93" transform="translate(-111.32 -24.85) rotate(-8.09)"/><rect class="cls-3" x="256.6" y="368.36" width="0.46" height="7.93" transform="translate(-111.28 -24.73) rotate(-8.09)"/><rect class="cls-3" x="254.5" y="368.63" width="0.92" height="7.93" transform="translate(-111.34 -24.99) rotate(-8.09)"/><rect class="cls-3" x="261.62" y="367.65" width="0.46" height="7.93" transform="translate(-111.14 -24.02) rotate(-8.09)"/><rect class="cls-3" x="266.3" y="366.98" width="0.46" height="7.93" transform="translate(-111 -23.37) rotate(-8.09)"/><rect class="cls-3" x="267.23" y="366.85" width="0.46" height="7.93" transform="translate(-110.96 -23.25) rotate(-8.09)"/><rect class="cls-3" x="268.35" y="366.69" width="0.46" height="7.93" transform="translate(-110.94 -23.08) rotate(-8.09)"/><rect class="cls-3" x="270.81" y="366.34" width="0.46" height="7.93" transform="translate(-110.85 -22.75) rotate(-8.09)"/><rect class="cls-3" x="271.74" y="366.21" width="0.46" height="7.93" transform="translate(-110.91 -22.54) rotate(-8.1)"/><rect class="cls-3" x="262.89" y="367.43" width="0.92" height="7.93" transform="translate(-111.12 -23.78) rotate(-8.1)"/><rect class="cls-3" x="276.2" y="365.57" width="0.46" height="7.93" transform="translate(-110.76 -21.93) rotate(-8.1)"/><rect class="cls-3" x="277.47" y="365.36" width="0.92" height="7.93" transform="translate(-110.65 -21.79) rotate(-8.09)"/><rect class="cls-3" x="265.13" y="367.11" width="0.92" height="7.93" transform="matrix(0.99, -0.14, 0.14, 0.99, -111.02, -23.51)"/><rect class="cls-3" x="269.64" y="366.47" width="0.92" height="7.93" transform="matrix(0.99, -0.14, 0.14, 0.99, -110.89, -22.88)"/><rect class="cls-3" x="273.8" y="365.92" width="0.46" height="7.93" transform="translate(-110.77 -22.33) rotate(-8.09)"/><rect class="cls-3" x="274.73" y="365.78" width="0.46" height="7.93" transform="translate(-110.74 -22.2) rotate(-8.09)"/><rect class="cls-3" x="272.63" y="366.05" width="0.92" height="7.93" transform="translate(-110.8 -22.46) rotate(-8.09)"/><rect class="cls-3" x="279.22" y="365.14" width="0.46" height="7.93" transform="translate(-110.61 -21.57) rotate(-8.09)"/><rect class="cls-3" x="280.15" y="365.01" width="0.46" height="7.93" transform="translate(-110.57 -21.45) rotate(-8.09)"/><rect class="cls-3" x="284.62" y="364.38" width="0.46" height="7.93" transform="translate(-110.44 -20.83) rotate(-8.09)"/><rect class="cls-3" x="285.88" y="364.17" width="0.92" height="7.93" transform="translate(-110.4 -20.62) rotate(-8.09)"/><rect class="cls-3" x="282.21" y="364.72" width="0.46" height="7.93" transform="translate(-110.51 -21.16) rotate(-8.09)"/><rect class="cls-3" x="283.14" y="364.59" width="0.46" height="7.93" transform="translate(-110.49 -21.02) rotate(-8.09)"/><rect class="cls-3" x="281.05" y="364.85" width="0.92" height="7.93" transform="matrix(0.99, -0.14, 0.14, 0.99, -110.54, -21.29)"/><rect class="cls-3" x="288.17" y="363.87" width="0.46" height="7.93" transform="matrix(0.99, -0.14, 0.14, 0.99, -110.34, -20.32)"/><rect class="cls-3" x="292.84" y="363.21" width="0.46" height="7.93" transform="matrix(0.99, -0.14, 0.14, 0.99, -110.2, -19.67)"/><rect class="cls-3" x="293.77" y="363.08" width="0.46" height="7.93" transform="translate(-110.18 -19.54) rotate(-8.09)"/><rect class="cls-3" x="294.9" y="362.92" width="0.46" height="7.93" transform="translate(-110.14 -19.38) rotate(-8.09)"/><rect class="cls-3" x="297.35" y="362.57" width="0.46" height="7.93" transform="translate(-110.07 -19.04) rotate(-8.09)"/><rect class="cls-3" x="298.29" y="362.43" width="0.46" height="7.93" transform="matrix(0.99, -0.14, 0.14, 0.99, -110.04, -18.91)"/><rect class="cls-3" x="289.43" y="363.66" width="0.92" height="7.93" transform="translate(-110.33 -20.08) rotate(-8.1)"/><rect class="cls-3" x="302.75" y="361.8" width="0.46" height="7.93" transform="translate(-109.9 -18.3) rotate(-8.09)"/><rect class="cls-3" x="304.01" y="361.59" width="0.92" height="7.93" transform="translate(-109.86 -18.09) rotate(-8.09)"/><rect class="cls-3" x="291.68" y="363.34" width="0.92" height="7.93" transform="translate(-110.23 -19.81) rotate(-8.09)"/><rect class="cls-3" x="296.19" y="362.7" width="0.92" height="7.93" transform="matrix(0.99, -0.14, 0.14, 0.99, -110.09, -19.18)"/><rect class="cls-3" x="300.34" y="362.14" width="0.46" height="7.93" transform="translate(-109.98 -18.63) rotate(-8.09)"/><rect class="cls-3" x="301.28" y="362.01" width="0.46" height="7.93" transform="translate(-110.02 -18.42) rotate(-8.1)"/><rect class="cls-3" x="299.18" y="362.27" width="0.92" height="7.93" transform="translate(-110 -18.76) rotate(-8.09)"/><path class="cls-3" d="M243.87,165.64a2,2,0,0,1-1.93-2.54c.11-.39,2.83-9.8,13.89-25.15a2,2,0,1,1,3.25,2.34c-10.59,14.7-13.26,23.81-13.29,23.9A2,2,0,0,1,243.87,165.64Z" transform="translate(-61.44 -64.58)"/></g></svg>