<svg id="Capa_1" data-name="Capa 1" xmlns="http://www.w3.org/2000/svg" viewBox="0 0 193.38 172.78"><defs><style>.cls-1{fill:#b2b9c0;}.cls-2{fill:#00b1c3;}.cls-3{fill:#5094d0;}.cls-4{fill:#58b3e6;}.cls-5{fill:#4382bb;}.cls-6{fill:#fff;}.cls-7{fill:#f1bf5b;}.cls-8{fill:#e99352;}.cls-9{fill:#5ab676;}.cls-10{fill:#4ba364;}.cls-11{fill:#48915f;}.cls-12{fill:#fcd2a0;}.cls-13{fill:#7bbe75;}.cls-14{fill:#f7af7e;}.cls-15{fill:#d2763e;}.cls-16{fill:#fecb50;}.cls-17{fill:#bf6718;}.cls-18{fill:#f6a33e;}.cls-19{fill:#d4831a;}.cls-20{fill:#fff151;}.cls-21{fill:#f69f1d;}</style></defs><title>crypto</title><ellipse class="cls-1" cx="126.12" cy="153.68" rx="58.73" ry="9.47"/><ellipse class="cls-1" cx="55.44" cy="165.59" rx="50.04" ry="7.19"/><path class="cls-2" d="M112.65,74.6A4.12,4.12,0,0,1,110.51,80L42.84,109.37a4.12,4.12,0,0,1-5.41-2.14L19.29,65.44A4.12,4.12,0,0,1,21.43,60L89.11,30.67a4.12,4.12,0,0,1,5.41,2.14Z" transform="translate(-2.41 20.97)"/><path class="cls-3" d="M112.65,74.6A4.12,4.12,0,0,1,110.51,80L42.84,109.37a4.12,4.12,0,0,1-5.41-2.14L19.29,65.44A4.12,4.12,0,0,1,21.43,60L89.11,30.67a4.12,4.12,0,0,1,5.41,2.14Z" transform="translate(-2.41 20.97)"/><path class="cls-4" d="M89.11,30.67l-5,2.17A4.11,4.11,0,0,1,89.51,35l18.13,41.8a4.12,4.12,0,0,1-2.14,5.41l5-2.17a4.12,4.12,0,0,0,2.14-5.41L94.52,32.8A4.12,4.12,0,0,0,89.11,30.67Z" transform="translate(-2.41 20.97)"/><path class="cls-5" d="M45.91,103.23a4.12,4.12,0,0,1-5.41-2.14l-18-41.52L21.43,60a4.12,4.12,0,0,0-2.14,5.41l18.13,41.8a4.12,4.12,0,0,0,5.41,2.14L110.51,80a4.12,4.12,0,0,0,2.14-5.41l-.12-.28Z" transform="translate(-2.41 20.97)"/><path class="cls-6" d="M31.92,67.53l.34.77a1.49,1.49,0,1,1-2.72,1.18l-1.31-3a1.49,1.49,0,1,1,2.72-1.18l.24.56-.86.37-.27-.62c-.18-.41-.43-.49-.72-.37s-.4.36-.23.78l1.36,3.14c.18.42.43.49.72.36s.41-.35.23-.77l-.36-.83Z" transform="translate(-2.41 20.97)"/><path class="cls-6" d="M35.32,68.63a2,2,0,0,1-.39-.68l-.4-.91c-.23-.54-.5-.66-.92-.48l-.32.14,1,2.36-.91.4-2.52-5.81,1.38-.6a1.27,1.27,0,0,1,1.93.75l.2.46a1.26,1.26,0,0,1-.09,1.44c.54,0,.88.37,1.14,1l.39.9a1.87,1.87,0,0,0,.41.66Zm-3.16-4.55.77,1.78.36-.15c.34-.15.48-.39.28-.85l-.25-.57c-.18-.42-.4-.54-.72-.4Z" transform="translate(-2.41 20.97)"/><path class="cls-6" d="M36.2,64.26l1.25-.54.36.83-1.25.54.74,1.7,1.58-.68.36.83L36.75,68,34.23,62.2l2.49-1.08.36.83-1.58.68Z" transform="translate(-2.41 20.97)"/><path class="cls-6" d="M37.28,60.88l1.44-.63a1.36,1.36,0,0,1,2,.85L42,64a1.36,1.36,0,0,1-.74,2l-1.44.63Zm1.27.43,1.8,4.15.51-.22c.29-.12.4-.35.22-.77l-1.31-3c-.18-.41-.42-.49-.71-.36Z" transform="translate(-2.41 20.97)"/><path class="cls-6" d="M40.67,59.41l.91-.4,2.52,5.81-.91.4Z" transform="translate(-2.41 20.97)"/><path class="cls-6" d="M42,58.84l2.82-1.23.36.83-1,.41,2.16,5-.91.4-2.16-5-1,.41Z" transform="translate(-2.41 20.97)"/><path class="cls-6" d="M50.71,59.38l.33.77a1.49,1.49,0,1,1-2.72,1.18l-1.31-3a1.49,1.49,0,1,1,2.72-1.18l.24.56-.86.38-.27-.62c-.18-.41-.43-.49-.72-.37s-.4.36-.23.78L49.26,61c.18.41.43.48.72.36s.41-.35.23-.77l-.36-.83Z" transform="translate(-2.41 20.97)"/><path class="cls-6" d="M55.16,60l-.92.4-.61-1-1.12.49.3,1.12-.84.36L50.38,55.2l1.34-.58Zm-2.88-.94.88-.38L51.45,56Z" transform="translate(-2.41 20.97)"/><path class="cls-6" d="M57.49,59a1.92,1.92,0,0,1-.39-.68l-.4-.91c-.23-.54-.5-.66-.92-.48l-.32.14,1,2.36-.91.4L53.06,54l1.38-.6a1.27,1.27,0,0,1,1.93.75l.2.46a1.26,1.26,0,0,1-.09,1.44c.54,0,.88.37,1.14,1l.39.9a1.87,1.87,0,0,0,.41.66Zm-3.16-4.55.77,1.79.36-.16c.34-.15.48-.39.28-.85l-.25-.57c-.18-.41-.4-.54-.72-.4Z" transform="translate(-2.41 20.97)"/><path class="cls-6" d="M56.4,52.58,57.84,52a1.36,1.36,0,0,1,2,.85l1.27,2.94a1.36,1.36,0,0,1-.74,2l-1.44.63Zm1.27.43,1.8,4.15.52-.22c.29-.13.4-.35.22-.77l-1.31-3c-.18-.42-.42-.49-.71-.36Z" transform="translate(-2.41 20.97)"/><rect class="cls-6" x="75.21" y="70.14" width="25.28" height="1.16" transform="translate(-23.3 61.78) rotate(-23.45)"/><rect class="cls-6" x="89.64" y="72.95" width="12.64" height="1.16" transform="translate(-23.75 65.24) rotate(-23.45)"/><rect class="cls-6" x="57.43" y="79.93" width="15.69" height="1.16" transform="matrix(0.92, -0.4, 0.4, 0.92, -29.06, 53.61)"/><rect class="cls-6" x="53.83" y="68.57" width="45.08" height="1.16" transform="translate(-23.62 57.08) rotate(-23.45)"/><path class="cls-6" d="M71.09,55.11a6,6,0,1,1,3-2.95A6,6,0,0,1,71.09,55.11ZM66.54,44.63A5.42,5.42,0,1,0,70,44.35,5.36,5.36,0,0,0,66.54,44.63Z" transform="translate(-2.41 20.97)"/><path class="cls-6" d="M71.08,55.11c-1.21.53-3-2-4.23-4.7s-1.75-5.78-.54-6.3,3,2,4.23,4.7S72.3,54.58,71.08,55.11ZM66.54,44.63c-.55.24-.49,2.46.85,5.54s2.92,4.64,3.47,4.4S71.34,52.12,70,49,67.09,44.4,66.54,44.63Z" transform="translate(-2.41 20.97)"/><path class="cls-6" d="M69.32,51c-1.9.83-5.63,2.09-6.13,1s3-3,4.88-3.83,5.64-2.09,6.13-1S71.22,50.22,69.32,51Zm-1-2.34c-3.28,1.42-4.7,2.79-4.58,3.06s2.08.17,5.36-1.25,4.7-2.79,4.58-3.06S71.58,47.28,68.3,48.7Z" transform="translate(-2.41 20.97)"/><path class="cls-6" d="M67.53,46.92a5.54,5.54,0,0,1-3.92.19l.18-.55a5,5,0,0,0,6-2.61l.53.25A5.54,5.54,0,0,1,67.53,46.92Z" transform="translate(-2.41 20.97)"/><path class="cls-6" d="M67.22,55.14l-.54-.21A5.55,5.55,0,0,1,74,51.77l-.22.54a5,5,0,0,0-6.53,2.83Z" transform="translate(-2.41 20.97)"/><rect class="cls-7" x="37.27" y="75.4" width="12.75" height="11.36" rx="1.25" ry="1.25" transform="translate(-31.07 45.04) rotate(-23.45)"/><rect class="cls-8" x="39.91" y="76.9" width="0.58" height="11.36" transform="translate(-31.92 43.75) rotate(-23.42)"/><polygon class="cls-8" points="47.43 105.57 46.9 105.8 42.37 95.38 42.91 95.14 47.43 105.57"/><rect class="cls-8" x="35.73" y="77.24" width="12.74" height="0.58" transform="translate(-29.79 44.14) rotate(-23.45)"/><rect class="cls-8" x="38.82" y="84.35" width="12.74" height="0.58" transform="translate(-32.36 45.95) rotate(-23.45)"/><path class="cls-8" d="M46.83,82.34l-4.44,1.93-1.93-4.44,4.44-1.93Zm-4.14,1.16L46.07,82,44.6,78.66l-3.38,1.47Z" transform="translate(-2.41 20.97)"/><rect class="cls-8" x="39.46" y="78.31" width="0.58" height="2.39" transform="translate(-51.42 105.25) rotate(-66.51)"/><rect class="cls-8" x="40.95" y="84.72" width="2.39" height="0.58" transform="translate(-54.49 117.14) rotate(-70.38)"/><rect class="cls-8" x="43.99" y="76.82" width="2.55" height="0.58" transform="translate(-45.89 109.06) rotate(-66.64)"/><rect class="cls-8" x="47.36" y="81.35" width="0.58" height="2.55" transform="translate(-48.61 120.57) rotate(-70.28)"/><path class="cls-9" d="M131.2,16.17c1.74,0,3.16-1,5.74-3,2.15-1.62,6.3-5.21,9.28-3.75,4.88,2.39-1.92,12-3.46,15.19-2.52,5.25-6.4,11.6-7,17.23-.82,7.33,5.84,9.84,10.78,13.56a71.7,71.7,0,0,1,24.33,33c3.45,9.54,8,28,1.89,37,1.45,3.67,3,4.13,4.5,8.08-1.19,2.6-4.56,1.8-6.87.58-4.73-2.49-9.12-6.4-14.52-4-2.45,1.07-6.64,2-8.94,3.27-2.71,1.5-6.16,2.17-9.25,2.8-9.31,1.9-17.91.82-26.93-1.47-6.14-1.56-13.6-5-20-4.7-7.1.34-13.72-1.42-20.12,1.54-2.39,1.1-4.67,3.88-5.77,1.25-1-2.47,1.57-6.17,2.6-8.17,3.1-6,5.24-5.44,5.6-12.3.37-7.14-.78-14.12.09-21.15,1.81-14.79,13.42-26,21.46-37.34,4.1-5.8,8.54-7.21,5.29-14-3.49-7.34-7.94-18-13-24.43-1-1.23,9.65-7.05,10.26-7.26,9.94-3.37,20.82,1.28,29.32,6.26C128.57,15.56,130,16.15,131.2,16.17Z" transform="translate(-2.41 20.97)"/><path class="cls-10" d="M114.15,47.51c.39-.69,1.32-4.1,1.86-4.38a5.87,5.87,0,0,0-1.92,1.59c-1.4,1.79-4.92,6.71-7,2.52-1.79-3.54-.65-8.5.1-12.22.42-2.11,3-8,.92-9.73-2.2-1.81-5.92-.65-8.53-1.13-4.59-.85-8.44-5.7-5.24-10.15,3.61-5,10-5.23,15.57-3.73,3.5.94,6.67,3.15,10.17,3.91a6.52,6.52,0,0,0,4.87-.75c-8.24-4.61-18.41-8.53-27.74-5.36-.61.2-11.23,6-10.26,7.26,5,6.4,9.49,17.09,13,24.43,3.25,6.83-1.19,8.25-5.29,14-8,11.36-19.65,22.55-21.46,37.34-.86,7,.29,14-.09,21.15-.36,6.86-2.5,6.26-5.6,12.3-1,2-3.63,5.7-2.6,8.17,1.1,2.63,3.38-.14,5.77-1.25,6.41-3,13-1.2,20.12-1.54,6.4-.31,13.86,3.15,20,4.7,9,2.29,17.62,3.36,26.93,1.47,3.09-.63,6.55-1.3,9.25-2.8,2.3-1.28,6.49-2.2,8.94-3.27,5.4-2.37,9.78,1.55,14.52,4,2.32,1.22,5.68,2,6.87-.58-1.52-4-3.06-4.41-4.5-8.08,6.1-9.07,1.55-27.49-1.89-37a71.72,71.72,0,0,0-17-26.67c-1.22,5,3.53,11.34,6,15.21,6.33,9.85,16,29,9.59,40.7-1.65,3-2.06,4.84-4.8,4.94a7.48,7.48,0,0,1-4.77.51c-5.14-.9-10.39-4.29-15.73-2.71-6.87,2-11.91,7.75-19.09,9.27a29.59,29.59,0,0,1-19.73-2.35c-2.34-1.23-4.88-2.64-6.25-5s-1.87-5.1-3.4-7.29c-1.82-2.6-4.76-2.61-7.15-4.38a9.57,9.57,0,0,1-3.69-4.73c-1.7-5.12-.88-11,.36-16.13A57.12,57.12,0,0,1,99.45,64.17S111.55,52.18,114.15,47.51Z" transform="translate(-2.41 20.97)"/><path class="cls-11" d="M128.94,87c-3.08-3.18-7.91-3.53-11.1-3.76a3.06,3.06,0,0,1-2.81-1.6,3.39,3.39,0,0,1,.94-3.4,6.08,6.08,0,0,1,4.49-1.66,7.11,7.11,0,0,1,4.06.93A2.51,2.51,0,0,0,128.89,75c-1.31-2.42-4.67-3.15-6.32-3.36V69.37a2.51,2.51,0,0,0-5,0v2.49a10,10,0,0,0-5.38,3,8.25,8.25,0,0,0-1.79,8.6,8,8,0,0,0,7.09,4.69c2.58.19,6.11.44,7.85,2.25a4.83,4.83,0,0,1,1.32,3.66,5.69,5.69,0,0,1-1.71,3.76,7.9,7.9,0,0,1-7.72,1.65,5.25,5.25,0,0,1-3.78-4,2.51,2.51,0,0,0-4.93.92,10.13,10.13,0,0,0,7.19,7.87,12.9,12.9,0,0,0,1.87.44V107a2.51,2.51,0,1,0,5,0v-2.47a12.32,12.32,0,0,0,5.85-3.1,10.62,10.62,0,0,0,3.24-7.11A9.8,9.8,0,0,0,128.94,87Z" transform="translate(-2.41 20.97)"/><path class="cls-12" d="M130.67,87c-3.08-3.18-7.91-3.53-11.1-3.76a3.06,3.06,0,0,1-2.81-1.6,3.39,3.39,0,0,1,.94-3.4,6.08,6.08,0,0,1,4.49-1.66,7.11,7.11,0,0,1,4.06.93A2.51,2.51,0,0,0,130.62,75c-1.3-2.42-4.67-3.15-6.32-3.36V69.37a2.51,2.51,0,1,0-5,0v2.49a10,10,0,0,0-5.38,3,8.25,8.25,0,0,0-1.78,8.6,8,8,0,0,0,7.09,4.69c2.58.19,6.11.44,7.85,2.25a4.82,4.82,0,0,1,1.32,3.66,5.68,5.68,0,0,1-1.71,3.76,7.9,7.9,0,0,1-7.72,1.65,5.25,5.25,0,0,1-3.78-4,2.51,2.51,0,0,0-4.93.92,10.13,10.13,0,0,0,7.19,7.87,13,13,0,0,0,1.87.44V107a2.51,2.51,0,1,0,5,0v-2.47a12.32,12.32,0,0,0,5.85-3.1,10.61,10.61,0,0,0,3.24-7.11A9.8,9.8,0,0,0,130.67,87Z" transform="translate(-2.41 20.97)"/><path class="cls-13" d="M143.24,90.25c.75,2.71,1.37,6,.07,8.68-1.14,2.36-3.51,3.81-4.86,6-2.31,3.83.14,10.39,5,9.67,2.21-.33,4.3-1.65,6.45-2.47s4.65-.78,6.84-1.53c8.59-2.94,5.16-15.91,2.49-21.84-2-4.51-5.13-10.44-10.06-12.23C139.71,73.12,141.81,85.13,143.24,90.25Z" transform="translate(-2.41 20.97)"/><path class="cls-10" d="M139.7,30.72s3.71-7.25,4.62-8.89c0,0,1.68-2.21-.64-2.24-2.39,1.4-4.33,2.52-6.07,4.82a26.75,26.75,0,0,0-3.68,6.42c-.77,2-.81,5.37-2.89,6.63-4.73,2.85-4.12-10.71-7.15-4.33-.93,1.95.07,5.18-.91,6.94-1.65,2.95-2.79-.17-3.18-2.39-.46-2.58-.11-15.06-5.32-11-2.46,1.91-1.05,4.68-.8,7.16.33,3.17-.94,6.26-.53,9.41C113.9,49,118,49.89,123,49.64c4.13-.21,10.72-.74,12.18-5.19s1.8-8.62,4.29-13.18" transform="translate(-2.41 20.97)"/><path class="cls-12" d="M139.7,42c0,1.4-.71,2.53-1.59,2.53H97.43c-.88,0-1.59-1.13-1.59-2.53h0c0-1.4.71-2.53,1.59-2.53h40.68c.88,0,1.59,1.13,1.59,2.53Z" transform="translate(-2.41 20.97)"/><path class="cls-14" d="M139.7,47.08c0,1.4-.71,2.53-1.59,2.53H97.43c-.88,0-1.59-1.13-1.59-2.53h0c0-1.4.71-2.53,1.59-2.53h40.68c.88,0,1.59,1.13,1.59,2.53Z" transform="translate(-2.41 20.97)"/><circle class="cls-15" cx="76.45" cy="140.64" r="24.95"/><circle class="cls-16" cx="73.92" cy="140.64" r="24.95"/><circle class="cls-17" cx="73.92" cy="140.64" r="19.05"/><circle class="cls-18" cx="74.99" cy="140.64" r="17.97"/><path class="cls-19" d="M82.21,118.83c-2.07-2.14-5.32-2.38-7.48-2.53a2.06,2.06,0,0,1-1.89-1.08,2.28,2.28,0,0,1,.63-2.29,4.09,4.09,0,0,1,3-1.12,4.8,4.8,0,0,1,2.74.62,1.69,1.69,0,0,0,2.94-1.66c-.88-1.63-3.15-2.12-4.25-2.26V107a1.69,1.69,0,0,0-3.38,0v1.67a6.71,6.71,0,0,0-3.62,2.05,5.56,5.56,0,0,0-1.2,5.79,5.37,5.37,0,0,0,4.77,3.16c1.74.13,4.12.3,5.29,1.51a3.25,3.25,0,0,1,.89,2.46,3.83,3.83,0,0,1-1.15,2.53,5.32,5.32,0,0,1-5.2,1.11,3.54,3.54,0,0,1-2.55-2.7,1.69,1.69,0,0,0-3.32.62,6.82,6.82,0,0,0,4.84,5.3,8.7,8.7,0,0,0,1.26.3v1.55a1.69,1.69,0,0,0,3.38,0v-1.66a8.29,8.29,0,0,0,3.94-2.08A7.14,7.14,0,0,0,84,123.82,6.59,6.59,0,0,0,82.21,118.83Z" transform="translate(-2.41 20.97)"/><path class="cls-16" d="M83.38,118.83c-2.07-2.14-5.32-2.38-7.48-2.53A2.06,2.06,0,0,1,74,115.22a2.28,2.28,0,0,1,.63-2.29,4.09,4.09,0,0,1,3-1.12,4.8,4.8,0,0,1,2.74.62,1.69,1.69,0,0,0,2.94-1.66c-.88-1.63-3.14-2.12-4.25-2.26V107a1.69,1.69,0,0,0-3.38,0v1.67a6.71,6.71,0,0,0-3.62,2.05,5.55,5.55,0,0,0-1.2,5.79,5.37,5.37,0,0,0,4.77,3.16c1.74.13,4.12.3,5.29,1.51a3.25,3.25,0,0,1,.89,2.46,3.83,3.83,0,0,1-1.15,2.53,5.33,5.33,0,0,1-5.2,1.11,3.54,3.54,0,0,1-2.55-2.7,1.69,1.69,0,0,0-3.32.62,6.82,6.82,0,0,0,4.84,5.3,8.72,8.72,0,0,0,1.26.3v1.55a1.69,1.69,0,0,0,3.38,0v-1.66A8.29,8.29,0,0,0,83,128.6a7.14,7.14,0,0,0,2.18-4.79A6.59,6.59,0,0,0,83.38,118.83Z" transform="translate(-2.41 20.97)"/><path class="cls-20" d="M57.92,124.58l-5.19,3.2a24.8,24.8,0,0,1-1.36-8.12c0-.21,0-.42,0-.63l6.46-4a19.16,19.16,0,0,0,.08,9.54Z" transform="translate(-2.41 20.97)"/><path class="cls-20" d="M94.13,102.2,89,105.41a19,19,0,0,0-8.49-4.33l6.46-4A24.89,24.89,0,0,1,94.13,102.2Z" transform="translate(-2.41 20.97)"/><path class="cls-17" d="M61,131l-5,3.1a24.48,24.48,0,0,1-2.09-3.5l5-3.12A19.38,19.38,0,0,0,61,131Z" transform="translate(-2.41 20.97)"/><path class="cls-17" d="M98.35,108l-5,3.11a18.76,18.76,0,0,0-2.23-3.42l5-3.12A24.7,24.7,0,0,1,98.35,108Z" transform="translate(-2.41 20.97)"/><path class="cls-21" d="M72.2,138.27l-6.47,4a24.76,24.76,0,0,1-6.07-4L65,135A19,19,0,0,0,72.2,138.27Z" transform="translate(-2.41 20.97)"/><path class="cls-21" d="M101.27,119.67c0,.21,0,.43,0,.63l-6.5,4a18,18,0,0,0,.3-8l5.32-3.29A24.87,24.87,0,0,1,101.27,119.67Z" transform="translate(-2.41 20.97)"/><circle class="cls-15" cx="37.49" cy="142.7" r="24.95"/><circle class="cls-16" cx="34.96" cy="142.7" r="24.95"/><circle class="cls-17" cx="34.96" cy="142.7" r="19.05"/><circle class="cls-18" cx="36.03" cy="142.7" r="17.97"/><path class="cls-19" d="M43.25,120.89c-2.07-2.14-5.32-2.38-7.48-2.53a2.06,2.06,0,0,1-1.89-1.08,2.28,2.28,0,0,1,.63-2.29,4.09,4.09,0,0,1,3-1.12,4.79,4.79,0,0,1,2.74.62,1.69,1.69,0,0,0,2.94-1.66c-.88-1.63-3.15-2.12-4.25-2.26V109a1.69,1.69,0,0,0-3.38,0v1.67A6.71,6.71,0,0,0,32,112.77a5.56,5.56,0,0,0-1.2,5.79,5.37,5.37,0,0,0,4.77,3.16c1.74.12,4.12.3,5.29,1.51a3.25,3.25,0,0,1,.89,2.46,3.83,3.83,0,0,1-1.15,2.53,5.32,5.32,0,0,1-5.2,1.11,3.54,3.54,0,0,1-2.55-2.7,1.69,1.69,0,1,0-3.32.62,6.82,6.82,0,0,0,4.84,5.3,8.66,8.66,0,0,0,1.26.3v1.55a1.69,1.69,0,0,0,3.38,0v-1.66a8.31,8.31,0,0,0,3.94-2.09,7.15,7.15,0,0,0,2.18-4.79A6.59,6.59,0,0,0,43.25,120.89Z" transform="translate(-2.41 20.97)"/><path class="cls-16" d="M44.41,120.89c-2.07-2.14-5.32-2.38-7.47-2.53A2.06,2.06,0,0,1,35,117.27a2.28,2.28,0,0,1,.63-2.29,4.09,4.09,0,0,1,3-1.12,4.79,4.79,0,0,1,2.74.62,1.69,1.69,0,0,0,2.94-1.66c-.88-1.63-3.14-2.12-4.25-2.26V109a1.69,1.69,0,0,0-3.38,0v1.67a6.71,6.71,0,0,0-3.62,2.05,5.56,5.56,0,0,0-1.2,5.79,5.37,5.37,0,0,0,4.77,3.16c1.74.13,4.12.3,5.29,1.51a3.25,3.25,0,0,1,.89,2.46,3.83,3.83,0,0,1-1.15,2.53,5.32,5.32,0,0,1-5.2,1.11,3.54,3.54,0,0,1-2.55-2.7,1.69,1.69,0,1,0-3.32.62,6.82,6.82,0,0,0,4.84,5.3,8.83,8.83,0,0,0,1.26.3v1.55a1.69,1.69,0,0,0,3.38,0v-1.66a8.31,8.31,0,0,0,3.94-2.09,7.15,7.15,0,0,0,2.18-4.79A6.6,6.6,0,0,0,44.41,120.89Z" transform="translate(-2.41 20.97)"/><path class="cls-20" d="M19,126.64l-5.19,3.2a24.79,24.79,0,0,1-1.36-8.12c0-.21,0-.42,0-.63l6.46-4a19.15,19.15,0,0,0,.08,9.54Z" transform="translate(-2.41 20.97)"/><path class="cls-20" d="M55.17,104.26,50,107.46a19,19,0,0,0-8.49-4.33l6.46-4A24.89,24.89,0,0,1,55.17,104.26Z" transform="translate(-2.41 20.97)"/><path class="cls-17" d="M22.07,133.08l-5,3.1a24.49,24.49,0,0,1-2.09-3.5l5-3.12A19.41,19.41,0,0,0,22.07,133.08Z" transform="translate(-2.41 20.97)"/><path class="cls-17" d="M59.39,110l-5,3.11a18.77,18.77,0,0,0-2.23-3.42l5-3.12A24.66,24.66,0,0,1,59.39,110Z" transform="translate(-2.41 20.97)"/><path class="cls-21" d="M33.24,140.32l-6.47,4a24.78,24.78,0,0,1-6.07-4L26,137A19,19,0,0,0,33.24,140.32Z" transform="translate(-2.41 20.97)"/><path class="cls-21" d="M62.31,121.73c0,.21,0,.42,0,.63l-6.5,4a18,18,0,0,0,.3-8l5.32-3.29A24.89,24.89,0,0,1,62.31,121.73Z" transform="translate(-2.41 20.97)"/><circle class="cls-6" cx="174.84" cy="33.19" r="1.74"/><circle class="cls-6" cx="1.74" cy="52.41" r="1.74"/><circle class="cls-6" cx="60.28" cy="42.88" r="1.74"/><circle class="cls-6" cx="78.05" cy="1.74" r="1.74"/><circle class="cls-6" cx="191.64" cy="138.36" r="1.74"/></svg>