<?xml version="1.0" encoding="utf-8"?>
<!-- Generator: Adobe Illustrator 21.0.0, SVG Export Plug-In . SVG Version: 6.00 Build 0)  -->
<svg version="1.1" id="Layer_1" xmlns="http://www.w3.org/2000/svg" xmlns:xlink="http://www.w3.org/1999/xlink" x="0px" y="0px"
	 viewBox="0 0 109.4 100.6" style="enable-background:new 0 0 109.4 100.6;" xml:space="preserve">
<style type="text/css">
	.st0{fill:#8BCB0A;}
	.st1{fill:#419B19;}
	.st2{fill:#FFFFFF;}
</style>
<title>money-icon</title>
<rect x="1.5" y="22" class="st0" width="92.6" height="45.1"/>
<path class="st1" d="M6.1,26.4v36.3h83.4V26.4H6.1z M77.9,58.2H54.5c3.7-2.7,6.2-7.7,6.2-13.3c0-6-2.8-11.1-6.9-13.9H78
	c0,3.6,3.4,8.2,7,8.2v13.3C81.3,52.5,77.9,54.5,77.9,58.2z M10.6,39.2c3.6,0,6.9-4.6,6.9-8.2h23.3c-4.1,2.7-6.9,7.9-6.9,13.9
	c0,5.6,2.5,10.6,6.2,13.3H17.5c0-3.6-3.3-5.7-6.9-5.7L10.6,39.2z"/>
<path class="st2" d="M52.1,40.4c-0.2-0.2-0.4-0.3-0.6-0.5c-0.3-0.2-0.6-0.3-0.9-0.5c-0.4-0.2-0.7-0.3-1.1-0.4
	c-0.4-0.1-0.8-0.2-1.2-0.2v4.5l0.4,0.1c0.7,0.2,1.4,0.4,2.1,0.6c0.6,0.2,1.1,0.5,1.6,0.9c0.4,0.3,0.8,0.7,1,1.2
	c0.3,0.6,0.4,1.2,0.4,1.8c0,0.7-0.1,1.4-0.4,2c-0.3,0.5-0.6,1-1.1,1.4c-0.5,0.4-1.1,0.7-1.7,0.8c-0.7,0.2-1.4,0.3-2.1,0.3v2.3h-1.1
	v-2.3c-1-0.1-2.1-0.3-3.1-0.6c-0.9-0.3-1.8-0.8-2.6-1.4l1.1-2.1c0.2,0.2,0.4,0.4,0.7,0.6c0.3,0.2,0.7,0.4,1.1,0.6
	c0.4,0.2,0.9,0.4,1.4,0.5c0.5,0.1,1,0.3,1.5,0.3v-4.5l-0.3-0.1l-0.3-0.1c-0.7-0.2-1.4-0.4-2-0.6c-0.5-0.2-1-0.5-1.4-0.8
	c-0.4-0.3-0.7-0.7-0.9-1.1c-0.2-0.5-0.3-1-0.3-1.6c0-0.7,0.1-1.3,0.3-1.9c0.2-0.5,0.6-1,1.1-1.4c0.5-0.4,1-0.7,1.6-0.9
	c0.6-0.2,1.3-0.4,2-0.4v-2.2h1.1v2.2c0.9,0,1.8,0.2,2.6,0.6c0.8,0.3,1.5,0.7,2.1,1.2L52.1,40.4z M44.9,40.9c0,0.5,0.2,1.1,0.6,1.4
	c0.6,0.4,1.3,0.7,2,0.8v-4.3c-0.7,0-1.4,0.2-2,0.6C45.1,39.8,44.8,40.3,44.9,40.9L44.9,40.9z M51.2,48.2c0-0.6-0.3-1.1-0.8-1.5
	c-0.7-0.4-1.4-0.7-2.1-0.9v4.3c0.8,0,1.5-0.2,2.2-0.5C51,49.4,51.2,48.8,51.2,48.2z"/>
<circle class="st2" cx="73.2" cy="44.5" r="3.5"/>
<circle class="st2" cx="22.4" cy="44.5" r="3.5"/>
<rect x="15.3" y="33.5" class="st0" width="92.6" height="45.1"/>
<path class="st1" d="M19.9,37.9v36.3h83.4V37.9H19.9z M91.8,69.6H68.4c3.7-2.7,6.2-7.7,6.2-13.3c0-6-2.8-11.1-6.9-13.9h24.1
	c0,3.6,3.4,8.2,7,8.2v13.3C95.2,63.9,91.8,66,91.8,69.6L91.8,69.6z M24.4,50.6c3.6,0,6.9-4.6,6.9-8.2h23.3
	c-4.1,2.7-6.9,7.9-6.9,13.9c0,5.6,2.5,10.6,6.2,13.3H31.3c0-3.6-3.3-5.7-6.9-5.7V50.6z"/>
<path class="st2" d="M66,51.8c-0.2-0.2-0.4-0.3-0.6-0.5c-0.3-0.2-0.6-0.3-0.9-0.5c-0.4-0.2-0.7-0.3-1.1-0.4
	c-0.4-0.1-0.8-0.2-1.2-0.2v4.5l0.4,0.1c0.7,0.2,1.4,0.4,2.1,0.6c0.6,0.2,1.1,0.5,1.6,0.9c0.4,0.3,0.8,0.8,1,1.2
	c0.3,0.6,0.4,1.2,0.4,1.8c0,0.7-0.1,1.4-0.4,2c-0.3,0.5-0.6,1-1.1,1.4c-0.5,0.4-1.1,0.7-1.7,0.8c-0.7,0.2-1.4,0.3-2.1,0.3v2.3h-1.1
	v-2.3c-1-0.1-2-0.3-3-0.6c-0.9-0.3-1.8-0.8-2.6-1.4l1.1-2.1c0.2,0.2,0.4,0.4,0.7,0.6c0.3,0.2,0.7,0.4,1.1,0.6
	c0.4,0.2,0.9,0.4,1.4,0.5c0.5,0.1,1,0.3,1.5,0.3v-4.5L61.1,57L60.9,57c-0.7-0.2-1.4-0.4-2-0.6c-0.5-0.2-1-0.5-1.4-0.8
	c-0.4-0.3-0.7-0.7-0.9-1.1c-0.2-0.5-0.3-1-0.3-1.6c0-0.7,0.1-1.3,0.4-1.9c0.2-0.5,0.5-1,1-1.4c0.5-0.4,1-0.7,1.6-0.9
	c0.6-0.2,1.3-0.4,2-0.4v-2.2h1.1v2.2c0.9,0,1.8,0.2,2.6,0.6c0.8,0.3,1.5,0.7,2.1,1.2L66,51.8z M58.7,52.4c0,0.5,0.2,1.1,0.6,1.4
	c0.6,0.4,1.3,0.7,2,0.8v-4.3c-0.7,0-1.4,0.2-2,0.6C58.9,51.3,58.7,51.8,58.7,52.4L58.7,52.4z M65.1,59.7c0-0.6-0.3-1.1-0.8-1.5
	c-0.7-0.4-1.4-0.7-2.1-0.9v4.3c0.8,0,1.5-0.2,2.2-0.5C64.8,60.8,65.1,60.3,65.1,59.7L65.1,59.7z"/>
<circle class="st2" cx="87" cy="56" r="3.5"/>
<circle class="st2" cx="36.2" cy="56" r="3.5"/>
</svg>
