<svg xmlns="http://www.w3.org/2000/svg" xmlns:xlink="http://www.w3.org/1999/xlink" viewBox="0 0 348.85 402.03"><defs><style>.cls-1,.cls-13,.cls-26,.cls-4,.cls-5{fill:none;}.cls-2{isolation:isolate;}.cls-3{fill:#f7594d;}.cls-4,.cls-5{stroke:#f7594d;}.cls-12,.cls-26,.cls-4,.cls-5{stroke-miterlimit:10;}.cls-4{stroke-width:4px;}.cls-5{stroke-width:3px;}.cls-6{fill:#acccae;}.cls-12,.cls-7{fill:#183e54;}.cls-8{fill:#38696d;}.cls-9{fill:#48878c;}.cls-10{fill:#79b29f;}.cls-11{fill:#89ccb8;}.cls-12{stroke:#215670;stroke-width:2px;}.cls-13{stroke:#183e54;stroke-linecap:round;stroke-linejoin:round;stroke-dasharray:0 2;}.cls-14,.cls-22{fill:#ccc;}.cls-14,.cls-20,.cls-28{mix-blend-mode:multiply;}.cls-15{fill:#b2b194;}.cls-16{fill:#545347;}.cls-17{fill:#dbdab4;}.cls-18{fill:#ffffd0;}.cls-19{clip-path:url(#clip-path);}.cls-21{fill:#f2f2f2;}.cls-23{fill:#b3b3b3;}.cls-24{clip-path:url(#clip-path-2);}.cls-25{fill:#fff;}.cls-26{stroke:#ccc;}.cls-27,.cls-28{fill:#73948b;}</style><clipPath id="clip-path" transform="translate(-73.12 -45.37)"><path class="cls-1" d="M336.23,365.53,210.29,357c-6.33-.42-12.08-6.61-12.85-13.83l-25-236.81c-.76-7.23,3.56-12.38,9.64-11.5l121,17.61c6.08.89,11.75,7.23,12.66,14.17L346,353.79C346.93,360.71,342.55,366,336.23,365.53Z"/></clipPath><clipPath id="clip-path-2" transform="translate(-73.12 -45.37)"><path class="cls-1" d="M207.66,316.86l-64.43-5.22c-3.1-.25-6-3.32-6.52-6.85l-4.81-34.12c-.5-3.53,1.64-6.19,4.77-5.94l65,5.22c3.12.25,6,3.32,6.46,6.85l4.28,34.12C212.91,314.45,210.76,317.11,207.66,316.86Z"/></clipPath></defs><title>phone-icon</title><g class="cls-2"><g id="OBJECTS"><path class="cls-3" d="M360.16,419.72c.28,6.58-5.43,11.2-12.76,10.31s-13.38-6.89-13.51-13.42,5.58-11.15,12.76-10.31S359.88,413.14,360.16,419.72Z" transform="translate(-73.12 -45.37)"/><path class="cls-3" d="M379,391.32c1.07,17.6-13.71,30-33,27.73s-35-18.12-35-35.37S325.77,354,344,356,377.91,373.72,379,391.32Z" transform="translate(-73.12 -45.37)"/><path class="cls-4" d="M406.7,389.66c.55,6.41-4.54,11-11.37,10.21s-12.69-6.57-13.1-12.93,4.68-10.94,11.37-10.21S406.15,383.25,406.7,389.66Z" transform="translate(-73.12 -45.37)"/><path class="cls-3" d="M418.26,422.11c.51,5.48-3.92,9.35-9.89,8.64s-11.15-5.71-11.56-11.15,4-9.32,9.89-8.64S417.75,416.63,418.26,422.11Z" transform="translate(-73.12 -45.37)"/><path class="cls-3" d="M141.19,66.56a29.5,29.5,0,0,0-21.34-15.95c-12.61-2-22.71,5.77-22.56,17.39a23.9,23.9,0,0,0,6.39,15.31A28.63,28.63,0,0,0,101,96c0,1,.09,2,.2,3A20.46,20.46,0,0,0,97.7,98C87.91,96.34,80,102.52,80,111.81s8.14,18.24,18.12,20c7.5,1.32,13.83-1.84,16.42-7.48A56.94,56.94,0,0,0,144,139.41c23.4,4.11,41.35-9.05,40.1-29.4S163.62,70.22,141.19,66.56Z" transform="translate(-73.12 -45.37)"/><path class="cls-3" d="M95.17,144.14c-5.56-1-10,2.32-10,7.4s4.61,10,10.22,11,10.1-2.3,10-7.4S100.72,145.13,95.17,144.14Z" transform="translate(-73.12 -45.37)"/><path class="cls-5" d="M81.54,47.78c-3.82-.61-6.92,1.87-6.92,5.54a8.35,8.35,0,0,0,7,7.79c3.85.63,6.95-1.85,6.92-5.54A8.39,8.39,0,0,0,81.54,47.78Z" transform="translate(-73.12 -45.37)"/><path class="cls-3" d="M164.46,77.88c.46,8.84-6.71,14.75-16,13.2s-17.08-9.91-17.37-18.67,6.88-14.67,16-13.2S164,69,164.46,77.88Z" transform="translate(-73.12 -45.37)"/><ellipse class="cls-6" cx="196.26" cy="394.32" rx="83.74" ry="7.72"/><path class="cls-7" d="M349.56,391.27l-37-274c-1.57-11.73-11.16-22.52-21.42-24.09L172.58,75l1.2-3.81-9,3.85a12.64,12.64,0,0,0-3.18,1.36l-.16.07,0,0c-5,3.08-7.85,9.58-7,17.64l29.86,287c1.28,12.25,11.08,22.66,21.88,23.25l126.7,7a16,16,0,0,0,8.58-1.84h0l7.31-3.07-.92-3.67A19.85,19.85,0,0,0,349.56,391.27Z" transform="translate(-73.12 -45.37)"/><path class="cls-8" d="M341.74,407.57l-126.7-7c-10.8-.59-20.6-11-21.88-23.25l-29.86-287c-1.27-12.28,6-21,16.29-19.41L300,89.39c10.26,1.58,19.85,12.37,21.42,24.09l37,274C360,399.18,352.53,408.17,341.74,407.57Z" transform="translate(-73.12 -45.37)"/><path class="cls-9" d="M192,366.23,163.3,90.37c-1.27-12.28,6-21,16.29-19.41L300,89.39c7.69,1.18,15,7.55,18.85,15.61" transform="translate(-73.12 -45.37)"/><path class="cls-10" d="M336.23,365.53,210.29,357c-6.33-.42-12.08-6.61-12.85-13.83l-25-236.81c-.76-7.23,3.56-12.38,9.64-11.5l121,17.61c6.08.89,11.75,7.23,12.66,14.17L346,353.79C346.93,360.71,342.55,366,336.23,365.53Z" transform="translate(-73.12 -45.37)"/><path class="cls-11" d="M201.77,352.65a16.65,16.65,0,0,1-4.34-9.47l-25-236.81c-.76-7.23,3.56-12.38,9.64-11.5l121,17.61a14.16,14.16,0,0,1,8.17,4.71" transform="translate(-73.12 -45.37)"/><path class="cls-12" d="M287.58,379.92c.91,7.46-3.81,13.19-10.55,12.79s-12.91-6.8-13.8-14.31,3.84-13.24,10.55-12.79S286.67,372.46,287.58,379.92Z" transform="translate(-73.12 -45.37)"/><path class="cls-12" d="M252.32,100.13l-20.64-3a3.1,3.1,0,0,1-2.32-2.7h0c-.15-1.32.64-2.26,1.77-2.09l20.62,3.07a3.11,3.11,0,0,1,2.33,2.68h0C254.24,99.37,253.45,100.3,252.32,100.13Z" transform="translate(-73.12 -45.37)"/><path class="cls-13" d="M147,255.11s-75.17-86.48-13.38-155" transform="translate(-73.12 -45.37)"/><path class="cls-14" d="M193.39,73.07l-9,17.67H150l12.92-18.5S182.1,69.77,193.39,73.07Z" transform="translate(-73.12 -45.37)"/><polyline class="cls-15" points="67.86 61.52 120.28 8.78 59.57 39.56"/><polygon class="cls-16" points="56.67 39.56 67.86 61.52 59.57 39.56 56.67 39.56"/><polygon class="cls-17" points="59.45 38.82 29.81 46.73 123.9 4.7 59.45 38.82"/><polyline class="cls-18" points="109.48 35.64 132.57 0 59.57 39.56"/><polygon class="cls-16" points="122.87 5.22 59.57 39.56 56.67 39.56 122.87 5.22"/><circle class="cls-14" cx="257.55" cy="123.05" r="29.26"/><circle class="cls-13" cx="59.57" cy="112.28" r="8.79"/><circle class="cls-13" cx="4.85" cy="89.33" r="3.77"/><circle class="cls-13" cx="19.01" cy="195.94" r="14.17"/><circle class="cls-13" cx="295.59" cy="206.89" r="4.75"/><circle class="cls-13" cx="293.87" cy="158.09" r="11.46"/><circle class="cls-13" cx="254.9" cy="39.56" r="5.82"/><g class="cls-19"><g class="cls-20"><polygon class="cls-21" points="246.41 187.41 120.95 176 108.87 49.36 227.92 61.18 246.41 187.41"/><polygon class="cls-21" points="268.39 327.46 135.82 316.52 122.36 189.97 248.53 201.33 268.39 327.46"/><path class="cls-22" d="M297.67,220.46l-84.22-7.71c-4.06-.37-7.68-3.73-8.07-7.51l-.2-1.92c-.39-3.78,2.56-6.54,6.6-6.17l83.68,7.75c4,.37,7.71,3.73,8.25,7.5l.28,1.91C304.53,218.08,301.71,220.83,297.67,220.46Z" transform="translate(-73.12 -45.37)"/><path class="cls-22" d="M305.16,272.36l-86-7.59c-4.15-.36-7.84-3.72-8.25-7.5l-.21-1.92c-.41-3.78,2.6-6.55,6.73-6.18l85.46,7.63c4.1.37,7.87,3.72,8.43,7.49l.28,1.91C312.17,270,309.28,272.72,305.16,272.36Z" transform="translate(-73.12 -45.37)"/><path class="cls-23" d="M320,371l-89.37-7.37c-4.31-.35-8.16-3.7-8.6-7.48l-9-79.4c-.41-3.78,2.62-6.55,6.78-6.18L306,278.18c4.13.37,7.94,3.72,8.51,7.49l12.15,79.19C327.26,368.63,324.26,371.39,320,371Z" transform="translate(-73.12 -45.37)"/><path class="cls-23" d="M294.6,198.76,211.12,191c-4-.37-7.61-3.74-8-7.52L194.8,99.66a5.5,5.5,0,0,1,6.35-6.15l80.15,8a9.23,9.23,0,0,1,7.89,7.53l11.68,83.6C301.41,196.38,298.6,199.14,294.6,198.76Z" transform="translate(-73.12 -45.37)"/></g></g><path class="cls-14" d="M204.49,319.94l-64.57-5.24c-3-.25-5.92-3.26-6.42-6.74l-4.86-34.33c-.49-3.47,1.61-6.09,4.69-5.84L198.51,273c3.07.25,5.92,3.26,6.35,6.74l4.34,34.33C209.64,317.58,207.53,320.19,204.49,319.94Z" transform="translate(-73.12 -45.37)"/><g class="cls-24"><polygon class="cls-25" points="140.15 271.94 64.5 265.81 57.89 218.9 134.26 225.04 140.15 271.94"/><polyline class="cls-26" points="57.89 218.9 104.06 245.81 134.26 225.04"/></g><g class="cls-20"><path class="cls-22" d="M187.82,272.6l21,1.69c4.63.37,7.85-3.57,7.21-8.8l-.63-5.14c-.64-5.23-4.93-9.78-9.58-10.15l-21.09-1.69c-4.65-.37-7.87,3.57-7.19,8.8l.67,5.14C178.88,267.68,183.19,272.22,187.82,272.6Z" transform="translate(-73.12 -45.37)"/><polygon class="cls-22" points="120.84 225.84 112.53 231.65 111.11 220.67 120.84 225.84"/></g><path class="cls-3" d="M189.9,271.51l21,1.69c4.63.37,7.86-3.57,7.22-8.8l-.63-5.14c-.64-5.23-4.93-9.78-9.58-10.15l-21.09-1.69c-4.65-.37-7.88,3.57-7.2,8.8l.67,5.14C181,266.59,185.27,271.14,189.9,271.51Z" transform="translate(-73.12 -45.37)"/><polygon class="cls-3" points="122.93 224.75 114.61 230.57 113.19 219.58 122.93 224.75"/><path class="cls-21" d="M186,255.9h0l-1.3.74-.33-1,1.63-.93.93.08L188,264l-1.06-.08Z" transform="translate(-73.12 -45.37)"/><path class="cls-21" d="M195.78,260c.39,3.1-.41,4.74-2.2,4.59-1.58-.13-2.86-1.88-3.28-4.91s.57-4.65,2.21-4.52S195.41,257.06,195.78,260Zm-4.38-.21c.3,2.38,1.12,3.78,2.12,3.86s1.47-1.34,1.17-3.67-1-3.76-2.12-3.85C191.61,256,191.08,257.27,191.4,259.76Z" transform="translate(-73.12 -45.37)"/><path class="cls-21" d="M202.17,260.49c.39,3.1-.41,4.74-2.21,4.59-1.58-.13-2.86-1.88-3.27-4.91s.57-4.65,2.22-4.52S201.81,257.58,202.17,260.49Zm-4.38-.21c.3,2.37,1.12,3.78,2.11,3.86s1.47-1.34,1.18-3.67-1-3.76-2.11-3.85C198,256.52,197.48,257.79,197.79,260.27Z" transform="translate(-73.12 -45.37)"/><path class="cls-21" d="M208.56,261c.39,3.1-.42,4.74-2.21,4.59-1.58-.13-2.86-1.88-3.26-4.91s.58-4.65,2.22-4.52S208.2,258.09,208.56,261Zm-4.38-.21c.3,2.37,1.11,3.78,2.11,3.85s1.47-1.34,1.18-3.67-1-3.76-2.11-3.85C204.4,257,203.87,258.3,204.18,260.79Z" transform="translate(-73.12 -45.37)"/><path class="cls-14" d="M176.59,356.48c-.89-10.95-10.17-20.77-20.66-21.94s-18.62,6.75-18.3,17.7S147,373,158.06,374.17a20.3,20.3,0,0,0,2.22.11l9.95,5.53-2.34-7.22C173.64,369.8,177.17,363.82,176.59,356.48Z" transform="translate(-73.12 -45.37)"/><path class="cls-7" d="M177.63,354.08c-.92-10.95-10.19-20.77-20.64-21.94s-18.54,6.75-18.19,17.7,9.42,20.77,20.42,21.94a20.17,20.17,0,0,0,2.21.11l9.93,5.53L169,370.2C174.73,367.41,178.23,361.43,177.63,354.08Z" transform="translate(-73.12 -45.37)"/><path class="cls-18" d="M170.88,360.61a1,1,0,0,1-.29,1l-3.26,3.1a1.55,1.55,0,0,1-.59.38,2.24,2.24,0,0,1-.73.16h-.16l-.34,0a13,13,0,0,1-1.63-.34,14.2,14.2,0,0,1-2.78-1.14,27.83,27.83,0,0,1-3.76-2.41,33.65,33.65,0,0,1-4.51-4.16,35.27,35.27,0,0,1-3.16-3.8,30,30,0,0,1-2-3.28,19.57,19.57,0,0,1-1.18-2.67,15.42,15.42,0,0,1-.57-2,7,7,0,0,1-.16-1.32q0-.47,0-.52a2.32,2.32,0,0,1,.2-.73,1.59,1.59,0,0,1,.41-.57l3.21-3.13a.94.94,0,0,1,.79-.28,1.08,1.08,0,0,1,.59.26,2.29,2.29,0,0,1,.46.54l3,5.65a1.41,1.41,0,0,1,.18.94,1.36,1.36,0,0,1-.39.8L153,348.19a.36.36,0,0,0-.08.16.61.61,0,0,0,0,.19,5.64,5.64,0,0,0,.53,1.32,14.29,14.29,0,0,0,1,1.65,21.29,21.29,0,0,0,1.94,2.29,21.71,21.71,0,0,0,2.17,2.11,14.94,14.94,0,0,0,1.57,1.15,4.81,4.81,0,0,0,1,.48l.33.1.17,0a.35.35,0,0,0,.16-.07l1.39-1.37a1.36,1.36,0,0,1,1.06-.3,1.53,1.53,0,0,1,.71.23h0l5.23,3.55A1.68,1.68,0,0,1,170.88,360.61Z" transform="translate(-73.12 -45.37)"/><g class="cls-20"><path class="cls-22" d="M170.61,352.43l16.65,1.8a5.21,5.21,0,0,0,5.94-6l-.4-3.67a8.69,8.69,0,0,0-7.25-7.46l-16.27-1.8c-3.57-.4-6.25,2.3-6,6l.25,3.67A8.28,8.28,0,0,0,170.61,352.43Z" transform="translate(-73.12 -45.37)"/><polygon class="cls-22" points="102.44 306.25 95.54 310.13 94.98 302.31 102.44 306.25"/></g><path class="cls-3" d="M171.66,350l16.6,1.8a5.19,5.19,0,0,0,5.91-6l-.41-3.67a8.71,8.71,0,0,0-7.24-7.46l-16.22-1.8c-3.56-.4-6.23,2.3-6,6l.26,3.67A8.3,8.3,0,0,0,171.66,350Z" transform="translate(-73.12 -45.37)"/><polygon class="cls-3" points="103.47 303.86 96.6 307.74 96.03 299.91 103.47 303.86"/><path class="cls-21" d="M170.43,343.58a3.32,3.32,0,0,0,1.43.56c1.1.12,1.38-.56,1.33-1.1a1.77,1.77,0,0,0-1.73-1.48l-.47-.05-.05-.66.47.05c.62.07,1.38-.18,1.31-.95a1.2,1.2,0,0,0-1.18-1.1,1.93,1.93,0,0,0-1.22.29l-.27-.66a2.52,2.52,0,0,1,1.6-.32,2,2,0,0,1,1.92,1.75,1.27,1.27,0,0,1-1,1.4v0a2.13,2.13,0,0,1,1.54,1.82c.09,1-.63,1.86-2.14,1.7a3.67,3.67,0,0,1-1.68-.62Z" transform="translate(-73.12 -45.37)"/><path class="cls-21" d="M179.2,342.25c.2,2.21-.49,3.34-1.89,3.19-1.24-.13-2.17-1.42-2.37-3.57s.62-3.28,1.89-3.14S179,340.18,179.2,342.25Zm-3.41-.28c.14,1.69.73,2.71,1.51,2.79s1.2-.91,1.05-2.57-.63-2.69-1.51-2.79S175.63,340.21,175.79,342Z" transform="translate(-73.12 -45.37)"/><path class="cls-21" d="M184.18,342.79c.21,2.21-.47,3.34-1.87,3.19-1.24-.14-2.19-1.42-2.4-3.57s.6-3.28,1.87-3.14S184,340.73,184.18,342.79Zm-3.42-.27c.16,1.69.75,2.7,1.53,2.79s1.2-.91,1-2.57-.65-2.69-1.53-2.79S180.6,340.75,180.77,342.52Z" transform="translate(-73.12 -45.37)"/><path class="cls-25" d="M361.29,166.85c2,15.58-9.28,27.55-25.17,26.73s-30.37-14.11-32.34-29.7,9.29-27.55,25.16-26.73S359.3,151.27,361.29,166.85Z" transform="translate(-73.12 -45.37)"/><path class="cls-27" d="M357.28,185.89a24.63,24.63,0,0,0,5-19,35,35,0,0,0-10.63-20.4h0a36.26,36.26,0,0,0-21.81-10.26h0l-.58,0-.45,0h-1c-8.09-.15-14.95,3-19.47,8.13h0a24.55,24.55,0,0,0-5.55,19.57,34.74,34.74,0,0,0,10,19.76l0,0,.07.06a36.39,36.39,0,0,0,22.41,10.83h0l.58,0,.45,0h1c8.37.15,15.44-3.17,19.95-8.67l0,0ZM305,165l12.33.64a41.59,41.59,0,0,0,4,12.44,30.82,30.82,0,0,0-7.8,3.73A32.42,32.42,0,0,1,305,165Zm4.61-18.76a46.88,46.88,0,0,0,8.61,4.33A33.75,33.75,0,0,0,317,163.57l-12.33-.64A22.77,22.77,0,0,1,309.57,146.19Zm50.53,19.6-12.33-.64a41.83,41.83,0,0,0-4.51-13.34,30.85,30.85,0,0,0,7.61-3.49A32.65,32.65,0,0,1,360.11,165.79Zm-30.4-14.62a39.8,39.8,0,0,1-8.86-1.74,27.39,27.39,0,0,1,7.28-10.67Zm.26,2,1.41,11.12-12.29-.63a31.86,31.86,0,0,1,1.14-12.43A42.13,42.13,0,0,0,330,153.19Zm2.05.11a35.94,35.94,0,0,0,9.37-1,39.63,39.63,0,0,1,4.34,12.71l-12.29-.63Zm-.26-2-1.58-12.41a45.75,45.75,0,0,1,10.11,11.57A34.08,34.08,0,0,1,331.76,151.28Zm10.44-1.35a48.12,48.12,0,0,0-9.49-11.34,34.08,34.08,0,0,1,16.52,8.18A29.26,29.26,0,0,1,342.2,149.92Zm-23.42-1.21a44.2,44.2,0,0,1-7.94-3.93,22.78,22.78,0,0,1,14.65-6.57A29,29,0,0,0,318.78,148.72Zm.56,17,12.29.63,1.29,10.12a35.85,35.85,0,0,0-9.73,1A39.34,39.34,0,0,1,319.34,165.69Zm13.84,12.76,1.71,13.42a45.56,45.56,0,0,1-10.65-12.48A33.93,33.93,0,0,1,333.18,178.46ZM336.94,192l-1.71-13.42a39.86,39.86,0,0,1,9.31,1.88A27.42,27.42,0,0,1,336.94,192Zm-2-15.44-1.29-10.12,12.29.63a32,32,0,0,1-.89,11.55A42.13,42.13,0,0,0,335,176.55ZM348,167.17l12.33.64A22.85,22.85,0,0,1,356,183.95a47.24,47.24,0,0,0-8.86-4.59A33.93,33.93,0,0,0,348,167.17Zm-32.92,16.17a29.19,29.19,0,0,1,7.24-3.41,47.89,47.89,0,0,0,10,12.23A34.22,34.22,0,0,1,315.11,183.34Zm24.47,9.19a29,29,0,0,0,7-11.35,44.63,44.63,0,0,1,8.21,4.21A22.7,22.7,0,0,1,339.58,192.53Z" transform="translate(-73.12 -45.37)"/><g class="cls-20"><path class="cls-22" d="M351.53,154.42l26.12,1.22a5.53,5.53,0,0,0,6-6.45l-.49-3.69a8.53,8.53,0,0,0-7.8-7.1l-26.11-1.22a5.54,5.54,0,0,0-6,6.45l.49,3.69A8.53,8.53,0,0,0,351.53,154.42Z" transform="translate(-73.12 -45.37)"/><polygon class="cls-22" points="283.49 107.94 276.57 112.28 275.53 104.42 283.49 107.94"/></g><path class="cls-3" d="M352.49,151.94l27.73,1.29a5.53,5.53,0,0,0,6-6.45l-.49-3.69a8.53,8.53,0,0,0-7.8-7.1l-27.72-1.29a5.54,5.54,0,0,0-6,6.45l.49,3.69A8.53,8.53,0,0,0,352.49,151.94Z" transform="translate(-73.12 -45.37)"/><polygon class="cls-3" points="284.45 105.46 277.53 109.8 276.49 101.94 284.45 105.46"/><path class="cls-21" d="M358.27,146.29a3.75,3.75,0,0,0,.72,0,2.08,2.08,0,0,0,1.31-.57,2.34,2.34,0,0,0,.65-1.7h0a1.62,1.62,0,0,1-1.47.63,2.37,2.37,0,0,1-2.23-2.09,1.83,1.83,0,0,1,2-2.21c1.36.06,2.34,1.19,2.56,2.85a3.5,3.5,0,0,1-.74,3,2.76,2.76,0,0,1-1.81.78,4.21,4.21,0,0,1-.82,0Zm-.17-3.74a1.57,1.57,0,0,0,1.46,1.45,1.22,1.22,0,0,0,1.22-.62.51.51,0,0,0,0-.32c-.15-1.11-.68-2-1.62-2C358.43,141,358,141.62,358.1,142.54Z" transform="translate(-73.12 -45.37)"/><path class="cls-21" d="M363.08,147.13l-.07-.54.62-.64c1.49-1.51,2.14-2.32,2-3.3a1.45,1.45,0,0,0-1.49-1.34,1.91,1.91,0,0,0-1.34.49l-.37-.64a2.5,2.5,0,0,1,1.79-.58,2.29,2.29,0,0,1,2.29,2c.16,1.21-.6,2.14-1.82,3.4l-.47.46v0l3,.14.1.73Z" transform="translate(-73.12 -45.37)"/><path class="cls-21" d="M372.3,144.25c.3,2.22-.38,3.41-1.85,3.34-1.3-.06-2.34-1.3-2.65-3.46s.51-3.35,1.86-3.29S372,142.17,372.3,144.25Zm-3.6-.07c.23,1.7.89,2.69,1.7,2.72s1.22-1,1-2.66-.77-2.68-1.7-2.72S368.47,142.4,368.7,144.18Z" transform="translate(-73.12 -45.37)"/><path class="cls-21" d="M377.55,144.49c.3,2.22-.38,3.41-1.85,3.34-1.3-.06-2.34-1.3-2.65-3.46s.51-3.35,1.86-3.29S377.27,142.41,377.55,144.49Zm-3.6-.07c.23,1.7.89,2.69,1.7,2.72s1.22-1,1-2.66-.77-2.68-1.7-2.72S373.71,142.64,373.95,144.42Z" transform="translate(-73.12 -45.37)"/><path class="cls-25" d="M352.27,147a8.46,8.46,0,0,0,3.25-3.8,2.83,2.83,0,0,0-1.64-3.37,1.91,1.91,0,0,0-2.44.67s-1.18-1.46-2.63-.93c-1.23.45-1.55,2-.8,3.25A14.23,14.23,0,0,0,352.27,147Z" transform="translate(-73.12 -45.37)"/><path class="cls-28" d="M355.66,231c1.1,10.43-6.57,18.68-17.14,18.43s-20-8.91-21.11-19.34,6.58-18.68,17.14-18.43S354.55,220.57,355.66,231Z" transform="translate(-73.12 -45.37)"/><path class="cls-7" d="M357.89,229.82c1.1,10.43-6.57,18.68-17.14,18.43s-20-8.91-21.11-19.34,6.58-18.68,17.14-18.43S356.78,219.39,357.89,229.82Z" transform="translate(-73.12 -45.37)"/><path class="cls-18" d="M339,239.36a2.74,2.74,0,0,1-1.81-.77l-8.11-7.77a2.35,2.35,0,0,1-.26-3.34,2.44,2.44,0,0,1,3.39.17l4.55,4.36c.72-4.2,2.71-10,8.19-12.29a2.68,2.68,0,0,1,3.27,1.3,2.13,2.13,0,0,1-.92,3.07c-6.3,2.66-6.14,13.05-6.13,13.16a2,2,0,0,1-1.37,2A2.3,2.3,0,0,1,339,239.36Z" transform="translate(-73.12 -45.37)"/><path class="cls-14" d="M320.31,290.15c-2.46-10.95,4.4-20.77,15.31-21.94s21.75,6.75,24.22,17.7-4.38,20.77-15.3,21.94a20.18,20.18,0,0,1-2.23.11l-8.52,5.53.3-7.22A23.31,23.31,0,0,1,320.31,290.15Z" transform="translate(-73.12 -45.37)"/><path class="cls-3" d="M325.5,286.64c-2.46-10.95,4.39-20.77,15.3-21.94s21.75,6.75,24.22,17.7-4.38,20.77-15.3,21.94a20.18,20.18,0,0,1-2.23.11L339,310l.3-7.22A23.31,23.31,0,0,1,325.5,286.64Z" transform="translate(-73.12 -45.37)"/><path class="cls-25" d="M346.47,296.23c5.39-4.08,7.9-7.84,9-10.71a7.28,7.28,0,0,0-4.24-9,5.38,5.38,0,0,0-6.59,2.08s-3.1-3.85-7-2.24c-3.34,1.37-4.29,5.54-2.34,8.93C336.91,288.19,340.21,292,346.47,296.23Z" transform="translate(-73.12 -45.37)"/><path class="cls-6" d="M363.23,314.88l-3.11-.27a.59.59,0,0,0-.66.71l2.08,14.24a1.19,1.19,0,0,0,.89.94l3.11.56a.55.55,0,0,0,.66-.69l-2.08-14.63A1,1,0,0,0,363.23,314.88Z" transform="translate(-73.12 -45.37)"/><path class="cls-6" d="M381.19,316.12c-.13,0-6-.35-6-.35l.49-2.41c.34-1.67-.38-4.26-2.07-5.21a2.71,2.71,0,0,0-1.84-.33,1,1,0,0,0-.7.61,3.39,3.39,0,0,0-.09,1.17,4.25,4.25,0,0,1-.94,2.63c-1,1.18-4.27,4.46-4.27,4.46l1.85,13.12,12.94,2c1.75.24,2.6-1.86,1.51-3.72.93-.64,1.07-2.2.31-3.49a2.68,2.68,0,0,0,.31-3.5C384.32,319.89,383.31,316.63,381.19,316.12Z" transform="translate(-73.12 -45.37)"/><path class="cls-6" d="M382.31,340.37l-1.79-.16a.34.34,0,0,0-.38.41l1.2,8.21a.68.68,0,0,0,.51.54l1.79.32a.32.32,0,0,0,.38-.4l-1.2-8.43A.6.6,0,0,0,382.31,340.37Z" transform="translate(-73.12 -45.37)"/><path class="cls-6" d="M392.66,341.09c-.07,0-3.44-.2-3.44-.2l.28-1.39a3,3,0,0,0-1.19-3,1.56,1.56,0,0,0-1.06-.19.6.6,0,0,0-.41.35,2,2,0,0,0,0,.67,2.45,2.45,0,0,1-.54,1.51c-.59.68-2.46,2.57-2.46,2.57l1.06,7.56,7.46,1.14c1,.14,1.5-1.07.87-2.14a5788.73,5788.73,0,0,0,.36-4C394.46,343.26,393.88,341.38,392.66,341.09Z" transform="translate(-73.12 -45.37)"/><path class="cls-6" d="M410.1,351.23l-1.82-.16a.34.34,0,0,0-.39.42l1.22,8.34a.7.7,0,0,0,.52.55l1.82.33a.32.32,0,0,0,.39-.4l-1.22-8.57A.61.61,0,0,0,410.1,351.23Z" transform="translate(-73.12 -45.37)"/><path class="cls-6" d="M420.61,352c-.07,0-3.5-.2-3.5-.2l.28-1.41a3.09,3.09,0,0,0-1.21-3.05,1.58,1.58,0,0,0-1.07-.19.61.61,0,0,0-.41.36,2,2,0,0,0,0,.68,2.49,2.49,0,0,1-.55,1.54c-.6.69-2.5,2.61-2.5,2.61l1.08,7.68,7.58,1.15c1,.14,1.52-1.09.89-2.18a6522.7,6522.7,0,0,0,.37-4.09C422.45,354.17,421.86,352.26,420.61,352Z" transform="translate(-73.12 -45.37)"/><path class="cls-6" d="M387.38,294.05l-1.79-.16a.34.34,0,0,0-.38.41l1.2,8.21a.68.68,0,0,0,.51.54l1.79.32a.32.32,0,0,0,.38-.4l-1.2-8.43A.6.6,0,0,0,387.38,294.05Z" transform="translate(-73.12 -45.37)"/><path class="cls-6" d="M397.73,294.77c-.07,0-3.44-.2-3.44-.2l.28-1.39a3,3,0,0,0-1.19-3,1.56,1.56,0,0,0-1.06-.19.6.6,0,0,0-.41.35,2,2,0,0,0,0,.67,2.45,2.45,0,0,1-.54,1.51c-.59.68-2.46,2.57-2.46,2.57l1.06,7.56,7.46,1.14c1,.14,1.5-1.07.87-2.14a5647,5647,0,0,0,.36-4C399.53,296.95,398.95,295.06,397.73,294.77Z" transform="translate(-73.12 -45.37)"/><path class="cls-6" d="M401.59,314.37l-1.79-.16a.34.34,0,0,0-.38.41l1.2,8.21a.68.68,0,0,0,.51.54l1.79.32a.32.32,0,0,0,.38-.4l-1.2-8.43A.6.6,0,0,0,401.59,314.37Z" transform="translate(-73.12 -45.37)"/><path class="cls-6" d="M411.94,315.08c-.07,0-3.45-.2-3.45-.2l.28-1.39a3,3,0,0,0-1.19-3,1.56,1.56,0,0,0-1.06-.19.6.6,0,0,0-.4.35,2,2,0,0,0,0,.67,2.45,2.45,0,0,1-.54,1.51c-.59.68-2.46,2.57-2.46,2.57l1.06,7.56,7.46,1.14c1,.14,1.5-1.07.87-2.14a6404.51,6404.51,0,0,0,.36-4C413.74,317.26,413.16,315.37,411.94,315.08Z" transform="translate(-73.12 -45.37)"/><path class="cls-6" d="M121.42,323.31a6,6,0,0,1,5.22-7.48,7.87,7.87,0,0,1,8.26,6,6,6,0,0,1-5.22,7.48,6.88,6.88,0,0,1-.76,0L126,331.27l.1-2.46A8,8,0,0,1,121.42,323.31Z" transform="translate(-73.12 -45.37)"/><path class="cls-6" d="M95.52,343.19a9.25,9.25,0,0,1,8.08-11.59,12.19,12.19,0,0,1,12.79,9.35,9.24,9.24,0,0,1-8.08,11.59,10.63,10.63,0,0,1-1.18.06l-4.5,2.92.16-3.81A12.31,12.31,0,0,1,95.52,343.19Z" transform="translate(-73.12 -45.37)"/><path class="cls-6" d="M121.7,373.44a5.72,5.72,0,0,1,5-7.17,7.54,7.54,0,0,1,7.91,5.78,5.72,5.72,0,0,1-5,7.17,6.58,6.58,0,0,1-.73,0l-2.78,1.81.1-2.36A7.62,7.62,0,0,1,121.7,373.44Z" transform="translate(-73.12 -45.37)"/><path class="cls-6" d="M158,245.87c3.55-2.69,5.21-5.17,5.91-7.07a4.8,4.8,0,0,0-2.79-5.94,3.55,3.55,0,0,0-4.35,1.37s-2-2.54-4.64-1.48c-2.21.9-2.83,3.65-1.54,5.89C151.74,240.57,153.92,243.1,158,245.87Z" transform="translate(-73.12 -45.37)"/><path class="cls-6" d="M140.77,226.22c3.55-2.69,5.21-5.17,5.91-7.07a4.8,4.8,0,0,0-2.79-5.94,3.55,3.55,0,0,0-4.35,1.37s-2-2.54-4.64-1.48c-2.21.9-2.83,3.65-1.54,5.89C134.46,220.92,136.64,223.45,140.77,226.22Z" transform="translate(-73.12 -45.37)"/><path class="cls-6" d="M146.2,203.28c4.6-3.48,6.74-6.69,7.65-9.15a6.22,6.22,0,0,0-3.62-7.69,4.59,4.59,0,0,0-5.63,1.78s-2.65-3.28-6-1.91c-2.85,1.17-3.67,4.73-2,7.63C138,196.42,140.86,199.69,146.2,203.28Z" transform="translate(-73.12 -45.37)"/></g></g></svg>