<svg id="OBJECTS" xmlns="http://www.w3.org/2000/svg" viewBox="0 0 390.96 324.32"><defs><style>.cls-1{fill:gray;}.cls-2{fill:#4a0419;}.cls-3{fill:#559c7a;}.cls-4{fill:#1a2e3e;}.cls-5{fill:#28152e;}.cls-6{fill:#999;}.cls-7{fill:#b3b3b3;}.cls-8{fill:#ea968b;}.cls-9{fill:#fec2aa;}.cls-10{fill:#7c3327;}.cls-11{fill:#0a0a0a;}.cls-12{fill:#141414;}.cls-13{fill:#333;}.cls-14{fill:#ccc;}.cls-15{fill:#e6e6e6;}.cls-16{fill:#1a1a1a;}.cls-17{fill:#110306;}.cls-18{fill:#682921;}.cls-19{fill:none;stroke:#ea968b;stroke-linecap:round;stroke-miterlimit:10;stroke-width:2px;}</style></defs><title>saleman</title><ellipse id="SHADOW" class="cls-1" cx="195.48" cy="311.22" rx="195.48" ry="13.1"/><g id="TABLE"><polygon class="cls-2" points="84 105.61 74.45 103.3 73.36 109.12 82.96 111.35 84 105.61"/><polygon class="cls-3" points="73.98 117.23 73.98 122.32 82.65 122.32 82.18 117.76 73.98 117.23"/><polygon class="cls-4" points="82.98 127.14 74.61 129.61 76.32 135.05 82.98 132.28 82.98 127.14"/><rect class="cls-4" x="84.98" y="190.32" width="225" height="44"/><path class="cls-5" d="M380.19,292H126.67a4.5,4.5,0,1,0,0,9H138V414a2.88,2.88,0,0,0,2.91,3h.31a2.78,2.78,0,0,0,2.78-3V301H363V414c0,1.71,1.86,3,3.57,3h.31a3.06,3.06,0,0,0,3.12-3V301h10.19a4.5,4.5,0,1,0,0-9Z" transform="translate(-57.02 -106.68)"/><path class="cls-1" d="M226,256V207.2c0-1.53-1.22-3.2-2.75-3.2H140.6c-1.53,0-2.6,1.66-2.6,3.2V256Z" transform="translate(-57.02 -106.68)"/><path class="cls-6" d="M138,256v7.84c0,1.53,1.07,3.16,2.6,3.16h82.65a3.11,3.11,0,0,0,2.75-3.16V256Z" transform="translate(-57.02 -106.68)"/><rect class="cls-7" x="112.98" y="114.32" width="20" height="66" rx="3" ry="3"/><rect class="cls-1" x="93.98" y="176.32" width="58" height="9" rx="3" ry="3"/><rect class="cls-2" x="210.98" y="165.32" width="50" height="7"/><rect class="cls-4" x="207.98" y="172.32" width="66" height="6"/><rect class="cls-3" x="212.98" y="178.32" width="54" height="7"/><rect class="cls-1" x="344.27" y="265.2" width="55.25" height="3.71" transform="translate(-136.3 238.28) rotate(-45.48)"/><rect class="cls-1" x="374.68" y="193.93" width="3.71" height="55.25" transform="translate(-116.87 94.08) rotate(-27.74)"/><circle class="cls-5" cx="333.07" cy="141.38" r="7.43"/><rect class="cls-1" x="350.01" y="194.66" width="12.07" height="3.71" transform="translate(-105.44 47.46) rotate(-22.92)"/><rect class="cls-2" x="279.98" y="178.32" width="33" height="7" rx="3" ry="3"/><path class="cls-5" d="M353.48,204c-.82.6-2.3,0-3.27-1.32l-3-4.15c-1-1.33-1.1-2.91-.27-3.52s2.3,0,3.27,1.32l3,4.15C354.18,201.84,354.3,203.43,353.48,204Z" transform="translate(-57.02 -106.68)"/><path class="cls-2" d="M332.56,197.48s10.35-7.87,17.62,2.06-3.77,16.86-3.77,16.86Z" transform="translate(-57.02 -106.68)"/><circle class="cls-2" cx="305.35" cy="87.57" r="5.16"/><circle class="cls-6" cx="305.35" cy="87.6" r="2.93"/><circle class="cls-6" cx="333.07" cy="141.41" r="4.76"/></g><g id="SALESMAN"><path class="cls-8" d="M265.43,183H256.6s.32,7.17-2.09,8.25a24,24,0,0,0,6.42,6.75h.16a24,24,0,0,0,6.42-6.75C265.11,190.17,265.43,183,265.43,183Z" transform="translate(-57.02 -106.68)"/><path class="cls-9" d="M298,146.72c-6.73-5.57-11.13,1.51-11.13,1.51a49.76,49.76,0,0,0-12.35-27.4S238,131,235.9,148.23c0,0-4.35-7.08-11.09-1.51s-5.66,19.81,5.48,20c3.48,0,5.59-3.64,5.59-3.64s-2.42,21.1,25.44,21.1,25.51-21.1,25.51-21.1,2.18,3.65,5.66,3.64C303.64,166.52,304.68,152.29,298,146.72Z" transform="translate(-57.02 -106.68)"/><path class="cls-8" d="M297.31,152.52a5.28,5.28,0,0,0-4.64-2.67c-4.79.15-3.95,7.31-3.95,7.31s3.83-2.09,4.87,1.63c.7,2.5-2.9,3.71-2.9,3.71a5.49,5.49,0,0,0,5.8-.81C299.26,159.57,298.62,154.88,297.31,152.52Z" transform="translate(-57.02 -106.68)"/><path class="cls-8" d="M225.71,152.52a5.28,5.28,0,0,1,4.64-2.67c4.79.15,3.95,7.31,3.95,7.31s-3.83-2.09-4.87,1.63c-.7,2.5,2.9,3.71,2.9,3.71a5.49,5.49,0,0,1-5.8-.81C223.76,159.57,224.39,154.88,225.71,152.52Z" transform="translate(-57.02 -106.68)"/><path class="cls-10" d="M277.73,117.27s5.81-5.17,2.94-7.43c-4-3.16-6.66,5.11-6.66,5.11s1.55-9.13-4.33-8.2c-3.87.93,0,8,0,8s-13.68-5.21-26.62.77c-12.72,5.88-18.42,25.07-7,34.28a43.89,43.89,0,0,0,9.44-10.29,13.28,13.28,0,0,0-.93,6.35A28.16,28.16,0,0,0,259,138.79a8.54,8.54,0,0,0-1.08,4.18s9.13-.46,16.1-13.62c0,0,3.56,15.16,12.38,20.51,6-5.25,6.53-11.25,4.31-20.2C289.15,123.39,280.82,116.19,277.73,117.27Z" transform="translate(-57.02 -106.68)"/><path d="M244.17,415s.21,3.25,1.25,4.06c.9.45,5.44,2,22.43-3a7.21,7.21,0,0,0,2.18-.83,12.22,12.22,0,0,0,.46-4.43S248.45,418.93,244.17,415Z" transform="translate(-57.02 -106.68)"/><path class="cls-11" d="M254.22,404.7s-9.92,5.87-10.06,10.28c0,.81,5.25,4.83,26.15-2.25a39.74,39.74,0,0,0-.06-8.29c-2.26.84-16.13,0-16.13,0" transform="translate(-57.02 -106.68)"/><path class="cls-12" d="M265.73,282.58l-21.57,4.22,3.2,4.28s5,33.38,2.76,49.86c1,4.41,2.88,33.87,2.88,33.87v29.25s7.88,4.88,18.09,0c.93-14.63,3-58.5,3.7-64.31s8.12-42.44,5.8-48.73C278.27,288.68,265.73,282.58,265.73,282.58Z" transform="translate(-57.02 -106.68)"/><path class="cls-11" d="M231.61,290.34S227,347,229.28,350.44s46.9,54.79,46.9,54.79,11.38-3.95,13.46-12.77c-6.5-9.75-36.22-53.4-36.22-53.4l2.64-34.82s-8.68-8.82-9.38-16.48C240.43,288,231.61,290.34,231.61,290.34Z" transform="translate(-57.02 -106.68)"/><polygon class="cls-13" points="208.98 171.56 184.98 173.83 180.03 181.53 208.98 176.95 208.98 171.56"/><path class="cls-11" d="M248,280.54v5.88l6.82-1.05-.22-5.62Zm6,4-4.64.64.12-3.76,4.33-.52Z" transform="translate(-57.02 -106.68)"/><path class="cls-14" d="M253.43,201.62s6.1-5.9,9.05-4.53c.65.3,7.15,4.38,7.51,10.56,1.26,22-5.11,70.89-5.11,70.89S245.33,281,244.17,281,253.43,201.62,253.43,201.62Z" transform="translate(-57.02 -106.68)"/><polygon class="cls-15" points="198.63 83.34 203.61 90.38 197.49 100.52 191.3 85.54 198.63 83.34"/><polygon class="cls-15" points="209.79 83.34 203.61 90.38 208.56 100.98 217.12 85.54 209.79 83.34"/><path class="cls-8" d="M301.05,282.58a3.2,3.2,0,0,1-1.42,2.13c-3.64,1.93-7,4.63-5.34,7.3,3.06,4.8,8.26-.25,10.33-.79,0,0,2.67-2.56,1.51-4.58s-1.69-3.55-2.65-4.06A3.63,3.63,0,0,0,301.05,282.58Z" transform="translate(-57.02 -106.68)"/><path class="cls-9" d="M308.8,285.09c-1-.66-5.73-.84-6,2.9-.24,3,.27,9.36,3.92,9.36C311.21,297.35,311.24,286.64,308.8,285.09Z" transform="translate(-57.02 -106.68)"/><path class="cls-9" d="M315.23,284.13c-1-.73-5.37-.13-5.62,3.62-.18,2.67-.45,9.07,3.9,9.05C318,296.8,317.31,285.67,315.23,284.13Z" transform="translate(-57.02 -106.68)"/><path class="cls-9" d="M322,284.3a3.81,3.81,0,0,0-5.38,3c-.54,3.72.15,9.52,3.44,9.52C324.54,296.81,324.47,285.72,322,284.3Z" transform="translate(-57.02 -106.68)"/><path class="cls-9" d="M312.17,280.51s4.07,2.07,6,2.86c2.4.41,3.81.42,4.23,1.34,1.12,2.46-12.28,11.06-16.58,7-.23-2.09-3-3.71-3-3.71s-2.88-4.27-1.36-5.51S311.82,282.66,312.17,280.51Z" transform="translate(-57.02 -106.68)"/><path class="cls-8" d="M217.09,282.58a3.2,3.2,0,0,0,1.42,2.13c3.64,1.93,7,4.63,5.34,7.3-3.06,4.8-8.26-.25-10.33-.79,0,0-2.67-2.56-1.51-4.58s1.69-3.55,2.65-4.06A3.62,3.62,0,0,1,217.09,282.58Z" transform="translate(-57.02 -106.68)"/><path class="cls-9" d="M209.35,285.09c1-.66,5.73-.84,6,2.9.24,3-.27,9.36-3.92,9.36C206.94,297.35,206.91,286.64,209.35,285.09Z" transform="translate(-57.02 -106.68)"/><path class="cls-9" d="M202.91,284.13c1-.73,5.37-.13,5.62,3.62.18,2.67.45,9.07-3.9,9.05C200.11,296.8,200.84,285.67,202.91,284.13Z" transform="translate(-57.02 -106.68)"/><path class="cls-9" d="M196.19,284.3a3.81,3.81,0,0,1,5.38,3c.54,3.72-.15,9.52-3.44,9.52C193.6,296.81,193.68,285.72,196.19,284.3Z" transform="translate(-57.02 -106.68)"/><path class="cls-9" d="M206,280.51s-4.07,2.07-6,2.86c-2.4.41-3.81.42-4.23,1.34-1.12,2.46,12.28,11.06,16.58,7,.23-2.09,3-3.71,3-3.71s2.88-4.27,1.36-5.51S206.33,282.66,206,280.51Z" transform="translate(-57.02 -106.68)"/><path class="cls-12" d="M236.87,194.5s-23.1,36.32-31.92,86c0,0,6.26,5.12,13.07,2.26,2.09-8.13,15-54.91,18.57-58.39C236.58,224.38,239.29,196.11,236.87,194.5Z" transform="translate(-57.02 -106.68)"/><path class="cls-16" d="M256.07,188.92s-5.71,72.83-6.82,104c-3.1,0-19.5.29-21.36-1.87.31-8,7.74-95.65,9-96.58,2.48-.62,11.45-2.28,11.45-2.28Z" transform="translate(-57.02 -106.68)"/><path class="cls-12" d="M256.07,188.92l-7.75,3.3-7,10.8,7,8.13-8.13,4.18s12.47,19.59,12,26.41c1.53-18.27,3.44-51.71,3.44-51.71" transform="translate(-57.02 -106.68)"/><path class="cls-12" d="M284.35,196s25,34.19,28.74,84.52c0,0-7.8,5.16-12.81,1.61-4.18-33-15.45-55.08-18.69-58.91C281.6,223.22,281.78,197.34,284.35,196Z" transform="translate(-57.02 -106.68)"/><path class="cls-16" d="M265.82,188.48S262.71,258,261.39,293c4.43.64,18.83,1.28,21.76,0,.51-8,2.35-95.92,1.21-97-2.4-.87-11.16-3.44-11.16-3.44Z" transform="translate(-57.02 -106.68)"/><path class="cls-12" d="M265.82,188.48l7.37,4.07L279,204l-7.76,7.38,7.66,5S263.8,233.22,263.57,240C264.62,221.75,265.82,188.48,265.82,188.48Z" transform="translate(-57.02 -106.68)"/><path class="cls-11" d="M274.81,418.78s2.17,2.43,3.5,2.42c1-.2,5.52-1.77,15.79-16.22a7.2,7.2,0,0,0,1.2-2,12.2,12.2,0,0,0-2.38-3.77S280.61,419.24,274.81,418.78Z" transform="translate(-57.02 -106.68)"/><path d="M276.35,404.48s-4.16,10.75-1.55,14.3c.48.65,7.12.55,19.17-17.93a39.79,39.79,0,0,0-5.17-6.48c-1.26,2.05-12.68,10-12.68,10" transform="translate(-57.02 -106.68)"/><path class="cls-11" d="M257.66,203l5.25.25-2.52,65.43s-4,4.64-4.32,4.88-4.42-4.88-4.42-4.88Z" transform="translate(-57.02 -106.68)"/><polygon class="cls-12" points="202.44 92.16 204.44 92.16 206.38 96.31 202.85 99.12 200.27 95.9 202.44 92.16"/><rect class="cls-17" x="190.98" y="47.32" width="4" height="9" rx="1.76" ry="1.76"/><rect class="cls-17" x="213.98" y="47.32" width="4" height="9" rx="1.76" ry="1.76"/><ellipse class="cls-18" cx="193.29" cy="42.55" rx="4.16" ry="1.78"/><ellipse class="cls-18" cx="215.58" cy="42.55" rx="4.16" ry="1.78"/><line class="cls-19" x1="203.98" y1="49.32" x2="203.98" y2="61.32"/><path class="cls-19" d="M252,169.9s.77,5.42,9.29,5.42,8.83-5.42,8.83-5.42" transform="translate(-57.02 -106.68)"/></g></svg>