<?xml version="1.0" encoding="utf-8"?>
<!-- Generator: Adobe Illustrator 21.0.0, SVG Export Plug-In . SVG Version: 6.00 Build 0)  -->
<svg version="1.1" xmlns="http://www.w3.org/2000/svg" xmlns:xlink="http://www.w3.org/1999/xlink" x="0px" y="0px" width="413.5px"
	 height="413.5px" viewBox="0 0 413.5 413.5" style="enable-background:new 0 0 413.5 413.5;" xml:space="preserve">
<style type="text/css">
	.st0{fill:none;stroke:#97C371;stroke-width:3;stroke-miterlimit:10;}
	.st1{display:none;}
	.st2{display:inline;fill:#97C371;}
	.st3{fill:#97C371;}



	.st0, .st1, .st2 {
	
		stroke-dasharray : 2000;
		stroke-dashoffset: 0;
		-webkit-animation: dash 4s linear alternate infinite;
		-moz-animation: dash 4s linear alternate infinite;
		-o-animation: dash 4s linear alternate infinite;
		animation: dash 4s linear alternate infinite;
		
	}
	
	@-webkit-keyframes dash{
		from {
			stroke-dashoffset : 2000;
		} to {
			stroke-dashoffset : 0;
		}
	}

	.st3{
		stroke-dasharray : 2000;
		stroke-dashoffset: 0;
		-webkit-animation: fillshape 4s linear alternate infinite;
		-moz-animation: fillshape 4s linear alternate infinite;
		-o-animation: fillshape 4s linear alternate infinite;
		animation: fillshape 4s linear alternate infinite;
	}
	@-webkit-keyframes fillshape{
		from {
			fill: transparent;
		} to {
			fill:#97C371;
		}
	}

</style>
<g id="Layer_1">
	<g id="Layer_4">
		<circle class="st0" cx="163.4" cy="163.8" r="157.2"/>
	</g>
	<g id="Layer_5">
		<path class="st0" d="M262.1,286.7L381,405.6c8.5,7.9,22.8-2.5,15.3-12.3L275.4,272.4"/>
	</g>
</g>
<g id="Layer_2_1_" class="st1">
	<path class="st2" d="M56.8,162.1C55.2,100.9,96,57,163.1,55.4c10.3-1.3,8.7-15.7-2-15.7c-71.7,0-120,51.7-120,122.3
		C43.1,171.1,55.4,171.8,56.8,162.1z"/>
</g>
<g id="Layer_3">
	<path class="st3" d="M164,21c-0.2,0-0.4,0-0.6,0C84.5,21,20.6,84.9,20.6,163.8c0,0.4,0,0.8,0,1.2h15.8c0-0.4,0-0.8,0-1.2
		c0-70.1,56.9-127,127-127c0.2,0,0.4,0,0.6,0V21z"/>
</g>
</svg>
