<svg xmlns="http://www.w3.org/2000/svg" xmlns:xlink="http://www.w3.org/1999/xlink" viewBox="0 0 457.78 404.63"><defs><style>.cls-1{fill:none;}.cls-2{fill:#e0e0e05e;}.cls-3{fill:#e0e0e0;}.cls-4{fill:#80aa57;}.cls-5{opacity:0.1;}.cls-20,.cls-6{fill:#fff;}.cls-7{fill:#97c371;}.cls-8{fill:#ffa8a7;}.cls-9{fill:#37474f;}.cls-10{fill:#f0f0f0;}.cls-11{fill:#27debf;}.cls-12{opacity:0.5;}.cls-13{fill:#f28f8f;}.cls-14{fill:#263238;}.cls-15{clip-path:url(#clip-path);}.cls-16{fill:#383838;}.cls-17{clip-path:url(#clip-path-2);}.cls-18{fill:#94bf62;}.cls-19{opacity:0.2;}.cls-20{opacity:0.3;}.cls-21{clip-path:url(#clip-path-3);}.cls-22{fill:#474747;}</style><clipPath id="clip-path" transform="translate(-18.79 -51.61)"><path id="_Clipping_Path_" data-name="&lt;Clipping Path&gt;" class="cls-1" d="M226.16,327.94c.21-.12.45-.29.71-.48l0,0,0,0a29.17,29.17,0,0,0,5.88-5.24c.88-1,1.68-1.8,2.57-2.68l.14-.14.26-.25.12-.11c.44-.42.88-.82,1.33-1.19l8.29,4.95h0a1.71,1.71,0,0,1,.44.4h0a2.62,2.62,0,0,1,.18.27l0,.06.14.27,0,.1.12.3,0,.12c0,.11.07.22.11.35l0,.14c0,.13.07.27.1.42l0,.13q.06.27.11.58v0q.06.34.11.72v.06q0,.34.08.72l0,.24c0,.2,0,.41.06.62l0,.32c0,.2,0,.41,0,.62l0,.39c0,.21,0,.42,0,.64s0,.29,0,.44,0,.47,0,.72,0,.29,0,.44,0,.56,0,.85c0,.13,0,.26,0,.4,0,.43,0,.88,0,1.35V357.4l82-47.36V297.11c0-.08,0-.15,0-.23V200.62h0l-17.2,9.93-.32.19-.2.12h0L308.36,213l0,0,0,0a42.4,42.4,0,0,0-3.91,2.92l-.08.07-.21.17c-.31.27-.6.54-.89.81l-.08.07-.38.36c-.27.26-.53.53-.78.8l-.49.53c-.24.27-.48.54-.71.82l-.48.6c-.22.29-.45.58-.65.87l-.36.54-.09.13-.09.14c-.17.26-.34.51-.5.78s-.22.39-.33.59l-.08.15c-.31.56-.6,1.15-.87,1.75l-.07.15c-.11.25-.23.5-.33.76s-.2.53-.29.79l-.07.2c-.11.31-.21.61-.31.93s-.19.65-.28,1-.17.67-.25,1-.14.66-.2,1-.13.72-.18,1.09v.07c0,.3-.09.61-.13.92s-.08.79-.12,1.22l0,.24c0,.23,0,.46-.05.69,0,.49,0,1-.05,1.72v.1c0,.12,0,.25,0,.38a29.7,29.7,0,0,0,1.8,10.8,21.83,21.83,0,0,1,1.39,7.05v.11c0,.33,0,.64,0,.91a15.5,15.5,0,0,1-1.84,7,12.41,12.41,0,0,1-4.43,5h0a6.26,6.26,0,0,1-.94.44l-.16.06a4.55,4.55,0,0,1-.88.2l-.15,0a3.52,3.52,0,0,1-.86,0h-.06a3.1,3.1,0,0,1-.82-.26h0l0,0h0l-.08,0,0,0L279,263.48c0-.26,0-.51.07-.78s.07-.6.11-.9c.08-.62.17-1.22.26-1.8s.18-1.06.29-1.57l.16-.78c.23-1.1.49-2.22.77-3.4a36.16,36.16,0,0,0,1.36-9.38c0-3-.26-4.35-1.07-4.83l-9.86-5.69L254.35,244l-6.89-4v8l-6,3.49h0l-1.92,1.11,8,4.6h0v11.88h0v11.06c0,6.44-.49,10.74-1.49,13.14-.7,1.66-1.77,2.7-4.24,4.12a12.84,12.84,0,0,1-6.45,1.91c-.7.05-1.4.13-2.07.22l-.82.14-.79.17c-.48.12-1,.26-1.48.44l-.1,0-.29.1a20.68,20.68,0,0,0-2.21,1l-.27.13-.06,0-.12.06c-.27.12-.58.26-.91.45a23.41,23.41,0,0,0-7.36,7.25c-.48.71-.93,1.44-1.35,2.18l-.18.33c-.36.66-.72,1.33-1,2l-.07.16a36,36,0,0,0-1.82,4.75h0a29.39,29.39,0,0,0-1,4.48l8.76,5.06A4,4,0,0,0,226.16,327.94Z"/></clipPath><clipPath id="clip-path-2" transform="translate(-18.79 -51.61)"><path id="_Clipping_Path_2" data-name="&lt;Clipping Path&gt;" class="cls-1" d="M247.47,248V225l.23-7v-.14c0-.17,0-.32,0-.48l0-.23c0-.44.08-.87.13-1.3a5.27,5.27,0,0,1,.08-.63l0-.2c0-.41.11-.83.15-1.22s.08-.53.13-.78c.08-.44.15-.87.23-1.29l0-.14.11-.52c.12-.58.27-1.14.42-1.7,0,0,0-.11,0-.2.17-.63.38-1.28.61-1.93a2,2,0,0,1,.09-.27c.2-.53.42-1.07.64-1.59a2.93,2.93,0,0,1,.16-.33l0-.08c.23-.48.46-1,.72-1.44l.2-.34a16,16,0,0,1,1-1.57v0a21.58,21.58,0,0,1,2.62-3.17l0,0,.07-.07c.41-.41.88-.83,1.38-1.24l.11-.1a25.31,25.31,0,0,1,3.36-2.31,21.72,21.72,0,0,1,4-1.85,16.26,16.26,0,0,1,2.15-.55,24.08,24.08,0,0,1,2.73-.31,13.23,13.23,0,0,0,5.8-1.51l0,0,0,0a7.37,7.37,0,0,0,.79-.39,12.29,12.29,0,0,0,4.43-5,16.62,16.62,0,0,0,.79-1.73,14.37,14.37,0,0,0,1-5.23c0-.31,0-.59,0-.87a2.1,2.1,0,0,0,0-.23,4,4,0,0,0-.07-.57,1.78,1.78,0,0,1,0-.23c0-.17-.09-.36-.13-.51s0-.14-.06-.2l-.18-.49-.07-.14a3.76,3.76,0,0,0-.24-.46.42.42,0,0,0-.07-.1,5,5,0,0,0-.3-.43s0,0,0-.06l-.38-.38,0,0a2.54,2.54,0,0,0-.46-.33h0l-9.09-5.25a53.69,53.69,0,0,0-4.13,4.13,26.27,26.27,0,0,1-6.47,5.56c-1.57.9-2.86,1.65-3.79,1.11l-8.78-5.07c-.06-2-.07-4.17,0-6.47V147.77l-21.28-12.29L302,91.65l27.58,15.93,0,102.25-17.19,9.92c-10.48,6.05-10.48,8.77-10.48,13.7a20.93,20.93,0,0,0,1.37,7.82,29.92,29.92,0,0,1,1.81,9.4c0,.49.07,1.09.07,1.67A32.83,32.83,0,0,1,300.64,268l-17.39,10a7.78,7.78,0,0,1-1.46-1.17c-1.94-2-3-5.36-3-9.44,0-.54,0-1.13.08-1.76,0,0,0,0,0-.06,0-1,.1-1.93.21-3,0-.3.07-.6.11-.89.08-.63.16-1.23.26-1.8s.18-1.06.28-1.57q.09-.41.16-.78c.24-1.11.49-2.22.79-3.41a36.85,36.85,0,0,0,1.36-9.38c0-3-.26-4.35-1.08-4.84l-9.85-5.69L254.35,244Z"/></clipPath><clipPath id="clip-path-3" transform="translate(-18.79 -51.61)"><path id="_Clipping_Path_3" data-name="&lt;Clipping Path&gt;" class="cls-1" d="M172.3,291.39,151,279.11l.08-87.22a24,24,0,0,1,2.43-10h0c1.82-3.82,4.48-7.11,7.44-8.83l65.22-37.57,21.28,12.29v19.17l0,6.47,8.78,5.07c.94.54,2.22-.19,3.79-1.1a26.27,26.27,0,0,0,6.47-5.56,54.61,54.61,0,0,1,4.13-4.13l9.09,5.25h0a1.36,1.36,0,0,1,.2.13.09.09,0,0,1,.07,0,.91.91,0,0,1,.22.18,3.46,3.46,0,0,1,.79,1,1.52,1.52,0,0,1,.18.33,1.24,1.24,0,0,1,.12.26,6.13,6.13,0,0,1,.38,1.24,1.49,1.49,0,0,1,0,.2c0,.25.08.53.11.81s0,.57,0,.87a7.54,7.54,0,0,1,0,.84c0,.29,0,.59-.08.87s-.09.58-.15.87-.09.43-.15.66a3.43,3.43,0,0,1-.13.48,15.61,15.61,0,0,1-1.29,3.25,12.29,12.29,0,0,1-4.43,5,7.37,7.37,0,0,1-.79.39l0,0,0,0a13.23,13.23,0,0,1-5.8,1.51c-.64,0-1.28.1-2,.2l-.73.11a17.37,17.37,0,0,0-5,1.8c-.18.09-.36.18-.54.29l-.57.32a25.31,25.31,0,0,0-3.36,2.31l-.11.1c-.49.41-1,.83-1.38,1.24l-.07.07,0,0a21.58,21.58,0,0,0-2.62,3.17v0a16,16,0,0,0-1,1.57l-.2.34c-.26.48-.49,1-.72,1.44l0,.08a2.93,2.93,0,0,0-.16.33c-.22.52-.45,1.05-.64,1.59a2,2,0,0,0-.09.27c-.23.64-.44,1.3-.61,1.93,0,.09,0,.17,0,.2-.15.56-.29,1.12-.42,1.7l-.11.52,0,.14c-.08.42-.15.85-.23,1.29,0,.25-.09.52-.13.78s-.11.81-.15,1.22l0,.2a5.27,5.27,0,0,0-.08.63c-.05.42-.09.85-.13,1.3l0,.23c0,.16,0,.31,0,.48v.14l-.23,7v23l-6,3.48-1.92,1.11-3.77,2.16-5.49,3.18c-3.83,2.2-6.46,3.33-8.1,3.45a2.82,2.82,0,0,1-.76,0,1.74,1.74,0,0,1-.49-.19v0h0l-7.83-4.58h0a.69.69,0,0,1,0-.11c.09-1,.21-2,.35-2.9.09-.58.19-1.14.29-1.66.3-1.64.66-3.11,1-4.51a38.88,38.88,0,0,0,1.37-8.53v-.14c0-.47,0-.78.05-1.07,0-2.23-.66-4-1.84-4.84a1.06,1.06,0,0,0-.17-.12l-.16-.09h0l-8.75-5.05a32,32,0,0,0-5.78,9.11c-.2.45-.38.91-.56,1.36s-.34.93-.5,1.39l-.07.2c-.16.47-.3.94-.44,1.41s-.26,1-.37,1.42-.15.66-.22,1-.13.65-.18,1a17.71,17.71,0,0,0-.26,2c0,.36-.08.73-.1,1.09s0,.93-.05,1.38,0,.6,0,.89,0,.55.05.81c0,.43,0,.83.07,1.22a26.08,26.08,0,0,0,.31,2.7c.05.35.11.71.18,1a34.39,34.39,0,0,0,1.25,4.42,21.61,21.61,0,0,1,1.23,5l0,.19v.15l0,.21c.06.74.09,1.47.09,2.23,0,4.93,0,7.64-10.48,13.7Z"/></clipPath></defs><title>team</title><g id="Floor"><path id="Floor-2" data-name="Floor" class="cls-2" d="M411.06,248.66c87.34,47.49,87.34,124.47,0,172s-229,47.49-316.3,0-87.34-124.47,0-172S323.71,201.17,411.06,248.66Z" transform="translate(-18.79 -51.61)"/></g><g id="Shadows"><path id="Shadow" class="cls-3" d="M399,274c18.22,10.52,18.22,27.57,0,38.09s-47.75,10.52-66,0-18.22-27.57,0-38.09S380.82,263.52,399,274Z" transform="translate(-18.79 -51.61)"/><path id="Shadow-2" data-name="Shadow" class="cls-3" d="M146.73,342.31c18.22,10.52,18.22,27.57,0,38.08s-47.75,10.52-66,0-18.22-27.57,0-38.09S128.52,331.8,146.73,342.31Z" transform="translate(-18.79 -51.61)"/></g><g id="Plants"><g id="Plants-2" data-name="Plants"><g id="_Group_" data-name="&lt;Group&gt;"><g id="_Group_2" data-name="&lt;Group&gt;"><path id="_Path_" data-name="&lt;Path&gt;" class="cls-4" d="M436.14,283.65l-6.74-3.85s-3.23-17.81-.81-33.11c3.4-21.52,18-28.94,23.37-26.8s6.57,8.51-3,20.95C443.25,248.17,436,263.67,436.14,283.65Z" transform="translate(-18.79 -51.61)"/></g><g id="_Group_3" data-name="&lt;Group&gt;" class="cls-5"><path id="_Path_2" data-name="&lt;Path&gt;" d="M436.14,283.65l-6.74-3.85s-3.23-17.81-.81-33.11c3.4-21.52,18-28.94,23.37-26.8s6.57,8.51-3,20.95C443.25,248.17,436,263.67,436.14,283.65Z" transform="translate(-18.79 -51.61)"/></g><g id="_Group_4" data-name="&lt;Group&gt;"><path id="_Path_3" data-name="&lt;Path&gt;" class="cls-6" d="M432.93,274.89H433a.48.48,0,0,0,.43-.53c-2.2-20.22,6.54-42,15.9-50.67a.48.48,0,1,0-.65-.71c-9.53,8.78-18.43,31-16.2,51.48A.48.48,0,0,0,432.93,274.89Z" transform="translate(-18.79 -51.61)"/></g></g><g id="_Group_5" data-name="&lt;Group&gt;"><g id="_Group_6" data-name="&lt;Group&gt;"><path id="_Path_4" data-name="&lt;Path&gt;" class="cls-7" d="M454.83,294.44c1.06.61,3.26-.73,4.1-1.29a10.16,10.16,0,0,0,3.38-3.88,9.52,9.52,0,0,0,.85-5.72,22.52,22.52,0,0,0-.72-3l-.85-3a7.48,7.48,0,0,1-.43-3c.26-2,2-3.43,3.68-4.65,1.8-1.35,3.68-3.13,3.67-5.56a8.55,8.55,0,0,0-2.14-5.09c-1.16-1.47-2.54-2.77-3.59-4.32a6,6,0,0,1-1.22-3.78,6.22,6.22,0,0,1,.82-2.36,33.42,33.42,0,0,0,2.58-4.73c.59-1.7.51-3.81-.82-5a5.57,5.57,0,0,0-4.18-1,9.59,9.59,0,0,0-3.89,1.37c-3.86,2.14-6.06,6.71-10.15,8.36a41,41,0,0,1-5,1.21,6.11,6.11,0,0,0-4.09,2.8c-1.5,3,1.29,6.7.23,9.89-.93,2.82-3.67,3.9-5.21,6.44a6,6,0,0,0-.72,3.69,17.7,17.7,0,0,0,1.56,6.24,44.36,44.36,0,0,0,3.42,5.62C436.2,283.71,454.66,294.35,454.83,294.44Z" transform="translate(-18.79 -51.61)"/></g><g id="_Group_7" data-name="&lt;Group&gt;"><path id="_Path_5" data-name="&lt;Path&gt;" class="cls-6" d="M443.89,288.62h0a.48.48,0,0,0,.47-.5c-.79-19.07,8.19-40.12,14.72-46.24a.48.48,0,0,0-.66-.7c-6.66,6.24-15.83,27.64-15,47A.48.48,0,0,0,443.89,288.62Z" transform="translate(-18.79 -51.61)"/></g><g id="_Group_8" data-name="&lt;Group&gt;"><path id="_Path_6" data-name="&lt;Path&gt;" class="cls-6" d="M446.75,266.09l.14,0a64.49,64.49,0,0,1,13.84-2.23.48.48,0,0,0,.46-.5.47.47,0,0,0-.5-.46,65.63,65.63,0,0,0-14.08,2.27.48.48,0,0,0,.14.94Z" transform="translate(-18.79 -51.61)"/></g></g></g><g id="Plants-3" data-name="Plants"><g id="_Group_9" data-name="&lt;Group&gt;"><g id="_Group_10" data-name="&lt;Group&gt;"><path id="_Path_7" data-name="&lt;Path&gt;" class="cls-4" d="M48.43,305.31l6.7-3.87s3.25-17.8.84-33.11c-3.4-21.52-18-28.94-23.37-26.8s-6.57,8.51,3,20.95C41.3,269.81,48.61,285.34,48.43,305.31Z" transform="translate(-18.79 -51.61)"/></g><g id="_Group_11" data-name="&lt;Group&gt;" class="cls-5"><path id="_Path_8" data-name="&lt;Path&gt;" d="M48.43,305.31l6.7-3.87s3.25-17.8.84-33.11c-3.4-21.52-18-28.94-23.37-26.8s-6.57,8.51,3,20.95C41.3,269.81,48.61,285.34,48.43,305.31Z" transform="translate(-18.79 -51.61)"/></g><g id="_Group_12" data-name="&lt;Group&gt;"><path id="_Path_9" data-name="&lt;Path&gt;" class="cls-6" d="M52,304.28h0a.5.5,0,0,1-.47-.53c1.58-30-2.64-47.07-14.12-57.19a.5.5,0,1,1,.66-.75c11.74,10.35,16.06,27.69,14.46,58A.5.5,0,0,1,52,304.28Z" transform="translate(-18.79 -51.61)"/></g></g><g id="_Group_13" data-name="&lt;Group&gt;"><path id="_Path_10" data-name="&lt;Path&gt;" class="cls-7" d="M50.46,304.13c.14-6.44-3.61-27.77-16.23-35.53s-18.75,1.9-13.64,7.77c3.75,4.29,10.73,7.39,17.29,16.26C42.4,298.73,45,307.3,45,307.3Z" transform="translate(-18.79 -51.61)"/><g id="_Group_14" data-name="&lt;Group&gt;"><path id="_Path_11" data-name="&lt;Path&gt;" class="cls-6" d="M48.2,306.63a.5.5,0,0,1-.5-.46c-1.21-16.26-10.44-30.85-22.45-35.48a.5.5,0,0,1,.36-.93C38,274.52,47.46,289.46,48.7,306.09a.5.5,0,0,1-.46.54Z" transform="translate(-18.79 -51.61)"/></g></g></g></g><g id="Characters"><g id="Character_2" data-name="Character 2"><g id="Character_boy" data-name="Character boy"><g id="_Group_15" data-name="&lt;Group&gt;"><g id="_Group_16" data-name="&lt;Group&gt;"><path id="_Path_12" data-name="&lt;Path&gt;" class="cls-8" d="M302.48,114.45c1.52,1.26,3.26,1.9,5.27,3.85a11.78,11.78,0,0,0,4.65,3.23c2.31.91,4.48.64,10.88-.38,7.83-1.25,11.2-2.57,14.58-5.45,4-3.37,12.79-13.54,17.06-17.53,4.52-4.22,10.73-2.59,10.73-2.59a64.81,64.81,0,0,1-8.48,17.58c-3.42,4.87-9.81,9.53-12.71,11.94-4.63,3.85-7.09,5.37-17.25,6.14-7.67.58-8.69.76-15,.58-2.27-.07-3.68-.09-7.4-.4a21.74,21.74,0,0,1-4.77-.83,17.63,17.63,0,0,1-5-2,13.47,13.47,0,0,1-4.74-5.33,8.48,8.48,0,0,1-.88-3.83,5.65,5.65,0,0,1,1.38-3.63,1.56,1.56,0,0,1,.64-.47,1.88,1.88,0,0,1,1.38.3c2.41,1.23,4.82,2.93,7.34,3.9,2.13.82,3.74,1.1,3.58.68s-1.44-.82-2.76-2.31-1.65-3.56-.8-4.21S301,113.19,302.48,114.45Z" transform="translate(-18.79 -51.61)"/></g><path id="_Path_13" data-name="&lt;Path&gt;" class="cls-3" d="M367.47,95.54a11.73,11.73,0,0,0-7.77-.84c-4,1.14-7.12,3.72-10.89,7.77s-10.13,10.59-10.13,10.59,3.13,7.93,10.17,10.75l14.76-13.65Z" transform="translate(-18.79 -51.61)"/></g><g id="Character_boy-2" data-name="Character boy"><g id="_Group_17" data-name="&lt;Group&gt;"><rect id="_Rectangle_" data-name="&lt;Rectangle&gt;" class="cls-8" x="361.42" y="225.14" width="8.95" height="15.32"/><polygon id="_Path_14" data-name="&lt;Path&gt;" class="cls-8" points="345.61 228.99 336.67 229.3 336.22 213.09 345.61 212.78 345.61 228.99"/><path id="_Path_15" data-name="&lt;Path&gt;" class="cls-9" d="M393,162.37c0,8.54-1.51,58.24-1.51,58.24.21,2.46,2.58,6.83,2.76,15.69.27,12.84-4.68,48.11-4.68,48.11a11.77,11.77,0,0,1-10,.2s-4.06-47.8-5.66-60.51c-1.4-11.09-3.77-41.23-3.77-41.23l-4.21,36.22A50.86,50.86,0,0,1,367,233.29c-.42,5.88-2.07,42.29-2.07,42.29a12.21,12.21,0,0,1-10.33.79s-6.31-51.9-6.41-57.3c-.12-6.15,2.34-68.94,2.34-68.94Z" transform="translate(-18.79 -51.61)"/><path id="_Path_16" data-name="&lt;Path&gt;" class="cls-10" d="M387.09,99.51A8.23,8.23,0,0,1,391.4,104a21,21,0,0,1,1.31,7.73v17.53l.26,33.1c-12.84,6.77-29.17,7.22-42.87-2.78,0,0,.76-42.61.76-49.58q0-.47,0-1c.5-10,10.3-16.79,20-14.3l8.11,2.09,8.14,2.68Z" transform="translate(-18.79 -51.61)"/><g id="_Group_18" data-name="&lt;Group&gt;"><g id="_Group_19" data-name="&lt;Group&gt;"><circle id="_Path_17" data-name="&lt;Path&gt;" class="cls-11" cx="345.33" cy="15.29" r="12.3"/><circle id="_Path_18" data-name="&lt;Path&gt;" class="cls-12" cx="345.33" cy="15.29" r="12.3"/><path id="_Path_19" data-name="&lt;Path&gt;" class="cls-11" d="M385.37,75.64s-2,9.36-2.79,10.9a4.24,4.24,0,0,1-2.45,2l.14-6.59Z" transform="translate(-18.79 -51.61)"/><path id="_Path_20" data-name="&lt;Path&gt;" class="cls-12" d="M385.37,75.64s-2,9.36-2.79,10.9a4.24,4.24,0,0,1-2.45,2l.14-6.59Z" transform="translate(-18.79 -51.61)"/><path id="_Path_21" data-name="&lt;Path&gt;" class="cls-11" d="M382.87,62.23a4.61,4.61,0,0,1,3.82,1.34c1.64,1.68.72,6.93-1.32,12.07l-3.75.43Z" transform="translate(-18.79 -51.61)"/><path id="_Path_22" data-name="&lt;Path&gt;" class="cls-12" d="M382.87,62.23a4.61,4.61,0,0,1,3.82,1.34c1.64,1.68.72,6.93-1.32,12.07l-3.75.43Z" transform="translate(-18.79 -51.61)"/><path id="_Path_23" data-name="&lt;Path&gt;" class="cls-8" d="M380.49,76.08c.75.45,1.83-1,2.75-2s4-2.3,5.47.89-1.33,7.53-3.72,8.28c-4.11,1.29-4.73-1.35-4.73-1.35L380,97.22h0c-5.11,6.55-19.3,6-13.39-.85V91.86a25.92,25.92,0,0,1-5.54.28c-3-.47-4.93-2.85-5.84-6.13-1.47-5.26-2-9.5-.78-19.84,1.37-11.33,14.55-11.45,21.67-7S380.49,76.08,380.49,76.08Z" transform="translate(-18.79 -51.61)"/><path id="_Path_24" data-name="&lt;Path&gt;" class="cls-11" d="M380.49,77.34c.38,0,1.82-2.38,2.75-3.23,1.3-1.18-.38-11.88-.38-11.88a5.07,5.07,0,0,0-1.25-5.41c-1.78-2-4.75-2.17-9.82-3-2.66-.42-6.7-1.16-9.36-1.66-3.18-.59-5.8-1.21-8,.73a5.63,5.63,0,0,0-1.56,6.31A5.86,5.86,0,0,0,356,62.15s1.38,1.23,6.2,1.81a71.18,71.18,0,0,0,13.34-.25c1.4-.19,1.69,1.16,2.45,4.86C378.67,71.82,379.22,77.32,380.49,77.34Z" transform="translate(-18.79 -51.61)"/><path id="_Path_25" data-name="&lt;Path&gt;" class="cls-12" d="M380.49,77.34c.38,0,1.82-2.38,2.75-3.23,1.3-1.18-.38-11.88-.38-11.88a5.07,5.07,0,0,0-1.25-5.41c-1.78-2-4.75-2.17-9.82-3-2.66-.42-6.7-1.16-9.36-1.66-3.18-.59-5.8-1.21-8,.73a5.63,5.63,0,0,0-1.56,6.31A5.86,5.86,0,0,0,356,62.15s1.38,1.23,6.2,1.81a71.18,71.18,0,0,0,13.34-.25c1.4-.19,1.69,1.16,2.45,4.86C378.67,71.82,379.22,77.32,380.49,77.34Z" transform="translate(-18.79 -51.61)"/><path id="_Path_26" data-name="&lt;Path&gt;" class="cls-11" d="M382.86,63.06l4.55-2.44A2.51,2.51,0,0,0,384,59.48,2.71,2.71,0,0,0,382.86,63.06Z" transform="translate(-18.79 -51.61)"/><path id="_Path_27" data-name="&lt;Path&gt;" class="cls-12" d="M382.86,63.06l4.55-2.44A2.51,2.51,0,0,0,384,59.48,2.71,2.71,0,0,0,382.86,63.06Z" transform="translate(-18.79 -51.61)"/><path id="_Path_28" data-name="&lt;Path&gt;" class="cls-13" d="M366.59,91.86s6.75-1.36,9.11-2.61A7.77,7.77,0,0,0,379,86a10.63,10.63,0,0,1-1.85,3.81c-1.73,2.21-10.52,3.83-10.52,3.83Z" transform="translate(-18.79 -51.61)"/></g><g id="_Group_20" data-name="&lt;Group&gt;"><ellipse id="_Path_29" data-name="&lt;Path&gt;" class="cls-14" cx="368.27" cy="74.39" rx="1.35" ry="1.41" transform="translate(-18.99 -50.6) rotate(-0.16)"/><path id="_Path_30" data-name="&lt;Path&gt;" class="cls-14" d="M368.35,69.29l2.89,1.6a1.73,1.73,0,0,0-.67-2.3A1.61,1.61,0,0,0,368.35,69.29Z" transform="translate(-18.79 -51.61)"/><path id="_Path_31" data-name="&lt;Path&gt;" class="cls-13" d="M367.2,83.73l-3.09,1.16a1.62,1.62,0,0,0,2.1,1A1.73,1.73,0,0,0,367.2,83.73Z" transform="translate(-18.79 -51.61)"/><path id="_Path_32" data-name="&lt;Path&gt;" class="cls-14" d="M355.25,70.41l2.64-2A1.6,1.6,0,0,0,355.6,68,1.75,1.75,0,0,0,355.25,70.41Z" transform="translate(-18.79 -51.61)"/><ellipse id="_Path_33" data-name="&lt;Path&gt;" class="cls-14" cx="357.42" cy="74" rx="1.35" ry="1.41" transform="translate(-18.99 -50.6) rotate(-0.16)"/><polygon id="_Path_34" data-name="&lt;Path&gt;" class="cls-13" points="344.17 21.12 343.72 29.25 339.48 27.8 344.17 21.12"/></g></g><path id="_Path_35" data-name="&lt;Path&gt;" class="cls-14" d="M380.21,287.64v-1.28c-.86.37-2.85,8-6.4,11.2-2.82,2.57-6.67,5.55-7.65,8.42s5.36,4.63,8,4.17c3.06-.54,8.37-2.7,9.71-4.7s2-5,3-6.42,3.58-3.1,4.17-4.8c.32-.93-.06-3-.51-4.7s-.86-3.32-1.4-3.17c0,.19,0,1,0,1a7.08,7.08,0,0,1-4.47,1.51C383.37,288.9,380.2,288.64,380.21,287.64Z" transform="translate(-18.79 -51.61)"/><path id="_Path_36" data-name="&lt;Path&gt;" class="cls-14" d="M355.36,278.15c-.46,0-.84.67-1.87,1.78a19.55,19.55,0,0,1-5.26,3.79c-3.35,1.68-9.86,4.26-12.81,5.59-1.84.83-1.76,3.05.15,4.32s6.5,2.18,12,.94c3-.67,6.92-3.45,9.4-3.3s7.11.11,8.94-1.15,1.1-4,.58-6.27c-.56-2.52-1.27-6.46-2.1-6.29v.87c-1.08,1.63-6.63,2.29-9,1.09Z" transform="translate(-18.79 -51.61)"/><path id="_Path_37" data-name="&lt;Path&gt;" class="cls-14" d="M370.14,182.85a33.14,33.14,0,0,1-12.46-7.14s2.4,4.5,9.55,8.69l-1,31.63Z" transform="translate(-18.79 -51.61)"/></g></g></g></g><g id="Character_1" data-name="Character 1"><g id="_Group_21" data-name="&lt;Group&gt;"><path id="_Rectangle_2" data-name="&lt;Rectangle&gt;" class="cls-14" d="M85.95,73.73h3.19A17.91,17.91,0,0,1,107,91.64v38a0,0,0,0,1,0,0H68a0,0,0,0,1,0,0v-38A17.91,17.91,0,0,1,85.95,73.73Z"/></g><g id="_Group_22" data-name="&lt;Group&gt;"><path id="_Path_38" data-name="&lt;Path&gt;" class="cls-8" d="M103.45,368.07c-.86-.77-1.72-1.51-2.5-2.23-2.43-2.22-4.28-6-5.35-8.54a12,12,0,0,1-.92-4.61v-5H85.91v8.13h0V356l0,0c.42,1.82,4.45,6.67,6.73,9.83,1.53,2.12,4.44,4.81,7.92,5.28C103.9,371.61,105.59,370.57,103.45,368.07Z" transform="translate(-18.79 -51.61)"/><path id="_Path_39" data-name="&lt;Path&gt;" class="cls-8" d="M128.78,354.73a2.07,2.07,0,0,0,.63-.56c.68-.94.14-1.45-.35-2.2a19.46,19.46,0,0,1-1.51-3.28c-.41-1-.94-2.78-.94-2.78s0-1.31,0-1.83v-5h-8.77v8.35l0,0c.45,1.95,2.22,3.83,3.38,5.38.9,1.2,3.22,1.81,4.62,2.11a5.26,5.26,0,0,0,1.89.12A2.77,2.77,0,0,0,128.78,354.73Z" transform="translate(-18.79 -51.61)"/><path id="_Path_40" data-name="&lt;Path&gt;" class="cls-9" d="M87.65,219.86c-6.8,14.85.25,67.15.25,67.15-.2,2.41-3,7.15-4,17.75-1.21,12.53,1.9,44,1.9,44a9.49,9.49,0,0,0,8.86.35s8.36-47.38,9.93-59.84c1.37-10.87,4-34.78,4-34.78l5.23,34.76A64.64,64.64,0,0,0,111.47,300c-.71,7.33,6.39,41.44,6.39,41.44s3,1.11,8.77.26c0,0,2.51-45.27,3.17-54.1,1.11-14.82-.58-61.12-3.3-69.9Z" transform="translate(-18.79 -51.61)"/><path id="_Path_41" data-name="&lt;Path&gt;" class="cls-14" d="M108.61,254.49l2.21-13.79s9.34-1.93,13.57-5.91c0,0-4.44,5.53-11,7.34l-2.48,10.62,2.22,31.49Z" transform="translate(-18.79 -51.61)"/><path id="_Path_42" data-name="&lt;Path&gt;" class="cls-14" d="M94.7,354.5v-1.27c.84.37,2.81,7.83,6.29,11,2.77,2.53,6.55,5.45,7.52,8.27s-5.27,4.55-7.86,4.09c-3-.53-8.23-2.65-9.54-4.62s-1.92-4.86-3-6.3-3.52-3-4.09-4.71c-.32-.92.06-2.92.5-4.61s.85-3.26,1.38-3.12c0,.19,0,1,0,1a7,7,0,0,0,4.39,1.49C91.59,355.74,94.71,355.48,94.7,354.5Z" transform="translate(-18.79 -51.61)"/><path id="_Path_43" data-name="&lt;Path&gt;" class="cls-14" d="M126.61,345.92c.46,0,.95.71,2,1.8a19.2,19.2,0,0,0,5.17,3.72c3.29,1.65,9.69,4.18,12.59,5.49,1.81.81,1.72,3-.15,4.24s-6.39,2.14-11.81.93c-3-.66-6.8-3.39-9.23-3.24s-7,.11-8.78-1.13-1.08-3.88-.57-6.15c.55-2.48,1.25-6.35,2.07-6.18v.85c1.06,1.6,6.51,2.25,8.83,1.07Z" transform="translate(-18.79 -51.61)"/></g><g id="_Group_23" data-name="&lt;Group&gt;"><path id="_Path_44" data-name="&lt;Path&gt;" class="cls-8" d="M114.15,167.88a12.56,12.56,0,0,1,11.16,5c3.51,4.58,12.75,23.34,12.75,23.34s20.29-1.35,21.26-2.53.43-3.55.16-4.86-.71-4.21-1-5c-.51-1.42,1.6-1,2.84.29s1.79,3.93,2.41,4.38,5.33-5,7.61-7.58,3.36-4.44,4.89-3.36c1.1.78.4,2.33-1.24,4.57a28.64,28.64,0,0,0-2.12,3c-.2.4.41.72.65.94.44.4,1.23,1,1.29,1.67a5.4,5.4,0,0,0,.06,1c.21.75,1.14,1.09,1.4,1.82.19.53,0,1.12.09,1.67.07.35.26.68.33,1a2.47,2.47,0,0,1-.73,1.92c-1.61,1.91-3.8,2.64-5.91,3.81-1.75,1-3.56,1.39-5.57,2.29s-26.68,7.28-30.38,5.24-17.84-24.27-17.84-24.27C110.74,173.06,114.15,167.88,114.15,167.88Z" transform="translate(-18.79 -51.61)"/><path id="_Path_45" data-name="&lt;Path&gt;" class="cls-7" d="M99.64,168.28h0c-8.71.6-9.33,4.81-11.51,9.41-1.66,3.5-1.11,7.68.15,11.35l5.51,17.45s-2.84,6.87-6.14,13.37c15.24,8.51,34.27,4,38.85-2.17.19-1.32-1-11.61-1.71-18.33,2.68-6.73,3.39-11,2.26-15.45-2.1-8.26-10.26-16.31-13.87-16Z" transform="translate(-18.79 -51.61)"/><g id="_Group_24" data-name="&lt;Group&gt;"><path id="_Path_46" data-name="&lt;Path&gt;" class="cls-14" d="M85.88,133.39l2.64,4.24a2.42,2.42,0,0,1-3.44-.7A2.62,2.62,0,0,1,85.88,133.39Z" transform="translate(-18.79 -51.61)"/><g id="_Group_25" data-name="&lt;Group&gt;"><path id="_Path_47" data-name="&lt;Path&gt;" class="cls-8" d="M119.43,133.23c2.06,1.22,4.61,6.4,4.36,17.26-.21,9.21-3.2,11.48-4.7,12.14s-4.39.26-7.2-.21v5.52s3.88,4.51,3.64,7-5.61,3.13-9.24.66a23.51,23.51,0,0,1-6-6.24V156s-1.9,2.53-5,.47-3.22-7.16-1.42-9,5.69-1.25,6.42,1.28c0,0,4.48.16,10.45-3.11A16.77,16.77,0,0,0,119.43,133.23Z" transform="translate(-18.79 -51.61)"/></g><g id="_Group_26" data-name="&lt;Group&gt;"><ellipse id="_Path_48" data-name="&lt;Path&gt;" class="cls-14" cx="111.31" cy="148.23" rx="1.16" ry="1.2" transform="translate(-25.69 -46.17) rotate(-2.72)"/></g><g id="_Group_27" data-name="&lt;Group&gt;"><path id="_Path_49" data-name="&lt;Path&gt;" class="cls-13" d="M113.81,156l2.69.86a1.39,1.39,0,0,1-1.75,1A1.48,1.48,0,0,1,113.81,156Z" transform="translate(-18.79 -51.61)"/></g><g id="_Group_28" data-name="&lt;Group&gt;"><path id="_Path_50" data-name="&lt;Path&gt;" class="cls-14" d="M122,144.62,119.62,143a1.37,1.37,0,0,1,1.95-.4A1.5,1.5,0,0,1,122,144.62Z" transform="translate(-18.79 -51.61)"/></g><g id="_Group_29" data-name="&lt;Group&gt;"><ellipse id="_Path_51" data-name="&lt;Path&gt;" class="cls-14" cx="120.27" cy="147.39" rx="1.16" ry="1.2" transform="translate(-25.63 -45.75) rotate(-2.71)"/></g><g id="_Group_30" data-name="&lt;Group&gt;"><polygon id="_Path_52" data-name="&lt;Path&gt;" class="cls-13" points="96.98 95.07 97.17 102.04 100.83 100.9 96.98 95.07"/></g><g id="_Group_31" data-name="&lt;Group&gt;"><path id="_Path_53" data-name="&lt;Path&gt;" class="cls-13" d="M111.89,162.41c-3-.39-9.05-2.14-10-4.55a6.23,6.23,0,0,0,2.14,3.07c1.82,1.56,7.86,3.32,7.86,3.32Z" transform="translate(-18.79 -51.61)"/></g></g><path id="_Path_54" data-name="&lt;Path&gt;" class="cls-5" d="M103.82,221.51c-4.16-.92-8.44-5.4-6.59-9.86a6.25,6.25,0,0,1,2.61-3,2.37,2.37,0,0,1,2.77.26c-2-1.28-5.53-7.6-6-9.92l-2.46-7.8a12.85,12.85,0,0,1,.4-5.35l-6.22-7-1.12.8c-.91,3.08-.15,6.54,1,9.59l5.75,17.37s-2.75,6.91-6,13.45a39.4,39.4,0,0,0,32.59,1.7A44.43,44.43,0,0,1,103.82,221.51Z" transform="translate(-18.79 -51.61)"/></g></g><g id="_Group_32" data-name="&lt;Group&gt;"><g id="_Group_33" data-name="&lt;Group&gt;"><path id="_Path_55" data-name="&lt;Path&gt;" class="cls-4" d="M175.52,395.49,155.7,384c-2.06-1.22-3.21-4.27-3.21-8.22l-.08-86.93,20,11.53-.08,87.21C172.3,391.48,173.54,394.22,175.52,395.49Z" transform="translate(-18.79 -51.61)"/><path id="_Path_56" data-name="&lt;Path&gt;" class="cls-7" d="M175.66,395.57l-.14-.08c-2-1.27-3.22-4-3.22-7.85l.08-87.21-20-11.53,17.27-10.08.16-.08,0,0h0l2.45-1.42h0l2.77-1.92.11-.07.11-.08c.15-.1.27-.21.4-.3l.16-.11.48-.37.46-.36.39-.32.15-.13.14-.12c.26-.2.51-.42.75-.62l.38-.36.15-.14c.47-.44.94-.9,1.37-1.38l.15-.15c.18-.19.35-.37.52-.57s.16-.19.23-.28a3.16,3.16,0,0,0,.21-.25l.06-.07.06-.08.1-.13c.18-.22.36-.44.53-.67s.29-.41.42-.61l.11-.14,0-.06c.19-.26.36-.54.53-.8s.29-.48.43-.72l.05-.09.34-.63c.06-.1.12-.21.17-.32q.21-.4.39-.82l0,0,.23-.51a4.55,4.55,0,0,0,.22-.52,3.62,3.62,0,0,0,.18-.45l.17-.44c.13-.36.24-.72.36-1.08h0c.09-.3.19-.6.27-.91l0-.13c.1-.33.18-.67.25-1l0-.11c.06-.26.12-.53.17-.81h0c.07-.38.15-.82.2-1.23l0-.21,0-.28a.41.41,0,0,0,0-.11c0-.09,0-.19,0-.28.06-.49.09-1,.13-1.43l0-.22c0-.18,0-.37,0-.55h0c0-.72.05-1.45.06-2.2V252c0-.22,0-.4,0-.62v-.54c0-.24,0-.5,0-.73,0-.07,0-.12,0-.19s0-.12,0-.18v-.28c0-.36,0-.72-.08-1.06h0v-.06c0-.31-.07-.62-.11-.9a27.81,27.81,0,0,0-.82-4c-.23-.8-.48-1.53-.71-2.23a23,23,0,0,1-1.21-4.84c0-.33-.08-.67-.11-1s-.05-.77-.07-1.18V234a1.38,1.38,0,0,1,0-.29,4.16,4.16,0,0,1,0-.63c0-4.61,2.81-10,6.27-12a4.53,4.53,0,0,1,1.1-.46,3.27,3.27,0,0,1,.76-.12,3.22,3.22,0,0,1,.74,0,2,2,0,0,1,.35.08,4.15,4.15,0,0,1,1,.43L214,232.6h0l.34.22c1.18.9,1.83,2.61,1.84,4.83,0,.3,0,.61-.06,1.09v.13a39.1,39.1,0,0,1-1.38,8.53c-.17.71-.34,1.42-.5,2.17-.07.26-.12.51-.17.76-.18.77-.34,1.56-.47,2.4,0,.27-.09.56-.13.84l14.05-7.93,20,11.53v22.94c0,6.44-.49,10.74-1.49,13.14-.7,1.65-1.77,2.69-4.24,4.12a12.83,12.83,0,0,1-6.45,1.91c-.71.06-1.4.13-2.08.23l-.81.13c-.26.05-.51.1-.78.18-.48.11-1,.26-1.48.43l-.4.14a21.62,21.62,0,0,0-2.21,1,1.9,1.9,0,0,0-.27.14l-.07,0-.11.06a9.77,9.77,0,0,0-.9.45,23.42,23.42,0,0,0-7.37,7.25,33.31,33.31,0,0,0-2.64,4.68,37.85,37.85,0,0,0-1.82,4.75l1.1-1.17a40,40,0,0,1,3.32-3.32,20.59,20.59,0,0,1,3.15-2.23c1.6-.92,2.88-1.66,3.83-1.08h0l19.82,11.82h0a1.15,1.15,0,0,1,.22.17.81.81,0,0,1,.16.17.19.19,0,0,1,.08.1,1,1,0,0,1,.15.21.15.15,0,0,1,0,.06,2.72,2.72,0,0,1,.16.3c.51,1.08.84,3,1,6.22,0,.36,0,.73,0,1.12,0,1,0,2.14,0,3.39V357.4l-65.3,37.7a8,8,0,0,1-3.5,1.16,6.44,6.44,0,0,1-1.18,0,1.41,1.41,0,0,1-.38-.07A4.88,4.88,0,0,1,175.66,395.57Z" transform="translate(-18.79 -51.61)"/><path id="_Path_57" data-name="&lt;Path&gt;" class="cls-5" d="M225.75,310.93h0l19.81,11.81h0c-.94-.6-2.23.16-3.83,1.08a19.7,19.7,0,0,0-3.14,2.24,37.7,37.7,0,0,0-3.33,3.32,39.3,39.3,0,0,1-7.83,6.94c-.39.28-.85.58-1.28.83-7.26,4.19-13.16-.27-13.16-9.95a29.32,29.32,0,0,1,1.37-8.47l1.08-1.15a40,40,0,0,1,3.32-3.32,19.69,19.69,0,0,1,3.14-2.24C223.51,311.08,224.81,310.34,225.75,310.93Z" transform="translate(-18.79 -51.61)"/><path id="_Path_58" data-name="&lt;Path&gt;" class="cls-5" d="M213.41,253.58l14.07-7.94,20,11.54h0l-17.19,9.92,0,0h0l-5.18,2.7-.05,0-.06,0c-.12.06-.24.1-.37.16l-.19.07c-.3.13-.59.24-.86.34l-.49.17-.13.06c-.27.08-.54.19-.81.26s-.37.11-.55.15-.56.13-.83.18h-.09l-.37.06a8.1,8.1,0,0,1-1,.08.92.92,0,0,1-.21,0,6,6,0,0,1-1.16-.12l-.2,0a5.85,5.85,0,0,1-.86-.3l-.24-.12,0,0a6.13,6.13,0,0,1-.72-.48l0,0-.17-.15a5.67,5.67,0,0,1-.7-.79l-.09-.12a9,9,0,0,1-1.19-2.7l0-.17c-.13-.51-.22-1-.31-1.56l0-.27c-.09-.6-.16-1.24-.2-1.89-.06-.86-.07-1.61-.08-2.36A44.33,44.33,0,0,1,213.41,253.58Z" transform="translate(-18.79 -51.61)"/><path id="_Path_59" data-name="&lt;Path&gt;" class="cls-5" d="M172.38,300.43l-20-11.53,17.27-10.08.15-.09.06,0h0l2.45-1.42h0l2.78-1.91a.35.35,0,0,1,.1-.08l.11-.08c.15-.1.27-.21.4-.3l.15-.12.49-.36.46-.36.39-.32.15-.13.14-.12c.26-.2.51-.42.75-.62l.38-.36.15-.14c.47-.44.94-.9,1.37-1.38l.15-.15c.18-.19.35-.37.52-.57s.16-.19.23-.28.14-.17.2-.26l.07-.07.07-.08.09-.13a7.1,7.1,0,0,0,.53-.67l.43-.61.1-.14,0-.06c.19-.26.36-.54.53-.8s.29-.48.43-.72l0-.1c.12-.21.24-.41.35-.63s.12-.21.18-.31c.12-.28.27-.55.38-.82l0,0,.23-.51c.08-.16.15-.33.23-.51s.12-.29.17-.45l.17-.44c.13-.37.24-.7.36-1.08h0c.09-.3.19-.6.27-.91l0-.13c.08-.33.18-.67.25-1l0-.1c.05-.28.11-.54.16-.81h0c.07-.38.15-.82.2-1.23l0-.21c0-.08,0-.18.05-.28a.41.41,0,0,0,0-.11c0-.09,0-.19,0-.29.06-.5.1-1,.13-1.43l0-.21c0-.19,0-.36,0-.55h0c0-.72.05-1.45.06-2.2V252c0-.22,0-.4,0-.62v-.54c0-.24,0-.5,0-.74a1.17,1.17,0,0,1,0-.19c0-.06,0-.12,0-.18v-.28c0-.36,0-.72-.08-1.06l0-.06h0c0-.31-.06-.61-.1-.9a27.81,27.81,0,0,0-.82-4c-.23-.81-.47-1.54-.71-2.23a23,23,0,0,1-1.21-4.84c0-.33-.08-.67-.11-1s0-.76-.06-1.17V234c0-.1,0-.2,0-.29a4.16,4.16,0,0,1,0-.63c0-4.61,2.81-10,6.27-12a4.53,4.53,0,0,1,1.1-.46,3.27,3.27,0,0,1,.76-.12,2.54,2.54,0,0,1,.74,0,2,2,0,0,1,.35.08,4.15,4.15,0,0,1,1,.43L214,232.6a3.2,3.2,0,0,0-1.39-.42,4.18,4.18,0,0,0-1.05.09,5.79,5.79,0,0,0-1.65.66,9.27,9.27,0,0,0-1.69,1.28,14.88,14.88,0,0,0-3.27,4.83c-.17.39-.32.79-.47,1.2A15.24,15.24,0,0,0,204,242a13.33,13.33,0,0,0-.34,2.9c0,.26,0,.58,0,.91v.11a20.55,20.55,0,0,0,.69,4.8c.06.26.14.51.2.76.16.51.32,1,.49,1.5.23.69.48,1.41.71,2.23.08.27.15.55.22.84s.14.59.22.9a27.85,27.85,0,0,1,.49,3.16v.06h0c0,.18,0,.34,0,.53s0,.36,0,.54v.28c0,.12,0,.24,0,.37a2.8,2.8,0,0,1,0,.36c0,.13,0,.25,0,.37v.55c0,.19,0,.39,0,.61v.09c0,.37,0,.75,0,1.11s0,.73,0,1.1c0,.18,0,.37,0,.55l0,.22c0,.47-.08.94-.13,1.43,0,.23-.06.45-.09.68l0,.2h0c-.07.42-.13.83-.21,1.24s-.12.55-.17.81l0,.11c0,.19-.08.38-.14.57s-.1.38-.15.56l-.06.24c-.06.22-.14.45-.21.68h0c-.11.36-.23.72-.37,1.07s-.22.59-.34.89-.29.69-.44,1l-.41.85h0l-.26.47c-.09.16-.17.32-.25.47l-.06.1c-.07.12-.14.24-.22.36l-.07.12a2.13,2.13,0,0,1-.14.22c-.17.27-.34.55-.53.82l0,.06-.11.14a2.11,2.11,0,0,1-.22.3c-.07.09-.13.2-.21.29l-.19.25c-.11.15-.23.3-.34.43l-.1.13-.11.15-.22.27-.07.08a1.8,1.8,0,0,1-.16.19c-.08.1-.17.2-.26.29s-.16.19-.25.29l-.15.15c-.44.48-.9.94-1.38,1.37l-.14.15-.39.35c-.23.21-.49.43-.74.64l-.14.11-.07.08-.07.05-.39.32-1,.72-.15.12-.4.3-.22.15-2.77,1.92-2.45,1.42-.09.06-.16.08Z" transform="translate(-18.79 -51.61)"/></g><g id="_Clip_Group_" data-name="&lt;Clip Group&gt;"><g class="cls-15"><g id="_Group_34" data-name="&lt;Group&gt;"><path id="_Path_60" data-name="&lt;Path&gt;" class="cls-11" d="M248.67,300.52l-21.28-12.29.47-.65,0-.05.23-.33c.34-.5.66-1,.95-1.52l.09-.16c.31-.56.61-1.16.9-1.78.06-.15.13-.3.2-.46l0-.1c.16-.36.34-.79.51-1.27.08-.21.15-.42.23-.65l0-.14q.19-.53.35-1.08c.09-.3.17-.6.25-.9s.16-.67.25-1l.2-1c.06-.31.12-.63.17-.94l0-.14c.05-.3.1-.62.16-.94s.05-.37.08-.56l0-.2c.22-1.6.35-3.27.46-5.1v-.2l.11-4.91V240.78l21.21,12.42h0v23.36l-.11,4.92v.19c-.09,1.82-.23,3.5-.44,5.09l0,.21-.08.56c-.05.32-.09.63-.15.93l0,.14c-.06.33-.11.63-.17.94s-.14.66-.22,1-.15.68-.23,1-.17.61-.25.9-.22.73-.35,1.08l0,.15c-.07.21-.15.44-.23.65-.16.47-.35.91-.51,1.27l0,.1-.18.46c-.29.62-.59,1.22-.9,1.79l-.09.16c-.29.5-.61,1-.95,1.52-.07.1-.15.22-.24.32l0,.07C248.92,300.18,248.8,300.35,248.67,300.52Z" transform="translate(-18.79 -51.61)"/><path id="_Path_61" data-name="&lt;Path&gt;" class="cls-11" d="M233.08,341.13l.06-19.28-.3.31c.88-.95,1.69-1.81,2.57-2.67l.15-.14.26-.25.12-.12a29.78,29.78,0,0,1,5.56-4.22h0l.21-.12,0,0,.16-.08h0c.48-.27.95-.51,1.43-.74l.4-.18.14-.06c.31-.13.65-.28,1-.39.18-.07.35-.12.51-.17l.08,0c.28-.08.57-.15.83-.2l.59-.1a6.22,6.22,0,0,1,.73,0,5.16,5.16,0,0,1,.56,0,4.18,4.18,0,0,1,.66.11H249l.41.1a3.47,3.47,0,0,1,.6.28,3.59,3.59,0,0,1,.62.37,4.9,4.9,0,0,1,.65.55,4.62,4.62,0,0,1,.31.38l.08.1.05.07c.1.13.2.26.3.41a5.23,5.23,0,0,1,.34.6,5.61,5.61,0,0,1,.27.56,7.6,7.6,0,0,1,.3.73c.08.19.14.39.2.58s.17.56.25.87.08.33.12.49l0,.08c.07.34.15.67.21,1,0,.09,0,.19,0,.29l0,.12a48.77,48.77,0,0,1,.49,4.87v.08l.11,4.46v.33c0,.14,0,.28,0,.42v22.93Z" transform="translate(-18.79 -51.61)"/><path id="_Path_62" data-name="&lt;Path&gt;" class="cls-11" d="M221.82,328.12,200.89,316c-1.39-.74-2.2-2.67-2.19-5.25a16,16,0,0,1,2.76-8.53c.14-.19.26-.37.4-.56l-.32.47,21.28,12.29-.15.22a15.88,15.88,0,0,0-2.76,8.53C219.9,325.57,220.64,327.29,221.82,328.12Z" transform="translate(-18.79 -51.61)"/><path id="_Path_63" data-name="&lt;Path&gt;" class="cls-16" d="M248.67,300.52l-21.28-12.29.47-.65,0-.05.23-.33c.34-.5.66-1,.95-1.52l.09-.16c.31-.56.61-1.16.9-1.78.06-.15.13-.3.2-.46l0-.1c.16-.36.34-.79.51-1.27.08-.21.15-.42.23-.65l0-.14q.19-.53.35-1.08c.09-.3.17-.6.25-.9s.16-.67.25-1l.2-1c.06-.31.12-.63.17-.94l0-.14c.05-.3.1-.62.16-.94s.05-.37.08-.56l0-.2c.22-1.6.35-3.27.46-5.1v-.2l.11-4.91V240.78l21.21,12.42h0v23.36l-.11,4.92v.19c-.09,1.82-.23,3.5-.44,5.09l0,.21-.08.56c-.05.32-.09.63-.15.93l0,.14c-.06.33-.11.63-.17.94s-.14.66-.22,1-.15.68-.23,1-.17.61-.25.9-.22.73-.35,1.08l0,.15c-.07.21-.15.44-.23.65-.16.47-.35.91-.51,1.27l0,.1-.18.46c-.29.62-.59,1.22-.9,1.79l-.09.16c-.29.5-.61,1-.95,1.52-.07.1-.15.22-.24.32l0,.07C248.92,300.18,248.8,300.35,248.67,300.52Z" transform="translate(-18.79 -51.61)"/><path id="_Path_64" data-name="&lt;Path&gt;" class="cls-16" d="M233.08,341.13l.06-19.28-.3.31c.88-.95,1.69-1.81,2.57-2.67l.15-.14.26-.25.12-.12a29.78,29.78,0,0,1,5.56-4.22h0l.21-.12,0,0,.16-.08h0c.48-.27.95-.51,1.43-.74l.4-.18.14-.06c.31-.13.65-.28,1-.39.18-.07.35-.12.51-.17l.08,0c.28-.08.57-.15.83-.2l.59-.1a6.22,6.22,0,0,1,.73,0,5.16,5.16,0,0,1,.56,0,4.18,4.18,0,0,1,.66.11H249l.41.1a3.47,3.47,0,0,1,.6.28,3.59,3.59,0,0,1,.62.37,4.9,4.9,0,0,1,.65.55,4.62,4.62,0,0,1,.31.38l.08.1.05.07c.1.13.2.26.3.41a5.23,5.23,0,0,1,.34.6,5.61,5.61,0,0,1,.27.56,7.6,7.6,0,0,1,.3.73c.08.19.14.39.2.58s.17.56.25.87.08.33.12.49l0,.08c.07.34.15.67.21,1,0,.09,0,.19,0,.29l0,.12a48.77,48.77,0,0,1,.49,4.87v.08l.11,4.46v.33c0,.14,0,.28,0,.42v22.93Z" transform="translate(-18.79 -51.61)"/><path id="_Path_65" data-name="&lt;Path&gt;" class="cls-16" d="M221.82,328.12,200.89,316c-1.39-.74-2.2-2.67-2.19-5.25a16,16,0,0,1,2.76-8.53c.14-.19.26-.37.4-.56l-.32.47,21.28,12.29-.15.22a15.88,15.88,0,0,0-2.76,8.53C219.9,325.57,220.64,327.29,221.82,328.12Z" transform="translate(-18.79 -51.61)"/><path id="_Path_66" data-name="&lt;Path&gt;" class="cls-16" d="M222,328.19h0l-.14-.08c-1.18-.83-1.92-2.55-1.92-4.92a15.88,15.88,0,0,1,2.76-8.53l.15-.22-21.28-12.29.32-.47c.27-.35.54-.69.83-1,.14-.16.29-.31.44-.46a4.93,4.93,0,0,1,.47-.45,7.92,7.92,0,0,1,1.35-1h0a4.84,4.84,0,0,1,.55-.28l.23-.11h0l.05,0a12.77,12.77,0,0,1,2.79-1.09l.34-.08a18.6,18.6,0,0,1,2.66-.35,18.14,18.14,0,0,0,8.89-2.71l.7-.42c.2-.12.4-.25.6-.39l.45-.3,0,0,.06,0c.24-.17.49-.34.74-.54l.71-.55.13-.1.11-.1.08-.07c.1-.09.2-.16.3-.26l.29-.25c.19-.16.36-.33.54-.5a3,3,0,0,1,.25-.25l.11-.11c.15-.15.3-.31.44-.47s.35-.38.53-.59l.07-.08c.09-.11.18-.23.29-.34s.29-.36.42-.55l21.29,12.29c.13-.16.26-.33.39-.51l0-.07c.08-.1.16-.21.24-.32.34-.51.66-1,.95-1.52l.09-.16c.31-.57.61-1.17.9-1.79l.18-.46,0-.1c.16-.36.34-.8.51-1.27.08-.21.16-.43.23-.65l0-.15q.19-.53.35-1.08c.08-.29.16-.59.25-.9s.16-.67.23-1,.15-.65.22-1,.11-.62.17-.94l0-.14c.05-.3.1-.61.15-.93l.08-.56,0-.21c.21-1.59.35-3.27.44-5.09v-.19l.11-4.92V253.21h0l-21.21-12.42,8.7-5,4.49-2.59,4-2.32c.54-.31,1.07-.6,1.56-.88s.78-.42,1.15-.61a21.27,21.27,0,0,1,4.19-1.74l.44-.11a4.25,4.25,0,0,1,1.38-.1c.26,0,.4.23.6.35L280.92,240a1.82,1.82,0,0,1,.8,1.18c0,.17.09.37.13.58s.06.45.09.71,0,.27,0,.41,0,.58,0,.9,0,.68,0,1.06c0,.95,0,1.81-.12,2.63,0,.21,0,.41-.06.61s0,.39-.07.59,0,.39-.08.58l-.09.57-.2,1.11c-.07.36-.15.73-.23,1.1a.17.17,0,0,0,0,.07,31.3,31.3,0,0,0,2.72-12.22c0-.59,0-1.17-.06-1.68a29.88,29.88,0,0,0-1.81-9.39,20.87,20.87,0,0,1-1.38-7.83c0-4.93,0-7.65,10.48-13.69l17.11-9.8,21.28,12.29v87.07c0,7.24-4.42,15.69-9.86,18.83l-65.3,37.7V330.49c0-.14,0-.28,0-.42v-.33l-.11-4.46v-.08a48.77,48.77,0,0,0-.49-4.87l0-.12c0-.1,0-.2,0-.29-.06-.36-.13-.69-.21-1l0-.08c0-.17-.07-.34-.12-.49s-.16-.59-.25-.87-.12-.39-.2-.58a7.6,7.6,0,0,0-.3-.73,5.61,5.61,0,0,0-.27-.56,5.23,5.23,0,0,0-.34-.6c-.1-.15-.2-.29-.3-.41l-.05-.07-.08-.1a4.62,4.62,0,0,0-.31-.38,4.9,4.9,0,0,0-.65-.55,3.59,3.59,0,0,0-.62-.37,3.47,3.47,0,0,0-.6-.28l-.41-.1h-.09a4.18,4.18,0,0,0-.66-.11,5.16,5.16,0,0,0-.56,0,6.22,6.22,0,0,0-.73,0l-.59.1c-.26.05-.54.13-.83.2l-.08,0c-.16.05-.34.1-.51.17-.34.11-.68.26-1,.39l-.14.06-.4.18c-.48.23-1,.47-1.43.74h0l-.16.08,0,0-.21.12h0a29.78,29.78,0,0,0-5.56,4.22l-.12.12-.26.25-.15.14c-.89.86-1.69,1.72-2.57,2.67a29.39,29.39,0,0,1-5.88,5.25l0,0,0,0c-.26.18-.5.35-.71.47a5.15,5.15,0,0,1-1.92.69,4.11,4.11,0,0,1-.66,0,3,3,0,0,1-.61-.07A3.44,3.44,0,0,1,222,328.19Z" transform="translate(-18.79 -51.61)"/><path id="_Path_67" data-name="&lt;Path&gt;" d="M254.36,253.2l-21.21-12.42,8.7-5,4.49-2.59,4-2.32c.54-.31,1.07-.6,1.56-.88s.78-.42,1.15-.61a21.27,21.27,0,0,1,4.19-1.74l.44-.11a4.25,4.25,0,0,1,1.38-.1c.26,0,.4.23.6.35L280.86,240a1.71,1.71,0,0,0-.57-.17h0a3.28,3.28,0,0,0-1,0,5.54,5.54,0,0,0-.82.18,31.43,31.43,0,0,0-6.9,3.23l-4,2.32-4.5,2.6Z" transform="translate(-18.79 -51.61)"/><path id="_Path_68" data-name="&lt;Path&gt;" d="M281.8,276.93c-2-2-3-5.37-3-9.44,0-.55,0-1.12.07-1.75,0,0,0,0,0-.07,0-1,.1-1.93.21-3,0-.31.07-.59.11-.89.07-.62.16-1.23.26-1.8s.18-1.06.28-1.57q.09-.41.16-.78c.24-1.11.49-2.22.78-3.41.19-.75.36-1.47.52-2.19h0a31.22,31.22,0,0,0,2.71-12.14c0-.58,0-1.17-.07-1.67a30.23,30.23,0,0,0-1.81-9.4,20.93,20.93,0,0,1-1.37-7.82c0-4.93,0-7.64,10.48-13.7l17.11-9.79,21.28,12.29-17.19,9.92c-10.48,6.05-10.48,8.77-10.48,13.7a20.74,20.74,0,0,0,1.37,7.82,30.23,30.23,0,0,1,1.81,9.4c0,.5.07,1.09.06,1.66,0,9.67-5.89,21-13.15,25.13C288,279.72,284.31,279.53,281.8,276.93Z" transform="translate(-18.79 -51.61)"/><path id="_Path_69" data-name="&lt;Path&gt;" d="M222.81,314.46l-21.28-12.29.32-.47c.27-.35.54-.69.83-1,.14-.16.29-.31.44-.46a4.93,4.93,0,0,1,.47-.45,7.92,7.92,0,0,1,1.35-1h0a4.84,4.84,0,0,1,.55-.28l.24-.09,0,0,.05,0a12.77,12.77,0,0,1,2.79-1.09l.34-.08a18.6,18.6,0,0,1,2.66-.35,18.14,18.14,0,0,0,8.89-2.71l.7-.42c.2-.12.4-.25.6-.39l.44-.31,0,0,.06,0c.24-.17.49-.34.74-.54l.72-.55a.57.57,0,0,1,.12-.11l.11-.1.09-.07.29-.26.29-.25c.19-.16.36-.33.54-.5a3,3,0,0,1,.25-.25.57.57,0,0,1,.12-.11l.43-.47c.18-.19.35-.38.53-.59l.07-.08c.09-.11.18-.23.29-.34s.29-.36.42-.55l21.3,12.3a.49.49,0,0,1-.08.1c-.14.2-.29.39-.44.59s-.19.21-.28.32l-.08.09q-.48.55-1,1l-.21.2-.15.17-.54.5-.59.5-.08.07a3,3,0,0,1-.24.19q-.7.58-1.43,1.1a1,1,0,0,1-.11.07,19.14,19.14,0,0,1-1.74,1.11L241,307l-.72.37a17,17,0,0,1-5.19,1.71l-.92.13-.46,0-.84.07h0a14.43,14.43,0,0,0-3.74.64c-.37.12-.76.27-1.18.45h0c-.27.12-.57.26-.87.42h0l0,0-.24.1a3.93,3.93,0,0,0-.55.28,9.66,9.66,0,0,0-1.38,1,4.76,4.76,0,0,0-.44.41,5.27,5.27,0,0,0-.44.46,5.41,5.41,0,0,0-.52.6,3.59,3.59,0,0,0-.31.41C223,314.23,222.89,314.34,222.81,314.46Z" transform="translate(-18.79 -51.61)"/></g></g></g><g id="_Clip_Group_2" data-name="&lt;Clip Group&gt;"><g class="cls-17"><g id="_Group_35" data-name="&lt;Group&gt;"><g id="_Group_36" data-name="&lt;Group&gt;"><path id="_Path_70" data-name="&lt;Path&gt;" class="cls-4" d="M287.84,268.59l-21.33-12.32a3.26,3.26,0,0,1-.29-.17c-1.19-.9-1.74-2.77-1.74-5a9.8,9.8,0,0,1,0-1.09v-.13a39.78,39.78,0,0,1,1.38-8.53c.35-1.43.7-3,1-4.61l4.61-2.67.18-.1.11-.06,0,0,3.64-1.95,0,0h0l.1-.05a27,27,0,0,1,3.54-1.46l.14-.05.47-.14a4.83,4.83,0,0,1,.58-.15l.1,0,.68-.16.61-.08a6.38,6.38,0,0,1,.7-.05H283a5.1,5.1,0,0,1,.72.08h.09l.34.06a5.23,5.23,0,0,1,.81.28l.24.1a5.08,5.08,0,0,1,1.79,1.6l.11.17a7,7,0,0,1,.56,1c0,.07.07.15.1.22l0,.07c.15.37.28.76.41,1.19l.08.32a14.78,14.78,0,0,1,.3,1.5l0,.23a29.07,29.07,0,0,1,.28,4.29,50.81,50.81,0,0,1-1.8,12.89,39.78,39.78,0,0,0-1.38,8.53v.13c0,.46-.05.79,0,1.08,0,2.23.65,3.94,1.83,4.84Z" transform="translate(-18.79 -51.61)"/><path id="_Path_71" data-name="&lt;Path&gt;" class="cls-18" d="M254.35,244,233.15,231.6V208.65a59.5,59.5,0,0,1,.64-10.07c.74-4.09,1.86-5.33,5.08-7.18a13,13,0,0,1,6.45-1.92c.76-.06,1.47-.13,2.18-.24l.58-.1,1-.22c.41-.11.84-.23,1.31-.39l.56-.2a17.53,17.53,0,0,0,2.14-.95l.1-.05a9.63,9.63,0,0,0,1.25-.61c3.93-2.27,7.63-6.74,10.14-12.24.17-.36.31-.72.46-1.07-.17.18-.35.36-.54.53.68-.67,1.34-1.39,2-2.13a40,40,0,0,1,7.82-6.93,12.77,12.77,0,0,1,1.29-.83c7.25-4.2,13.16.27,13.15,9.93a31.9,31.9,0,0,1-3,12.91c-2.51,5.51-6.21,10-10.15,12.25a10.62,10.62,0,0,1-1.25.61l-.09,0a21.54,21.54,0,0,1-2.14,1l-.56.2a13,13,0,0,1-1.31.38c-.35.09-.67.16-1,.23l-.58.09c-.72.11-1.43.19-2.19.25a12.75,12.75,0,0,0-6.45,1.91c-3.22,1.86-4.35,3.09-5.08,7.18a59.8,59.8,0,0,0-.66,10.07v15.11h0Z" transform="translate(-18.79 -51.61)"/><path id="_Path_72" data-name="&lt;Path&gt;" class="cls-18" d="M256.3,178.49,235,166.17c-1.25-.76-1.82-3.93-1.82-11.87l-.08-22.8,21.28,12.29v22.93c0,8,.66,11,1.94,11.76Z" transform="translate(-18.79 -51.61)"/><path id="_Path_73" data-name="&lt;Path&gt;" class="cls-19" d="M287.84,268.59l-21.33-12.32a3.26,3.26,0,0,1-.29-.17c-1.19-.9-1.74-2.77-1.74-5a9.8,9.8,0,0,1,0-1.09v-.13a39.78,39.78,0,0,1,1.38-8.53c.35-1.43.7-3,1-4.61l4.61-2.67.18-.1.11-.06,0,0,3.64-1.95,0,0h0l.1-.05a27,27,0,0,1,3.54-1.46l.14-.05.47-.14a4.83,4.83,0,0,1,.58-.15l.1,0,.68-.16.61-.08a6.38,6.38,0,0,1,.7-.05H283a5.1,5.1,0,0,1,.72.08h.09l.34.06a5.23,5.23,0,0,1,.81.28l.24.1a5.08,5.08,0,0,1,1.79,1.6l.11.17a7,7,0,0,1,.56,1c0,.07.07.15.1.22l0,.07c.15.37.28.76.41,1.19l.08.32a14.78,14.78,0,0,1,.3,1.5l0,.23a29.07,29.07,0,0,1,.28,4.29,50.81,50.81,0,0,1-1.8,12.89,39.78,39.78,0,0,0-1.38,8.53v.13c0,.46-.05.79,0,1.08,0,2.23.65,3.94,1.83,4.84Z" transform="translate(-18.79 -51.61)"/><path id="_Path_74" data-name="&lt;Path&gt;" class="cls-19" d="M254.35,244,233.15,231.6V208.65a59.5,59.5,0,0,1,.64-10.07c.74-4.09,1.86-5.33,5.08-7.18a13,13,0,0,1,6.45-1.92c.76-.06,1.47-.13,2.18-.24l.58-.1,1-.22c.41-.11.84-.23,1.31-.39l.56-.2a17.53,17.53,0,0,0,2.14-.95l.1-.05a9.63,9.63,0,0,0,1.25-.61c3.93-2.27,7.63-6.74,10.14-12.24.17-.36.31-.72.46-1.07-.17.18-.35.36-.54.53.68-.67,1.34-1.39,2-2.13a40,40,0,0,1,7.82-6.93,12.77,12.77,0,0,1,1.29-.83c7.25-4.2,13.16.27,13.15,9.93a31.9,31.9,0,0,1-3,12.91c-2.51,5.51-6.21,10-10.15,12.25a10.62,10.62,0,0,1-1.25.61l-.09,0a21.54,21.54,0,0,1-2.14,1l-.56.2a13,13,0,0,1-1.31.38c-.35.09-.67.16-1,.23l-.58.09c-.72.11-1.43.19-2.19.25a12.75,12.75,0,0,0-6.45,1.91c-3.22,1.86-4.35,3.09-5.08,7.18a59.8,59.8,0,0,0-.66,10.07v15.11h0Z" transform="translate(-18.79 -51.61)"/><path id="_Path_75" data-name="&lt;Path&gt;" class="cls-19" d="M256.3,178.49,235,166.17c-1.25-.76-1.82-3.93-1.82-11.87l-.08-22.8,21.28,12.29v22.93c0,8,.66,11,1.94,11.76Z" transform="translate(-18.79 -51.61)"/><path id="_Path_76" data-name="&lt;Path&gt;" class="cls-7" d="M288,268.69l-.16-.09h0l-.34-.22c-1.18-.9-1.83-2.61-1.83-4.84,0-.3,0-.62,0-1.08v-.13a39.78,39.78,0,0,1,1.38-8.53,50.81,50.81,0,0,0,1.8-12.89,29.07,29.07,0,0,0-.28-4.29l0-.23a14.78,14.78,0,0,0-.3-1.5l-.08-.32c-.13-.42-.26-.82-.41-1.19l0-.07c0-.07-.06-.14-.1-.22a7,7,0,0,0-.56-1l-.11-.17a5.08,5.08,0,0,0-1.79-1.6l-.24-.1a5.23,5.23,0,0,0-.81-.28l-.34-.06h-.09a5.1,5.1,0,0,0-.72-.08h-.52a6.38,6.38,0,0,0-.7.05l-.61.08-.68.16-.1,0a4.83,4.83,0,0,0-.58.15l-.47.14-.14.05a27,27,0,0,0-3.54,1.46l-.1.05h0l0,0-3.64,1.95,0,0-.11.06-.18.1-4.61,2.67L254.35,244v-7.84h0V221.08A59.8,59.8,0,0,1,255,211c.73-4.09,1.86-5.33,5.08-7.18a12.75,12.75,0,0,1,6.45-1.91c.76-.06,1.47-.14,2.19-.25l.58-.09c.33-.06.65-.13,1-.23a13,13,0,0,0,1.31-.38l.56-.2a21.54,21.54,0,0,0,2.14-1l.09,0a10.62,10.62,0,0,0,1.25-.61c3.94-2.28,7.63-6.74,10.15-12.25a31.9,31.9,0,0,0,3-12.91c0-9.66-5.9-14.13-13.15-9.93a12.77,12.77,0,0,0-1.29.83,40,40,0,0,0-7.82,6.93c-.69.74-1.35,1.45-2,2.13a22,22,0,0,1-3.46,2.84c-.15.1-.3.19-.45.27s-.34.22-.52.32c-.6.34-1.14.66-1.65.89l-.49.2a1.92,1.92,0,0,1-.46.13,1.41,1.41,0,0,1-.42.06,1.46,1.46,0,0,1-.76-.19c-1.27-.71-1.94-3.74-1.94-11.76V143.8l-21.28-12.29,65.38-37.82c.24-.13.46-.26.69-.36a5.77,5.77,0,0,1,.66-.29h0l.66-.21a4.17,4.17,0,0,1,.63-.14,5.06,5.06,0,0,1,.81-.09,5.3,5.3,0,0,1,3.1.83l21,12.11v0a5.35,5.35,0,0,1,1.67,1.43,7.38,7.38,0,0,1,.43.62,4.59,4.59,0,0,1,.26.46,10.83,10.83,0,0,1,.45,1c.06.18.12.37.17.56a13.53,13.53,0,0,1,.53,3.94v87.07l-17.2,9.92-.31.19-.2.12h-.05L308.37,213l0,0,0,0a42.22,42.22,0,0,0-3.91,2.91l-.08.07-.2.16-.89.81-.07.08c-.13.11-.26.24-.38.36s-.53.52-.78.79l-.49.53c-.25.27-.48.54-.71.82l-.48.59c-.23.3-.44.59-.65.88s-.24.35-.36.53l-.08.14-.1.14c-.17.25-.35.51-.5.78s-.23.39-.33.59l-.08.16c-.31.57-.61,1.16-.88,1.75l-.06.15c-.12.25-.23.51-.33.76h0c-.1.26-.19.52-.28.79l-.08.21c-.11.3-.21.61-.3.92s-.19.65-.28,1-.18.67-.25,1-.14.67-.2,1-.13.73-.18,1.1v.06q-.08.45-.13.93c0,.39-.08.78-.11,1.22l0,.24c0,.23,0,.46-.05.69,0,.49,0,1-.06,1.72V237c0,.12,0,.25,0,.37a29.68,29.68,0,0,0,1.8,10.81,22.07,22.07,0,0,1,1.38,7.05v.11c0,.32.05.65.06.92,0,4.61-2.82,10-6.27,12a5.3,5.3,0,0,1-2.08.73,3.37,3.37,0,0,1-.44,0h-.08a1,1,0,0,1-.28,0,.81.81,0,0,1-.25,0l-.2,0-.24-.07a.48.48,0,0,1-.18-.06Z" transform="translate(-18.79 -51.61)"/></g><path id="_Path_77" data-name="&lt;Path&gt;" class="cls-20" d="M254.35,143.8l-21.28-12.29,65.38-37.82c.24-.13.46-.26.69-.36a5.77,5.77,0,0,1,.66-.29h0l.66-.21a4.17,4.17,0,0,1,.63-.14,5.06,5.06,0,0,1,.81-.09,5.3,5.3,0,0,1,3.1.83l20.76,12a3.43,3.43,0,0,0-.57-.22.5.5,0,0,1-.13,0,4.22,4.22,0,0,0-.55-.13l-.19,0a2.25,2.25,0,0,0-.38,0h0l-.35,0h-.09a2.89,2.89,0,0,0-.53,0l-.39.05a5.35,5.35,0,0,0-.8.18l-.41.13c-.25.08-.51.2-.78.31s-.6.3-.92.47Z" transform="translate(-18.79 -51.61)"/></g></g></g><g id="_Clip_Group_3" data-name="&lt;Clip Group&gt;"><g class="cls-21"><g id="_Group_37" data-name="&lt;Group&gt;"><path id="_Path_78" data-name="&lt;Path&gt;" class="cls-11" d="M220.89,261.17l-21.21-12.43h0c-.83-.49-1.09-1.86-1.09-4.83a30.92,30.92,0,0,1,.87-7.24,36.24,36.24,0,0,0-1.62,4.53c2-7.35,6.66-14.34,12-17.44,3.51-2,6.82-2.11,9.3-.23S223,229,223,233.7c0,.46,0,.9-.05,1.29v.22c0,.1,0,.22,0,.33,0,1-.12,2-.22,3.05,0,.17,0,.34-.06.5l0,.15c-.09.71-.18,1.4-.3,2.09-.08.41-.15.82-.22,1.22s-.16.81-.24,1.21c-.22,1-.47,2.09-.73,3.19a36.23,36.23,0,0,0-1.37,9.38C219.79,259.31,220,260.68,220.89,261.17Z" transform="translate(-18.79 -51.61)"/><path id="_Path_79" data-name="&lt;Path&gt;" class="cls-11" d="M172.3,291.39,151,279.11l.08-87.21a23.75,23.75,0,0,1,2.43-10l21.26,12.28a24,24,0,0,0-2.49,10.15Z" transform="translate(-18.79 -51.61)"/><path id="_Path_80" data-name="&lt;Path&gt;" class="cls-14" d="M220.89,261.17l-21.21-12.43h0c-.83-.49-1.09-1.86-1.09-4.83a30.92,30.92,0,0,1,.87-7.24h0c2.4-5.57,6.17-10.46,10.42-12.91,3.51-2,6.82-2.11,9.3-.23S223,229,223,233.7c0,.46,0,.9-.05,1.29v.22c0,.1,0,.22,0,.33,0,1-.12,2-.22,3.05,0,.17,0,.34-.06.5l0,.15c-.09.71-.18,1.4-.3,2.09-.08.41-.15.82-.22,1.22s-.16.81-.24,1.21c-.22,1-.47,2.09-.73,3.19a36.23,36.23,0,0,0-1.37,9.38C219.79,259.31,220,260.68,220.89,261.17Z" transform="translate(-18.79 -51.61)"/><path id="_Path_81" data-name="&lt;Path&gt;" class="cls-22" d="M172.3,291.39,151,279.11l.08-87.21a23.75,23.75,0,0,1,2.43-10l21.26,12.28a24,24,0,0,0-2.49,10.15Z" transform="translate(-18.79 -51.61)"/><path id="_Path_82" data-name="&lt;Path&gt;" class="cls-16" d="M172.3,291.39V204.31a24,24,0,0,1,2.49-10.15l-21.26-12.28.17-.37a6.24,6.24,0,0,1,.29-.58c.14-.27.28-.53.43-.79s.36-.62.56-.92l.12-.2.09-.12c.18-.28.37-.57.57-.85l0,0,.19-.25a4.56,4.56,0,0,1,.34-.45c.11-.15.23-.3.35-.44l.1-.13c.18-.23.37-.45.57-.67l.24-.25a1.88,1.88,0,0,1,.17-.18l.11-.12.2-.19s0,0,0,0l.37-.36.11-.1.31-.29.1-.09.05,0,.27-.21.31-.24.3-.24a4.36,4.36,0,0,1,.37-.25A5.41,5.41,0,0,1,161,173l65.23-37.56,21.28,12.29v19.16l.3-.32a29,29,0,0,1,5.89-5.25l0,0,0,0,.08,0c.23-.17.46-.33.64-.43a3.81,3.81,0,0,1,4.1-.15l21.21,12.25a2.12,2.12,0,0,1,.32.21l.17.14a4.84,4.84,0,0,1,1.45,2.59c.06.25.1.51.14.79a9.27,9.27,0,0,1,.09,1.33,15.35,15.35,0,0,1-1.83,6.95,12.37,12.37,0,0,1-4.43,5c-.22.13-.44.24-.79.4h0l0,0a13.08,13.08,0,0,1-5.8,1.5,18.09,18.09,0,0,0-8.89,2.73,24.32,24.32,0,0,0-3.35,2.31l-.12.09c-.49.41-1,.83-1.38,1.25l-.07.07,0,0a21.17,21.17,0,0,0-2.63,3.16l0,0c-.34.49-.66,1-1,1.56l-.16.27,0,.08c-.26.47-.5,1-.72,1.44l0,.07c0,.11-.1.22-.15.34-.23.51-.44,1-.63,1.59a2.79,2.79,0,0,0-.1.26c-.24.64-.44,1.3-.61,1.92l-.05.21c-.15.56-.28,1.12-.41,1.7,0,.16-.08.34-.11.51l0,.14c-.08.42-.15.85-.23,1.28,0,.26-.09.52-.12.79s-.12.8-.17,1.22l0,.2c0,.2-.05.41-.07.63,0,.43-.08.86-.12,1.29v.23c0,.16,0,.31,0,.48v.14l-.23,7v23l-6,3.49-5.67,3.27-5.49,3.17c-3.81,2.21-6.47,3.34-8.09,3.46h-.38a2,2,0,0,1-.89-.22v0h0c-.84-.49-1.09-1.86-1.09-4.84a36.23,36.23,0,0,1,1.37-9.38c.26-1.09.51-2.15.73-3.19.08-.39.17-.8.24-1.21s.15-.81.22-1.22c.11-.68.21-1.38.3-2.09l0-.15c0-.16,0-.33.06-.5.11-1,.19-2,.22-3.05,0-.1,0-.22,0-.33V235c0-.4.06-.84.05-1.29,0-4.69-1.36-8.3-3.85-10.18s-5.79-1.8-9.3.23c-4.25,2.45-8,7.34-10.42,12.91a30.51,30.51,0,0,0-1.27,3.38c-.13.38-.24.77-.34,1.15s-.24.9-.35,1.36a1,1,0,0,0-.06.25c-.1.43-.19.89-.26,1.33a25.8,25.8,0,0,0-.37,2.86,7,7,0,0,0,0,.87c0,.34,0,.68,0,1,0,.59,0,1.2.07,1.68a29.84,29.84,0,0,0,1.81,9.39,21.6,21.6,0,0,1,1.22,5l0,.2,0,.06v.08a1.5,1.5,0,0,0,0,.21c.05.74.09,1.47.09,2.23,0,4.93,0,7.64-10.47,13.69Z" transform="translate(-18.79 -51.61)"/><path id="_Path_83" data-name="&lt;Path&gt;" d="M258.55,160.68l21.21,12.25a4,4,0,0,0-4.1.33c-.19.1-.41.26-.65.42l-.07.07,0,0,0,0A29,29,0,0,0,269,179a36.93,36.93,0,0,1-8.88,7.52l-.42.23-.16.08-.12.06c-.32.17-.64.34-.93.48l-.56.24-.19.07-.12.06c-.23.09-.48.19-.7.26a5,5,0,0,1-.63.2l-.08,0-.71.17c-.24.05-.46.07-.69.1l-.65,0a5.19,5.19,0,0,1-.62,0c-.2,0-.4-.07-.59-.1a4.08,4.08,0,0,1-.55-.16,3.77,3.77,0,0,1-.51-.23l-.09,0c-.15-.08-.3-.16-.42-.24a2.75,2.75,0,0,1-.38-.32l-.08-.06-.08-.08c-.11-.09-.23-.2-.34-.31s-.25-.3-.36-.47l-.06-.1a9.22,9.22,0,0,1-.6-1l-.06-.13a3.94,3.94,0,0,1-.23-.47c-.08-.17-.15-.38-.23-.58l0-.13,0-.12c-.06-.18-.12-.35-.19-.54s-.14-.54-.21-.81-.13-.48-.18-.73-.12-.6-.16-.92-.09-.52-.13-.79-.09-.66-.13-1-.05-.55-.09-.83-.06-.73-.08-1.11c0-.21,0-.44,0-.67v-.3c0-.35,0-.72-.06-1.1v-.15l-.07-4v-4.14l.29-.31a28.83,28.83,0,0,1,5.89-5.25l0,0,.05,0,.08-.05a6.33,6.33,0,0,1,.63-.43A3.82,3.82,0,0,1,258.55,160.68Z" transform="translate(-18.79 -51.61)"/><path id="_Path_84" data-name="&lt;Path&gt;" class="cls-22" d="M174.8,194.17l-21.28-12.29c.06-.13.11-.24.18-.36a6.24,6.24,0,0,1,.29-.58c.14-.27.28-.53.43-.79s.36-.62.56-.92c.06-.11.13-.22.2-.33.18-.28.37-.57.57-.85l0,0,.19-.25a4.56,4.56,0,0,1,.34-.45,7.15,7.15,0,0,1,.45-.57c.18-.23.37-.45.57-.67l.24-.25a1.88,1.88,0,0,1,.17-.18c.11-.11.2-.22.31-.31s0,0,0,0l.37-.36.11-.1a4.1,4.1,0,0,1,.42-.37l.05,0,.27-.21a7.73,7.73,0,0,1,.61-.48,4.36,4.36,0,0,1,.37-.25A5.41,5.41,0,0,1,161,173l65.22-37.57,21.28,12.29-28.67,16.55-36.64,21.16c-.28.16-.55.33-.82.52s-.5.35-.73.55a3.6,3.6,0,0,0-.38.3c-.24.19-.48.42-.72.64s-.56.55-.83.83a21.09,21.09,0,0,0-1.66,2.07c-.2.28-.41.57-.59.86A24.54,24.54,0,0,0,174.8,194.17Z" transform="translate(-18.79 -51.61)"/></g></g></g></g><g id="_Group_38" data-name="&lt;Group&gt;"><path id="_Path_85" data-name="&lt;Path&gt;" class="cls-8" d="M143.45,215.72a4.26,4.26,0,0,0,2.89-.91c2.21-1.71,3.86-1.57,6.24-2.6,1.86-.8,2.61-1.79,3-1.46a2.3,2.3,0,0,1,0,3.13A11.74,11.74,0,0,1,153,216a23.56,23.56,0,0,0,6.44-1.32c5-1.7,7.37-1,5.1,5.34-1.42,4-5,6.2-14.81,6A82.45,82.45,0,0,1,139,224.61c-9.71-1.91-29.26-4.84-32.67-9.43-9.65-13-18.49-23.72-19.72-33.42-1-8.14,4-12.69,8.63-12.69,2.63,2.77,4.23,6.06,6.65,13.84,0,0,12.57,22.49,13.83,24.13C118.88,208.77,141.39,215.39,143.45,215.72Z" transform="translate(-18.79 -51.61)"/></g><g id="_Group_39" data-name="&lt;Group&gt;"><g id="_Group_40" data-name="&lt;Group&gt;"><path id="_Path_86" data-name="&lt;Path&gt;" class="cls-8" d="M324.82,132.4c1.68,1,3.5,1.43,5.75,3.08a11.78,11.78,0,0,0,5.05,2.55c2.41.58,21.38-5.82,24.9-8.53,7.14-5.5,13.32-15.87,16.76-19.81,2.83-3.24,6-8.12,9.53-8.14,5.77,1.75,4.46,10.33-.36,18.05-4,6.39-11.58,14.46-20.16,20.09-4.16,2.73-23.32,7.68-29.69,8.09-1.94.13-3.37.56-7.06,1.08a15.63,15.63,0,0,1-4.59.25,19.9,19.9,0,0,1-5.45-1.66,13.47,13.47,0,0,1-5.43-4.61,8.48,8.48,0,0,1-1.41-3.67,5.65,5.65,0,0,1,.86-3.79,1.56,1.56,0,0,1,.57-.55,1.88,1.88,0,0,1,1.41.1c2.56.89,5.18,2.23,7.81,2.84,2.22.52,3.86.57,3.64.17s-1.54-.61-3.05-1.9-2.13-3.3-1.38-4.06S323.14,131.36,324.82,132.4Z" transform="translate(-18.79 -51.61)"/></g><g id="_Group_41" data-name="&lt;Group&gt;"><g id="_Group_42" data-name="&lt;Group&gt;"><path id="_Path_87" data-name="&lt;Path&gt;" class="cls-3" d="M387.18,99.51c4.26,2.09,6,5.27,4.1,12.35-1.7,6.36-8.22,17.21-13.35,22.51,0,0-8.78-4.16-13.45-9.56,4.63-7.08,6.85-11.24,11.2-17.22S384.58,98.8,387.18,99.51Z" transform="translate(-18.79 -51.61)"/></g></g></g></g></svg>