<?xml version="1.0" encoding="utf-8"?>
<!-- Generator: Adobe Illustrator 21.0.0, SVG Export Plug-In . SVG Version: 6.00 Build 0)  -->
<svg version="1.1" id="Layer_1" xmlns="http://www.w3.org/2000/svg" xmlns:xlink="http://www.w3.org/1999/xlink" x="0px" y="0px"
	 width="256px" height="266px" viewBox="0 0 256 266" style="enable-background:new 0 0 256 266;" xml:space="preserve">
<style type="text/css">
	.Drop_x0020_Shadow{fill:none;}
	.Outer_x0020_Glow_x0020_5_x0020_pt{fill:none;}
	.Jive_GS{fill:#A6D0E4;}
	.st0{fill:#6BAA34;}
	.st1{fill:url(#SVGID_1_);}
	.st2{opacity:0.5;fill:url(#SVGID_2_);fill-opacity:0.5;}
	.st3{fill:url(#SVGID_3_);}
	.st4{opacity:0.2;fill:url(#SVGID_4_);}
	.st5{opacity:0.6;}
	.st6{fill:#94512A;}
	.st7{opacity:0.5;fill:#94512A;}
	.st8{fill:url(#SVGID_5_);}
	.st9{fill:#E99855;}
	.st10{fill:url(#SVGID_6_);}
	.st11{fill:url(#SVGID_7_);}
	.st12{opacity:0.1;}
	.st13{fill:url(#SVGID_8_);}
	.st14{opacity:0.4;}
	.st15{fill:url(#SVGID_9_);}
	.st16{fill:url(#SVGID_10_);}
	.st17{fill:#FFFFFF;}
	.st18{opacity:0.7;fill:url(#SVGID_11_);}
</style>
<g>
	<path class="st0" d="M225.6,233.2c-3.3,13.6-41.6,25.3-85.5,26.2c-43.9,0.9-76.7-9.4-73.4-22.9c3.3-13.6,41.6-25.3,85.5-26.2
		C196,209.3,228.9,219.6,225.6,233.2z"/>
	<g>
		<g>
			<linearGradient id="SVGID_1_" gradientUnits="userSpaceOnUse" x1="271.6012" y1="-76.4721" x2="70.4567" y2="342.8286">
				<stop  offset="0" style="stop-color:#FFC649"/>
				<stop  offset="0" style="stop-color:#FFC848"/>
				<stop  offset="0" style="stop-color:#FFCF45"/>
				<stop  offset="0" style="stop-color:#FFD243"/>
				<stop  offset="1" style="stop-color:#CD571B"/>
			</linearGradient>
			<path class="st1" d="M248,143.3c3.3-23.7-0.6-48.4-12.6-69.3c-3.9-6.8-8.5-13.1-13.9-18.7c-6.1-6.4-13-12-19.6-17.9
				c18.2,16.1,29.6,38.8,32.8,62.8c3.3,24.1-1.5,49.5-12.7,71.1c-11.1,21.5-27.5,39.8-48,52.7c-20.3,12.8-44,19.9-68.1,19.3
				c-21.9-0.7-43.4-8-60.6-21.7c-1.3-1-2.6-2.1-3.8-3.2c8.7,7.7,17.1,15.9,27,22c9.1,5.6,19.2,9.6,29.6,12.1
				c23.1,5.4,47.6,2.7,69.4-6.3c21.8-9,41-24,55.2-42.8C236.1,185.7,245,165,248,143.3z"/>
			<linearGradient id="SVGID_2_" gradientUnits="userSpaceOnUse" x1="153.0341" y1="174.1581" x2="101.0688" y2="282.4837">
				<stop  offset="0" style="stop-color:#E08C3C"/>
				<stop  offset="1" style="stop-color:#FFD06F"/>
			</linearGradient>
			<path class="st2" d="M167.8,246.1c7.6-3.1,14.9-7,21.8-11.6l-8.3-8.8c-1,0.7-2,1.3-3,2c-20.7,13.1-44.9,20.3-69.5,19.6
				c-17.4-0.5-34.6-5.2-49.6-13.9c3.1,2.4,6.3,4.8,9.7,6.8c9.1,5.6,19.2,9.6,29.6,12.1C121.4,257.7,145.9,255.1,167.8,246.1z"/>
			<g>
				<linearGradient id="SVGID_3_" gradientUnits="userSpaceOnUse" x1="59.2148" y1="441.8138" x2="197.3065" y2="-250.1478">
					<stop  offset="0" style="stop-color:#F5942A"/>
					<stop  offset="1" style="stop-color:#F5D85D"/>
				</linearGradient>
				<path class="st3" d="M145.7,13c61.5,6.5,100.7,63.1,87.6,126.6C220.1,203,159.6,249.2,98,242.7c-61.5-6.5-100.7-63.1-87.6-126.6
					C23.6,52.7,84.2,6.5,145.7,13z"/>
			</g>
			<linearGradient id="SVGID_4_" gradientUnits="userSpaceOnUse" x1="88.0876" y1="295.7635" x2="178.3528" y2="-156.5446">
				<stop  offset="0" style="stop-color:#E08C3C"/>
				<stop  offset="1" style="stop-color:#FFD06F"/>
			</linearGradient>
			<path class="st4" d="M144.9,15.7C85.5,9.4,27.1,54,14.3,115.2c-1,4.7-1.7,9.4-2.1,14c24.9,18,55,29.8,88.8,33.3
				c45.1,4.7,89.9-6,129-28.1C240.8,74.6,203.2,21.8,144.9,15.7z"/>
			<g class="st5">
				<path class="st6" d="M136.4,59.4c5,0.5,7.1,1.2,6.8,2.5l-1.7,7.9l1.8,0.3c9.9,2.3,17.4,6.2,21.4,11.6c3.9,5.3,4.9,12.4,3.1,20.9
					c-0.2,1-0.7,2.3-1.2,4.1c-0.3,0.1-6.3,2.7-16,1.6c-9.7-1-15.8-4.8-16.1-5l0.7-3.5c1.2-5.8,2.1-9.4,1.5-11.5
					c-0.6-2.4-2-3.7-5.2-4c-2.6-0.3-4.8,0.5-6.5,2.2c-1.6,1.6-2.8,4-3.4,7.3c-1.1,5.3-0.6,9.2,1.4,11.7c1.8,2.3,7.1,6.7,16.4,13.5
					c7.6,5.5,12.8,9.8,15.3,12.5c2.5,2.7,4.3,6.3,5.5,10.9c1.2,4.6,0.9,10.2-0.4,16.8c-2.2,10.5-6.8,18.4-13.6,23.8
					c-6.8,5.4-16.4,8.2-28.1,8.4l-1.9,0l-2.4,11.4c-0.1,0.1-3,1.3-7,0.9c-4-0.4-6.8-2.3-7-2.4l2.5-11.8l-0.4-0.2
					c-8.7-1.7-14.9-5.5-20.3-11.5c-5.3-5.8-6.9-15.5-4.2-28.6l0.9-4.4c0.3-0.1,10.3-5.1,20.6-4c10.3,1.1,11.6,7.2,11.9,7.4l-1.2,5.9
					c-2.4,11.4-2.8,14.6-2.6,16.1c0.3,1.9,1,4.3,5.3,4.7c2.8,0.3,5.1-0.4,6.9-2c1.7-1.5,2.9-3.9,3.6-7c1.5-7.2,2-12.2,1.5-15.6
					c-0.5-3.5-3.7-7.4-9.6-11.8c-9.1-6.9-15.4-12-18.5-15.1c-3-3-5.4-7.1-7-12.2c-1.6-5-1.9-10.6-0.7-16.7
					c1.8-8.8,5.6-15.2,12.1-19.6c6.6-4.4,15.1-6.7,26.6-6.7l2.3-9.8C129.8,58.7,131.4,58.9,136.4,59.4z"/>
			</g>
			<path class="st7" d="M107.4,237.3c-54.9-5.8-94.8-53.6-82.5-112.9C37.2,65,93.8,21.8,151.4,27.9c48.3,5.1,76.6,45.8,78.7,90.8
				c2.4-53.5-33.7-98.3-87.2-103.9C83.4,8.5,24.7,53.2,12,114.6c-12.8,61.4,25.2,116.3,84.8,122.6c5.4,0.6,10.8,0.7,16.2,0.5
				C111.1,237.6,109.2,237.4,107.4,237.3z"/>
			<g>
				<linearGradient id="SVGID_5_" gradientUnits="userSpaceOnUse" x1="256.7645" y1="187.5949" x2="49.116" y2="97.03">
					<stop  offset="0" style="stop-color:#FFC46D"/>
					<stop  offset="9.501130e-02" style="stop-color:#FFD067"/>
					<stop  offset="0.914" style="stop-color:#CD553F"/>
				</linearGradient>
				<path class="st8" d="M134.2,57.4c4.8,0.5,5.9,2.6,5.9,2.7l-1.9,9.3l1.7,0.3c9.5,2.2,16.7,5.9,20.6,11.1c3.7,5.1,4.7,11.9,3,20.1
					c-0.2,0.9-0.7,2.2-1.2,4c-0.3,0.1-6,2.6-15.4,1.6c-9.3-1-15.2-4.6-15.5-4.8l0.7-3.3c1.2-5.6,2-9.1,1.5-11
					c-0.6-2.3-1.9-3.5-5-3.9c-2.5-0.3-4.6,0.4-6.3,2.1c-1.6,1.5-2.6,3.8-3.3,7c-1.1,5.1-0.6,8.9,1.3,11.3c1.7,2.2,6.9,6.4,15.7,12.9
					c7.3,5.3,12.3,9.4,14.7,12.1c2.4,2.6,4.1,6.1,5.2,10.5c1.1,4.4,0.9,9.8-0.4,16.1c-2.1,10.1-6.6,17.7-13.1,22.8
					c-6.6,5.1-15.8,7.8-27,8.1l-1.8,0l-2.3,10.9c-0.1,0.1-2.9,1.3-6.7,0.9c-3.8-0.4-6.6-2.2-6.7-2.3l2.4-11.4l-0.4-0.2
					c-8.3-1.7-14.3-5.3-19.5-11c-5.1-5.6-6.6-14.9-4-27.4l0.9-4.2c0.3-0.1,6.5-2.5,16.4-1.4c9.9,1,14.6,4.5,14.8,4.7l-1.2,5.7
					c-2.3,10.9-2.7,14-2.5,15.4c0.2,1.8,1,4.1,5.1,4.5c2.7,0.3,4.9-0.4,6.6-1.9c1.7-1.5,2.8-3.8,3.4-6.8c1.4-6.9,1.9-11.8,1.4-14.9
					c-0.5-3.4-3.5-7.1-9.2-11.3c-8.8-6.6-14.8-11.5-17.8-14.5c-2.9-2.9-5.2-6.8-6.8-11.7c-1.5-4.8-1.8-10.2-0.6-16
					c1.8-8.4,5.4-14.6,11.6-18.8c6.3-4.2,14.5-6.4,25.5-6.4l2.2-9.4C126.9,58.6,129.5,56.9,134.2,57.4z"/>
			</g>
			<path class="st9" d="M136.8,25.3c3.5,0,7,0.2,10.4,0.5c25.7,2.7,47.9,15.3,62.6,35.4c7.6,10.5,12.9,22.4,15.6,35.5
				c2.8,13.7,2.7,27.9-0.3,42.4c-5.4,26.1-20,50.2-41.1,67.8c-20.9,17.4-46.3,27-71.6,27c-3.5,0-7-0.2-10.4-0.5
				c-25.7-2.7-47.9-15.3-62.6-35.4c-7.6-10.5-12.9-22.4-15.6-35.5c-2.8-13.7-2.7-27.9,0.3-42.4c5.4-26.1,20-50.2,41.1-67.8
				C86.1,34.9,111.5,25.4,136.8,25.3L136.8,25.3 M136.8,15.5C80,15.5,26.7,59.3,14.4,118.1c-13,62.7,25.8,113.8,86.6,120.2
				c3.8,0.4,7.6,0.6,11.4,0.6c56.8,0,105.6-42.1,117.8-100.9c13-62.7-21.2-115.5-82-121.9C144.4,15.6,140.6,15.5,136.8,15.5
				L136.8,15.5z"/>
			<linearGradient id="SVGID_6_" gradientUnits="userSpaceOnUse" x1="167.0675" y1="-50.3502" x2="48.8798" y2="415.6454">
				<stop  offset="0.199" style="stop-color:#FFDE43"/>
				<stop  offset="0.5646" style="stop-color:#FFD23E"/>
				<stop  offset="1" style="stop-color:#FFBD37"/>
			</linearGradient>
			<path class="st10" d="M134.2,22.4c3.5,0,7,0.2,10.5,0.5c26,2.7,48.4,15.4,63.3,35.8c7.7,10.6,13,22.7,15.8,35.9
				c2.9,13.8,2.8,28.2-0.3,42.9c-5.5,26.4-20.2,50.7-41.6,68.5c-21.1,17.6-46.8,27.3-72.3,27.3c-3.5,0-7-0.2-10.5-0.5
				c-25.9-2.7-48.4-15.4-63.3-35.8C28,186.3,22.7,174.3,20,161c-2.9-13.8-2.8-28.2,0.3-42.9c5.5-26.4,20.3-50.7,41.6-68.5
				C82.9,32.1,108.6,22.4,134.2,22.4L134.2,22.4 M134.2,12.4c-57.4,0-111.4,44.3-123.7,103.7c-13.2,63.4,26,120.1,87.6,126.6
				c3.9,0.4,7.7,0.6,11.6,0.6c57.4,0,111.4-44.3,123.7-103.7c13.2-63.4-26-120.1-87.6-126.6C141.9,12.6,138,12.4,134.2,12.4
				L134.2,12.4z"/>
			<g>
				<linearGradient id="SVGID_7_" gradientUnits="userSpaceOnUse" x1="145.1567" y1="17.6512" x2="75.1063" y2="293.8492">
					<stop  offset="0.1642" style="stop-color:#FFDE43"/>
					<stop  offset="0.2484" style="stop-color:#FFDA42"/>
					<stop  offset="1" style="stop-color:#FFBD37"/>
				</linearGradient>
				<path class="st11" d="M131.2,55.4c4.8,0.5,5.9,2.6,5.9,2.7l-1.9,9.3l1.7,0.3c9.5,2.2,16.7,5.9,20.6,11.1
					c3.7,5.1,4.7,11.9,3,20.1c-0.2,0.9-0.7,2.2-1.2,4c-0.3,0.1-6,2.6-15.4,1.6c-9.3-1-15.2-4.6-15.5-4.8l0.7-3.3
					c1.2-5.6,2-9.1,1.5-11c-0.6-2.3-1.9-3.5-5-3.9c-2.5-0.3-4.6,0.4-6.2,2.1c-1.6,1.5-2.6,3.8-3.3,7c-1.1,5.1-0.6,8.9,1.3,11.3
					c1.7,2.2,6.9,6.4,15.7,12.9c7.3,5.3,12.3,9.4,14.7,12.1c2.4,2.6,4.1,6.1,5.2,10.5c1.1,4.4,0.9,9.8-0.4,16.1
					c-2.1,10.1-6.6,17.7-13.1,22.8c-6.6,5.1-15.8,7.8-27,8.1l-1.8,0l-2.3,10.9c-0.1,0.1-2.9,1.3-6.7,0.9c-3.8-0.4-6.6-2.2-6.7-2.3
					l2.4-11.4l-0.4-0.2c-8.3-1.7-14.3-5.3-19.5-11c-5.1-5.6-6.6-14.9-4-27.4l0.9-4.2c0.3-0.1,6.5-2.5,16.4-1.4
					c9.9,1,14.6,4.5,14.8,4.7l-1.2,5.7c-2.3,10.9-2.7,14-2.5,15.4c0.2,1.8,1,4.1,5.1,4.5c2.7,0.3,4.9-0.4,6.6-1.9
					c1.7-1.5,2.8-3.8,3.4-6.8c1.4-6.9,1.9-11.8,1.4-14.9c-0.5-3.4-3.5-7.1-9.2-11.3c-8.8-6.6-14.8-11.5-17.8-14.5
					c-2.9-2.9-5.2-6.8-6.8-11.7c-1.5-4.8-1.8-10.2-0.6-16c1.8-8.4,5.4-14.6,11.6-18.8c6.3-4.2,14.5-6.4,25.5-6.4l2.2-9.4
					C123.9,56.6,126.5,54.9,131.2,55.4z"/>
				<g class="st12">
					<linearGradient id="SVGID_8_" gradientUnits="userSpaceOnUse" x1="72.5018" y1="125.7205" x2="161.3476" y2="125.7205">
						<stop  offset="0.1642" style="stop-color:#FFDE43"/>
						<stop  offset="0.2484" style="stop-color:#FFDA42"/>
						<stop  offset="1" style="stop-color:#FFBD37"/>
					</linearGradient>
					<path class="st13" d="M129.5,58.3L129.5,58.3c0.5,0,0.9,0,1.4,0.1c1.5,0.2,2.4,0.5,3,0.8l-1.6,7.6l-0.6,3l3,0.6l1.7,0.3
						c9,2,15.5,5.5,18.7,10c3.2,4.4,4,10.3,2.5,17.7c-0.1,0.4-0.3,1.1-0.5,1.8c0,0.1-0.1,0.3-0.1,0.4c-1.6,0.5-4.5,1.1-8.5,1.1
						c-1.3,0-2.7-0.1-4.1-0.2c-5.8-0.6-10.1-2.3-12.4-3.4l0.2-1.1l0.3-1.5c1.1-5.2,1.8-8.4,1.1-10.8c-0.9-3.7-3.4-5.7-7.6-6.1
						c-0.4,0-0.9-0.1-1.3-0.1c-2.8,0-5.4,1-7.4,3c-2,2-3.4,4.8-4.1,8.5c-1.2,6-0.6,10.6,1.9,13.7c1.2,1.5,4.2,4.6,16.3,13.5
						c8.9,6.5,12.7,9.9,14.3,11.7c2,2.2,3.6,5.3,4.5,9.2c1,3.7,0.8,8.7-0.4,14.7c-1.9,9.3-6,16.4-12,21.1
						c-5.9,4.6-14.6,7.2-25.1,7.4l-1.7,0l-2.5,0l-0.5,2.4l-1.9,9.2c-0.7,0.1-1.5,0.3-2.5,0.3c-0.4,0-0.8,0-1.2-0.1
						c-1.4-0.1-2.7-0.5-3.6-0.9l1.9-9.1l0.5-2.4l-2.2-1l-0.4-0.2l-0.3-0.1l-0.3-0.1c-7.3-1.5-12.8-4.6-17.9-10.1
						c-4.5-4.9-5.6-13.5-3.3-24.8l0.5-2.5c1.7-0.4,4.7-1,8.9-1c1.5,0,3.1,0.1,4.7,0.2c5.9,0.6,9.8,2.2,11.8,3.2l-0.8,3.6
						c-2.5,12-2.8,14.7-2.5,16.4c0.7,5.3,4.6,6.8,7.7,7.1c0.5,0.1,1,0.1,1.5,0.1c2.9,0,5.4-0.9,7.4-2.7c2.1-1.9,3.6-4.7,4.4-8.4
						c1.5-7.3,2-12.4,1.5-16c-0.6-4.2-3.9-8.5-10.3-13.3c-8.8-6.6-14.7-11.4-17.5-14.2c-2.6-2.6-4.6-6.1-6-10.5
						c-1.4-4.5-1.6-9.4-0.6-14.5C89,84,92.3,78.7,97.7,75c5.9-4,13.7-5.9,23.9-5.9l2.4,0l0.5-2.3l1.9-8
						C127,58.5,128.1,58.3,129.5,58.3 M129.5,55.3c-3.7,0-5.6,1.3-5.7,1.4l-2.2,9.4c-11,0-19.2,2.2-25.5,6.4
						c-6.3,4.2-9.9,10.4-11.6,18.8c-1.2,5.8-0.9,11.2,0.6,16c1.5,4.9,3.9,8.8,6.8,11.7c3,3,9,7.9,17.8,14.5c5.7,4.3,8.7,8,9.2,11.3
						c0.5,3.2,0,8.1-1.4,14.9c-0.6,3-1.8,5.3-3.4,6.8c-1.5,1.3-3.3,2-5.4,2c-0.4,0-0.8,0-1.2-0.1c-4.1-0.4-4.8-2.7-5.1-4.5
						c-0.2-1.4,0.2-4.5,2.5-15.4l1.2-5.7c-0.2-0.2-4.9-3.7-14.8-4.7c-1.8-0.2-3.5-0.3-5-0.3c-7,0-11.2,1.6-11.4,1.7l-0.9,4.2
						c-2.6,12.6-1.1,21.8,4,27.4c5.2,5.7,11.2,9.4,19.5,11l0.4,0.2l-2.4,11.4c0.1,0.1,2.9,1.9,6.7,2.3c0.5,0.1,1.1,0.1,1.6,0.1
						c3,0,5-0.9,5.1-1l2.3-10.9l1.8,0c11.2-0.2,20.4-2.9,27-8.1c6.5-5.1,11-12.8,13.1-22.8c1.3-6.3,1.5-11.7,0.4-16.1
						c-1.1-4.4-2.9-7.9-5.2-10.5c-2.5-2.7-7.4-6.7-14.7-12.1c-8.9-6.5-14-10.8-15.7-12.9c-1.9-2.4-2.4-6.2-1.3-11.3
						c0.7-3.2,1.7-5.5,3.3-7c1.4-1.4,3.2-2.2,5.3-2.2c0.3,0,0.6,0,1,0.1c3.1,0.3,4.4,1.6,5,3.9c0.5,2-0.3,5.4-1.5,11l-0.7,3.3
						c0.3,0.2,6.1,3.8,15.5,4.8c1.6,0.2,3,0.2,4.4,0.2c6.7,0,10.7-1.7,11-1.8c0.5-1.7,1-3,1.2-4c1.7-8.2,0.7-15-3-20.1
						c-3.8-5.2-11-9-20.6-11.1l-1.7-0.3l1.9-9.3c-0.1-0.1-1.2-2.2-5.9-2.7C130.6,55.3,130,55.3,129.5,55.3L129.5,55.3z"/>
				</g>
			</g>
			<g class="st14">
				<g>
					<linearGradient id="SVGID_9_" gradientUnits="userSpaceOnUse" x1="92.7561" y1="132.7895" x2="83.7887" y2="168.1463">
						<stop  offset="1.809950e-02" style="stop-color:#FFFFA0"/>
						<stop  offset="0.9762" style="stop-color:#FFEB6A"/>
					</linearGradient>
					<path class="st15" d="M104.7,148.5l1.2-5.7c-0.2-0.2-4.9-3.7-14.8-4.7c-9.9-1-16.1,1.3-16.4,1.4l-0.9,4.2
						c-0.6,2.9-1,5.6-1.1,8.2c8.5,2.1,17.4,3.7,26.4,4.6c1.3,0.1,2.6,0.3,4,0.4C103.4,154.8,104,152.1,104.7,148.5z"/>
				</g>
				<g>
					<linearGradient id="SVGID_10_" gradientUnits="userSpaceOnUse" x1="141.9294" y1="28.7241" x2="91.9589" y2="225.7497">
						<stop  offset="1.809950e-02" style="stop-color:#FFFFA0"/>
						<stop  offset="0.9762" style="stop-color:#FFEB6A"/>
					</linearGradient>
					<path class="st16" d="M152.4,153.4c1.3-6.3,1.5-11.7,0.4-16.1c-1.1-4.4-2.9-7.9-5.2-10.5c-2.5-2.7-7.4-6.7-14.7-12.1
						c-8.9-6.5-14-10.8-15.7-12.9c-1.9-2.4-2.4-6.2-1.3-11.3c0.7-3.2,1.7-5.5,3.3-7c1.7-1.7,3.8-2.4,6.3-2.1c3.1,0.3,4.4,1.6,5,3.9
						c0.5,2-0.3,5.4-1.5,11l-0.7,3.3c0.3,0.2,6.1,3.8,15.5,4.8c9.4,1,15.1-1.4,15.4-1.6c0.5-1.7,1-3,1.2-4c1.7-8.2,0.7-15-3-20.1
						c-3.8-5.2-11-9-20.6-11.1l-1.7-0.3l1.9-9.3c-0.1-0.1-1.2-2.2-5.9-2.7c-4.8-0.5-7.3,1.2-7.5,1.3l-2.2,9.4
						c-11,0-19.2,2.2-25.5,6.4c-6.3,4.2-9.9,10.4-11.6,18.8c-1.2,5.8-0.9,11.2,0.6,16c1.5,4.9,3.9,8.8,6.8,11.7c3,3,9,7.9,17.8,14.5
						c5.7,4.3,8.7,8,9.2,11.3c0.4,2.8,0.1,7.1-1,12.8c11.7,0.1,23.2-0.7,34.7-2.5C152.1,154.6,152.3,154,152.4,153.4z"/>
				</g>
			</g>
			<polygon class="st17" points="94.3,70.3 84.5,67.8 93.4,72.7 94.5,75.1 92,85.1 96.8,76 99.2,74.9 109,77.4 100.1,72.5 
				99.1,70.1 101.5,60.1 96.7,69.2 			"/>
			<linearGradient id="SVGID_11_" gradientUnits="userSpaceOnUse" x1="160.9173" y1="-28.2361" x2="83.9566" y2="275.2079">
				<stop  offset="1.809950e-02" style="stop-color:#FFFFA0"/>
				<stop  offset="0.9762" style="stop-color:#FFEB6A"/>
			</linearGradient>
			<path class="st18" d="M145.4,13c-3.9-0.4-7.7-0.6-11.6-0.6c-57.4,0-111.4,44.3-123.7,103.7C9,121.5,8.3,126.8,7.9,132
				c3.2,2.2,6.4,4.3,9.7,6.4c0.1-6.7,0.9-13.4,2.3-20.2c5.5-26.4,20.2-50.7,41.6-68.5c21.1-17.6,46.8-27.3,72.3-27.3h0
				c3.5,0,7,0.2,10.5,0.5c26,2.7,48.4,15.4,63.3,35.8c7.7,10.6,13,22.7,15.8,35.9c2.9,13.8,2.8,28.2-0.3,42.9
				c-0.3,1.2-0.5,2.4-0.8,3.6c3.9-2,7.7-4.1,11.5-6.2C244.2,73.4,205.4,19.3,145.4,13z"/>
		</g>
	</g>
</g>
<g>
</g>
<g>
</g>
<g>
</g>
<g>
</g>
<g>
</g>
</svg>
