<?xml version="1.0" encoding="utf-8"?>
<!-- Generator: Adobe Illustrator 21.0.0, SVG Export Plug-In . SVG Version: 6.00 Build 0)  -->
<svg version="1.1" id="Layer_1" xmlns="http://www.w3.org/2000/svg" xmlns:xlink="http://www.w3.org/1999/xlink" x="0px" y="0px"
	 width="256px" height="266px" viewBox="0 0 256 266" style="enable-background:new 0 0 256 266;" xml:space="preserve">
<style type="text/css">
	.Drop_x0020_Shadow{fill:none;}
	.Outer_x0020_Glow_x0020_5_x0020_pt{fill:none;}
	.Jive_GS{fill:#A6D0E4;}
	.st0{fill:#6BAA34;}
	.st1{fill:url(#SVGID_1_);}
	.st2{opacity:0.5;fill:url(#SVGID_2_);fill-opacity:0.5;}
	.st3{fill:url(#SVGID_3_);}
	.st4{opacity:0.2;fill:url(#SVGID_4_);}
	.st5{opacity:0.5;fill:#94512A;}
	.st6{fill:#E99855;}
	.st7{fill:url(#SVGID_5_);}
	.st8{opacity:0.6;}
	.st9{fill:#94512A;}
	.st10{opacity:0.7;fill:url(#SVGID_6_);}
	.st11{fill:url(#SVGID_7_);}
	.st12{fill:url(#SVGID_8_);}
	.st13{fill:url(#SVGID_9_);}
	.st14{fill:url(#SVGID_10_);}
	.st15{fill:url(#SVGID_11_);}
	.st16{fill:url(#SVGID_12_);}
	.st17{fill:url(#SVGID_13_);}
	.st18{opacity:0.1;}
	.st19{fill:url(#SVGID_14_);}
	.st20{opacity:0.5;}
	.st21{fill:url(#SVGID_15_);}
	.st22{fill:#FFFFFF;}
</style>
<g>
	<path class="st0" d="M227.1,230.3c-3.3,13.6-41.6,25.3-85.5,26.2c-43.9,0.9-76.7-9.4-73.4-22.9c3.3-13.6,41.6-25.3,85.5-26.2
		C197.6,206.4,230.4,216.7,227.1,230.3z"/>
	<g>
		<linearGradient id="SVGID_1_" gradientUnits="userSpaceOnUse" x1="271.0822" y1="-79.3624" x2="69.938" y2="339.9377">
			<stop  offset="0" style="stop-color:#FFC649"/>
			<stop  offset="0" style="stop-color:#FFC848"/>
			<stop  offset="0" style="stop-color:#FFCF45"/>
			<stop  offset="0" style="stop-color:#FFD243"/>
			<stop  offset="1" style="stop-color:#CD571B"/>
		</linearGradient>
		<path class="st1" d="M247.5,140.4c3.3-23.7-0.6-48.4-12.6-69.3c-3.9-6.8-8.5-13.1-13.9-18.7c-6.1-6.4-13-12-19.6-17.9
			c18.2,16.1,29.6,38.8,32.8,62.8c3.3,24.1-1.5,49.5-12.7,71.1c-11.1,21.5-27.5,39.8-48,52.7c-20.3,12.8-44,19.9-68.1,19.3
			c-21.9-0.7-43.4-8-60.6-21.7c-1.3-1-2.5-2.1-3.8-3.2c8.7,7.7,17.1,15.9,27,22c9.1,5.6,19.2,9.6,29.6,12.1
			c23.1,5.4,47.6,2.7,69.4-6.3c21.8-9,41-24,55.2-42.8C235.6,182.9,244.5,162.1,247.5,140.4z"/>
		<linearGradient id="SVGID_2_" gradientUnits="userSpaceOnUse" x1="152.5161" y1="171.2675" x2="100.5507" y2="279.5933">
			<stop  offset="0" style="stop-color:#E08C3C"/>
			<stop  offset="1" style="stop-color:#FFD06F"/>
		</linearGradient>
		<path class="st2" d="M167.2,243.2c7.6-3.1,14.9-7,21.8-11.6l-8.3-8.8c-1,0.7-2,1.3-3,2c-20.7,13.1-44.9,20.3-69.5,19.6
			c-17.4-0.5-34.6-5.2-49.6-13.9c3.1,2.4,6.3,4.8,9.7,6.8c9.1,5.6,19.2,9.6,29.6,12.1C120.9,254.8,145.4,252.2,167.2,243.2z"/>
		<g>
			<linearGradient id="SVGID_3_" gradientUnits="userSpaceOnUse" x1="58.696" y1="438.9233" x2="196.7876" y2="-253.0376">
				<stop  offset="0" style="stop-color:#F5942A"/>
				<stop  offset="1" style="stop-color:#F5D85D"/>
			</linearGradient>
			<path class="st3" d="M145.2,10.1c61.5,6.5,100.7,63.1,87.6,126.6C219.6,200.1,159,246.3,97.5,239.8C36,233.3-3.2,176.7,9.9,113.3
				C23.1,49.8,83.7,3.6,145.2,10.1z"/>
		</g>
		<linearGradient id="SVGID_4_" gradientUnits="userSpaceOnUse" x1="87.5686" y1="292.8714" x2="177.8332" y2="-159.4335">
			<stop  offset="0" style="stop-color:#E08C3C"/>
			<stop  offset="1" style="stop-color:#FFD06F"/>
		</linearGradient>
		<path class="st4" d="M144.4,12.8C85,6.5,26.5,51.1,13.8,112.3c-1,4.7-1.7,9.4-2.1,14c24.9,18,55,29.8,88.8,33.3
			c45.1,4.7,89.9-6,129-28.1C240.2,71.8,202.7,18.9,144.4,12.8z"/>
		<path class="st5" d="M106.9,234.4C52,228.6,12,180.8,24.3,121.5C36.7,62.1,93.3,18.9,150.9,25c48.3,5.1,76.6,45.8,78.7,90.8
			c2.4-53.5-33.7-98.3-87.2-103.9c-59.6-6.3-118.2,38.5-131,99.9c-12.8,61.4,25.2,116.3,84.8,122.6c5.4,0.6,10.8,0.7,16.2,0.5
			C110.6,234.7,108.7,234.6,106.9,234.4z"/>
		<path class="st6" d="M136.3,22.5c3.5,0,7,0.2,10.4,0.5c25.7,2.7,47.9,15.3,62.6,35.4c7.6,10.5,12.9,22.4,15.6,35.5
			c2.8,13.7,2.7,27.9-0.3,42.4c-5.4,26.1-20,50.2-41.1,67.8c-20.9,17.4-46.3,27-71.6,27c-3.5,0-7-0.2-10.4-0.5
			c-25.7-2.7-47.9-15.3-62.6-35.4c-7.6-10.5-12.9-22.4-15.6-35.5c-2.8-13.7-2.7-27.9,0.3-42.4C29,91.1,43.6,67,64.7,49.4
			C85.6,32,111,22.5,136.3,22.5L136.3,22.5 M136.3,12.6c-56.8,0-110.2,43.8-122.4,102.6c-13,62.7,25.8,113.8,86.6,120.2
			c3.8,0.4,7.6,0.6,11.4,0.6c56.8,0,105.6-42.1,117.8-100.9c13-62.7-21.2-115.5-82-121.9C143.9,12.8,140.1,12.6,136.3,12.6
			L136.3,12.6z"/>
		<linearGradient id="SVGID_5_" gradientUnits="userSpaceOnUse" x1="166.5486" y1="-53.2402" x2="48.3611" y2="412.7547">
			<stop  offset="0.199" style="stop-color:#FFDE43"/>
			<stop  offset="0.5646" style="stop-color:#FFD23E"/>
			<stop  offset="1" style="stop-color:#FFBD37"/>
		</linearGradient>
		<path class="st7" d="M133.7,19.5c3.5,0,7,0.2,10.5,0.5c26,2.7,48.4,15.4,63.3,35.8c7.7,10.6,13,22.7,15.8,35.9
			c2.9,13.8,2.8,28.2-0.3,42.9c-5.5,26.4-20.2,50.7-41.6,68.5c-21.1,17.6-46.8,27.3-72.3,27.3c-3.5,0-7-0.2-10.5-0.5
			c-25.9-2.7-48.4-15.4-63.3-35.8c-7.7-10.6-13-22.7-15.8-35.9c-2.9-13.8-2.8-28.2,0.3-42.9C25.2,88.9,40,64.5,61.3,46.8
			C82.4,29.2,108.1,19.5,133.7,19.5L133.7,19.5 M133.6,9.5C76.3,9.5,22.3,53.8,9.9,113.3c-13.2,63.4,26,120.1,87.6,126.6
			c3.9,0.4,7.7,0.6,11.6,0.6c57.4,0,111.4-44.3,123.7-103.7c13.2-63.4-26-120.1-87.6-126.6C141.3,9.7,137.5,9.5,133.6,9.5L133.6,9.5
			z"/>
		<g class="st8">
			<path class="st9" d="M143.7,69.9c21.4,2.3,29.3,11.9,29.7,12.4c0,0.2-0.5,4.1-3.5,8.4c-0.2,0.3-4,5.3-6.6,6.5
				c-0.4-0.3-7.2-6.6-18.6-7.8c-0.8-0.1-1.7-0.1-2.5-0.2c-7.9-0.2-20.6,9.4-28.1,25.5l18.4,1.9c3.4,0.4,5.6,3.3,4.8,6.9
				c-0.7,3.5-4,5.9-7.4,5.6l-20.2-2.1c-0.2-0.1-0.4,0-0.5,0.6l-0.9,4.2c-0.2,1.1-0.3,3.5-1.2,7.6l20.1,2.1c3.4,0.4,5.6,3.3,4.8,6.9
				c-0.7,3.5-4,5.9-7.4,5.6l-18.3-1.9c1.6,12.9,9.7,25,17.2,26.4c0.6,0.1,1.2,0.2,1.8,0.3c11.7,1.2,21.7-5.7,22.3-6.1
				c2.1,1.7,3.5,7.5,3.6,7.8c1.1,4.7-0.1,8.8-0.2,9c-0.6,0.5-12.4,10.1-33.9,7.8c-18.7-2-40.9-14.6-40-48.3l-3-0.3
				c-3.4-0.4-5.6-3.3-4.8-6.9c0.7-3.5,4-5.9,7.4-5.6l1.7,0.2c0.8-4.1,1.6-7.4,1.9-8.9l0.3-1.5c0.3-1.3,0.3-2,0.3-2l-1.7-0.2
				c-3.4-0.4-5.6-3.3-4.8-6.8c0.7-3.5,4-5.9,7.4-5.6l2.9,0.3C98.5,75,125,67.9,143.7,69.9z"/>
		</g>
		<linearGradient id="SVGID_6_" gradientUnits="userSpaceOnUse" x1="160.7204" y1="-31.1274" x2="83.7597" y2="272.317">
			<stop  offset="1.809950e-02" style="stop-color:#FFFFA0"/>
			<stop  offset="0.9762" style="stop-color:#FFEB6A"/>
		</linearGradient>
		<path class="st10" d="M145.2,10.1c-3.9-0.4-7.7-0.6-11.6-0.6C76.3,9.5,22.3,53.8,9.9,113.3c-1.1,5.4-1.8,10.7-2.2,15.9
			c3.2,2.2,6.4,4.3,9.7,6.4c0.1-6.7,0.9-13.4,2.3-20.2C25.2,88.9,40,64.5,61.3,46.8c21.1-17.6,46.8-27.3,72.3-27.3h0
			c3.5,0,7,0.2,10.5,0.5c26,2.7,48.4,15.4,63.3,35.8c7.7,10.6,13,22.7,15.8,35.9c2.9,13.8,2.8,28.2-0.3,42.9
			c-0.3,1.2-0.5,2.4-0.8,3.6c3.9-2,7.7-4.1,11.5-6.2C244,70.5,205.2,16.4,145.2,10.1z"/>
		<g>
			<linearGradient id="SVGID_7_" gradientUnits="userSpaceOnUse" x1="27.6665" y1="91.7521" x2="215.3083" y2="195.3303">
				<stop  offset="8.601120e-02" style="stop-color:#CD553F"/>
				<stop  offset="0.905" style="stop-color:#FFD067"/>
				<stop  offset="1" style="stop-color:#FFC46D"/>
			</linearGradient>
			<path class="st11" d="M74.6,117.2c-1.2-0.1-2.3-0.6-3.1-1.4c1.9,1.7,3.8,4,6.5,4.3l1.7,0.2l-3.3-3L74.6,117.2z"/>
			<linearGradient id="SVGID_8_" gradientUnits="userSpaceOnUse" x1="16.1723" y1="112.5788" x2="203.811" y2="216.1554">
				<stop  offset="8.601120e-02" style="stop-color:#CD553F"/>
				<stop  offset="0.905" style="stop-color:#FFD067"/>
				<stop  offset="1" style="stop-color:#FFC46D"/>
			</linearGradient>
			<path class="st12" d="M69.5,141.9c-1.2-0.1-2.3-0.6-3.1-1.4l3.3,3c0.8,0.7,1.9,1.2,3.1,1.4l3,0.3l-3.3-3L69.5,141.9z"/>
			<linearGradient id="SVGID_9_" gradientUnits="userSpaceOnUse" x1="35.2586" y1="78.0035" x2="222.892" y2="181.5771">
				<stop  offset="8.601120e-02" style="stop-color:#CD553F"/>
				<stop  offset="0.905" style="stop-color:#FFD067"/>
				<stop  offset="1" style="stop-color:#FFC46D"/>
			</linearGradient>
			<path class="st13" d="M103,126.7c-0.2,2-0.5,4-0.9,6l3.3,3c0.5-2.5,0.6-5.1,1.1-7.6l0.9-4.2c0-0.1,0.1-0.2,0.1-0.3c0,0,0,0,0,0
				c0-0.1,0.1-0.1,0.1-0.2h0c0.1-0.1,0.2-0.1,0.3-0.1l20,2.1c2.7,0.3,5.4-1.3,6.7-3.7c0,0,0,0,0,0c1-1.9,1.1-4.4-0.1-6.2
				c-0.2-0.4-0.6-0.8-0.9-1l-3.3-3c4.6,4.1-0.2,11.5-5.7,10.9l-20-2.1c0,0-0.2,0-0.3,0c0,0,0,0,0,0l0,0l0,0c0,0,0,0,0,0
				c0,0,0,0,0,0.1c0,0,0,0.1-0.1,0.1c0,0,0,0,0,0c0,0,0,0,0,0c0,0.1-0.1,0.2-0.1,0.3l-0.9,4.2C103.1,125.6,103.1,126.2,103,126.7
				C103,127.2,103,126.6,103,126.7z"/>
			<linearGradient id="SVGID_10_" gradientUnits="userSpaceOnUse" x1="53.264" y1="45.3833" x2="240.8987" y2="148.9577">
				<stop  offset="8.601120e-02" style="stop-color:#CD553F"/>
				<stop  offset="0.905" style="stop-color:#FFD067"/>
				<stop  offset="1" style="stop-color:#FFC46D"/>
			</linearGradient>
			<path class="st14" d="M169.6,83.9c0.7-1.5,1.3-3.2,1.5-4.8c-0.5-0.7-1.2-1.3-1.8-1.8l-3.3-3c0.6,0.6,1.3,1.2,1.8,1.8c0,0,0,0,0,0
				c-0.1,0.7-0.3,1.4-0.5,2c-0.7,2.2-1.7,4.3-3,6.2c-1.7,2.3-3.9,5.3-6.6,6.5c-4-3.5-9.2-5.9-14.4-7c-4.2-0.9-8.3-1.3-12.3,0.4
				c-3.8,1.6-7.2,4.2-10.2,7l0,0l0,0l0,0c-5,5-9,10.7-12,17l3.3,3c4.4-9.3,11.4-18.9,20.9-23.5c2-1,4.3-1.8,6.6-1.8
				c2.8,0,5.8,0.5,8.5,1.2c3.9,1.1,7.6,2.8,10.9,5.1c0.6,0.5,1.3,0.9,1.9,1.5l0.1,0.1c1.7-0.8,3.1-2.4,4.4-3.8l0,0
				C167.1,88.2,168.5,86.2,169.6,83.9z"/>
			<linearGradient id="SVGID_11_" gradientUnits="userSpaceOnUse" x1="23.1694" y1="99.9022" x2="210.8053" y2="203.4773">
				<stop  offset="8.601120e-02" style="stop-color:#CD553F"/>
				<stop  offset="0.905" style="stop-color:#FFD067"/>
				<stop  offset="1" style="stop-color:#FFC46D"/>
			</linearGradient>
			<path class="st15" d="M101.7,147.5c0.9,4.6,2.5,9.1,4.8,13.1c1.1,1.9,2.4,3.8,3.8,5.5c1.6,1.8,3.5,3.4,5.3,5
				c-6.3-5.6-10-14.6-11-22.9l18.1,1.9c0.6,0.1,1.3,0,1.9-0.1c0.6-0.2,1.2-0.3,1.8-0.6c0,0,0,0,0,0c3.7-1.8,5.4-7.3,2.1-10.3l-3.3-3
				c4,3.5,0.8,10-3.8,10.9c0,0,0,0,0,0c-0.6,0.1-1.3,0.1-1.9,0.1l-18.1-1.9C101.5,146,101.6,146.7,101.7,147.5
				C101.8,147.8,101.7,147.3,101.7,147.5z"/>
			<linearGradient id="SVGID_12_" gradientUnits="userSpaceOnUse" x1="13.3112" y1="117.7631" x2="200.946" y2="221.3375">
				<stop  offset="8.601120e-02" style="stop-color:#CD553F"/>
				<stop  offset="0.905" style="stop-color:#FFD067"/>
				<stop  offset="1" style="stop-color:#FFC46D"/>
			</linearGradient>
			<path class="st16" d="M149.6,182.2c0.3-3-0.3-5.9-1.2-8.8c-0.5-1.4-1-2.8-1.9-4c-1.1-1.4-2.7-2.5-4-3.7c1.3,1.1,1.8,2.9,2.5,4.4
				c1.4,3.8,2,8.1,0.8,12.1c0,0,0,0,0,0c0,0,0,0.1,0,0.1c-3.3,2.7-7.5,4.6-11.6,5.8c-5,1.5-10.1,2.3-15.3,2.3
				c-11.7,0-23.5-3.3-32.3-11.2l0,0c0,0,0,0,0,0c2.2,2,4.4,4,6.8,5.7c2.3,1.6,4.7,3,7.2,4.1c4.8,2.2,10.1,3.5,15.3,4
				c10.5,1,21.9-0.5,31-6.3c0.8-0.5,1.5-1,2.2-1.5c0,0,0,0,0,0c0,0,0,0,0,0c0.2-0.7,0.3-1.5,0.4-2.2c0,0,0,0,0,0
				C149.5,182.7,149.6,182.5,149.6,182.2z"/>
		</g>
		<g>
			<linearGradient id="SVGID_13_" gradientUnits="userSpaceOnUse" x1="138.3268" y1="25.9313" x2="74.9968" y2="275.6316">
				<stop  offset="0.1642" style="stop-color:#FFDE43"/>
				<stop  offset="0.2484" style="stop-color:#FFDA42"/>
				<stop  offset="1" style="stop-color:#FFBD37"/>
			</linearGradient>
			<path class="st17" d="M138.3,63.9c21.3,2.2,29,11.8,29.5,12.3c0,0.2-0.5,4.1-3.5,8.3c-0.2,0.3-3.9,5.3-6.6,6.5
				c-0.4-0.3-7.2-6.5-18.4-7.7c-0.8-0.1-1.7-0.1-2.5-0.2c-7.8-0.2-20.4,9.3-27.9,25.3l18.3,1.9c3.4,0.4,5.5,3.3,4.8,6.8
				c-0.7,3.5-4,5.9-7.4,5.5l-20-2.1c-0.2-0.1-0.4,0-0.5,0.6l-0.9,4.2c-0.2,1.1-0.3,3.5-1.1,7.6l19.9,2.1c3.4,0.4,5.5,3.3,4.8,6.8
				c-0.7,3.5-4,5.9-7.4,5.5l-18.1-1.9c1.6,12.7,9.6,24.8,17.1,26.1c0.6,0.1,1.2,0.2,1.8,0.3c11.6,1.2,21.6-5.7,22.1-6
				c2.1,1.7,3.5,7.4,3.6,7.7c1.1,4.6-0.1,8.7-0.2,9c-0.6,0.5-12.3,10-33.6,7.8c-18.5-1.9-40.5-14.4-39.6-47.9l-3-0.3
				c-3.3-0.4-5.5-3.3-4.8-6.8c0.7-3.5,4-5.9,7.3-5.5l1.7,0.2c0.8-4.1,1.6-7.3,1.9-8.9l0.3-1.5c0.3-1.3,0.3-2,0.3-2l-1.7-0.2
				c-3.3-0.4-5.5-3.3-4.8-6.8c0.7-3.5,4-5.9,7.3-5.5l2.8,0.3C93.5,68.9,119.7,61.9,138.3,63.9z"/>
			<g class="st18">
				<linearGradient id="SVGID_14_" gradientUnits="userSpaceOnUse" x1="64.5969" y1="126.9886" x2="167.7738" y2="126.9886">
					<stop  offset="0.1642" style="stop-color:#FFDE43"/>
					<stop  offset="0.2484" style="stop-color:#FFDA42"/>
					<stop  offset="1" style="stop-color:#FFBD37"/>
				</linearGradient>
				<path class="st19" d="M132.6,63.6v3c1.8,0,3.6,0.1,5.4,0.3c10.5,1.1,17.4,4.1,21.3,6.4c2.6,1.5,4.2,2.9,5.2,3.8
					c-0.3,1.3-1.1,3.4-2.7,5.6c-1.2,1.6-2.8,3.4-4,4.5c-3-2.2-9.4-6-18.3-7c-0.9-0.1-1.8-0.2-2.7-0.2c-0.1,0-0.2,0-0.4,0
					c-10.1,0-23.1,11.6-30.3,27l-1.8,3.8l4.2,0.4l18.3,1.9c0.8,0.1,1.4,0.4,1.8,1c0.4,0.6,0.6,1.4,0.4,2.2c-0.4,1.8-2,3.1-3.8,3.1
					c-0.1,0-0.2,0-0.4,0l-19.9-2.1c-0.2,0-0.4,0-0.5,0c-1.3,0-2.9,0.8-3.3,3l-0.9,4.2c-0.1,0.5-0.2,1.1-0.3,1.9
					c-0.2,1.3-0.4,3.1-0.9,5.7l-0.6,3.2l3.3,0.3l19.9,2.1c0.8,0.1,1.4,0.4,1.8,1c0.4,0.6,0.6,1.4,0.4,2.2c-0.4,1.8-2,3.2-3.8,3.2
					c-0.1,0-0.2,0-0.4,0l-18.1-1.9l-3.8-0.4l0.5,3.8c1.8,14.2,10.6,27.1,19.5,28.7c0.7,0.1,1.4,0.2,2.1,0.3c1,0.1,2.1,0.2,3.1,0.2
					c8,0,14.8-3.1,18.4-5.1c0.5,1.1,1.1,2.7,1.5,4.4c0.7,2.7,0.3,5.2,0.1,6.5c-2.6,1.8-10.9,6.9-24.5,6.9c-2,0-4-0.1-6.1-0.3
					c-8.9-0.9-37.9-6.9-37-44.8l0.1-2.8l-2.8-0.3l-3-0.3c-0.8-0.1-1.4-0.4-1.8-1c-0.4-0.6-0.6-1.4-0.4-2.2c0.4-1.8,2-3.2,3.7-3.2
					c0.1,0,0.2,0,0.3,0l1.7,0.2l2.7,0.3l0.5-2.7c0.5-2.7,1.1-5.1,1.5-6.8c0.2-0.8,0.3-1.5,0.4-2l0.3-1.5c0.2-1,0.3-1.6,0.3-2l0-0.1
					c-0.2,1.2-1.3,2.5-2.9,2.5l0.3-6l-1.7-0.2c-0.8-0.1-1.4-0.4-1.8-1c-0.4-0.6-0.6-1.4-0.4-2.2c0.4-1.8,2-3.2,3.7-3.2
					c0.1,0,0.2,0,0.4,0l2.8,0.3l2.3,0.2l0.8-2.2c12.8-34.6,36.7-39.7,49.8-39.7L132.6,63.6 M132.6,63.6c-18,0-40.5,8.9-52.6,41.7
					l-2.8-0.3c-0.2,0-0.4,0-0.7,0c-3.1,0-6,2.3-6.7,5.6c-0.7,3.5,1.4,6.4,4.8,6.8l1.7,0.2l0,0c0,0-0.1,0.7-0.3,2l-0.3,1.5
					c-0.3,1.5-1.1,4.8-1.9,8.9l-1.7-0.2c-0.2,0-0.4,0-0.7,0c-3.1,0-6,2.3-6.7,5.6c-0.7,3.5,1.4,6.4,4.8,6.8l3,0.3
					c-0.9,33.4,21.1,45.9,39.6,47.9c2.2,0.2,4.4,0.3,6.4,0.3c17.2,0,26.7-7.7,27.2-8.1c0.1-0.2,1.3-4.3,0.2-9
					c-0.1-0.3-1.5-6.1-3.6-7.7c-0.5,0.3-8.9,6.2-19.3,6.2c-0.9,0-1.9,0-2.8-0.1c-0.6-0.1-1.2-0.1-1.8-0.3
					C111,170,103,158,101.4,145.2l18.1,1.9c0.2,0,0.4,0,0.7,0c3.1,0,6-2.3,6.7-5.6c0.7-3.5-1.4-6.4-4.8-6.8l-19.9-2.1
					c0.8-4.1,0.9-6.5,1.1-7.6l0.9-4.2c0.1-0.4,0.2-0.6,0.4-0.6c0,0,0.1,0,0.1,0l20,2.1c0.2,0,0.4,0,0.7,0c3.1,0,6-2.3,6.7-5.5
					c0.7-3.5-1.4-6.4-4.8-6.8l-18.3-1.9c7.4-15.8,19.8-25.3,27.6-25.3c0.1,0,0.2,0,0.3,0c0.9,0,1.7,0.1,2.5,0.2
					c11.2,1.2,18.1,7.4,18.4,7.7c2.7-1.2,6.4-6.2,6.6-6.5c2.9-4.2,3.5-8.1,3.5-8.3c-0.4-0.5-8.2-10-29.5-12.3
					C136.5,63.7,134.6,63.6,132.6,63.6L132.6,63.6z"/>
			</g>
		</g>
		<g class="st20">
			<linearGradient id="SVGID_15_" gradientUnits="userSpaceOnUse" x1="133.9393" y1="33.7755" x2="85.8699" y2="223.3059">
				<stop  offset="1.809950e-02" style="stop-color:#FFFFA0"/>
				<stop  offset="0.9762" style="stop-color:#FFEB6A"/>
			</linearGradient>
			<path class="st21" d="M101.4,145.2l18.1,1.9c3.4,0.4,6.6-2,7.4-5.5c0.7-3.5-1.4-6.4-4.8-6.8l-19.9-2.1c0.8-4.1,0.9-6.5,1.1-7.6
				l0.9-4.2c0.1-0.5,0.3-0.6,0.5-0.6l20,2.1c3.4,0.4,6.6-2,7.4-5.5c0.7-3.5-1.4-6.4-4.8-6.8l-18.3-1.9c7.5-16,20.1-25.5,27.9-25.3
				c0.9,0,1.7,0.1,2.5,0.2c11.2,1.2,18.1,7.4,18.4,7.7c2.7-1.2,6.4-6.2,6.6-6.5c2.9-4.2,3.5-8.1,3.5-8.3c-0.4-0.5-8.2-10-29.5-12.3
				c-18.6-2-44.8,5-58.3,41.4l-2.8-0.3c-3.3-0.4-6.6,2-7.3,5.5c-0.7,3.5,1.4,6.4,4.8,6.8l1.7,0.2c0,0,0,0.7-0.3,2l-0.3,1.5
				c-0.3,1.5-1.1,4.8-1.9,8.9l-1.7-0.2c-3.3-0.4-6.6,2-7.3,5.5c-0.7,3.5,1.4,6.4,4.8,6.8l3,0.3c-0.1,2.1,0,4.1,0.1,6.1
				c3.9,0.6,7.9,1.2,11.9,1.6c6,0.6,12.1,1,18.1,1.1C102,149.1,101.6,147.2,101.4,145.2z"/>
		</g>
		<polygon class="st22" points="89.5,83.5 88.3,92.5 91.8,84.1 93.8,83 102.9,84.2 94.4,80.8 93.2,78.8 94.5,69.9 91,78.3 89,79.4 
			79.9,78.1 88.4,81.6 		"/>
	</g>
</g>
<g>
</g>
<g>
</g>
<g>
</g>
<g>
</g>
<g>
</g>
</svg>
