<?xml version="1.0" encoding="utf-8"?>
<!-- Generator: Adobe Illustrator 21.0.0, SVG Export Plug-In . SVG Version: 6.00 Build 0)  -->
<svg version="1.1" id="Layer_1" xmlns="http://www.w3.org/2000/svg" xmlns:xlink="http://www.w3.org/1999/xlink" x="0px" y="0px"
	 width="256px" height="266px" viewBox="0 0 256 266" style="enable-background:new 0 0 256 266;" xml:space="preserve">
<style type="text/css">
	.Drop_x0020_Shadow{fill:none;}
	.Outer_x0020_Glow_x0020_5_x0020_pt{fill:none;}
	.Jive_GS{fill:#A6D0E4;}
	.st0{fill: #6BAA34;}
	.st1{fill:url(#SVGID_1_);}
	.st2{opacity:0.5;fill:url(#SVGID_2_);fill-opacity:0.5;}
	.st3{fill:url(#SVGID_3_);}
	.st4{opacity:0.2;fill:url(#SVGID_4_);}
	.st5{opacity:0.5;fill:#94512A;}
	.st6{fill:#E99855;}
	.st7{fill:url(#SVGID_5_);}
	.st8{opacity:0.7;fill:url(#SVGID_6_);}
	.st9{opacity:0.5;}
	.st10{fill:#94512A;}
	.st11{fill:url(#SVGID_7_);}
	.st12{fill:url(#SVGID_8_);}
	.st13{fill:url(#SVGID_9_);}
	.st14{fill:url(#SVGID_10_);}
	.st15{fill:url(#SVGID_11_);}
	.st16{fill:url(#SVGID_12_);}
	.st17{opacity:0.1;}
	.st18{fill:url(#SVGID_13_);}
	.st19{fill:url(#SVGID_14_);}
	.st20{fill:#FFFFFF;}
</style>
<g>
	<path class="st0" d="M224.6,230.3c-3.3,13.6-41.6,25.3-85.5,26.2c-43.9,0.9-76.7-9.4-73.4-22.9c3.3-13.6,41.6-25.3,85.5-26.2
		C195,206.5,227.9,216.7,224.6,230.3z"/>
	<g>
		<linearGradient id="SVGID_1_" gradientUnits="userSpaceOnUse" x1="271.3152" y1="-79.3774" x2="70.1711" y2="339.9224">
			<stop  offset="0" style="stop-color:#FFC649"/>
			<stop  offset="0" style="stop-color:#FFC848"/>
			<stop  offset="0" style="stop-color:#FFCF45"/>
			<stop  offset="0" style="stop-color:#FFD243"/>
			<stop  offset="1" style="stop-color:#CD571B"/>
		</linearGradient>
		<path class="st1" d="M247.7,140.4c3.3-23.7-0.6-48.4-12.6-69.3c-3.9-6.8-8.5-13.1-13.9-18.7c-6.1-6.4-13-12-19.6-17.9
			c18.2,16.1,29.6,38.8,32.8,62.8c3.3,24.1-1.5,49.5-12.7,71.1c-11.1,21.5-27.5,39.8-48,52.7c-20.3,12.8-44,19.9-68.1,19.3
			c-21.9-0.7-43.4-8-60.6-21.7c-1.3-1-2.5-2.1-3.8-3.2c8.7,7.7,17.1,15.9,27,22c9.1,5.6,19.2,9.6,29.6,12.1
			c23.1,5.4,47.6,2.7,69.4-6.3c21.8-9,41-24,55.2-42.8C235.9,182.8,244.7,162.1,247.7,140.4z"/>
		<linearGradient id="SVGID_2_" gradientUnits="userSpaceOnUse" x1="152.7482" y1="171.2536" x2="100.7837" y2="279.5775">
			<stop  offset="0" style="stop-color:#E08C3C"/>
			<stop  offset="1" style="stop-color:#FFD06F"/>
		</linearGradient>
		<path class="st2" d="M167.5,243.2c7.6-3.1,14.9-7,21.8-11.6l-8.3-8.8c-1,0.7-2,1.3-3,2c-20.7,13.1-44.9,20.3-69.5,19.6
			c-17.4-0.5-34.6-5.2-49.6-13.9c3.1,2.4,6.3,4.8,9.7,6.8c9.1,5.6,19.2,9.6,29.6,12.1C121.2,254.8,145.7,252.2,167.5,243.2z"/>
		<g>
			<linearGradient id="SVGID_3_" gradientUnits="userSpaceOnUse" x1="58.9289" y1="438.9084" x2="197.0207" y2="-253.0531">
				<stop  offset="0" style="stop-color:#F5942A"/>
				<stop  offset="1" style="stop-color:#F5D85D"/>
			</linearGradient>
			<path class="st3" d="M145.4,10.1C207,16.6,246.2,73.2,233,136.7c-13.2,63.4-73.7,109.6-135.3,103.1
				C36.2,233.3-3,176.7,10.2,113.2C23.3,49.8,83.9,3.6,145.4,10.1z"/>
		</g>
		<linearGradient id="SVGID_4_" gradientUnits="userSpaceOnUse" x1="88.1941" y1="292.8565" x2="178.4587" y2="-159.4488">
			<stop  offset="0" style="stop-color:#E08C3C"/>
			<stop  offset="1" style="stop-color:#FFD06F"/>
		</linearGradient>
		<path class="st4" d="M145,12.8C85.6,6.5,27.2,51.1,14.4,112.3c-1,4.7-1.7,9.4-2.1,14c24.9,18,55,29.8,88.8,33.3
			c45.1,4.7,89.9-6,129-28.1C240.9,71.7,203.3,18.9,145,12.8z"/>
		<path class="st5" d="M107.1,234.3c-54.9-5.8-94.8-53.6-82.5-112.9C36.9,62.1,93.5,18.9,151.1,25c48.3,5.1,76.6,45.8,78.7,90.8
			c2.4-53.5-33.7-98.3-87.2-103.9c-59.6-6.3-118.2,38.5-131,99.9C-1.1,173.2,36.9,228,96.5,234.3c5.4,0.6,10.8,0.7,16.2,0.5
			C110.8,234.7,108.9,234.5,107.1,234.3z"/>
		<path class="st6" d="M136.5,22.4c3.5,0,7,0.2,10.4,0.5c25.7,2.7,47.9,15.3,62.6,35.4c7.6,10.5,12.9,22.4,15.6,35.5
			c2.8,13.7,2.7,27.9-0.3,42.4c-5.4,26.1-20,50.2-41.1,67.8c-20.9,17.4-46.3,27-71.6,27c-3.5,0-7-0.2-10.4-0.5
			c-25.7-2.7-47.9-15.3-62.6-35.4c-7.6-10.5-12.9-22.4-15.6-35.5c-2.8-13.7-2.7-27.9,0.3-42.4C29.3,91,43.9,67,65,49.4
			C85.8,32,111.2,22.4,136.5,22.4L136.5,22.4 M136.5,12.5c-56.8,0-110.2,43.8-122.4,102.6c-13,62.7,25.8,113.8,86.6,120.2
			c3.8,0.4,7.6,0.6,11.4,0.6c56.8,0,105.6-42.1,117.8-100.9c13-62.7-21.2-115.5-82-121.9C144.1,12.7,140.3,12.5,136.5,12.5
			L136.5,12.5z"/>
		<linearGradient id="SVGID_5_" gradientUnits="userSpaceOnUse" x1="166.7816" y1="-53.2556" x2="48.5939" y2="412.74">
			<stop  offset="0.199" style="stop-color:#FFDE43"/>
			<stop  offset="0.5646" style="stop-color:#FFD23E"/>
			<stop  offset="1" style="stop-color:#FFBD37"/>
		</linearGradient>
		<path class="st7" d="M133.9,19.5c3.5,0,7,0.2,10.5,0.5c26,2.7,48.4,15.4,63.3,35.8c7.7,10.6,13,22.7,15.8,35.9
			c2.9,13.8,2.8,28.2-0.3,42.9c-5.5,26.4-20.2,50.7-41.6,68.5c-21.1,17.6-46.8,27.3-72.3,27.3c-3.5,0-7-0.2-10.5-0.5
			c-25.9-2.7-48.4-15.4-63.3-35.8c-7.7-10.6-13-22.7-15.8-35.9c-2.9-13.8-2.8-28.2,0.3-42.9c5.5-26.4,20.2-50.7,41.6-68.5
			C82.6,29.2,108.3,19.5,133.9,19.5L133.9,19.5 M133.9,9.5C76.5,9.5,22.5,53.8,10.2,113.2c-13.2,63.4,26,120.1,87.6,126.6
			c3.9,0.4,7.7,0.6,11.6,0.6c57.4,0,111.4-44.3,123.7-103.7c13.2-63.4-26-120.1-87.6-126.6C141.6,9.7,137.7,9.5,133.9,9.5L133.9,9.5
			z"/>
		<linearGradient id="SVGID_6_" gradientUnits="userSpaceOnUse" x1="160.9534" y1="-31.1426" x2="83.9927" y2="272.3017">
			<stop  offset="1.809950e-02" style="stop-color:#FFFFA0"/>
			<stop  offset="0.9762" style="stop-color:#FFEB6A"/>
		</linearGradient>
		<path class="st8" d="M145.4,10.1c-3.9-0.4-7.7-0.6-11.6-0.6C76.5,9.5,22.5,53.8,10.2,113.2c-1.1,5.4-1.8,10.7-2.2,15.9
			c3.2,2.2,6.4,4.3,9.7,6.4c0.1-6.7,0.9-13.4,2.3-20.2c5.5-26.4,20.2-50.7,41.6-68.5c21.1-17.6,46.8-27.3,72.3-27.3h0
			c3.5,0,7,0.2,10.5,0.5c26,2.7,48.4,15.4,63.3,35.8c7.7,10.6,13,22.7,15.8,35.9c2.9,13.8,2.8,28.2-0.3,42.9
			c-0.3,1.2-0.5,2.4-0.8,3.6c3.9-2,7.7-4.1,11.5-6.2C244.2,70.5,205.5,16.4,145.4,10.1z"/>
		<g class="st9">
			<path class="st10" d="M145.9,69.8c14,1.5,23,9.1,27,22.8c0.3,1.1-0.3,2.4-1.4,2.8l-13.5,4.7c-0.3,0.1-0.7,0.1-1,0.1
				c-0.6-0.1-1.1-0.4-1.2-1.1c-1.1-8-5.3-12.4-12.5-13.1c-4.4-0.5-8.2,0.8-11.4,3.5c-3.2,2.8-5.5,7.3-6.7,13.3
				c-0.8,3.8-1.1,8.8-0.9,14.4c0,1.4,0.7,3.1,2,3.2l16.3,1.7c0.3,0,0.5,0,0.8,0.1c0.8,0.1,1.5,0.3,1.3,1.1l-2.3,11.1
				c-0.2,1.2-1.9,3.4-3,3.3l-16.3-1.7c-0.3,0-0.7-0.1-1-0.1c-0.6-0.1-1,0-1.2,0.7c-1.8,8.4-3.7,13.6-6,17.5
				c-2.2,3.7-5.9,7.2-11.2,11.2c-0.6,0.5-0.2,0.6,0.5,0.7l19.3,2c11.1,1.2,18.5,1.3,22.6-1.2c3.6-2.2,6.1-4.7,7.8-9.1
				c0.3-0.7,1-1.1,1.6-1c0.2,0,0.4,0.1,0.6,0.2l12.6,8.9c0.9,0.6,1.2,1.6,0.6,2.6c-3.3,5.4-6.9,9.6-10.9,12.9
				c-4.4,3.7-8.8,5.7-13.5,7c-4.7,1.3-10.6,0.7-18.2-0.1L66.3,182c-0.6-0.1-1.5,0-2.3-0.1c-0.7-0.1-1.2-0.3-1.1-0.8l3.2-15.4
				c0.2-1.1,2-1.9,3.1-1.8c5.9,0.4,11.2,0.3,14.5-0.5c3.6-0.9,6.9-3,10.2-6.6c3.2-3.6,5.3-7.4,6.2-11.8c0.4-2,0.8-5,1.3-9.8
				c0.1-1.2-0.8-1.5-1.9-1.6l-9-0.9c-1.1-0.1-1.3-2.6-1.1-3.8l2.3-11.1c0.2-0.9,0.6-0.9,1.3-0.9c0.2,0,0.5,0.1,0.7,0.1l7.2,0.8
				c1.1,0.1,2.2-1.6,2.3-2.7c0.4-5.4,1-10.1,1.6-12.9c2.2-10.4,7.1-18.7,14.7-24.7C127.1,71.3,135.9,68.8,145.9,69.8z"/>
		</g>
		<g>
			<linearGradient id="SVGID_7_" gradientUnits="userSpaceOnUse" x1="58.7537" y1="90.5358" x2="144.1646" y2="187.5454">
				<stop  offset="8.601120e-02" style="stop-color:#CD553F"/>
				<stop  offset="0.905" style="stop-color:#FFD067"/>
				<stop  offset="1" style="stop-color:#FFC46D"/>
			</linearGradient>
			<path class="st11" d="M88.4,128.8l8.9,0.9c0.6,0.1,1.2,0.2,1.6,0.5l-6.3-5.6c-0.3-0.3-0.9-0.4-1.6-0.5l-6.5,0.2
				c-0.2,0-0.4,1-0.5,0.9l4,3.5C88.1,128.7,88.2,128.8,88.4,128.8z"/>
			<linearGradient id="SVGID_8_" gradientUnits="userSpaceOnUse" x1="88.9281" y1="48.688" x2="191.7496" y2="165.4726">
				<stop  offset="8.601120e-02" style="stop-color:#CD553F"/>
				<stop  offset="0.905" style="stop-color:#FFD067"/>
				<stop  offset="1" style="stop-color:#FFC46D"/>
			</linearGradient>
			<path class="st12" d="M115.9,98c-0.2,1.9-0.3,3.9-0.3,5.8c0,1.9-0.3,4.2,0.5,6c0.1,0.3,0.2,1,0.5,1.2l6.5,5.3
				c-1.6-1.5-1.1-4.6-1.1-6.5c0-2.5,0.2-5,0.5-7.4c0.6-4.8,2-10,5-13.9c2.5-3.3,6.2-5.5,10.3-5.9c3.8-0.4,8.1,0.6,11,3.2
				c-1.7-1.5-3.5-3.1-5.2-4.6c-1.5-1.4-3-2.5-5-3.3c-4-1.5-8.6-1.3-12.4,0.7C119.1,82.2,116.7,90.6,115.9,98
				C115.9,98.2,116,97.6,115.9,98z"/>
			<linearGradient id="SVGID_9_" gradientUnits="userSpaceOnUse" x1="61.5726" y1="72.7761" x2="164.3914" y2="189.5576">
				<stop  offset="8.601120e-02" style="stop-color:#CD553F"/>
				<stop  offset="0.905" style="stop-color:#FFD067"/>
				<stop  offset="1" style="stop-color:#FFC46D"/>
			</linearGradient>
			<path class="st13" d="M111.4,130.8c-1,4.2-2.3,8.4-4.3,12.2c-1.5,2.6-3.3,5-5.4,7.1c-1.2,1.1-2.4,2.2-3.7,3.3
				c-1,0.8-2.1,1.5-3,2.4c0,0-0.1,0.1-0.1,0.1c0,0,0,0,0,0c0,0,0,0.1,0,0.1c0,0,0,0,0,0c0,0,0,0,0,0c0,0,0,0,0,0c0,0,0,0,0,0.1
				c1.1,1,2.2,2,3.3,2.9c0.6,0.5,1.1,1,1.7,1.5c0.3,0.2,0.6,0.5,0.8,0.7c0.1,0.1,0.6,0.7,0.5,0.4c0,0,0-0.1,0-0.1c0,0,0,0,0,0
				c0-0.1,0.1-0.1,0.1-0.1c0.9-1,2.2-1.7,3.3-2.6c1.3-1,2.5-2.1,3.6-3.3c2.1-2.1,3.9-4.3,5.2-6.9c1.4-2.4,2.3-5.2,3.1-7.8
				c0.4-1.4,0.8-2.9,1.2-4.4c0.2-0.7,0.3-1.4,0.5-2.1c0.1-0.6,0.2-1.4,0.5-1.9c0.3-0.6,1.5-0.2,2-0.2l16.2,1.7
				c0.5,0.1,1-0.4,1.4-0.7c0.6-0.6,1.1-1.3,1.5-2.1c0,0,0,0,0,0c0.1-0.2,0.1-0.3,0.2-0.5l2.3-11c0-0.2,0.1-0.5-0.1-0.7c0,0,0,0,0,0
				c0,0-0.1-0.1-0.1-0.1c0,0,0,0,0,0l-4.7-3.8c0,0,0.2,0.1,0.3,0.1c0.1,0.2-0.7-0.3-0.7-0.1l-3.3,9.9c-0.1,0.7-0.6,1.3-1,1.9
				c0,0,0,0,0,0c-0.4,0.6-1.2,1.5-2,1.4l-16.2-1.7c-0.5,0-0.9-0.2-1.4-0.1l0,0c-0.1,0-0.2,0-0.3,0.1c0,0-0.1,0.1-0.1,0.1
				c-0.2,0.1-0.2,0.4-0.3,0.5C112,128.3,111.7,129.5,111.4,130.8C111.4,130.9,111.5,130.3,111.4,130.8z"/>
			<linearGradient id="SVGID_10_" gradientUnits="userSpaceOnUse" x1="109.3032" y1="30.7498" x2="212.1235" y2="147.5329">
				<stop  offset="8.601120e-02" style="stop-color:#CD553F"/>
				<stop  offset="0.905" style="stop-color:#FFD067"/>
				<stop  offset="1" style="stop-color:#FFC46D"/>
			</linearGradient>
			<path class="st14" d="M170.4,89.7c0-0.9-0.5-1.9-0.8-2.7c-0.4-1.1-0.8-2.2-1.3-3.2c-0.9-1.9-1.9-3.7-3.1-5.4
				c-2.8-4-6.8-7-10.4-10.2c2.5,2.2,4.5,4.9,6.1,7.8c0.8,1.5,1.5,3,2.1,4.6c0.5,1.2,1.4,2.9,1,4.3c-0.2,0.7-0.7,1.3-1.4,1.5l-12.9,5
				c-0.6,0.2,0.2,1.7-0.2,1.3l4.3,3.8c0.5,0.4,1.2,0.4,1.8,0.2l13.4-4.7c0.4-0.1,0.8-0.4,1-0.8c0,0,0,0,0,0
				C170.2,90.6,170.4,90.2,170.4,89.7C170.4,89.6,170.4,89.7,170.4,89.7z"/>
			<linearGradient id="SVGID_11_" gradientUnits="userSpaceOnUse" x1="45.6465" y1="92.7964" x2="159.6307" y2="222.2596">
				<stop  offset="8.601120e-02" style="stop-color:#CD553F"/>
				<stop  offset="0.2659" style="stop-color:#CE5840"/>
				<stop  offset="0.4105" style="stop-color:#D26243"/>
				<stop  offset="0.5427" style="stop-color:#D97349"/>
				<stop  offset="0.6676" style="stop-color:#E38B51"/>
				<stop  offset="0.7863" style="stop-color:#EFA95A"/>
				<stop  offset="0.9007" style="stop-color:#FECE67"/>
				<stop  offset="0.905" style="stop-color:#FFD067"/>
				<stop  offset="1" style="stop-color:#FFC46D"/>
			</linearGradient>
			<path class="st15" d="M166.9,163.3c0-0.2-0.1-0.5-0.2-0.7v0c-0.1-0.1-0.2-0.3-0.3-0.4c0,0,0,0,0,0c-0.9-1-2-1.8-3-2.7
				c-1.2-1.1-2.4-2.1-3.6-3.2c1.5,1.3,0.1,2.9-0.7,4.2c-1.3,2-2.8,4-4.4,5.8c-3.1,3.6-6.7,6.7-10.9,9c-3.7,2-7.8,3.5-12,3.8
				c-4.6,0.3-9.3-0.3-13.9-0.7l-59.8-6.3c-0.9-0.1-0.4,2.2-1.2,1.5c1.6,1.4,1.1,0.9,2.6,2.3c0.7,0.6,1.5,1.3,2.4,1.5
				c0.8,0.2,1.7,0.3,2.5,0.4l59.8,6.3c4.5,0.5,9.1,1,13.6,0.7c4.3-0.3,8.4-1.7,12.2-3.8c3.9-2.1,7.3-5,10.2-8.3
				c1.5-1.7,2.9-3.4,4.2-5.2c0.6-0.9,1.3-1.9,1.9-2.8C166.7,164.2,166.9,163.8,166.9,163.3C166.9,163.2,166.9,163.3,166.9,163.3z"/>
		</g>
		<g>
			<linearGradient id="SVGID_12_" gradientUnits="userSpaceOnUse" x1="144.648" y1="27.1806" x2="82.246" y2="273.222">
				<stop  offset="0.1642" style="stop-color:#FFDE43"/>
				<stop  offset="0.2484" style="stop-color:#FFDA42"/>
				<stop  offset="1" style="stop-color:#FFBD37"/>
			</linearGradient>
			<path class="st16" d="M139.1,62.8c13.9,1.5,22.8,9,26.8,22.6c0.3,1.1-0.3,2.4-1.4,2.7l-13.4,4.7c-0.3,0.1-0.7,0.1-1,0.1
				c-0.6-0.1-1.1-0.4-1.2-1c-1.1-7.9-5.2-12.3-12.4-13c-4.3-0.5-8.1,0.8-11.3,3.5c-3.2,2.7-5.4,7.2-6.7,13.1
				c-0.8,3.7-1.1,8.7-0.9,14.3c0,1.3,0.7,3.1,2,3.2l16.2,1.7c0.3,0,0.5,0,0.8,0.1c0.8,0.1,1.5,0.3,1.3,1.1l-2.3,11
				c-0.2,1.1-1.9,3.4-3,3.3l-16.2-1.7c-0.3,0-0.7-0.1-1-0.1c-0.6-0.1-1,0-1.2,0.7c-1.8,8.4-3.7,13.5-6,17.3
				c-2.2,3.7-5.9,7.1-11.1,11.1c-0.6,0.5-0.2,0.6,0.5,0.7l19.2,2c11,1.2,18.3,1.2,22.4-1.2c3.6-2.2,6-4.6,7.7-9c0.3-0.7,1-1.1,1.6-1
				c0.2,0,0.4,0.1,0.6,0.2l12.5,8.9c0.9,0.6,1.2,1.6,0.6,2.6c-3.3,5.4-6.8,9.5-10.8,12.8c-4.3,3.6-8.8,5.7-13.4,6.9
				c-4.6,1.3-10.5,0.7-18-0.1L60.2,174c-0.6-0.1-1.5,0-2.3-0.1c-0.7-0.1-1.2-0.3-1.1-0.8l3.2-15.3c0.2-1.1,2-1.9,3-1.8
				c5.9,0.4,11.1,0.3,14.3-0.4c3.5-0.9,6.9-3,10.1-6.6c3.2-3.6,5.2-7.3,6.1-11.7c0.4-1.9,0.8-4.9,1.3-9.7c0.1-1.2-0.8-1.5-1.9-1.6
				l-8.9-0.9c-1.1-0.1-1.3-2.6-1.1-3.7l2.3-11c0.2-0.9,0.6-0.9,1.3-0.9c0.2,0,0.4,0.1,0.7,0.1l7.2,0.8c1.1,0.1,2.2-1.5,2.2-2.7
				c0.4-5.4,1-10,1.6-12.8c2.1-10.3,7-18.5,14.6-24.5C120.5,64.3,129.2,61.8,139.1,62.8z"/>
			<g class="st17">
				<linearGradient id="SVGID_13_" gradientUnits="userSpaceOnUse" x1="56.8232" y1="121.8701" x2="165.9838" y2="121.8701">
					<stop  offset="0.1642" style="stop-color:#FFDE43"/>
					<stop  offset="0.2484" style="stop-color:#FFDA42"/>
					<stop  offset="1" style="stop-color:#FFBD37"/>
				</linearGradient>
				<path class="st18" d="M134.8,62.6v2.9c1.3,0,2.6,0.1,4,0.2c12.6,1.3,20.5,7.9,24.2,20l-11.5,4c-2.1-10.2-9-13-14.7-13.6
					c-0.7-0.1-1.4-0.1-2-0.1c-4.3,0-8.1,1.4-11.4,4.3c-3.7,3.1-6.2,8.1-7.6,14.7c-0.8,4.1-1.2,9.2-1,14.9c0.1,2.7,1.6,5.7,4.5,6
					l15.3,1.6l-1.8,8.8c-0.1,0.3-0.4,0.7-0.7,1l-15.4-1.6c-0.1,0-0.3,0-0.4-0.1c-0.2,0-0.4-0.1-0.6-0.1c-0.2,0-0.4,0-0.6,0
					c-1.8,0-3.3,1.2-3.7,3c-1.7,7.7-3.4,12.8-5.6,16.4c-1.9,3.1-5.1,6.3-10.4,10.3c-1.7,1.3-1.4,3-1.3,3.5c0.3,0.9,1,2.1,3.2,2.3
					l19.2,2c5.2,0.5,9.1,0.8,12.2,0.8c5.4,0,9.2-0.8,11.9-2.4c3.9-2.4,6.5-5.1,8.2-8.9l10.4,7.4c-2.9,4.6-6.1,8.3-9.7,11.3
					c-3.7,3.1-7.6,5.1-12.3,6.4c-1.6,0.4-3.6,0.6-6,0.6c-3.2,0-6.9-0.4-11-0.8l-59.8-6.3c-0.1,0-0.2,0-0.3,0l2.5-12.2
					c0.1,0,0.1,0,0.2-0.1c2.4,0.2,4.6,0.3,6.7,0.3c3.6,0,6.4-0.3,8.5-0.8c4.2-1.1,7.9-3.5,11.5-7.4c3.6-4,5.8-8.2,6.8-13
					c0.5-2.2,0.8-5.4,1.3-10c0.4-4-3.6-4.7-4.5-4.7l-7.5-0.8c0-0.2,0-0.3,0-0.5l2-9.4l6.4,0.7c0.1,0,0.3,0,0.4,0c3,0,4.8-3.1,5-5.4
					c0.4-4.9,0.9-9.5,1.5-12.4c2-9.6,6.6-17.3,13.6-22.9c5.9-4.7,12.7-7.1,20.2-7.1L134.8,62.6 M134.8,62.6c-8.2,0-15.5,2.6-22,7.7
					c-7.6,6-12.5,14.2-14.6,24.5c-0.6,2.8-1.2,7.4-1.6,12.8c-0.1,1.1-1.1,2.7-2.1,2.7c0,0-0.1,0-0.1,0l-7.2-0.8
					c-0.3,0-0.5-0.1-0.7-0.1c-0.1,0-0.2,0-0.4,0c-0.5,0-0.8,0.2-1,0.9l-2.3,11c-0.2,1.1,0,3.6,1.1,3.7l8.9,0.9
					c1.1,0.1,2,0.4,1.9,1.6c-0.5,4.8-0.9,7.8-1.3,9.7c-0.9,4.3-2.9,8.1-6.1,11.7c-3.2,3.6-6.5,5.7-10.1,6.6c-2,0.5-4.7,0.7-7.8,0.7
					c-2,0-4.2-0.1-6.5-0.2c-0.1,0-0.1,0-0.2,0c-1.1,0-2.7,0.7-2.9,1.8l-3.2,15.3c-0.1,0.6,0.4,0.8,1.1,0.8c0.7,0.1,1.7,0,2.3,0.1
					l59.8,6.3c4.3,0.4,8,0.8,11.3,0.8c2.5,0,4.7-0.2,6.7-0.7c4.6-1.3,9-3.3,13.4-6.9c3.9-3.3,7.5-7.4,10.8-12.8c0.6-1,0.3-2-0.6-2.6
					l-12.5-8.9c-0.2-0.1-0.4-0.2-0.6-0.2c0,0-0.1,0-0.1,0c-0.6,0-1.2,0.4-1.5,1c-1.7,4.3-4.1,6.8-7.7,9c-2.4,1.4-5.8,2-10.5,2
					c-3.4,0-7.3-0.3-12-0.8l-19.2-2c-0.7-0.1-1.1-0.2-0.5-0.7c5.2-4,8.9-7.4,11.1-11.1c2.3-3.8,4.2-9,6-17.3
					c0.1-0.6,0.5-0.7,0.9-0.7c0.1,0,0.2,0,0.3,0c0.3,0,0.6,0.1,1,0.1l16.2,1.7c0,0,0.1,0,0.1,0c1.1,0,2.7-2.2,2.9-3.3l2.3-11
					c0.2-0.9-0.5-1.1-1.3-1.1c-0.3,0-0.5,0-0.8-0.1l-16.2-1.7c-1.3-0.1-1.9-1.9-2-3.2c-0.2-5.6,0.2-10.5,0.9-14.3
					c1.2-5.9,3.5-10.4,6.7-13.1c2.8-2.4,5.9-3.6,9.5-3.6c0.6,0,1.2,0,1.7,0.1c7.2,0.8,11.3,5.1,12.4,13c0.1,0.6,0.6,1,1.2,1
					c0.1,0,0.1,0,0.2,0c0.2,0,0.5,0,0.8-0.1l13.4-4.7c1.1-0.4,1.7-1.7,1.4-2.7c-4-13.6-12.9-21.1-26.8-22.6
					C137.6,62.7,136.2,62.6,134.8,62.6L134.8,62.6z"/>
			</g>
		</g>
		<g class="st9">
			<g>
				<g>
					<linearGradient id="SVGID_14_" gradientUnits="userSpaceOnUse" x1="141.7325" y1="34.7232" x2="93.4411" y2="225.1288">
						<stop  offset="1.809950e-02" style="stop-color:#FFFFA0"/>
						<stop  offset="0.9762" style="stop-color:#FFEB6A"/>
					</linearGradient>
					<path class="st19" d="M87.4,149.1c-0.7,0.7-1.3,1.4-2,2c3.9,0.6,7.8,1.2,11.7,1.6c1.8,0.2,3.5,0.3,5.3,0.5
						c2.5-2.3,4.4-4.5,5.8-6.8c2.3-3.8,4.2-9,6-17.3c0.1-0.7,0.6-0.8,1.2-0.7c0.3,0,0.6,0.1,1,0.1l16.2,1.7c1.1,0.1,2.7-2.2,3-3.3
						l2.3-11c0.2-0.9-0.5-1.1-1.3-1.1c-0.3,0-0.5,0-0.8-0.1l-16.2-1.7c-1.3-0.1-1.9-1.9-2-3.2c-0.2-5.6,0.2-10.5,0.9-14.3
						c1.2-5.9,3.5-10.4,6.7-13.1c3.2-2.8,7-4,11.3-3.5c7.2,0.8,11.3,5.1,12.4,13c0.1,0.6,0.6,1,1.2,1c0.3,0,0.6,0,1-0.1l13.4-4.7
						c1.1-0.4,1.7-1.7,1.4-2.7c-4-13.6-12.9-21.1-26.8-22.6c-9.9-1-18.6,1.5-26.2,7.5c-7.6,6-12.5,14.2-14.6,24.5
						c-0.6,2.8-1.2,7.4-1.6,12.8c-0.1,1.2-1.1,2.8-2.2,2.7l-7.2-0.8c-0.3,0-0.5-0.1-0.7-0.1c-0.7-0.1-1.1,0-1.3,0.9l-2.3,11
						c-0.2,1.1,0,3.6,1.1,3.7l8.9,0.9c1.1,0.1,2,0.4,1.9,1.6c-0.5,4.8-0.9,7.8-1.3,9.7C92.7,141.7,90.6,145.5,87.4,149.1z"/>
				</g>
			</g>
		</g>
		<polygon class="st20" points="107.2,76.6 114.2,78.5 107.9,74.8 107.3,73.1 109.3,66 105.6,72.4 103.9,73.1 97,71.1 103.2,74.8 
			103.9,76.5 101.9,83.7 105.5,77.3 		"/>
	</g>
</g>
<g>
</g>
<g>
</g>
<g>
</g>
<g>
</g>
<g>
</g>
</svg>
