<?xml version="1.0" encoding="utf-8"?>
<!-- Generator: Adobe Illustrator 21.0.0, SVG Export Plug-In . SVG Version: 6.00 Build 0)  -->
<svg version="1.1" id="Layer_1" xmlns="http://www.w3.org/2000/svg" xmlns:xlink="http://www.w3.org/1999/xlink" x="0px" y="0px"
	 width="256px" height="266px" viewBox="0 0 256 266" style="enable-background:new 0 0 256 266;" xml:space="preserve">
<style type="text/css">
	.Drop_x0020_Shadow{fill:none;}
	.Outer_x0020_Glow_x0020_5_x0020_pt{fill:none;}
	.Jive_GS{fill:#A6D0E4;}
	.st0{fill: #6BAA34;}
	.st1{fill:url(#SVGID_1_);}
	.st2{opacity:0.5;fill:url(#SVGID_2_);fill-opacity:0.5;}
	.st3{fill:url(#SVGID_3_);}
	.st4{opacity:0.2;fill:url(#SVGID_4_);}
	.st5{opacity:0.5;fill:#94512A;}
	.st6{fill:#E99855;}
	.st7{fill:url(#SVGID_5_);}
	.st8{opacity:0.7;fill:url(#SVGID_6_);}
	.st9{opacity:0.6;}
	.st10{fill:#94512A;}
	.st11{fill:url(#SVGID_7_);}
	.st12{fill:url(#SVGID_8_);}
	.st13{fill:url(#SVGID_9_);}
	.st14{fill:url(#SVGID_10_);}
	.st15{fill:url(#SVGID_11_);}
	.st16{fill:url(#SVGID_12_);}
	.st17{fill:url(#SVGID_13_);}
	.st18{opacity:0.1;}
	.st19{fill:url(#SVGID_14_);}
	.st20{opacity:0.5;}
	.st21{fill:url(#SVGID_15_);}
	.st22{fill:#FFFFFF;}
</style>
<g>
	<path class="st0" d="M227.1,230.8c-3.3,13.6-41.6,25.3-85.5,26.2c-43.9,0.9-76.7-9.4-73.4-22.9c3.3-13.6,41.6-25.3,85.5-26.2
		C197.6,207,230.4,217.2,227.1,230.8z"/>
	<g>
		<linearGradient id="SVGID_1_" gradientUnits="userSpaceOnUse" x1="271.0823" y1="-79.8788" x2="69.938" y2="339.4214">
			<stop  offset="0" style="stop-color:#FFC649"/>
			<stop  offset="0" style="stop-color:#FFC848"/>
			<stop  offset="0" style="stop-color:#FFCF45"/>
			<stop  offset="0" style="stop-color:#FFD243"/>
			<stop  offset="1" style="stop-color:#CD571B"/>
		</linearGradient>
		<path class="st1" d="M247.5,139.9c3.3-23.7-0.6-48.4-12.6-69.3c-3.9-6.8-8.5-13.1-13.9-18.7c-6.1-6.4-13-12-19.6-17.9
			c18.2,16.1,29.6,38.8,32.8,62.8c3.3,24.1-1.5,49.5-12.7,71.1c-11.1,21.5-27.5,39.8-48,52.7c-20.3,12.8-44,19.9-68.1,19.3
			c-21.9-0.7-43.4-8-60.6-21.7c-1.3-1-2.5-2.1-3.8-3.2c8.7,7.7,17.1,15.9,27,22c9.1,5.6,19.2,9.6,29.6,12.1
			c23.1,5.4,47.6,2.7,69.4-6.3c21.8-9,41-24,55.2-42.8C235.6,182.3,244.5,161.6,247.5,139.9z"/>
		<linearGradient id="SVGID_2_" gradientUnits="userSpaceOnUse" x1="152.5151" y1="170.7528" x2="100.5507" y2="279.0764">
			<stop  offset="0" style="stop-color:#E08C3C"/>
			<stop  offset="1" style="stop-color:#FFD06F"/>
		</linearGradient>
		<path class="st2" d="M167.2,242.7c7.6-3.1,14.9-7,21.8-11.6l-8.3-8.8c-1,0.7-2,1.3-3,2c-20.7,13.1-44.9,20.3-69.5,19.6
			c-17.4-0.5-34.6-5.2-49.6-13.9c3.1,2.4,6.3,4.8,9.7,6.8c9.1,5.6,19.2,9.6,29.6,12.1C120.9,254.3,145.4,251.7,167.2,242.7z"/>
		<g>
			<linearGradient id="SVGID_3_" gradientUnits="userSpaceOnUse" x1="58.6961" y1="438.4075" x2="196.7878" y2="-253.5537">
				<stop  offset="0" style="stop-color:#F5942A"/>
				<stop  offset="1" style="stop-color:#F5D85D"/>
			</linearGradient>
			<path class="st3" d="M145.2,9.6c61.5,6.5,100.7,63.1,87.6,126.6C219.6,199.6,159,245.8,97.5,239.3C36,232.8-3.2,176.2,9.9,112.7
				C23.1,49.3,83.7,3.1,145.2,9.6z"/>
		</g>
		<linearGradient id="SVGID_4_" gradientUnits="userSpaceOnUse" x1="87.5685" y1="292.3554" x2="177.833" y2="-159.9495">
			<stop  offset="0" style="stop-color:#E08C3C"/>
			<stop  offset="1" style="stop-color:#FFD06F"/>
		</linearGradient>
		<path class="st4" d="M144.4,12.3C85,6,26.5,50.6,13.8,111.8c-1,4.7-1.7,9.4-2.1,14c24.9,18,55,29.8,88.8,33.3
			c45.1,4.7,89.9-6,129-28.1C240.2,71.2,202.7,18.4,144.4,12.3z"/>
		<path class="st5" d="M106.9,233.8C52,228.1,12,180.3,24.3,120.9c12.3-59.3,69-102.5,126.5-96.5c48.3,5.1,76.6,45.8,78.7,90.8
			C232,61.7,195.9,17,142.5,11.3c-59.6-6.3-118.2,38.5-131,99.9c-12.8,61.4,25.2,116.3,84.8,122.6c5.4,0.6,10.8,0.7,16.2,0.5
			C110.6,234.2,108.7,234,106.9,233.8z"/>
		<path class="st6" d="M136.3,21.9c3.5,0,7,0.2,10.4,0.5c25.7,2.7,47.9,15.3,62.6,35.4c7.6,10.5,12.9,22.4,15.6,35.5
			c2.8,13.7,2.7,27.9-0.3,42.4c-5.4,26.1-20,50.2-41.1,67.8c-20.9,17.4-46.3,27-71.6,27c-3.5,0-7-0.2-10.4-0.5
			c-25.7-2.7-47.9-15.3-62.6-35.4c-7.6-10.5-12.9-22.4-15.6-35.5c-2.8-13.7-2.7-27.9,0.3-42.4c5.4-26.1,20-50.2,41.1-67.8
			C85.6,31.5,111,21.9,136.3,21.9L136.3,21.9 M136.3,12C79.5,12,26.1,55.9,13.9,114.7c-13,62.7,25.8,113.8,86.6,120.2
			c3.8,0.4,7.6,0.6,11.4,0.6c56.8,0,105.6-42.1,117.8-100.9c13-62.7-21.2-115.5-82-121.9C143.9,12.2,140.1,12,136.3,12L136.3,12z"/>
		<linearGradient id="SVGID_5_" gradientUnits="userSpaceOnUse" x1="166.5487" y1="-53.7562" x2="48.3611" y2="412.239">
			<stop  offset="0.199" style="stop-color:#FFDE43"/>
			<stop  offset="0.5646" style="stop-color:#FFD23E"/>
			<stop  offset="1" style="stop-color:#FFBD37"/>
		</linearGradient>
		<path class="st7" d="M133.7,19c3.5,0,7,0.2,10.5,0.5c26,2.7,48.4,15.4,63.3,35.8c7.7,10.6,13,22.7,15.8,35.9
			c2.9,13.8,2.8,28.2-0.3,42.9c-5.5,26.4-20.2,50.7-41.6,68.5c-21.1,17.6-46.8,27.3-72.3,27.3c-3.5,0-7-0.2-10.5-0.5
			c-25.9-2.7-48.4-15.4-63.3-35.8c-7.7-10.6-13-22.7-15.8-35.9c-2.9-13.8-2.8-28.2,0.3-42.9C25.2,88.4,40,64,61.3,46.3
			C82.4,28.7,108.1,19,133.7,19L133.7,19 M133.6,9C76.3,9,22.3,53.3,9.9,112.7c-13.2,63.4,26,120.1,87.6,126.6
			c3.9,0.4,7.7,0.6,11.6,0.6c57.4,0,111.4-44.3,123.7-103.7c13.2-63.4-26-120.1-87.6-126.6C141.3,9.2,137.5,9,133.6,9L133.6,9z"/>
		<linearGradient id="SVGID_6_" gradientUnits="userSpaceOnUse" x1="160.7206" y1="-31.6434" x2="83.7598" y2="271.8009">
			<stop  offset="1.809950e-02" style="stop-color:#FFFFA0"/>
			<stop  offset="0.9762" style="stop-color:#FFEB6A"/>
		</linearGradient>
		<path class="st8" d="M145.2,9.6c-3.9-0.4-7.7-0.6-11.6-0.6C76.3,9,22.3,53.3,9.9,112.7c-1.1,5.4-1.8,10.7-2.2,15.9
			c3.2,2.2,6.4,4.3,9.7,6.4c0.1-6.7,0.9-13.4,2.3-20.2C25.2,88.4,40,64,61.3,46.3C82.4,28.7,108.1,19,133.6,19h0
			c3.5,0,7,0.2,10.5,0.5c26,2.7,48.4,15.4,63.3,35.8c7.7,10.6,13,22.7,15.8,35.9c2.9,13.8,2.8,28.2-0.3,42.9
			c-0.3,1.2-0.5,2.4-0.8,3.6c3.9-2,7.7-4.1,11.5-6.2C244,70,205.2,15.9,145.2,9.6z"/>
		<g>
			<g class="st9">
				<path class="st10" d="M180.7,75.8c1,0.1,1.4,1.4,0.7,2.3l-29.4,37.6c-0.6,0.9-0.6,3.8,0.4,3.9l14.4,1.5c1.2,0.1,1.6,2,1.3,3.3
					l-1.4,6.9c-0.3,1.2-1.3,2.4-2.5,2.3l-20.1-2.1c-1.3-0.1-2.7,0.6-3.6,1.7l-7.9,7.8c-0.7,0.9-1.2,2.5-1.5,3.5
					c-0.2,0.9,0.1,2.6,1,2.7l28.6,3c1.2,0.1,1.4,3.1,1.1,4.3l-1.4,6.9c-0.3,1.2-1.1,1.3-2.3,1.2l-27.9-2.9c-1.2-0.1-2.7,1.6-3,2.8
					l-7.1,34.4c-0.1,0.4-23-2.7-23.1-2.8l0.4-3l9.7-30.7c0.3-1.2-2.3-3.4-3.5-3.5l-29.9-3.1c-1.2-0.1-3.6-0.1-3.4-1.3v-1.5
					c0.3-1.2,4.8-9.8,6-9.7l30.6,3.2c0.8,0.1,1.9-1.8,2.1-2.7c0.2-1,0.4-3.1,0.1-4.1l-4.8-8.5c-0.4-1.3-1.5-2.2-2.8-2.3l-22.4-2.2
					c-1.2-0.1-2-1.5-1.8-2.7l2.1-7c0.3-1.3,1.7-3,2.9-2.8l15.7,1.7c1,0.1,2.2-2.7,1.9-3.6L86,68.5c-0.3-0.9,0.7-2.6,1.7-2.5
					l21.2,2.2c1.3,0.1,2.4,1.2,2.7,2.5l15.2,46.8c0.1,0.4,0.5,0.7,0.8,0.7c0.4,0,0.9-0.1,1.2-0.6L161.2,76c0.9-1.2,2.3-2,3.6-1.9
					L180.7,75.8z"/>
			</g>
			<linearGradient id="SVGID_7_" gradientUnits="userSpaceOnUse" x1="21.0339" y1="25.7482" x2="259.5376" y2="190.8658">
				<stop  offset="8.601120e-02" style="stop-color:#CD553F"/>
				<stop  offset="0.905" style="stop-color:#FFD067"/>
				<stop  offset="1" style="stop-color:#FFC46D"/>
			</linearGradient>
			<path class="st11" d="M105,65.2c0.3,0.4,0.6,0.9,0.7,1.3l15,46.1c0,0,0,0,0,0c0,0.1,0.1,0.2,0.1,0.3c0,0.1,0.1,0.1,0.1,0.2
				c0,0,0,0,0,0l3.3,3c-0.1-0.1-0.1-0.1-0.2-0.2c0-0.1-0.1-0.2-0.1-0.3l-15-46.1c-0.1-0.5-0.4-1-0.7-1.3c0,0,0,0,0,0
				c-1.1-1.2-2.5-2.2-3.7-3.3C104.8,64.9,104.9,65.1,105,65.2C105.1,65.3,105,65.2,105,65.2z"/>
			<linearGradient id="SVGID_8_" gradientUnits="userSpaceOnUse" x1="-2.759" y1="60.1174" x2="235.7422" y2="225.2333">
				<stop  offset="8.601120e-02" style="stop-color:#CD553F"/>
				<stop  offset="0.905" style="stop-color:#FFD067"/>
				<stop  offset="1" style="stop-color:#FFC46D"/>
			</linearGradient>
			<path class="st12" d="M77.8,122.6l21.4,2.2c0.7,0.1,1.3,0.4,1.8,0.8l-3.3-3c-0.5-0.4-1.1-0.7-1.8-0.8l-21.4-2.2
				c-0.4,0-0.7-0.2-1-0.5c0.7,0.7,1.5,1.3,2.2,2C76.3,121.7,76.9,122.5,77.8,122.6z"/>
			<linearGradient id="SVGID_9_" gradientUnits="userSpaceOnUse" x1="-17.1188" y1="80.8538" x2="221.3877" y2="245.9734">
				<stop  offset="8.601120e-02" style="stop-color:#CD553F"/>
				<stop  offset="0.905" style="stop-color:#FFD067"/>
				<stop  offset="1" style="stop-color:#FFC46D"/>
			</linearGradient>
			<path class="st13" d="M103.4,155.5l-3.3-3c-0.7-0.6-1.5-1.1-2.1-1.2l-29.5-3.1c-0.7-0.1-1.3-0.2-1.7-0.5l3.3,3
				c0.4,0.3,1,0.4,1.7,0.5l29.5,3.1C101.9,154.4,102.7,154.9,103.4,155.5z"/>
			<linearGradient id="SVGID_10_" gradientUnits="userSpaceOnUse" x1="34.3686" y1="6.4662" x2="272.89" y2="171.5961">
				<stop  offset="8.601120e-02" style="stop-color:#CD553F"/>
				<stop  offset="0.905" style="stop-color:#FFD067"/>
				<stop  offset="1" style="stop-color:#FFC46D"/>
			</linearGradient>
			<path class="st14" d="M178.2,75.7c-0.1-0.7-0.5-1-1-1.4c-0.9-0.8-1.8-1.6-2.8-2.5c0.3,0.2,0.4,0.6,0.4,0.9c0,0,0,0,0,0
				c0,0.4-0.1,0.8-0.3,1.1l-29,37c-0.6,0.9-0.5,2.4-0.1,3.4c0.1,0.1,0.1,0.2,0.2,0.3l3.3,3c-0.8-0.7-0.7-2.9-0.1-3.7l29-37l0,0
				c0.1-0.2,0.2-0.3,0.3-0.5C178.2,76,178.2,75.9,178.2,75.7C178.2,75.7,178.2,75.7,178.2,75.7C178.2,75.6,178.2,75.7,178.2,75.7z"
				/>
			<linearGradient id="SVGID_11_" gradientUnits="userSpaceOnUse" x1="12.1519" y1="38.5736" x2="250.6603" y2="203.6945">
				<stop  offset="8.601120e-02" style="stop-color:#CD553F"/>
				<stop  offset="0.905" style="stop-color:#FFD067"/>
				<stop  offset="1" style="stop-color:#FFC46D"/>
			</linearGradient>
			<path class="st15" d="M164.9,121.3c0-0.5-0.1-0.9-0.3-1.4c0,0,0,0,0,0c-0.1-0.2-0.2-0.4-0.4-0.6l-3.3-3c0.8,0.7,0.9,2,0.7,3
				l-1.4,6.8c-0.1,0.5-0.3,0.9-0.6,1.3c0,0,0,0,0,0c-0.1,0.1-0.2,0.2-0.3,0.3c-0.4,0.4-1,0.7-1.6,0.6l-19.8-2.1
				c-1-0.1-2,0.3-2.8,0.9c-0.3,0.2-0.5,0.5-0.7,0.8l-7.7,7.6c-1,1.4-2,3.9-1.2,5.5c0.1,0.2,0.2,0.3,0.3,0.4l3.3,3
				c-1.5-1.4-0.1-4.7,0.8-6l7.8-7.6c0.8-1.1,2.2-1.8,3.6-1.7l19.8,2.1c0.4,0,0.9-0.1,1.2-0.3c0,0,0,0,0,0l0,0
				c0.2-0.2,0.5-0.4,0.6-0.6c0,0,0,0,0,0l0,0c0.3-0.4,0.5-0.8,0.6-1.3l1.4-6.8C164.9,122,164.9,121.6,164.9,121.3
				C164.9,121.3,164.9,121.6,164.9,121.3z"/>
			<linearGradient id="SVGID_12_" gradientUnits="userSpaceOnUse" x1="-11.5213" y1="72.7655" x2="226.9886" y2="237.8873">
				<stop  offset="8.601120e-02" style="stop-color:#CD553F"/>
				<stop  offset="0.905" style="stop-color:#FFD067"/>
				<stop  offset="1" style="stop-color:#FFC46D"/>
			</linearGradient>
			<path class="st16" d="M117.7,193.1l6.9-33.2c0.2-1.2,1.6-2.9,2.9-2.8L155,160c0.5,0.1,1.3,0.2,1.7-0.3c0,0,0,0,0,0
				c0.1-0.1,0.1-0.1,0.2-0.2c0.1-0.1,0.1-0.2,0.2-0.3c0,0,0,0,0,0c0.1-0.1,0.1-0.3,0.1-0.4l1.4-6.8c0.1-0.5,0.1-1.1,0.1-1.6
				c0-0.8-0.1-1.9-0.8-2.5l-3.3-3c0.9,0.8,0.9,3,0.7,4.1l-1.4,6.8c-0.1,0.4-0.2,0.7-0.5,0.9c0,0,0,0,0,0c-0.5,0.4-1.2,0.3-1.7,0.2
				l-27.5-2.9c-0.9-0.1-1.7,0.7-2.2,1.3c-0.2,0.3-0.4,0.6-0.6,1c-0.1,0.2-0.1,0.3-0.2,0.5l-7,33.6c0,0.1-0.4,0.3-2,0l-17.8-1.9
				c-0.1,0.1,3.2,2.7,3.3,2.5c0,0,15.6,2.1,17.8,2.3C117.7,193.8,117.7,193.1,117.7,193.1z"/>
			<g>
				<linearGradient id="SVGID_13_" gradientUnits="userSpaceOnUse" x1="138.7896" y1="24.6054" x2="73.9878" y2="280.1086">
					<stop  offset="0.1642" style="stop-color:#FFDE43"/>
					<stop  offset="0.2484" style="stop-color:#FFDA42"/>
					<stop  offset="1" style="stop-color:#FFBD37"/>
				</linearGradient>
				<path class="st17" d="M173.8,71.5c1,0.1,1.4,1.4,0.7,2.3l-29,37c-0.6,0.9-0.6,3.7,0.4,3.8l14.2,1.5c1.2,0.1,1.6,2,1.3,3.2
					l-1.4,6.8c-0.3,1.2-1.3,2.4-2.5,2.2l-19.8-2.1c-1.3-0.1-2.7,0.5-3.6,1.7l-7.7,7.6c-0.6,0.9-1.2,2.5-1.4,3.5
					c-0.2,0.9,0.1,2.6,1,2.7l28.2,3c1.2,0.1,1.4,3.1,1.1,4.3l-1.4,6.8c-0.3,1.2-1.1,1.3-2.3,1.2l-27.5-2.9c-1.2-0.1-2.7,1.6-2.9,2.8
					l-7,33.9c-0.1,0.4-19.7-2.1-19.8-2.2l7-33.8c0.3-1.2-2.2-3.3-3.4-3.5l-29.5-3.1c-1.2-0.1-2.2-0.4-1.9-1.6l1.4-6.8
					c0.3-1.2,1.9-4,3.1-3.8l30.1,3.2c0.8,0.1,1.9-1.8,2.1-2.6c0.2-1,0.4-3.1,0.1-4l-4.7-8.4c-0.4-1.3-1.4-2.2-2.8-2.3l-21.4-2.2
					c-1.2-0.1-2-1.4-1.7-2.7l1.4-6.8c0.3-1.2,1.7-2.9,2.9-2.8l15.5,1.6c1,0.1,2.2-2.6,1.9-3.6L80.5,64.3c-0.3-0.9,0.7-2.5,1.6-2.4
					l20.9,2.2c1.3,0.1,2.3,1.2,2.7,2.5l15,46.1c0.1,0.4,0.4,0.6,0.8,0.7c0.4,0,0.8-0.1,1.1-0.5l31.9-41.1c0.8-1.2,2.2-2,3.6-1.8
					L173.8,71.5z"/>
				<g class="st18">
					<linearGradient id="SVGID_14_" gradientUnits="userSpaceOnUse" x1="66.5318" y1="126.3738" x2="174.8413" y2="126.3738">
						<stop  offset="0.1642" style="stop-color:#FFDE43"/>
						<stop  offset="0.2484" style="stop-color:#FFDA42"/>
						<stop  offset="1" style="stop-color:#FFBD37"/>
					</linearGradient>
					<path class="st19" d="M83.9,65.1l18.7,2c0,0,0.1,0.1,0.2,0.3l0,0.1l0,0.1l15,46.1c0.5,1.5,1.8,2.6,3.4,2.8c0.1,0,0.3,0,0.4,0
						c1.3,0,2.6-0.6,3.4-1.7l31.9-41l0,0l0,0c0.3-0.4,0.7-0.6,0.8-0.6l12.6,1.3L143.2,109l0,0l0,0c-1.2,1.7-1.3,4.6-0.5,6.3
						c0.6,1.3,1.7,2.2,3,2.3l12.9,1.4l-1.3,6.4l-19.1-2c-0.2,0-0.4,0-0.7,0c-2.1,0-4.1,1-5.5,2.7l-7.6,7.5l-0.2,0.2l-0.1,0.2
						c-1.1,1.4-1.7,3.6-2,4.7c-0.3,1.3-0.1,3.3,0.9,4.7c0.7,0.9,1.6,1.5,2.7,1.6l26.7,2.8c0,0.3,0,0.7,0,0.8l-1.2,5.6l-26.8-2.8
						c-0.1,0-0.3,0-0.4,0c-2.7,0-5.2,2.7-5.7,5.2l-6.5,31.4c-3.5-0.3-10-1.1-13.8-1.6l6.4-30.6c0.2-0.8,0.2-2.2-1-3.7
						c-1.1-1.5-3.2-3.1-5.1-3.3l-28.4-3l1-4.9c0.1-0.3,0.4-1,0.8-1.4l29.2,3.1c0.1,0,0.2,0,0.4,0c2.9,0,4.6-3.5,5-5
						c0.2-0.9,0.6-3.7,0-5.5l-0.1-0.3l-0.2-0.3l-4.6-8.1c-0.8-2.2-2.8-3.8-5.2-4.1l-20.3-2.1l1.2-5.9c0-0.1,0.1-0.3,0.2-0.4
						l14.8,1.6c0.1,0,0.2,0,0.4,0c0.9,0,2.2-0.3,3.3-1.8c0.9-1.2,2-3.6,1.4-5.6l0-0.1l0-0.1L83.9,65.1 M82,61.9
						c-0.9,0-1.8,1.5-1.6,2.4l13.9,41.1c0.3,0.9-0.9,3.6-1.8,3.6c0,0,0,0-0.1,0L77,107.4c0,0-0.1,0-0.1,0c-1.2,0-2.5,1.6-2.7,2.8
						l-1.4,6.8c-0.3,1.2,0.5,2.5,1.7,2.7l21.4,2.2c1.3,0.1,2.4,1,2.8,2.3l4.7,8.4c0.3,0.9,0.1,3-0.1,4c-0.2,0.8-1.2,2.6-2,2.6
						c0,0,0,0-0.1,0L71.1,136c0,0-0.1,0-0.1,0c-1.2,0-2.8,2.7-3,3.8l-1.4,6.8c-0.3,1.2,0.8,1.5,1.9,1.6l29.5,3.1
						c1.2,0.1,3.7,2.2,3.4,3.5l-7,33.8c0.2,0.1,17,2.2,19.5,2.2c0.2,0,0.3,0,0.3,0l7-33.9c0.2-1.2,1.6-2.8,2.8-2.8c0,0,0.1,0,0.1,0
						l27.5,2.9c0.2,0,0.5,0,0.7,0c0.8,0,1.4-0.3,1.6-1.2l1.4-6.8c0.3-1.2,0.1-4.2-1.1-4.3l-28.2-3c-0.8-0.1-1.2-1.8-1-2.7
						c0.2-1,0.8-2.6,1.4-3.5l7.7-7.6c0.8-1,2-1.7,3.2-1.7c0.1,0,0.2,0,0.3,0l19.8,2.1c0.1,0,0.1,0,0.2,0c1.1,0,2-1.1,2.3-2.2
						l1.4-6.8c0.3-1.2-0.1-3.1-1.3-3.2l-14.2-1.5c-1-0.1-1-3-0.4-3.8l29-37c0.6-0.8,0.3-2.2-0.7-2.3l-15.6-1.6c-0.1,0-0.2,0-0.3,0
						c-1.2,0-2.5,0.8-3.3,1.9l-31.9,41.1c-0.3,0.4-0.7,0.6-1,0.6c0,0-0.1,0-0.1,0c-0.4,0-0.7-0.3-0.8-0.7l-15-46.1
						c-0.4-1.3-1.4-2.3-2.7-2.5L82,61.9C82.1,61.9,82.1,61.9,82,61.9L82,61.9z"/>
				</g>
			</g>
		</g>
		<g class="st20">
			<linearGradient id="SVGID_15_" gradientUnits="userSpaceOnUse" x1="136.5125" y1="33.3634" x2="87.6163" y2="226.1532">
				<stop  offset="1.809950e-02" style="stop-color:#FFFFA0"/>
				<stop  offset="0.9762" style="stop-color:#FFEB6A"/>
			</linearGradient>
			<path class="st21" d="M155.4,149.1c0.3-1.2,0.1-4.2-1.1-4.3l-28.2-3c-0.8-0.1-1.2-1.8-1-2.7c0.2-1,0.8-2.6,1.4-3.5l7.7-7.6
				c0.9-1.1,2.2-1.8,3.6-1.7l19.8,2.1c1.2,0.1,2.2-1,2.5-2.2l1.4-6.8c0.3-1.2-0.1-3.1-1.3-3.2l-14.2-1.5c-1-0.1-1-3-0.4-3.8l29-37
				c0.6-0.8,0.3-2.2-0.7-2.3l-15.6-1.6c-1.3-0.1-2.7,0.7-3.6,1.8l-31.9,41.1c-0.3,0.4-0.7,0.6-1.1,0.5c-0.4,0-0.7-0.3-0.8-0.7
				l-15-46.1c-0.4-1.3-1.4-2.3-2.7-2.5l-20.9-2.2c-1-0.1-1.9,1.5-1.6,2.4l13.9,41.1c0.3,0.9-0.9,3.7-1.9,3.6L77,107.4
				c-1.2-0.1-2.6,1.6-2.9,2.8l-1.4,6.8c-0.3,1.2,0.5,2.5,1.7,2.7l21.4,2.2c1.3,0.1,2.4,1,2.8,2.3l4.7,8.4c0.3,0.9,0.1,3-0.1,4
				c-0.2,0.9-1.3,2.7-2.1,2.6L71.1,136c-1.2-0.1-2.8,2.6-3.1,3.8l-1.4,6.8c-0.3,1.2,0.8,1.5,1.9,1.6l29.5,3.1
				c1.2,0.1,3.7,2.2,3.4,3.5l-0.2,0.8c6.8,0.5,13.6,0.7,20.3,0.5c0.5-1.1,1.7-2.2,2.6-2.1l11.6,1.2c6.3-0.6,12.6-1.5,18.8-2.6
				L155.4,149.1z"/>
		</g>
		<polygon class="st22" points="150.3,69.5 140.4,67 149.3,71.9 150.4,74.3 147.9,84.3 152.8,75.2 155.1,74.1 164.9,76.6 156,71.7 
			155,69.3 157.4,59.3 152.6,68.4 		"/>
	</g>
</g>
<g>
</g>
<g>
</g>
<g>
</g>
<g>
</g>
<g>
</g>
</svg>
