<?xml version="1.0" encoding="utf-8"?>
<!-- Generator: Adobe Illustrator 21.0.0, SVG Export Plug-In . SVG Version: 6.00 Build 0)  -->
<svg version="1.1" id="Layer_1" xmlns="http://www.w3.org/2000/svg" xmlns:xlink="http://www.w3.org/1999/xlink" x="0px" y="0px"
	 width="576px" height="288px" viewBox="0 0 576 288" style="enable-background:new 0 0 576 288;" xml:space="preserve">
<style type="text/css">
	.st0{fill:url(#SVGID_1_);}
	.st1{clip-path:url(#SVGID_3_);}
	.st2{opacity:0.7;}
	.st3{fill:#5B9324;}
	.st4{fill:#4A4A4A;}
	.st5{fill:#A1A1A1;}
</style>
<g>
	<radialGradient id="SVGID_1_" cx="265.6927" cy="74.5978" r="372.2632" gradientUnits="userSpaceOnUse">
		<stop  offset="0.1237" style="stop-color:#171F27"/>
		<stop  offset="0.2251" style="stop-color:#131A21"/>
		<stop  offset="0.7045" style="stop-color:#050709"/>
		<stop  offset="1" style="stop-color:#000000"/>
	</radialGradient>
	<rect x="0" class="st0" width="576" height="288"/>
	<g>
		<defs>
			<rect id="SVGID_2_" x="0" width="576" height="288"/>
		</defs>
		<clipPath id="SVGID_3_">
			<use xlink:href="#SVGID_2_"  style="overflow:visible;"/>
		</clipPath>
		<g class="st1">
			<g class="st2">
				<g>
					<g>
						<polygon class="st3" points="225.6,44.5 148.6,121.4 56.8,121.4 0,178.2 0,179.6 57.2,122.4 149.1,122.4 226.3,45.2 						"/>
					</g>
					<g>
						
							<ellipse transform="matrix(0.7071 -0.7071 0.7071 0.7071 34.3866 172.8432)" class="st3" cx="225.8" cy="44.9" rx="1.9" ry="1.9"/>
					</g>
				</g>
				<g>
					<g>
						<polygon class="st3" points="218,80.1 117.3,180.8 51.4,180.8 0,232.2 0,233.7 51.8,181.8 117.7,181.8 218.7,80.9 						"/>
					</g>
					<g>
						
							<ellipse transform="matrix(0.7071 -0.7071 0.7071 0.7071 6.9642 177.943)" class="st3" cx="218.3" cy="80.6" rx="1.9" ry="1.9"/>
					</g>
				</g>
				<g>
					<g>
						<polygon class="st3" points="7.2,288 62.1,233.1 148,233.1 310.3,70.9 309.6,70.2 147.6,232.1 61.7,232.1 5.8,288 						"/>
					</g>
					<g>
						
							<ellipse transform="matrix(0.7071 -0.7071 0.7071 0.7071 40.8531 239.7656)" class="st3" cx="309.8" cy="70.6" rx="1.9" ry="1.9"/>
					</g>
				</g>
				<g>
					<g>
						<polygon class="st3" points="26.1,288 48.8,265.3 48.1,264.6 24.7,288 						"/>
					</g>
					<g>
						
							<ellipse transform="matrix(0.7071 -0.7071 0.7071 0.7071 -173.2237 111.8482)" class="st3" cx="48.4" cy="265" rx="1.9" ry="1.9"/>
					</g>
				</g>
				<g>
					<g>
						<polygon class="st3" points="168.5,288 271.8,184.7 271.1,184 167.1,288 						"/>
					</g>
					<g>
						
							<ellipse transform="matrix(0.7071 -0.7071 0.7071 0.7071 -50.9187 245.8887)" class="st3" cx="271.4" cy="184.4" rx="1.9" ry="1.9"/>
					</g>
				</g>
				<g>
					<g>
						<polygon class="st3" points="71,288 71,264.2 102.3,232.9 101.6,232.2 70,263.8 70,288 						"/>
					</g>
				</g>
				<g>
					<g>
						<polygon class="st3" points="208.3,142.8 147.6,203.5 65.5,203.5 0,269 0,288 0.8,288 0.8,269.6 65.9,204.5 148,204.5 
							209,143.5 						"/>
					</g>
					<g>
						
							<ellipse transform="matrix(0.7071 -0.7071 0.7071 0.7071 -40.1863 189.4278)" class="st3" cx="208.6" cy="143.2" rx="1.9" ry="1.9"/>
					</g>
				</g>
				<g>
					<g>
						<polygon class="st3" points="60.1,139.8 0,199.8 0,201.2 60.5,140.8 119.5,140.8 119.5,139.8 						"/>
					</g>
					<g>
						<circle class="st3" cx="119.4" cy="140.3" r="1.9"/>
					</g>
				</g>
				<g>
					<g>
						<polygon class="st3" points="133.6,288 217.6,204 216.9,203.3 132.2,288 						"/>
					</g>
					<g>
						
							<ellipse transform="matrix(0.7071 -0.7071 0.7071 0.7071 -80.4335 213.265)" class="st3" cx="217.2" cy="203.7" rx="1.9" ry="1.9"/>
					</g>
				</g>
				<g>
					<g>
						<polygon class="st3" points="228.5,177 204.5,177 204.5,176 228,176 294.2,109.9 294.9,110.6 						"/>
					</g>
					<g>
						
							<ellipse transform="matrix(0.7071 -0.7071 0.7071 0.7071 8.2648 240.497)" class="st3" cx="294.4" cy="110.3" rx="1.9" ry="1.9"/>
					</g>
				</g>
				<g>
					<g>
						<polygon class="st3" points="163.4,188.9 162.4,188.9 162.4,159 257.7,63.6 257.7,32.4 258.7,32.4 258.7,64 163.4,159.4 
													"/>
					</g>
					<g>
						<circle class="st3" cx="258.2" cy="32.5" r="1.9"/>
					</g>
				</g>
				<g>
					<g>
						<polygon class="st3" points="196,288 296.1,187.9 296.1,166.4 295.1,166.4 295.1,187.5 194.6,288 						"/>
					</g>
					<g>
						<circle class="st3" cx="295.6" cy="166.5" r="1.9"/>
					</g>
				</g>
				<g>
					<g>
						<polygon class="st3" points="100.1,288 119.6,268.5 119.6,254.4 118.6,254.4 118.6,268.1 98.7,288 						"/>
					</g>
					<g>
						<circle class="st3" cx="119.1" cy="254.5" r="1.9"/>
					</g>
				</g>
				<g>
					<g>
						<polygon class="st3" points="9.8,259.8 9.8,241.7 54,197.5 54.7,198.2 10.8,242.1 10.8,259.8 						"/>
					</g>
					<g>
						
							<ellipse transform="matrix(0.7071 -0.7071 0.7071 0.7071 -124.033 96.3821)" class="st3" cx="54.3" cy="197.9" rx="1.9" ry="1.9"/>
					</g>
				</g>
				<g>
					<g>
						<polygon class="st3" points="70.3,181.3 69.6,180.6 87.1,163.1 117.2,163.1 144.3,136 145,136.7 117.6,164.1 87.5,164.1 
													"/>
					</g>
					<g>
						
							<ellipse transform="matrix(0.7071 -0.7071 0.7071 0.7071 -54.1095 142.174)" class="st3" cx="144.6" cy="136.4" rx="1.9" ry="1.9"/>
					</g>
				</g>
				<g>
					<g>
						<polygon class="st3" points="158.7,262.3 157.7,262.3 157.7,244 196.7,205 197.4,205.7 158.7,244.5 						"/>
					</g>
					<g>
						
							<ellipse transform="matrix(0.7071 -0.7071 0.7071 0.7071 -87.5573 199.479)" class="st3" cx="197" cy="205.4" rx="1.9" ry="1.9"/>
					</g>
				</g>
				<g>
					<g>
						<polygon class="st3" points="152.4,0 99,53.4 40.2,53.4 0,93.6 0,95 40.6,54.4 99.4,54.4 153.8,0 						"/>
					</g>
				</g>
				<g>
					<g>
						<polygon class="st3" points="74,72.2 0,146.2 0,147.6 74.4,73.2 140.8,73.2 140.8,72.2 						"/>
					</g>
					<g>
						<circle class="st3" cx="140.7" cy="72.7" r="1.9"/>
					</g>
				</g>
				<g>
					<g>
						<polygon class="st3" points="85.9,122.2 85.2,121.5 115.2,91.4 148,91.4 181.3,58.2 182,58.9 148.4,92.4 115.6,92.4 						"/>
					</g>
					<g>
						
							<ellipse transform="matrix(0.7071 -0.7071 0.7071 0.7071 11.745 145.546)" class="st3" cx="181.6" cy="58.6" rx="1.9" ry="1.9"/>
					</g>
				</g>
				<g>
					<g>
						<polygon class="st3" points="167.3,25.1 128.3,25.1 128.3,24.1 166.9,24.1 187.9,3.1 188.6,3.8 						"/>
					</g>
					<g>
						
							<ellipse transform="matrix(0.7071 -0.7071 0.7071 0.7071 52.6433 134.1144)" class="st3" cx="188.2" cy="3.5" rx="1.9" ry="1.9"/>
					</g>
				</g>
				<g>
					<g>
						<polygon class="st3" points="0,123.7 17.9,105.8 17.2,105.1 0,122.3 						"/>
					</g>
					<g>
						
							<ellipse transform="matrix(0.7071 -0.7071 0.7071 0.7071 -69.5125 43.2807)" class="st3" cx="17.5" cy="105.5" rx="1.9" ry="1.9"/>
					</g>
				</g>
				<g>
					<g>
						<polygon class="st3" points="215.1,269 215.1,268 260.9,268 358.7,170.2 396.5,170.2 396.5,171.2 359.1,171.2 261.4,269 
													"/>
					</g>
					<g>
						<circle class="st3" cx="396.4" cy="170.7" r="1.9"/>
					</g>
				</g>
			</g>
			<g>
				<g>
					<g>
						<polygon class="st3" points="55.8,197 55.8,231.1 0,286.9 0,288 0.3,288 56.8,231.5 56.8,197 						"/>
					</g>
					<g>
						<circle class="st3" cx="56.3" cy="197.1" r="1.9"/>
					</g>
				</g>
				<g>
					<g>
						<polygon class="st3" points="102.9,288 173.3,217.6 173.3,163.7 217.8,119.2 217.1,118.5 172.3,163.3 172.3,217.2 101.5,288 
													"/>
					</g>
					<g>
						
							<ellipse transform="matrix(0.7071 -0.7071 0.7071 0.7071 -20.4293 188.5605)" class="st3" cx="217.4" cy="118.9" rx="1.9" ry="1.9"/>
					</g>
				</g>
				<g>
					<g>
						<polygon class="st3" points="71.2,288 138.5,220.8 138.5,182.1 196.9,123.7 196.2,123 137.5,181.7 137.5,220.3 69.8,288 
													"/>
					</g>
					<g>
						
							<ellipse transform="matrix(0.7071 -0.7071 0.7071 0.7071 -29.6847 175.085)" class="st3" cx="196.5" cy="123.4" rx="1.9" ry="1.9"/>
					</g>
				</g>
				<g>
					<g>
						<polygon class="st3" points="42.2,288 42.2,280.9 108.4,214.7 108.4,164.4 202.8,70 202.1,69.3 107.4,164 107.4,214.3 
							41.2,280.5 41.2,288 						"/>
					</g>
					<g>
						
							<ellipse transform="matrix(0.7071 -0.7071 0.7071 0.7071 9.9974 163.512)" class="st3" cx="202.4" cy="69.7" rx="1.9" ry="1.9"/>
					</g>
				</g>
				<g>
					<g>
						<polygon class="st3" points="29.2,288 29.2,282.8 88.8,223.3 88.1,222.6 28.2,282.4 28.2,288 						"/>
					</g>
					<g>
						
							<ellipse transform="matrix(0.7071 -0.7071 0.7071 0.7071 -131.7999 127.7731)" class="st3" cx="88.3" cy="223" rx="1.9" ry="1.9"/>
					</g>
				</g>
				<g>
					<g>
						<polygon class="st3" points="10.2,278.2 9.2,278.2 9.2,240.6 42,207.8 42,185.2 135.3,91.8 136,92.5 43,185.6 43,208.2 
							10.2,241 						"/>
					</g>
					<g>
						
							<ellipse transform="matrix(0.7071 -0.7071 0.7071 0.7071 -25.5137 122.9203)" class="st3" cx="135.6" cy="92.3" rx="1.9" ry="1.9"/>
					</g>
				</g>
				<g>
					<g>
						<polygon class="st3" points="29.8,258.2 28.8,258.2 28.8,242.5 41.5,229.9 42.2,230.6 29.8,242.9 						"/>
					</g>
					<g>
						
							<ellipse transform="matrix(0.7071 -0.7071 0.7071 0.7071 -150.5878 96.9861)" class="st3" cx="41.8" cy="230.3" rx="1.9" ry="1.9"/>
					</g>
				</g>
				<g>
					<g>
						<polygon class="st3" points="89.7,210 73.9,210 73.9,209 89.3,209 107.6,190.7 108.3,191.4 						"/>
					</g>
					<g>
						<circle class="st3" cx="74" cy="209.5" r="1.9"/>
					</g>
				</g>
				<g>
					<g>
						<polygon class="st3" points="86.6,251.1 72,251.1 72,250.1 86.1,250.1 124.2,212.1 124.2,164 159.5,128.7 160.2,129.4 
							125.2,164.4 125.2,212.5 						"/>
					</g>
					<g>
						
							<ellipse transform="matrix(0.7071 -0.7071 0.7071 0.7071 -44.4773 150.7759)" class="st3" cx="159.8" cy="129.1" rx="1.9" ry="1.9"/>
					</g>
				</g>
				<g>
					<g>
						<polygon class="st3" points="97.6,280.6 78.4,280.6 78.4,279.6 97.2,279.6 161.5,215.3 161.5,181.5 162.5,181.5 162.5,215.7 
													"/>
					</g>
					<g>
						<circle class="st3" cx="162" cy="181.6" r="1.9"/>
					</g>
				</g>
				<g>
					<g>
						<polygon class="st3" points="74.8,174.2 54.4,174.2 54.4,173.2 74.4,173.2 124,123.6 124.7,124.3 						"/>
					</g>
					<g>
						
							<ellipse transform="matrix(0.7071 -0.7071 0.7071 0.7071 -51.2838 124.2145)" class="st3" cx="124.3" cy="124" rx="1.9" ry="1.9"/>
					</g>
				</g>
				<g>
					<g>
						<polygon class="st3" points="141.3,130.9 140.3,130.9 140.3,116.8 178.8,78.3 179.5,79 141.3,117.2 						"/>
					</g>
					<g>
						
							<ellipse transform="matrix(0.7071 -0.7071 0.7071 0.7071 -3.2095 149.6841)" class="st3" cx="179.1" cy="78.7" rx="1.9" ry="1.9"/>
					</g>
				</g>
				<g>
					<g>
						<polygon class="st3" points="54.3,288 54.3,282.4 70.6,266.1 69.9,265.4 53.3,281.9 53.3,288 						"/>
					</g>
					<g>
						
							<ellipse transform="matrix(0.7071 -0.7071 0.7071 0.7071 -167.3858 127.4582)" class="st3" cx="70.2" cy="265.8" rx="1.9" ry="1.9"/>
					</g>
				</g>
				<g>
					<g>
						<polygon class="st3" points="151.2,155.8 133.5,155.8 133.5,154.8 150.8,154.8 206.7,98.9 224.6,98.9 224.6,99.9 207.1,99.9 
													"/>
					</g>
					<g>
						<circle class="st3" cx="224.5" cy="99.4" r="1.9"/>
					</g>
				</g>
				<g>
					<g>
						<polygon class="st3" points="0,209.4 9.9,199.5 9.2,198.8 0,208 						"/>
					</g>
					<g>
						
							<ellipse transform="matrix(0.7071 -0.7071 0.7071 0.7071 -138.1096 65.0597)" class="st3" cx="9.5" cy="199.2" rx="1.9" ry="1.9"/>
					</g>
				</g>
				<g>
					<g>
						<polygon class="st3" points="30.2,185.6 30.2,192.2 11.3,211.2 11.3,224.9 0,236.2 0,237.6 12.3,225.4 12.3,211.6 31.2,192.6 
							31.2,185.6 						"/>
					</g>
					<g>
						<circle class="st3" cx="30.7" cy="185.7" r="1.9"/>
					</g>
				</g>
				<g>
					<g>
						<polygon class="st3" points="0,271.2 10,261.1 9.3,260.4 0,269.8 						"/>
					</g>
				</g>
				<g>
					<g>
						<polygon class="st3" points="20,203.4 19,203.4 19,175.1 55.9,138.2 72.8,138.2 134,77 146,77 146,78 134.5,78 73.2,139.2 
							56.3,139.2 20,175.5 						"/>
					</g>
					<g>
						<circle class="st3" cx="145.9" cy="77.5" r="1.9"/>
					</g>
				</g>
				<g>
					<g>
						<polygon class="st3" points="56.6,212 55.9,211.3 86.8,180.5 94.4,180.5 94.4,181.5 87.2,181.5 						"/>
					</g>
					<g>
						<circle class="st3" cx="94.3" cy="181" r="1.9"/>
					</g>
				</g>
				<g>
					<g>
						<polygon class="st3" points="18.8,288 18.8,283 54.6,247.2 53.9,246.5 17.8,282.6 17.8,288 						"/>
					</g>
					<g>
						
							<ellipse transform="matrix(0.7071 -0.7071 0.7071 0.7071 -158.7247 110.6245)" class="st3" cx="54.2" cy="246.9" rx="1.9" ry="1.9"/>
					</g>
				</g>
				<g>
					<g>
						<polygon class="st3" points="102.6,245.3 92,245.3 92,244.3 102.2,244.3 127.4,219.1 128.1,219.8 						"/>
					</g>
					<g>
						
							<ellipse transform="matrix(0.7071 -0.7071 0.7071 0.7071 -117.818 154.5841)" class="st3" cx="127.7" cy="219.5" rx="1.9" ry="1.9"/>
					</g>
				</g>
				<g>
					<g>
						<polygon class="st3" points="46.1,165.9 29.4,165.9 29.4,164.9 45.7,164.9 63.3,147.2 64,147.9 						"/>
					</g>
					<g>
						
							<ellipse transform="matrix(0.7071 -0.7071 0.7071 0.7071 -85.7742 88.2334)" class="st3" cx="63.6" cy="147.7" rx="1.9" ry="1.9"/>
					</g>
				</g>
				<g>
					<g>
						<polygon class="st3" points="138.5,210.2 137.8,209.5 147.9,199.4 147.9,181.8 163.5,166.2 164.2,166.9 148.9,182.2 
							148.9,199.8 						"/>
					</g>
					<g>
						
							<ellipse transform="matrix(0.7071 -0.7071 0.7071 0.7071 -69.8374 164.5954)" class="st3" cx="163.8" cy="166.6" rx="1.9" ry="1.9"/>
					</g>
				</g>
				<g>
					<g>
						<polygon class="st3" points="101.3,158.6 90.5,158.6 90.5,157.6 100.9,157.6 123,135.4 123.7,136.1 						"/>
					</g>
					<g>
						
							<ellipse transform="matrix(0.7071 -0.7071 0.7071 0.7071 -59.9534 126.977)" class="st3" cx="123.3" cy="135.9" rx="1.9" ry="1.9"/>
					</g>
				</g>
				<g>
					<g>
						<polygon class="st3" points="152.5,288 213.2,227.3 213.2,192.8 270.9,135.2 283.5,135.2 283.5,134.2 270.5,134.2 
							212.2,192.4 212.2,226.9 151.1,288 						"/>
					</g>
					<g>
						<circle class="st3" cx="283.5" cy="134.7" r="1.9"/>
					</g>
				</g>
				<g>
					<g>
						<polygon class="st3" points="150.5,259.2 131.7,259.2 131.7,258.2 150.1,258.2 201.2,207.1 201.2,169 202.2,169 202.2,207.5 
													"/>
					</g>
					<g>
						<circle class="st3" cx="201.7" cy="169.1" r="1.9"/>
					</g>
				</g>
				<g>
					<g>
						<polygon class="st3" points="173.2,201 172.5,200.3 189.9,183 189.9,163.7 209.1,144.5 209.8,145.2 190.9,164.1 190.9,183.4 
													"/>
					</g>
					<g>
						
							<ellipse transform="matrix(0.7071 -0.7071 0.7071 0.7071 -41.1352 190.4901)" class="st3" cx="209.4" cy="144.9" rx="1.9" ry="1.9"/>
					</g>
				</g>
				<g>
					<g>
						<polygon class="st3" points="230.4,175.6 229.4,175.6 229.4,152.6 241.4,140.6 242.1,141.3 230.4,153 						"/>
					</g>
					<g>
						
							<ellipse transform="matrix(0.7071 -0.7071 0.7071 0.7071 -28.9232 212.193)" class="st3" cx="241.7" cy="141" rx="1.9" ry="1.9"/>
					</g>
				</g>
				<g>
					<g>
						<polygon class="st3" points="146.6,277.1 113.7,277.1 113.7,276.1 146.2,276.1 181.6,240.7 182.3,241.4 						"/>
					</g>
					<g>
						
							<ellipse transform="matrix(0.7071 -0.7071 0.7071 0.7071 -117.2317 199.218)" class="st3" cx="181.9" cy="241.1" rx="1.9" ry="1.9"/>
					</g>
				</g>
				<g>
					<g>
						<polygon class="st3" points="87.4,124.7 86.4,124.7 86.4,97.5 143.7,40.1 143.7,19.1 144.7,19.1 144.7,40.6 87.4,97.9 						
							"/>
					</g>
					<g>
						<circle class="st3" cx="144.2" cy="19.1" r="1.9"/>
					</g>
				</g>
			</g>
		</g>
		<g class="st1">
			<g class="st2">
				<g>
					<g>
						<polygon class="st4" points="470.2,0 408.7,61.5 316.9,61.5 239.7,138.7 240.4,139.4 317.3,62.5 409.1,62.5 471.6,0 						"/>
					</g>
					<g>
						
							<ellipse transform="matrix(0.7071 -0.7071 0.7071 0.7071 -27.9678 210.4925)" class="st4" cx="240.1" cy="139" rx="1.9" ry="1.9"/>
					</g>
				</g>
				<g>
					<g>
						<polygon class="st4" points="416.2,0 414.1,2.1 348.2,2.1 247.2,103.1 248,103.8 348.6,3.1 414.5,3.1 417.6,0 						"/>
					</g>
					<g>
						
							<ellipse transform="matrix(0.7071 -0.7071 0.7071 0.7071 -0.5462 205.3866)" class="st4" cx="247.7" cy="103.4" rx="1.9" ry="1.9"/>
					</g>
				</g>
				<g>
					<g>
						<polygon class="st4" points="268.7,0 155.7,113.1 156.4,113.8 270.2,0 						"/>
					</g>
					<g>
						
							<ellipse transform="matrix(0.7071 -0.7071 0.7071 0.7071 -34.4258 143.5859)" class="st4" cx="156.1" cy="113.3" rx="1.9" ry="1.9"/>
					</g>
				</g>
				<g>
					<g>
						<path class="st4" d="M192.8,0c0.1,0.3,0.2,0.6,0.5,0.8c0.7,0.7,1.9,0.7,2.7,0c0.2-0.2,0.4-0.5,0.5-0.8H192.8z"/>
					</g>
				</g>
				<g>
					<g>
						<polygon class="st4" points="297.4,0 257,40.4 257.7,41.1 298.8,0 						"/>
					</g>
					<g>
						
							<ellipse transform="matrix(0.7071 -0.7071 0.7071 0.7071 46.6165 193.9278)" class="st4" cx="257.4" cy="40.7" rx="1.9" ry="1.9"/>
					</g>
				</g>
				<g>
					<g>
						<polygon class="st4" points="448.6,0 405.5,43.1 346.4,43.1 346.4,44.1 405.9,44.1 450,0 						"/>
					</g>
					<g>
						<circle class="st4" cx="346.5" cy="43.6" r="1.9"/>
					</g>
				</g>
				<g>
					<g>
						<polygon class="st4" points="171.8,74.1 171.1,73.4 237.5,7 261.5,7 261.5,8 237.9,8 						"/>
					</g>
					<g>
						
							<ellipse transform="matrix(0.7071 -0.7071 0.7071 0.7071 -1.8449 142.8373)" class="st4" cx="171.5" cy="73.6" rx="1.9" ry="1.9"/>
					</g>
				</g>
				<g>
					<g>
						<polygon class="st4" points="302.6,0 302.6,24.5 207.2,119.9 207.2,151.5 208.2,151.5 208.2,120.3 303.6,24.9 303.6,0 						
							"/>
					</g>
					<g>
						<circle class="st4" cx="207.7" cy="151.4" r="1.9"/>
					</g>
				</g>
				<g>
					<g>
						<rect x="169.8" y="0" class="st4" width="1" height="17.6"/>
					</g>
					<g>
						<circle class="st4" cx="170.3" cy="17.5" r="1.9"/>
					</g>
				</g>
				<g>
					<g>
						<polygon class="st4" points="321.7,47.9 321,47.2 348.4,19.8 378.5,19.8 395.7,2.6 396.4,3.3 378.9,20.8 348.8,20.8 						"/>
					</g>
					<g>
						
							<ellipse transform="matrix(0.7071 -0.7071 0.7071 0.7071 60.5329 241.1614)" class="st4" cx="321.4" cy="47.5" rx="1.9" ry="1.9"/>
					</g>
				</g>
				<g>
					<g>
						<polygon class="st4" points="554.9,0 425.4,129.5 366.5,129.5 267.3,228.7 267.3,252.1 268.3,252.1 268.3,229.1 366.9,130.5 
							425.8,130.5 556.3,0 						"/>
					</g>
					<g>
						<circle class="st4" cx="267.8" cy="252" r="1.9"/>
					</g>
				</g>
				<g>
					<g>
						<polygon class="st4" points="478.8,0 478.8,23.4 391.5,110.7 325.1,110.7 325.1,111.7 391.9,111.7 479.8,23.8 479.8,0 						
							"/>
					</g>
					<g>
						<circle class="st4" cx="325.2" cy="111.2" r="1.9"/>
					</g>
				</g>
				<g>
					<g>
						<polygon class="st4" points="284.7,125.7 284,125 317.5,91.5 350.4,91.5 380.1,61.8 380.8,62.5 350.8,92.5 317.9,92.5 						
							"/>
					</g>
					<g>
						
							<ellipse transform="matrix(0.7071 -0.7071 0.7071 0.7071 -5.3268 237.7851)" class="st4" cx="284.4" cy="125.3" rx="1.9" ry="1.9"/>
					</g>
				</g>
				<g>
					<g>
						<polygon class="st4" points="278,180.8 277.3,180.1 298.6,158.8 337.6,158.8 337.6,159.8 299,159.8 						"/>
					</g>
					<g>
						
							<ellipse transform="matrix(0.7071 -0.7071 0.7071 0.7071 -46.216 249.2371)" class="st4" cx="277.7" cy="180.4" rx="1.9" ry="1.9"/>
					</g>
				</g>
				<g>
					<g>
						<polygon class="st4" points="509.3,0 509.3,16.8 448,78.1 448.7,78.8 510.3,17.2 510.3,0 						"/>
					</g>
					<g>
						
							<ellipse transform="matrix(0.7071 -0.7071 0.7071 0.7071 75.9448 340.0778)" class="st4" cx="448.5" cy="78.4" rx="1.9" ry="1.9"/>
					</g>
				</g>
				<g>
					<g>
						<polygon class="st4" points="119.5,0 106.8,12.7 69.4,12.7 69.4,13.7 107.2,13.7 121,0 						"/>
					</g>
					<g>
						<circle class="st4" cx="69.5" cy="13.2" r="1.9"/>
					</g>
				</g>
			</g>
			<g>
				<g>
					<g>
						<polygon class="st5" points="292.6,0 292.6,20.2 248.1,64.7 248.8,65.4 293.6,20.6 293.6,0 						"/>
					</g>
					<g>
						
							<ellipse transform="matrix(0.7071 -0.7071 0.7071 0.7071 26.8454 194.7651)" class="st5" cx="248.5" cy="65" rx="1.9" ry="1.9"/>
					</g>
				</g>
				<g>
					<g>
						<polygon class="st5" points="327.5,0 327.5,1.8 269,60.3 269.7,61 328.5,2.2 328.5,0 						"/>
					</g>
					<g>
						
							<ellipse transform="matrix(0.7071 -0.7071 0.7071 0.7071 36.1111 208.2623)" class="st5" cx="269.4" cy="60.5" rx="1.9" ry="1.9"/>
					</g>
				</g>
				<g>
					<g>
						<polygon class="st5" points="357.6,0 357.6,19.5 263.2,113.9 263.9,114.6 358.6,20 358.6,0 						"/>
					</g>
					<g>
						
							<ellipse transform="matrix(0.7071 -0.7071 0.7071 0.7071 -3.5663 219.8483)" class="st5" cx="263.6" cy="114.2" rx="1.9" ry="1.9"/>
					</g>
				</g>
				<g>
					<g>
						<polygon class="st5" points="421.3,0 329.9,91.4 330.6,92.1 422.7,0 						"/>
					</g>
					<g>
						
							<ellipse transform="matrix(0.7071 -0.7071 0.7071 0.7071 31.9416 260.4343)" class="st5" cx="330.3" cy="91.7" rx="1.9" ry="1.9"/>
					</g>
				</g>
				<g>
					<g>
						<polygon class="st5" points="340.8,0 340.8,19.5 305.8,54.6 306.5,55.3 341.8,20 341.8,0 						"/>
					</g>
					<g>
						
							<ellipse transform="matrix(0.7071 -0.7071 0.7071 0.7071 50.8976 232.5622)" class="st5" cx="306.2" cy="54.8" rx="1.9" ry="1.9"/>
					</g>
				</g>
				<g>
					<g>
						<circle class="st5" cx="303.9" cy="2.3" r="1.9"/>
					</g>
				</g>
				<g>
					<g>
						<polygon class="st5" points="341.9,60.3 341.2,59.6 391.1,9.7 411.6,9.7 411.6,10.7 391.5,10.7 						"/>
					</g>
					<g>
						
							<ellipse transform="matrix(0.7071 -0.7071 0.7071 0.7071 57.7112 259.1404)" class="st5" cx="341.7" cy="59.9" rx="1.9" ry="1.9"/>
					</g>
				</g>
				<g>
					<g>
						<polygon class="st5" points="287.1,105.6 286.4,104.9 324.6,66.7 324.6,53 325.6,53 325.6,67.1 						"/>
					</g>
					<g>
						
							<ellipse transform="matrix(0.7071 -0.7071 0.7071 0.7071 9.6293 233.6502)" class="st5" cx="286.9" cy="105.2" rx="1.9" ry="1.9"/>
					</g>
				</g>
				<g>
					<g>
						<polygon class="st5" points="241.4,85 241.4,84 258.9,84 314.8,28.1 332.4,28.1 332.4,29.1 315.2,29.1 259.3,85 						"/>
					</g>
					<g>
						<circle class="st5" cx="241.5" cy="84.5" r="1.9"/>
					</g>
				</g>
				<g>
					<g>
						<polygon class="st5" points="445.9,0 445.9,8.5 409.6,44.7 392.7,44.7 331.5,106 319.9,106 319.9,107 331.9,107 393.1,45.7 
							410.1,45.7 446.9,8.9 446.9,0 						"/>
					</g>
					<g>
						<circle class="st5" cx="320" cy="106.5" r="1.9"/>
					</g>
				</g>
				<g>
					<g>
						<polygon class="st5" points="381.2,0 378.8,2.5 371.6,2.5 371.6,3.5 379.2,3.5 382.6,0 						"/>
					</g>
					<g>
						<circle class="st5" cx="371.7" cy="3" r="1.9"/>
					</g>
				</g>
				<g>
					<g>
						<polygon class="st5" points="402.6,36.7 401.9,36 419.9,18 436.5,18 436.5,19 420.3,19 						"/>
					</g>
					<g>
						
							<ellipse transform="matrix(0.7071 -0.7071 0.7071 0.7071 92.199 295.1068)" class="st5" cx="402.3" cy="36.3" rx="1.9" ry="1.9"/>
					</g>
				</g>
				<g>
					<g>
						<polygon class="st5" points="317.1,0 317.1,1.7 301.8,17 302.5,17.7 318.1,2.1 318.1,0 						"/>
					</g>
					<g>
						
							<ellipse transform="matrix(0.7071 -0.7071 0.7071 0.7071 76.2534 218.7434)" class="st5" cx="302.2" cy="17.3" rx="1.9" ry="1.9"/>
					</g>
				</g>
				<g>
					<g>
						<polygon class="st5" points="342.9,48.5 342.2,47.8 364.7,25.3 375.5,25.3 375.5,26.3 365.1,26.3 						"/>
					</g>
					<g>
						
							<ellipse transform="matrix(0.7071 -0.7071 0.7071 0.7071 66.3688 256.3623)" class="st5" cx="342.7" cy="48.1" rx="1.9" ry="1.9"/>
					</g>
				</g>
				<g>
					<g>
						<polygon class="st5" points="243.8,0 195.1,48.8 182.4,48.8 182.4,49.8 195.5,49.8 245.2,0 						"/>
					</g>
					<g>
						<circle class="st5" cx="182.5" cy="49.3" r="1.9"/>
					</g>
				</g>
				<g>
					<g>
						<rect x="263.8" y="0" class="st5" width="1" height="14.9"/>
					</g>
					<g>
						<circle class="st5" cx="264.3" cy="14.8" r="1.9"/>
					</g>
				</g>
				<g>
					<g>
						<polygon class="st5" points="275.6,0 275.1,0.5 275.1,19.8 256.1,38.7 256.8,39.4 276.1,20.2 276.1,1 277,0 						"/>
					</g>
					<g>
						
							<ellipse transform="matrix(0.7071 -0.7071 0.7071 0.7071 47.5542 192.8395)" class="st5" cx="256.6" cy="39" rx="1.9" ry="1.9"/>
					</g>
				</g>
				<g>
					<g>
						<polygon class="st5" points="224.6,43.3 223.8,42.6 235.6,30.9 235.6,8.3 236.6,8.3 236.6,31.3 						"/>
					</g>
					<g>
						
							<ellipse transform="matrix(0.7071 -0.7071 0.7071 0.7071 35.3503 171.1519)" class="st5" cx="224.3" cy="42.9" rx="1.9" ry="1.9"/>
					</g>
				</g>
				<g>
					<g>
						<polygon class="st5" points="322.2,164.9 321.2,164.9 321.2,143.4 378.6,86 378.6,59.2 379.6,59.2 379.6,86.4 322.2,143.8 
													"/>
					</g>
					<g>
						<circle class="st5" cx="321.7" cy="164.8" r="1.9"/>
					</g>
				</g>
			</g>
		</g>
	</g>
</g>
</svg>
