<svg xmlns="http://www.w3.org/2000/svg" xmlns:xlink="http://www.w3.org/1999/xlink" viewBox="0 0 82.49 82.49"><defs><style>.cls-1{isolation:isolate;}.cls-2{opacity:0.4;}.cls-2,.cls-3,.cls-5{mix-blend-mode:multiply;}.cls-3{fill:#424242;}.cls-4,.cls-7{fill:#fff;}.cls-5{opacity:0.8;fill:url(#Degradado_sin_nombre_44);}.cls-6{fill:url(#Nueva_muestra_de_degradado_5);}.cls-7{fill-rule:evenodd;}</style><radialGradient id="Degradado_sin_nombre_44" cx="43.98" cy="43.66" r="37.29" gradientUnits="userSpaceOnUse"><stop offset="0"/><stop offset="0.86" stop-color="#777" stop-opacity="0.53"/><stop offset="1" stop-color="#fff" stop-opacity="0"/></radialGradient><linearGradient id="Nueva_muestra_de_degradado_5" x1="18.37" y1="18.37" x2="64.11" y2="64.11" gradientUnits="userSpaceOnUse"><stop offset="0" stop-color="#245a9c"/><stop offset="1" stop-color="#2b189c"/></linearGradient></defs><title>fb-footer</title><g class="cls-1"><g id="Layer_1" data-name="Layer 1"><g class="cls-2"><circle class="cls-3" cx="41.24" cy="41.24" r="40.98"/></g><circle class="cls-4" cx="41.24" cy="41.24" r="41.24"/><circle class="cls-5" cx="43.98" cy="43.66" r="37.29"/><circle class="cls-6" cx="41.24" cy="41.24" r="32.34"/><path class="cls-7" d="M35.86,41.64V61.45a.52.52,0,0,0,.52.52h7.36a.52.52,0,0,0,.52-.52V41.32h5.33a.52.52,0,0,0,.51-.47l.51-6.07a.52.52,0,0,0-.51-.56H44.25v-4.3a1.83,1.83,0,0,1,1.83-1.83h4.11a.52.52,0,0,0,.52-.52V21.51a.52.52,0,0,0-.52-.52H43.24a7.38,7.38,0,0,0-7.38,7.38v5.85H32.18a.52.52,0,0,0-.52.52V40.8a.52.52,0,0,0,.52.52h3.68Z" transform="translate(0.02 -0.03)"/></g></g></svg>