<svg xmlns="http://www.w3.org/2000/svg" xmlns:xlink="http://www.w3.org/1999/xlink" viewBox="0 0 81.46 81.46"><defs><style>.cls-1{isolation:isolate;}.cls-2{opacity:0.4;}.cls-2,.cls-3,.cls-5{mix-blend-mode:multiply;}.cls-3{fill:#424242;}.cls-4{fill:#fff;}.cls-5{opacity:0.8;fill:url(#Degradado_sin_nombre_44);}.cls-6{fill:url(#linear-gradient);}</style><radialGradient id="Degradado_sin_nombre_44" cx="43.43" cy="43.12" r="36.82" gradientUnits="userSpaceOnUse"><stop offset="0"/><stop offset="0.86" stop-color="#777" stop-opacity="0.53"/><stop offset="1" stop-color="#fff" stop-opacity="0"/></radialGradient><linearGradient id="linear-gradient" x1="14.29" y1="67.96" x2="83.31" y2="-1.06" gradientUnits="userSpaceOnUse"><stop offset="0" stop-color="#ffe286"/><stop offset="0.21" stop-color="#ffbc36"/><stop offset="0.38" stop-color="#ff5176"/><stop offset="0.52" stop-color="#f73396"/><stop offset="0.74" stop-color="#a536d3"/><stop offset="1" stop-color="#5f4eee"/></linearGradient></defs><title>in-footer</title><g class="cls-1"><g id="Layer_1" data-name="Layer 1"><g class="cls-2"><circle class="cls-3" cx="40.73" cy="40.73" r="40.46"/></g><circle class="cls-4" cx="40.73" cy="40.73" r="40.73"/><circle class="cls-5" cx="43.43" cy="43.12" r="36.82"/><circle class="cls-6" cx="41.52" cy="40.73" r="31.94"/><circle class="cls-4" cx="52.83" cy="29.6" r="2.48"/><path class="cls-4" d="M41.77,31.85A10.42,10.42,0,1,0,52.19,42.27,10.43,10.43,0,0,0,41.77,31.85Zm0,17.1a6.68,6.68,0,1,1,6.68-6.68A6.68,6.68,0,0,1,41.77,48.95Z" transform="translate(0.03 -1.54)"/><path class="cls-4" d="M50,63.43H33.15A12.73,12.73,0,0,1,20.44,50.72V33.82A12.73,12.73,0,0,1,33.15,21.11H50A12.73,12.73,0,0,1,62.76,33.82v16.9A12.73,12.73,0,0,1,50,63.43ZM33.15,25.09a8.74,8.74,0,0,0-8.73,8.73v16.9a8.74,8.74,0,0,0,8.73,8.73H50a8.74,8.74,0,0,0,8.73-8.73V33.82A8.74,8.74,0,0,0,50,25.09Z" transform="translate(0.03 -1.54)"/></g></g></svg>