<svg id="_Layer_" data-name="&lt;Layer&gt;" xmlns="http://www.w3.org/2000/svg" xmlns:xlink="http://www.w3.org/1999/xlink" viewBox="0 0 2593.71 1168.62"><defs><style>.cls-1{fill:none;}.cls-2{fill:#fcecdb;}.cls-3{fill:#163560;}.cls-4{fill:#ed975d;}.cls-5{fill:#ed7d2b;}.cls-6{fill:#599dad;}.cls-7{fill:#6bb7bf;}.cls-8{fill:#5aa9ad;}.cls-9{fill:#ffb27d;}.cls-10{fill:#f99746;}.cls-11{fill:#4a75cb;}.cls-12{fill:#2b478b;}.cls-13{fill:#2e3552;}.cls-14,.cls-28{fill:#82b378;}.cls-15{fill:#a8d29f;}.cls-16{fill:#f1a34f;}.cls-17{fill:#ffb973;}.cls-18{fill:#d86713;}.cls-19{fill:#d39e7a;}.cls-20{fill:#e0b594;}.cls-21{fill:#233862;}.cls-22{clip-path:url(#clip-path);}.cls-23{fill:#2a4e96;}.cls-24{fill:#1e3d70;}.cls-25{fill:#ddebfd;}.cls-26{fill:#739af0;}.cls-27{fill:#a8c3f7;}.cls-28{opacity:0.5;}.cls-29{fill:#ffb93e;}.cls-30{fill:#ffa412;}.cls-31{fill:#e2810e;}</style><clipPath id="clip-path" transform="translate(-203.04 -296.66)"><path class="cls-1" d="M1787.21,1087c-140.55,129.26-315.42,129-493.3,57.34h0c-104.1-41.92-214.21-114.68-274.07-208.44-80.95-125.09-52.71-232.69,9.71-367.27,82.85-178.74,216.95-284.71,414.33-262.84,253.26,28,413.15,212.24,456.9,456.9C1922.82,885.92,1876.33,1005.06,1787.21,1087Z"/></clipPath></defs><title>join</title><path class="cls-2" d="M1787.21,1087c-140.55,129.26-315.42,129-493.3,57.34h0c-104.1-41.92-214.21-114.68-274.07-208.44-80.95-125.09-52.71-232.69,9.71-367.27,82.85-178.74,216.95-284.71,414.33-262.84,253.26,28,413.15,212.24,456.9,456.9C1922.82,885.92,1876.33,1005.06,1787.21,1087Z" transform="translate(-203.04 -296.66)"/><path class="cls-2" d="M304.94,1459.18s-154.82-522.67,129.29-681,455.39,94.27,555.3,226.12,531.45,392.86,793.13,147.38c275.69-258.61,412.46-332,609.16-338.25s115.52,205,281,286.71,85.17,343.63-68.25,362.53Z" transform="translate(-203.04 -296.66)"/><path class="cls-3" d="M2129.43,1403.7s-3.34,53.83-13.75,54.6c-1.38.1-52.82.1-52.82.1l-65.66-.38s.43-15.82,19.62-19.17,51.32-16.83,62.94-42.2C2092,1370,2129.43,1403.7,2129.43,1403.7Z" transform="translate(-203.04 -296.66)"/><path class="cls-4" d="M2164.47,767.1s-31,17.63-39.67,17.62-42.74-6.58-52.23-1.73-26.68,24.37-29.91,30.75c-5.8,11.46,23.34,6.4,37.12-3.37a8.68,8.68,0,0,1,6.88-1.42c7.13,1.56,22,4.25,29.11,1.6,9.62-3.56,60.31-7.52,60.31-7.52Z" transform="translate(-203.04 -296.66)"/><path class="cls-5" d="M2400.3,527S2368.17,755.42,2315,775.88c-26.25,10.09-142.28,33-176.6,35.27,0,0-8.41-6.82-6.36-34.58,0,0,121.56-44.63,138.83-68.9,25.7-36.12-16-147.57,16.29-181.49S2373.7,477.67,2400.3,527Z" transform="translate(-203.04 -296.66)"/><path class="cls-6" d="M2389.47,1008.2a400.28,400.28,0,0,1-31.39,44.91c-34.54,43.6-72.13,79.55-78.68,113.53a154,154,0,0,1-6.07,21.75c-2.74,7.78-6.12,16-10,24.43-14.66,31.83-36.57,67.5-58.45,99.93-37.83,56.05-68.79,93.66-68.79,93.66s-9.92,7.74-38.29,7.73c-7.89,0-34.47-4.33-34.47-4.33,2.61-6.54,34-81,72-175.53l47.75-118.62q3.17-7.89,6.32-15.69c4.85-12.05,9.62-23.92,14.28-35.47,35.74-88.81,64.2-159.53,64.2-159.53s142.83-54.11,157.67-19C2437.8,914.83,2427.83,943.15,2389.47,1008.2Z" transform="translate(-203.04 -296.66)"/><path class="cls-3" d="M2280.48,1249.92s45.37,29.15,41,38.62c-.59,1.26-25.66,46.17-25.66,46.17l-32.34,57.14s-13.6-8.09-7.17-26.47,10.32-53-6.16-75.53C2232.78,1266.17,2280.48,1249.92,2280.48,1249.92Z" transform="translate(-203.04 -296.66)"/><path class="cls-7" d="M2254.7,1305.82s31.94-29.66,36.94-48c0,0-116.84-140-142.19-171.37-1.16-1.44-.87-3,.67-4.75,19.13-21.58,231.73-65.44,259.51-108.67a134,134,0,0,0,18-41.39c6.3-26.38,1.32-44.6,1.32-44.6l-212.32-6.14S2039.81,991,2019.79,1066,2254.7,1305.82,2254.7,1305.82Z" transform="translate(-203.04 -296.66)"/><path class="cls-8" d="M2150.12,1081.68c19.13-21.58,231.73-65.44,259.51-108.67a134,134,0,0,0,18-41.39V904.76l-90.24-14.19S2311.75,969.31,2236,998.84C2165,1026.49,2151.53,1075.57,2150.12,1081.68Z" transform="translate(-203.04 -296.66)"/><path class="cls-9" d="M2274.68,512.65c43,11.1,114.16-28.69,114.16-28.69s-27.65-18.58-37.9-59.4c-.52-2.06-1-4.16-1.41-6.33l-22.06-4.67-32.81,29.39s.75,12.21,4.85,33.18q1.06,5.49,2.47,11.77A101.17,101.17,0,0,0,2274.68,512.65Z" transform="translate(-203.04 -296.66)"/><path class="cls-10" d="M2434.31,690.69c-6.15,82.75,1.94,208.59-5,230.39-6,18.8-74.65,7.63-102,1.35-10.14-2.32-22.42-5.64-35.11-9.57-35.38-11-73.93-26.6-78.07-38.21a10,10,0,0,1-.38-1.34,10.63,10.63,0,0,1,.08-4.87c1.38-5.92,6.69-12.32,7.32-27,.7-16.37.59-35.64,1.21-56.36,0-2.33.06-4.88.32-7.2v-.85c0-.45,0-.88,0-1.33.59-23.11,1.8-47.41,3.2-71.5.89-15.13,1.92-30.12,3.11-44.48,3.09-37.07,7.24-70,12.75-90.87,9-34,28.83-56.13,46.88-72.36l13.06-11.2c14.57,3.18,31.8,1.07,47.38-6.31,16.86-8,22.69-13.74,25.62-11.58C2413.57,497.46,2441.58,589.53,2434.31,690.69Z" transform="translate(-203.04 -296.66)"/><path class="cls-5" d="M2292.12,912.86c-35.38-11-73.93-26.6-78.07-38.21a10,10,0,0,1-.38-1.34q0-2.43.08-4.87c1.38-5.92,6.69-12.32,7.32-27,.7-16.37.59-35.64,1.21-56.36,0-2.33.06-4.88.32-7.2v-.85c0-.45,0-.88,0-1.33l143-182.23S2461.82,793.71,2292.12,912.86Z" transform="translate(-203.04 -296.66)"/><path class="cls-4" d="M2294.67,442.95s.75,12.21,4.85,33.18c32-10.35,46.57-39.29,51.42-51.57-.52-2.06-1-4.16-1.41-6.33l-22.06-4.67Z" transform="translate(-203.04 -296.66)"/><path class="cls-9" d="M2290.36,461.44s69.86-11.66,61.93-55.06-4.25-74.13-49.2-68.52-50.56,23.75-51.43,38.88S2272,463.36,2290.36,461.44Z" transform="translate(-203.04 -296.66)"/><polygon class="cls-11" points="1983.9 523.64 1809.48 527.37 1759.9 374.76 1753.74 376.76 1806.16 538.09 1984.12 534.29 1983.9 523.64"/><path class="cls-9" d="M2183.6,839.45s-57.18,15.08-78.63,13.49-39.28-11.78-42-17.11-8.37-14.77,6.23-13,34.53,4.85,35.15,2-11.9-2.54-11.9-2.54-3.78-5.5,1-5.7,18.66-4,23.83-1.39,9.93,12.11,13.7,11.71,47.85-19.85,47.85-19.85Z" transform="translate(-203.04 -296.66)"/><path class="cls-10" d="M2386.12,536.42s-6.76,230.53-57.39,256.73c-25,12.93-137.78,48.46-171.64,54.53,0,0-9.11-5.85-10.13-33.67,0,0,115.9-57.76,130.39-83.79,21.56-38.73-32.13-144.91-3.81-182.18S2354.23,490.28,2386.12,536.42Z" transform="translate(-203.04 -296.66)"/><path class="cls-12" d="M2350.94,424.56s.8-14.89-8.39-23.42c0,0,3.2-14.93-2.71-17.39s-7.14,10.09-9.84,8.12-14.76-11.32-19.93-25.1-52.46,2.91-58,5.39-23.23-6.62-26.67-14c0,0,9.84-7.87,14.27-13.78s35.43-45.77,78.74-34.45,49.21,32,46.75,49.71S2368.68,418.61,2350.94,424.56Z" transform="translate(-203.04 -296.66)"/><rect class="cls-13" y="1161.74" width="2593.71" height="6.88" rx="2.94" ry="2.94"/><path class="cls-14" d="M1028.47,1284.39s-27.93-32.58-1.72-53.28c0,0,19.14-11.59,34.75-10.65,0,0-22.12,37.08-15,40.77s21.66-43.1,21.66-43.1,43.56-4.22,57.57,2.51c0,0-37.24,30.47-29.39,32.29s48.06-28.1,48.06-28.1,40.54,6.9,38.38,31.63-16.13,32.37-22.27,31.71-42.05-14.37-42.84-9.34,20.84,21.47,36,22.24c0,0-28.58,31.52-47.58,22.42s-20.62-23.52-32.46-28.93-22-5.39-17.06.12,26.32,10.88,33.09,22.86,12.85,20.06-6.81,17.1-51.6-17.34-53-33.81Z" transform="translate(-203.04 -296.66)"/><path class="cls-14" d="M1162.9,1257.14s-110.11-4.24-134.43,27.25c0,0-5.38,16.11-21.93,30.77l-2.58,7s19.08-20.12,25.91-21.34C1029.88,1300.86,1019.2,1261.84,1162.9,1257.14Z" transform="translate(-203.04 -296.66)"/><path class="cls-14" d="M1006.55,1315.16s-23.63,17.48-25.28,48.71l4.29.38s7.55-32.29,21.19-44.92S1006.55,1315.16,1006.55,1315.16Z" transform="translate(-203.04 -296.66)"/><path class="cls-15" d="M930.83,1243.42s44.43-24.88,23.69-58.64c0,0-16.58-20.73-34.36-26.06,0,0,9.48,50.35,0,51.53s-6.52-56.86-6.52-56.86-46.79-22.51-65.16-20.73c0,0,29,49.16,19.55,48S826,1129.69,826,1129.69s-48-8.88-55.68,19.55,4.74,42.65,11.85,44.42,52.72,1.18,51.53,7.11-32,15.4-49.16,10.07c0,0,19,46.79,43.83,44.42s32.58-17.77,48-19,26.65,3,19,7.11-33.76,1.36-46.2,11.93-22.51,17.09.59,21.83,64.56,1.78,72.86-16Z" transform="translate(-203.04 -296.66)"/><path class="cls-14" d="M792.23,1158.12s124.39,40.28,138.6,85.29c0,0-.59,20.14,11.85,43.24v8.89s-13-30.21-20.14-34.36C922.54,1261.19,950.38,1222.09,792.23,1158.12Z" transform="translate(-203.04 -296.66)"/><path class="cls-14" d="M942.68,1286.66s19.18,29.13,8.25,64.59l-4.94-1.33s4.79-39.06-5.25-58.7S942.68,1286.66,942.68,1286.66Z" transform="translate(-203.04 -296.66)"/><path class="cls-15" d="M1001.51,1209.11s-58.56-32.79-31.23-77.3c0,0,21.86-27.33,45.29-34.35,0,0-12.49,66.37,0,67.93s8.59-75,8.59-75,61.68-29.67,85.89-27.33c0,0-38.26,64.81-25.77,63.24s55.44-67.15,55.44-67.15,63.25-11.71,73.4,25.77-6.25,56.22-15.62,58.56-69.49,1.56-67.93,9.37,42.16,20.3,64.81,13.27c0,0-25,61.68-57.78,58.56s-42.94-23.42-63.25-25-35.14,3.9-25,9.37,44.51,1.79,60.9,15.73,29.67,22.53-.78,28.78-85.11,2.34-96-21.08Z" transform="translate(-203.04 -296.66)"/><path class="cls-14" d="M1184.21,1096.67s-164,53.09-182.71,112.43c0,0,.78,26.55-15.62,57v11.71s17.18-39.82,26.55-45.29C1012.44,1232.53,975.74,1181,1184.21,1096.67Z" transform="translate(-203.04 -296.66)"/><path class="cls-14" d="M985.89,1266.11s-25.29,38.4-10.87,85.14l6.51-1.75s-6.31-51.48,6.91-77.38S985.89,1266.11,985.89,1266.11Z" transform="translate(-203.04 -296.66)"/><path class="cls-16" d="M999.53,1452.61a114.71,114.71,0,0,0,114.71-114.71H884.82A114.71,114.71,0,0,0,999.53,1452.61Z" transform="translate(-203.04 -296.66)"/><path class="cls-17" d="M1027.76,1451.73a114.79,114.79,0,0,1-129-113.83h28.5A114.73,114.73,0,0,0,1027.76,1451.73Z" transform="translate(-203.04 -296.66)"/><path class="cls-16" d="M1115.83,1458.45H883.24a14.15,14.15,0,0,1,14.15-14.15h204.28a14.15,14.15,0,0,1,14.15,14.15Z" transform="translate(-203.04 -296.66)"/><rect class="cls-18" x="678.02" y="1041.24" width="235.8" height="3.52"/><path class="cls-19" d="M2562.27,1452.2c-27.28-27.87-75.35-47.06-130.87-49.32v-92.16h85.79c2.12,0,4-1.85,5.23-4.71a18.89,18.89,0,0,0,1.34-7.19v-4.16c0-6.55-3-11.9-6.57-11.9H2431.4v-219.5a11.05,11.05,0,0,0-11-11h0a11.05,11.05,0,0,0-11,11v219.5h-85.79c-3.61,0-6.57,5.36-6.57,11.9v4.16a18.66,18.66,0,0,0,1.43,7.39c1.2,2.75,3.06,4.51,5.14,4.51h85.79v92.16c-55.52,2.26-103.59,21.44-130.87,49.32q-3,3-5.6,6.2h295C2566.13,1456.29,2564.25,1454.23,2562.27,1452.2Z" transform="translate(-203.04 -296.66)"/><path class="cls-20" d="M2431.4,1403.29c-38.74,3.58-72,22.29-91.31,48.91q-2.2,3-4.15,6.2h-27.29q1.95-3.17,4.15-6.2c21.5-29.71,60.46-49.54,105-49.54Q2424.67,1402.66,2431.4,1403.29Z" transform="translate(-203.04 -296.66)"/><rect class="cls-5" x="2054.23" y="681.78" width="318.59" height="81.84" rx="13.23" ry="13.23"/><g id="man"><path class="cls-9" d="M945.54,557.24c-4.9,13.17-13.39,28.46-22.3,32.26-10.1,4.31-14.32,10.4-14.32,10.4l-8.16-4.74L891,589.5s.23-1.08.71-2.84,1.2-4.2,2.19-6.91a9.43,9.43,0,0,0,1.16-8.67c-1.83-4.82-1.46-12.27,1.66-16.82s6.14-15.73,8-15.4c4.56.78-2.24,16.16-.29,19,1.76,2.58,4,1.69,4.38,1.5l.08,0c12.78-5.62,28.29-35.92,35.15-31.83C946.64,529,947.63,551.63,945.54,557.24Z" transform="translate(-203.04 -296.66)"/><path class="cls-12" d="M901.32,575.58l16,11.25a2.52,2.52,0,0,0,3.5-.61l41-58.37a2.52,2.52,0,0,0-.61-3.5l-16-11.25a2.52,2.52,0,0,0-3.5.61l-41,58.37A2.52,2.52,0,0,0,901.32,575.58Z" transform="translate(-203.04 -296.66)"/><path class="cls-21" d="M916,585.88l9.39,6.6A1.92,1.92,0,0,0,928,592l41.71-59.35a1.92,1.92,0,0,0-.46-2.66l-9.39-6.6a1.92,1.92,0,0,0-2.67.46l-41.71,59.35A1.92,1.92,0,0,0,916,585.88Z" transform="translate(-203.04 -296.66)"/><path class="cls-21" d="M671.61,491.83s81.48,142.11,111,168.26L891,579.28s15.73,4.82,22.61,20.61c0,0-65.82,134.09-130.62,139.78S627.27,578.95,627.27,578.95Z" transform="translate(-203.04 -296.66)"/><path class="cls-21" d="M487.22,1458.4H440.15c-5.93-3.22-11.21-10.59-12.88-21.57-2.3-15.17-19.3-23.44-23-35.84s15.17-29.86,15.17-29.86l3.15-4.06,3.28-4.21,31.25,7.36s.77,7.44,1.24,16.92a216.35,216.35,0,0,1,.14,21.67c-.92,16.54,4.62,34.35,19.32,37.57C488.71,1448.75,488.22,1455.2,487.22,1458.4Z" transform="translate(-203.04 -296.66)"/><path class="cls-21" d="M760.44,1458.4H652.78c-5.18-6.32-3.27-29.64-2.49-37.25.16-1.53.27-2.43.27-2.43s36.76-29.41,41.81-6.89c.15.71.34,1.4.54,2.08,6.36,21.06,34.9,30.63,51.38,33.3C755,1448.95,759,1454.52,760.44,1458.4Z" transform="translate(-203.04 -296.66)"/><path class="cls-10" d="M739.92,857.45s-5.58,69.65-12.14,153.37c-8.92,113.73-19.64,253.43-20.7,279.89-1.83,46-9.19,119.46-9.19,119.46s-17.45,17.46-52.38,10.1c0,0-31.12-104.93-40-216l-.41-5.49c-8.27-113-21.13-351-21.13-351Z" transform="translate(-203.04 -296.66)"/><path class="cls-5" d="M739.92,857.45s-5.58,69.65-12.14,153.37l-122.29,193.5-.41-5.49c-8.27-113-21.13-351-21.13-351Z" transform="translate(-203.04 -296.66)"/><path class="cls-10" d="M714.43,865.72S613.81,1118,547.65,1236.5s-86.84,151.62-86.84,151.62-37.91-15.16-41.35-25.5c0,0,25.3-228.85,69.61-284.63,25-31.52,54.45-126.12,55.82-159.2s9-98.55,9-98.55Z" transform="translate(-203.04 -296.66)"/><path class="cls-9" d="M689.38,498C650.06,510.41,582,476.93,582,476.93s36.25-27.21,34.35-83.78l30.4,24.5,20.65,16.64a247.38,247.38,0,0,1-2.34,27c-.6,4.52-1.34,9.56-2.27,15.07A94.08,94.08,0,0,1,689.38,498Z" transform="translate(-203.04 -296.66)"/><path class="cls-4" d="M667.44,434.29a247.38,247.38,0,0,1-2.34,27c-22.88-3.93-48.84-40.91-48.84-40.91,11.65-3.36,21.85-4,30.53-2.73Z" transform="translate(-203.04 -296.66)"/><path class="cls-9" d="M679.46,433.36s-64.95,10.79-71-29.76S589.83,337.13,631,328.53s51.61,5.66,56.94,18.7S696.2,429.5,679.46,433.36Z" transform="translate(-203.04 -296.66)"/><path class="cls-12" d="M744.26,863.25a6.36,6.36,0,0,1-4.13,1.58c-14.77-.2-57.82,8-94.26,4.26-30.71-2.95-57.9-12-87.09-25.13-3.88-1.74-12.8-6.5-12.6-10.83.13-4.74.6-11.63,1.19-20.29,2.07-30.13,5.67-82,2.16-141.76-.63-11.13-1-22.18-1-33.05-.3-81,15.77-152.32,48.06-176.44,2.76-2,19.69,6.3,35.25,14,14.37,7.09,28.75,7.87,42.33,5.13l13.58,12c16.54,15.36,34.66,36.23,42.53,67.93,6.7,27,10.63,75.61,12.8,126,1,22.84,1.78,45.88,2,67.74v.78c.19,2.17.19,4.53.19,6.7C746,818,745.25,862.46,744.26,863.25Z" transform="translate(-203.04 -296.66)"/><path class="cls-21" d="M547.38,812.83c2.07-30.13,5.67-82,2.16-141.76-.63-11.13-1-22.18-1-33.05C562,605.39,573,581.73,573,581.73h33.9S631.74,751.51,547.38,812.83Z" transform="translate(-203.04 -296.66)"/><path class="cls-21" d="M537,894.76l-144.6-20.6a34.66,34.66,0,0,0-39.09,29.34l-8.93,62.66a34.66,34.66,0,0,0,29.34,39.09l144.6,20.61a34.66,34.66,0,0,0,39.09-29.34l8.93-62.66A34.66,34.66,0,0,0,537,894.76Z" transform="translate(-203.04 -296.66)"/><path class="cls-12" d="M545.15,913.44h0a34.82,34.82,0,0,0-24-20.92h0c-1.09-.26-2.2-.49-3.34-.65L489,887.75,491,874.23a11.45,11.45,0,0,0-9.72-12.94l-7.51-1.07-30.23-4.31-5.45-.78a11.46,11.46,0,0,0-12.94,9.72l-1.92,13.52-49.7-7.09a34.8,34.8,0,0,0-39.24,29.45l-9,63.39a34.79,34.79,0,0,0,29.45,39.23L499,1023.93a33.9,33.9,0,0,0,7.53.24h0a34.15,34.15,0,0,0,11.27-2.84,34.76,34.76,0,0,0,20.42-26.85l9-63.38A34.41,34.41,0,0,0,545.15,913.44ZM432.2,865.86a4.29,4.29,0,0,1,4.84-3.63l6.42.91,23.79,3.4,13,1.85a4.28,4.28,0,0,1,3.63,4.83l-1.92,13.52-51.65-7.37Z" transform="translate(-203.04 -296.66)"/><path class="cls-9" d="M475.62,835.2q.05-1.16.14-2.38c.3-4,7.9-14.16,7.9-14.16l-19-9.88-7.54,12.46c-11.38,9.06-11.59,9.22-9.52,26.57,1.8,15-8,15.22-7.8,26s14.07,5.46,14.07,5.46c21.44-10.07,23.22-15.13,22.56-25.34,2,2.89,4.31,4.57,6.24,3.31,1.7-1.11-1.7-5.5-3.18-15.68C479.24,840,477.44,837.43,475.62,835.2Z" transform="translate(-203.04 -296.66)"/><path class="cls-12" d="M464.35,826.41a111.08,111.08,0,0,0,25.44,1.42s36.25-112,40.91-122.2S638.37,574.34,638.37,574.34L595.46,467S484.06,653,472.75,679.2c-18.69,43.21-25.18,140.08-25.18,140.08A46.65,46.65,0,0,0,464.35,826.41Z" transform="translate(-203.04 -296.66)"/><path class="cls-12" d="M608.37,399.69S615,398.58,614,389.4s-1.06-21.18,6.4-18.94,7.83,8.21,10.9,4.72S634.38,357,656.59,356s31.23,6.71,41.56,2.17S709,338,709,338s-2.94,5.58-7.37,7.36c0,0,17.23-23.57-2.72-39.73s-40.29-5.58-51.83-4.88c-25.43,1.54-41.86,3.07-50.17,19.78S592,383.61,608.37,399.69Z" transform="translate(-203.04 -296.66)"/></g><g class="cls-22"><path class="cls-4" d="M1528.16,840.32s-65.72-13.23-76.7-12.18-49,18.14-49.44,21.27,1.46,5.62,8.12,5.89,28.46-3.11,27.14-.42-64,16.72-64.36,29.42,34.77,35.36,64,36.18,85.66-34.57,90.57-35.13C1569.06,880.61,1528.16,840.32,1528.16,840.32Z" transform="translate(-203.04 -296.66)"/><path class="cls-5" d="M1887.12,694.26c-25.67,32-47.07,56.76-58.35,65.77-9,7.16-20.31,14.49-33.31,21.83-93.7,52.88-273.9,106.53-273.9,106.53l-.36-.26a78.79,78.79,0,0,1-22.5-27c-6.86-13.88-5.45-22.49-3.41-27a11.91,11.91,0,0,1,2.71-4s216-138,233.22-152.39c9.79-8.15,45.26-90.73,74.15-160.74q6.06,8.79,11.74,17.84C1847.43,582.93,1870.82,636.66,1887.12,694.26Z" transform="translate(-203.04 -296.66)"/><path class="cls-7" d="M1888.6,938.66q-2,5.79-4.28,11.51a359.24,359.24,0,0,1-25.23,51.7h0q-8.7,14.76-18.78,28.71a384,384,0,0,1-51.53,57.94c.1-1.44.21-2.89.32-4.33.15-2.23.31-4.44.47-6.63q.52-7.29,1-14.32.2-2.73.39-5.41c.82-11.59,1.61-22.59,2.34-32.9q.32-4.45.62-8.73l.18-2.53c.13-1.67.24-3.34.36-5,.11-1.49.21-2.95.31-4.4,0-.15,0-.3,0-.44q.15-2.22.31-4.39c.18-2.44.35-4.82.51-7.16.1-1.45.21-2.88.31-4.29q.23-3.3.45-6.43c0-.5.08-1,.11-1.51.08-1,.14-2,.21-3,0-.49.07-1,.1-1.45a1.38,1.38,0,0,0,0-.18c.14-1.87.26-3.7.39-5.47,0-.09,0-.19,0-.28.09-1.29.19-2.56.27-3.79,0-.42.06-.83.08-1.22.05-.71.1-1.4.14-2.09s.09-1.12.12-1.67c.27-3.86.53-7.39.75-10.55,0-.45.07-.9.09-1.34s.07-.89.09-1.33c.06-.83.12-1.64.17-2.41.4-5.59.68-9.66.85-12q0-.37.05-.69c0-.07,0-.14,0-.2,0-.22,0-.42,0-.59l.08-1Z" transform="translate(-203.04 -296.66)"/><path class="cls-6" d="M1888.6,938.66q-2,5.79-4.28,11.51a359.24,359.24,0,0,1-25.23,51.7h0q-8.7,14.76-18.78,28.71a384,384,0,0,1-51.53,57.94c.1-1.44.21-2.89.32-4.33.15-2.23.31-4.44.47-6.63q.52-7.29,1-14.32.2-2.73.39-5.41c.82-11.59,1.61-22.59,2.34-32.9q.32-4.45.62-8.73l.18-2.53c.13-1.67.24-3.34.36-5,.11-1.49.21-2.95.31-4.4,0-.15,0-.3,0-.44q.15-2.22.31-4.39c.18-2.44.35-4.82.51-7.16.1-1.45.21-2.88.31-4.29q.23-3.3.45-6.43c0-.5.08-1,.11-1.51.08-1,.14-2,.21-3,0-.49.07-1,.1-1.45a1.38,1.38,0,0,0,0-.18c.14-1.87.26-3.7.39-5.47,0-.09,0-.19,0-.28.09-1.29.19-2.56.27-3.79,0-.42.06-.83.08-1.22.05-.71.1-1.4.14-2.09s.09-1.12.12-1.67c.27-3.86.53-7.39.75-10.55,0-.45.07-.9.09-1.34s.07-.89.09-1.33c.06-.83.12-1.64.17-2.41.4-5.59.68-9.66.85-12q0-.37.05-.69c0-.07,0-.14,0-.2,0-.22,0-.42,0-.59l.08-1Z" transform="translate(-203.04 -296.66)"/><path class="cls-10" d="M1902.86,762.75a344,344,0,0,1-14.26,175.91q-2,5.79-4.28,11.51a359.24,359.24,0,0,1-25.23,51.7h0q-8.7,14.76-18.78,28.71c-19.25-2.78-34.92-5.06-44.57-5.3a12.41,12.41,0,0,1-2.42-.33,12.64,12.64,0,0,1-5.72-3.1c-1.91-1.66-.1-90.61,5.76-202.65.17-4.32.34-9.07.9-13.36l0-1.58q.55-11.09,1.16-22.4.37-6.52.76-13.09c1.81-29.88,4.05-60.44,6.49-90.92q.36-4.39.7-8.75c3.85-46.91,8.37-93,13.71-134.28,30.31,48.12,53.7,101.85,70,159.45Q1896.6,727.68,1902.86,762.75Z" transform="translate(-203.04 -296.66)"/><path class="cls-23" d="M1096.5,928.27c-1.07-31.37-2.67-68.72-4.78-109.07-.17-4.32-.36-9.07-.9-13.36l-.07-1.58c-.17-3.58-.34-7.17-.53-10.79q-.15-3.06-.32-6.13-.48-9.22-1.06-18.57c-1.81-29.88-4.06-60.44-6.48-90.92-.25-2.92-.49-5.85-.72-8.75-3.55-43.46-7.69-86.23-12.54-125.09v0c0-.22-.06-.43-.09-.65-.6-4.88-1.24-9.72-1.87-14.48-1.27-9.58-2.58-18.89-4-27.85q-2.81,4.59-5.52,9.26-16.07,27.46-30,57.56c-18.93,40.81-35,85-48.41,131.44l-.25.88a285.11,285.11,0,0,0-9.17,44.95h0c-.26,2.1-.49,4.21-.7,6.31h0c-6.45,66.86,12.6,129.43,48.77,185.33,1.23,1.93,2.51,3.85,3.8,5.76q3.82,5.7,7.91,11.3,2.87,4,5.87,7.88c.41.55.83,1.1,1.27,1.65a457.85,457.85,0,0,0,46.38,51.23q4.13,3.94,8.37,7.82l2.12,1.92a13.59,13.59,0,0,0,3.81-2.47C1098.71,1020.78,1098.42,984,1096.5,928.27Z" transform="translate(-203.04 -296.66)"/><path class="cls-24" d="M1096.5,928.27c-50.38-52.79-92.37-117.59-126.62-183.17h0a285.11,285.11,0,0,1,9.17-44.95l.25-.88c13.43-46.48,29.48-90.63,48.41-131.44,30.92,44.2,52.6,84.88,53.93,101.26.24,2.91.47,5.83.72,8.75,2.41,30.48,4.67,61,6.48,90.92q.57,9.35,1.06,18.57.17,3.07.32,6.13c.19,3.61.36,7.21.53,10.79l.07,1.58c.54,4.29.73,9,.9,13.36C1093.84,859.55,1095.43,896.9,1096.5,928.27Z" transform="translate(-203.04 -296.66)"/><path class="cls-9" d="M1325.28,844.26s67,.07,77.59,3.27,44.45,27.5,44.25,30.65-2.55,5.22-9.12,4.17-27.28-8.69-26.52-5.79,59.41,29.08,57.25,41.6-41.09,27.76-69.88,22.77S1321.73,890,1317,888.53C1277.2,875.64,1325.28,844.26,1325.28,844.26Z" transform="translate(-203.04 -296.66)"/><path class="cls-23" d="M1337.42,867.15A78.83,78.83,0,0,1,1318,889.07a55.72,55.72,0,0,1-5.3,3.74s-129-48.3-222.5-99.34c-30.91-16.87-57.94-34-75.15-49.86-7.78-7.15-20.39-23.1-35.78-44.34,13.43-46.48,29.48-90.63,48.41-131.44q13.92-30,30-57.56c3.73,11.11,7.57,22.47,11.43,33.72v0c20.48,59.75,41.48,117,49,124.18,16.24,15.54,222.17,168.09,222.17,168.09s2.66,2.58,3.39,8.13C1344.3,849.43,1343.38,856.92,1337.42,867.15Z" transform="translate(-203.04 -296.66)"/><rect class="cls-25" x="1036.34" y="96.48" width="351.72" height="319.02"/><rect class="cls-26" x="1036.34" y="77.35" width="351.72" height="19.13"/><circle class="cls-25" cx="1048.14" cy="86.92" r="3.83"/><circle class="cls-25" cx="1063.13" cy="86.92" r="3.83"/><circle class="cls-25" cx="1078.23" cy="86.92" r="3.83"/><path class="cls-27" d="M1345,434.71h134.37a6.4,6.4,0,0,0,6.38-6.38h0a6.4,6.4,0,0,0-6.38-6.38H1345a6.4,6.4,0,0,0-6.38,6.38h0A6.4,6.4,0,0,0,1345,434.71Z" transform="translate(-203.04 -296.66)"/><path class="cls-27" d="M1314.39,456.6H1510a6.38,6.38,0,0,0,0-12.76H1314.39a6.38,6.38,0,0,0,0,12.76Z" transform="translate(-203.04 -296.66)"/><path class="cls-27" d="M1297.85,514.22H1533.6a4.68,4.68,0,1,0,0-9.35H1297.85a4.68,4.68,0,1,0,0,9.35Z" transform="translate(-203.04 -296.66)"/><rect class="cls-27" x="1090.13" y="229.78" width="245.11" height="9.35" rx="4.68" ry="4.68"/><path class="cls-27" d="M1533.6,548H1297.85a4.68,4.68,0,0,0,0,9.36H1533.6a4.68,4.68,0,1,0,0-9.36Z" transform="translate(-203.04 -296.66)"/><path class="cls-27" d="M1321.52,626.48h-23.67a4.68,4.68,0,0,0,0,9.36h23.67a4.68,4.68,0,1,0,0-9.36Z" transform="translate(-203.04 -296.66)"/><path class="cls-27" d="M1361.07,626.48h-23.67a4.68,4.68,0,0,0,0,9.36h23.67a4.68,4.68,0,0,0,0-9.36Z" transform="translate(-203.04 -296.66)"/><path class="cls-27" d="M1494.05,626.48h-23.67a4.68,4.68,0,1,0,0,9.36h23.67a4.68,4.68,0,0,0,0-9.36Z" transform="translate(-203.04 -296.66)"/><path class="cls-27" d="M1533.6,626.48h-23.67a4.68,4.68,0,1,0,0,9.36h23.67a4.68,4.68,0,1,0,0-9.36Z" transform="translate(-203.04 -296.66)"/><path class="cls-27" d="M1328.08,641.53A24.93,24.93,0,1,0,1353,666.46,25,25,0,0,0,1328.08,641.53Zm0,48.61a23.68,23.68,0,1,1,23.68-23.68A23.7,23.7,0,0,1,1328.08,690.14Z" transform="translate(-203.04 -296.66)"/><path class="cls-27" d="M1328.08,646.37a20.09,20.09,0,1,0,20.09,20.09A20.11,20.11,0,0,0,1328.08,646.37Zm0,38.92a18.83,18.83,0,1,1,18.83-18.83A18.86,18.86,0,0,1,1328.08,685.29Z" transform="translate(-203.04 -296.66)"/><path class="cls-27" d="M1321.25,674.68c-2.68-.22-4.06-1.48-4.12-3.74a5.87,5.87,0,0,1,1.89-4.5c.52,2.61,1.89,4.8,3.41,5.28a2.11,2.11,0,0,0,2.34-.83,14.51,14.51,0,0,0,1.8-3,1.51,1.51,0,0,0,1,.44c.93,0,1.85-.7,2.67-2.13a11.08,11.08,0,0,0,.6-1.24.84.84,0,0,0,.2.16.77.77,0,0,0,.91-.13,8.2,8.2,0,0,0,1.54-2.3,1.13,1.13,0,0,0,.42.48.93.93,0,0,0,1.15-.25.58.58,0,0,0,.16-.74c-.14-.25-.58-.43-1.23-.54h0c.69-1.59,1.17-3.26.92-3.87a.6.6,0,0,0-.62-.38c-.46,0-.78.5-1,1.41a8.94,8.94,0,0,0-.12,2.73v0c-.47,0-1,0-1.56,0a1.88,1.88,0,0,0-.24-1,.59.59,0,0,0-.63-.33c-.36.08-.48.51-.54.88,0,.13,0,.3,0,.48a29.15,29.15,0,0,0-5.11.87,16.66,16.66,0,0,0-5.43,2.43c0-.79,0-1.76.58-2.11s1.83.1,2.23.33l.4-.68c-.08,0-1.85-1.06-3-.32-.74.46-1.05,1.44-.94,2.93,0,.14,0,.29,0,.43a6.8,6.8,0,0,0-2.53,5.44c.07,2.65,1.79,4.25,4.84,4.5a19.39,19.39,0,0,0,7.16-1.12c5.8-1.88,11.19-5.89,12.27-9.53C1339.06,669.37,1327.77,675.22,1321.25,674.68Zm12.93-16.17a6,6,0,0,1-.19.82A4.93,4.93,0,0,1,1334.18,658.51Zm-2.62,3.85c.46,0,.88,0,1.25,0a7.36,7.36,0,0,1-1.39,2.12s-.11-.07-.23-.44A9.47,9.47,0,0,0,1331.56,662.35Zm-4.21.44c1-.18,1.92-.29,2.79-.36a7.75,7.75,0,0,0,.22,1.59,10.35,10.35,0,0,1-.81,1.83c-.65,1.13-1.36,1.77-2,1.74a.9.9,0,0,1-.69-.47C1327.57,665.46,1327.86,663.78,1327.35,662.79Zm-.77.24c.37.51.29,1.63-.1,2.93A6,6,0,0,1,1326.58,663Zm-4.55,1.4a19.69,19.69,0,0,1,3.7-1.29,7.37,7.37,0,0,0,0,3,4.79,4.79,0,0,0,.33,1,13.5,13.5,0,0,1-1.89,3.23,1.34,1.34,0,0,1-1.5.58c-1.17-.37-2.54-2.39-3-5.13A12,12,0,0,1,1322,664.43Z" transform="translate(-203.04 -296.66)"/><path class="cls-27" d="M1340.61,664.81a3.55,3.55,0,0,0,.13-.46C1340.71,664.5,1340.66,664.65,1340.61,664.81Z" transform="translate(-203.04 -296.66)"/><path class="cls-27" d="M1501.31,642.19a25.54,25.54,0,1,0,25.54,25.54A25.57,25.57,0,0,0,1501.31,642.19Zm0,49.79a24.25,24.25,0,1,1,24.25-24.25A24.28,24.28,0,0,1,1501.31,692Z" transform="translate(-203.04 -296.66)"/><path class="cls-27" d="M1501.31,647.15a20.58,20.58,0,1,0,20.58,20.58A20.6,20.6,0,0,0,1501.31,647.15Zm0,39.87a19.29,19.29,0,1,1,19.29-19.29A19.31,19.31,0,0,1,1501.31,687Z" transform="translate(-203.04 -296.66)"/><path class="cls-27" d="M1514.15,666a3.55,3.55,0,0,0,.13-.47C1514.25,665.72,1514.2,665.88,1514.15,666Z" transform="translate(-203.04 -296.66)"/><path class="cls-27" d="M1494.32,676.15c-2.74-.23-4.16-1.52-4.22-3.83a6,6,0,0,1,1.93-4.61c.53,2.67,1.94,4.92,3.49,5.41a2.16,2.16,0,0,0,2.4-.85,14.79,14.79,0,0,0,1.84-3,1.55,1.55,0,0,0,1,.45c1,0,1.9-.71,2.74-2.19a11,11,0,0,0,.61-1.26.88.88,0,0,0,.2.16.79.79,0,0,0,.93-.14,8.4,8.4,0,0,0,1.58-2.36,1.15,1.15,0,0,0,.43.49,1,1,0,0,0,1.17-.25.6.6,0,0,0,.16-.75c-.14-.26-.59-.44-1.26-.55h0c.71-1.63,1.2-3.33.94-4a.62.62,0,0,0-.64-.39c-.47,0-.8.52-1,1.45a9.14,9.14,0,0,0-.12,2.8v0c-.48,0-1,0-1.6,0a2,2,0,0,0-.25-1,.6.6,0,0,0-.65-.34c-.37.09-.5.52-.55.9,0,.14,0,.31,0,.5a29.87,29.87,0,0,0-5.24.89,17,17,0,0,0-5.56,2.49c-.05-.81,0-1.8.59-2.16s1.87.1,2.28.34l.4-.69c-.08,0-1.89-1.09-3.11-.33-.75.47-1.08,1.48-1,3,0,.15,0,.29,0,.44a7,7,0,0,0-2.59,5.57c.07,2.71,1.83,4.35,5,4.61a19.85,19.85,0,0,0,7.33-1.15c5.94-1.92,11.46-6,12.57-9.76C1512.56,670.71,1501,676.71,1494.32,676.15Zm13.25-16.56a6,6,0,0,1-.19.84A5,5,0,0,1,1507.57,659.59Zm-2.69,3.94c.47,0,.9,0,1.28,0a7.52,7.52,0,0,1-1.43,2.17s-.11-.07-.24-.45A9.8,9.8,0,0,0,1504.88,663.52Zm-4.31.45c1-.18,2-.3,2.86-.37a7.94,7.94,0,0,0,.23,1.63,10.57,10.57,0,0,1-.83,1.87c-.66,1.16-1.39,1.81-2,1.78a.92.92,0,0,1-.71-.48C1500.79,666.7,1501.09,665,1500.57,664Zm-.79.24c.38.52.3,1.67-.1,3A6.16,6.16,0,0,1,1499.78,664.22Zm-4.66,1.43a20.35,20.35,0,0,1,3.79-1.32,7.54,7.54,0,0,0,0,3.08,4.92,4.92,0,0,0,.33,1,13.8,13.8,0,0,1-1.93,3.3,1.37,1.37,0,0,1-1.54.59c-1.2-.37-2.61-2.44-3-5.26A12.47,12.47,0,0,1,1495.12,665.65Z" transform="translate(-203.04 -296.66)"/><path class="cls-15" d="M1622,961.39l-30.61,41.3-3,4.06-1.47,2-3.77,5.09-2,2.76-3.77,5.09-4,5.35-3.71,5-.06.07v0l-3.49,4.7,0,.06-.52.7-.06.08v0l-.65.88h0l-3.77,4.67v.4l-3.52,4.76h0l-4.55,6.15h0l-3.43,4.63h0l-3.77,5.07h0l-6.3,8.49h0l-.62.84-2.14,2.89h0l-5,6.68-6.57,8.46v.41l-3.41,4.6-.36.48h0l-4.74,6.39h0l-4.41,6,0,.06h0l-10.93,14.76h0l-16.28,22L1457.75,1183l-3.39,4.58-2,2.69,3.12.43h0q5.43.73,10.85,1.31l3,.33,1.9.19c1.53.15,3.06.29,4.58.42l1.93.17.9.08,3,.23.58,0c2.23.17,4.46.31,6.68.43l3,.15c.79.05,1.58.09,2.37.12l.45,0c1.32.06,2.63.12,3.94.15,1,0,2,.07,3,.09s2.3.07,3.44.08l3,.05,3.21,0h3c.56,0,1.11,0,1.67,0s1.23,0,1.84,0l1.2,0,1.19,0,1.68,0h.42l.86,0,1.22,0q11.82-.32,23.45-1.29h0q13.4-1.1,26.52-3.05,14.19-2.1,28-5.16l.47-.1a.58.58,0,0,1,0,.12l8.68-2.13,3.61-.89q17.1-4.34,33.54-10.06,2.75-1,5.48-1.95l1.36-.5q5.11-1.86,10.14-3.88l2.73-1.09h0l.55-.21h0l3.19-1.32,2.38-1c.93-.39,1.86-.79,2.79-1.2l1.79-.78h0l3.11-1.39h0q15.26-6.86,29.78-14.92,1.53-.84,3.05-1.71h0l53.27-71.88Z" transform="translate(-203.04 -296.66)"/><path class="cls-14" d="M1541.46,1109.49v4.25l3.1-4.18,0-.06h-3.14Zm-5.83,5.61a23.29,23.29,0,0,0-3.16,1.56l-6.8,9.17-5.21,7v9.23l6.17-8.31,14.82-20A17.56,17.56,0,0,0,1535.63,1115.1Zm-25.12,31.17-.77,1-3,4-13.4,18.07v9.23l9.47-12.77,7.58-10.23,4-5.36,3-4h-6.83Zm113.26-152.82-31.87,43-.28.38-1.93,2.6-2.48,3.34-1.29,1.72v0l-5.91,8-2.46,2.91v.4l-1.61,2.17-2.16,2.91-8.8,11.87h0l-.19.25-.44.59h0l-2.8,3.77v.4l-8.36,10.88L1550,1093l-.54.72-9,12.11-2.68,3.61,0,.06-5.26,7.11-6.8,9.17-5.21,7-3.77,5.09-6.18,8.33-.77,1-3,4-13.4,18.07-3.76,5.08-6.37,8.58-7.37,9.95,1.93.17.9.08,3,.23.58,0,7.74-10.45h0l3.28-4.44,9.47-12.77,7.58-10.23,4-5.36,3-4h0l3.1-4.19,6.17-8.31,14.82-20,0,0,3.1-4.18,0-.06h0l4.82-6.09v-.4l3.76-5.08,3-4.06,5.36-7.23,3.77-5.08,4.25-5.73,1.62-2.19.63-.84h0l2-2.64,3.77-5.08,4-5.37,4-5.38.4-.52v0l3.76-5.08,2.89-3.9,1.35-1.79v0l3.47-4.68.3-.4.76-1,14.53-19.6a20,20,0,0,1,28-4.17l74.21,55a22.08,22.08,0,0,1,4.59,30.89l-44.78,60.42-2.63,3.56,2.38-1c.93-.39,1.86-.79,2.79-1.2l1.79-.78h0l3.11-1.39h0l58.17-78.47Zm-113.26,152.82-.77,1-3,4-13.4,18.07v9.23l9.47-12.77,7.58-10.23,4-5.36,3-4h-6.83Zm25.12-31.17a23.29,23.29,0,0,0-3.16,1.56l-6.8,9.17-5.21,7v9.23l6.17-8.31,14.82-20A17.56,17.56,0,0,0,1535.63,1115.1Zm5.83-5.61v4.25l3.1-4.18,0-.06h-3.14Z" transform="translate(-203.04 -296.66)"/><path class="cls-14" d="M1603.14,1185a.58.58,0,0,0,0-.12l-.47.1q-13.83,3-28,5.16-13.12,1.94-26.52,3.05h0q-11.63,1-23.45,1.29l-1.22,0-.86,0h-.42c-.08-1.14-.1-2.28-.09-3.42a44.16,44.16,0,0,1,.82-8,45,45,0,0,1,8.08-18.36l.09-.12a45.53,45.53,0,0,1,6.69-7.2,44.11,44.11,0,0,1,3.76-2.91,44.87,44.87,0,0,1,11.52-5.76q1.86-.63,3.77-1.07a44.27,44.27,0,0,1,9-1.22c1.26-.05,2.52,0,3.77,0a45.2,45.2,0,0,1,8.36,1.18q1.9.45,3.76,1.07a43.66,43.66,0,0,1,4.25,1.66c1.28.57,2.52,1.21,3.76,1.9a43.72,43.72,0,0,1,4,2.53l.71.51q1.5,1.11,2.88,2.32h0l.17.14c.71.63,1.39,1.27,2.06,1.93a50.66,50.66,0,0,1,3.77,4.23v.05q.77,1,1.45,2v.06a43.51,43.51,0,0,1,3.76,6.45v.05c.49,1.05.94,2.13,1.34,3.2h0a44.94,44.94,0,0,1,2,7.1Z" transform="translate(-203.04 -296.66)"/><path class="cls-28" d="M1564.83,1038.54h0l-3.77,4.73v.35l-3.53,4.76-4.55,6.15h0l-3.43,4.63h0l-3.77,5.07h0l-6.3,8.49h0l-.62.84-2.14,2.89h0l-5,6.68-6.57,8.52v.35l-3.41,4.6-.36.48h0l-4.74,6.39-4.41,6,0,.06h0l-10.93,14.76h0l-16.28,22L1457.75,1183l-3.39,4.58-2,2.69,3.12.43h0q5.43.73,10.85,1.31l3,.33,1.9.19c1.53.15,3.06.29,4.58.42l1.93.17.9.08,3,.23.58,0c2.23.17,4.46.31,6.68.43l3,.15c.79.05,1.58.09,2.37.12l.45,0q1.17-5.53,2.69-11.18c1.53-5.7,3.3-11.45,5.26-17.21,1.5-4.44,3.13-8.87,4.84-13.29q1-2.62,2.07-5.24l.42-1h0c2.08-5.15,4.28-10.26,6.53-15.3v-.34c1.24-2.76,2.5-5.17,3.77-7.89q3.15-6.73,6.38-13.2l0-.06c2.91-5.85,5.83-11.51,8.7-16.93.38-.71.76-1.16,1.14-1.79v-.34c1.27-2.39,2.53-4.74,3.77-7q2.77-5.1,5.39-9.8l.48-.85c1.1-2,2.17-3.55,3.21-5.4V1067c2.53-4.5,4.87-8.63,6.94-12.3q1.87-3.33,3.43-6.13c.4-.71.78-1.4,1.14-2.07,1.66-3,2.94-5.48,3.77-7.28.27-.6.49-1.12.65-1.57Z" transform="translate(-203.04 -296.66)"/><path class="cls-29" d="M1609.84,1154.34l0,20.78c0,.21,0,.42,0,.62h0a7.84,7.84,0,0,1-1.35,3.84,8,8,0,0,1-3.76,3,7,7,0,0,1-1.1.34l-.36.08a7,7,0,0,1-.7.09,6.52,6.52,0,0,1-.71,0h-87.44l-16.79,0h-14.32l-25.51,0h-45.25q-6.37-1.38-12.77-2.9l-3-.74q-4.24-1-8.51-2.12l-3.76-1q-3.23-.83-6.45-1.71-3.49-.94-7-1.92l-3-.87q-8.66-2.47-17.31-5.18h0l-.67-.21q-2.61-.8-5.21-1.66c-1-.31-2-.65-3-1-16.26-5.29-32.44-11.19-48.43-17.63h4.62l86.55.06h3.77l23.29,0h190.7a7.46,7.46,0,0,1,1.06.13,7.24,7.24,0,0,1,1.46.41,8.08,8.08,0,0,1,3.76,3A7.94,7.94,0,0,1,1609.84,1154.34Z" transform="translate(-203.04 -296.66)"/><path class="cls-30" d="M1447.27,1183h-34.78q-6.37-1.38-12.77-2.9l-3-.74q-4.24-1-8.51-2.12l-3.76-1q-3.23-.83-6.45-1.71-3.49-.94-7-1.92l-3-.87q-8.66-2.47-17.31-5.18h0l-.67-.21q-2.61-.8-5.21-1.66c-1-.31-2-.65-3-1-16.26-5.29-32.44-11.19-48.43-17.63h4.62l86.55.06h3.77l23.29,0h14a75.13,75.13,0,0,0,6.37,17.63,60.38,60.38,0,0,0,13,17.13c.35.32.71.64,1.08,1l.22.2Z" transform="translate(-203.04 -296.66)"/><rect class="cls-30" x="1362.75" y="849.65" width="3.76" height="36.8"/><rect class="cls-30" x="1350.02" y="849.64" width="3.76" height="36.8"/><rect class="cls-30" x="1537.78" y="1146.29" width="3.76" height="36.8" transform="translate(-201.83 -298.26) rotate(0.06)"/><rect class="cls-30" x="1311.34" y="849.61" width="3.76" height="36.8"/><rect class="cls-30" x="1286.59" y="849.59" width="3.76" height="36.8"/><rect class="cls-30" x="1248.64" y="849.57" width="3.76" height="36.8"/><rect class="cls-30" x="1213.11" y="849.54" width="3.76" height="36.8"/><path class="cls-30" d="M1388.2,1146.18l0,31.06-3.76-1,0-30.09Z" transform="translate(-203.04 -296.66)"/><rect class="cls-30" x="1374.88" y="849.65" width="3.76" height="36.8"/><rect class="cls-30" x="1382.88" y="849.66" width="3.76" height="36.8"/><rect class="cls-30" x="1593.65" y="1146.33" width="3.76" height="36.8" transform="matrix(1, 0, 0, 1, -201.83, -298.32)"/><path class="cls-30" d="M1603.25,1146.46l0,36.54a7.77,7.77,0,0,1-1.41.13h-2.35l0-36.8h2.35A7.76,7.76,0,0,1,1603.25,1146.46Z" transform="translate(-203.04 -296.66)"/><path class="cls-30" d="M1608.47,1149.87l0,29.72a8.06,8.06,0,0,1-3.76,3l0-35.72A8.07,8.07,0,0,1,1608.47,1149.87Z" transform="translate(-203.04 -296.66)"/><path class="cls-29" d="M1636.91,1117.57v20.78a7.94,7.94,0,0,1-1.37,4.47,8.06,8.06,0,0,1-3.76,3,7.39,7.39,0,0,1-1.46.41,7.85,7.85,0,0,1-1.41.13l-331-.23a8,8,0,0,1-8-7.6c0-.14,0-.28,0-.41v-20.78c0-.14,0-.27,0-.41a8,8,0,0,1,7.06-7.54,7.44,7.44,0,0,1,.95-.06l331,.23a7.84,7.84,0,0,1,1.41.13,7.47,7.47,0,0,1,1.46.41,8.06,8.06,0,0,1,3.76,3A7.93,7.93,0,0,1,1636.91,1117.57Z" transform="translate(-203.04 -296.66)"/><path class="cls-30" d="M1474.35,1146.24l-177.33-.12c-3.81,0-6.94-3.39-7.14-7.6,0-.14,0-.28,0-.41v-20.78c0-.14,0-.27,0-.41.18-3.9,2.88-7.08,6.3-7.54a6,6,0,0,1,.85-.06l155.56.11v.06C1455.1,1120.32,1460.88,1135.27,1474.35,1146.24Z" transform="translate(-203.04 -296.66)"/><rect class="cls-30" x="1389.83" y="812.87" width="3.76" height="36.8"/><rect class="cls-30" x="1377.09" y="812.86" width="3.76" height="36.8"/><rect class="cls-30" x="1361.82" y="812.85" width="3.76" height="36.8"/><rect class="cls-30" x="1338.42" y="812.83" width="3.76" height="36.8"/><rect class="cls-30" x="1313.66" y="812.81" width="3.76" height="36.8"/><rect class="cls-30" x="1275.72" y="812.79" width="3.76" height="36.8"/><rect class="cls-30" x="1240.19" y="812.76" width="3.76" height="36.8"/><rect class="cls-30" x="1208.46" y="812.74" width="3.76" height="36.8"/><rect class="cls-30" x="1401.95" y="812.87" width="3.76" height="36.8"/><rect class="cls-30" x="1409.96" y="812.88" width="3.76" height="36.8"/><rect class="cls-30" x="1417.69" y="812.88" width="3.76" height="36.8"/><path class="cls-30" d="M1630.32,1109.68l0,36.54a7.78,7.78,0,0,1-1.41.13h-2.35l0-36.8h2.35A7.74,7.74,0,0,1,1630.32,1109.68Z" transform="translate(-203.04 -296.66)"/><path class="cls-30" d="M1635.54,1113.09l0,29.72a8.07,8.07,0,0,1-3.76,3l0-35.72A8.06,8.06,0,0,1,1635.54,1113.09Z" transform="translate(-203.04 -296.66)"/><path class="cls-29" d="M1593.48,1080.79v20.78a7.93,7.93,0,0,1-1.37,4.47,8.06,8.06,0,0,1-3.76,3,7.54,7.54,0,0,1-1.47.41l-.46.07-.37,0h-.58l-331-.23a8,8,0,0,1-8-7.6c0-.14,0-.27,0-.41v-20.78c0-.14,0-.27,0-.41a8,8,0,0,1,8-7.59l331,.23h.42a7.81,7.81,0,0,1,1,.12,7.46,7.46,0,0,1,1.46.41,7.11,7.11,0,0,1,.7.31l.41.22,0,0,.4.25.07,0a4,4,0,0,1,.36.26,7,7,0,0,1,.8.7l.23.23,0,0,.14.15,0,0,.23.29c.11.14.22.28.32.43A7.93,7.93,0,0,1,1593.48,1080.79Z" transform="translate(-203.04 -296.66)"/><path class="cls-30" d="M1430.92,1109.47l-177.33-.12c-3.81,0-6.94-3.39-7.14-7.6,0-.14,0-.27,0-.41v-20.78c0-.14,0-.27,0-.41.2-4.21,3.34-7.59,7.15-7.59l155.56.11c.06.28.13.56.2.85,2.57,10.74,8.38,25.2,21.48,35.91Z" transform="translate(-203.04 -296.66)"/><rect class="cls-30" x="1346.4" y="776.1" width="3.76" height="36.8"/><rect class="cls-30" x="1333.66" y="776.09" width="3.76" height="36.8"/><rect class="cls-30" x="1318.39" y="776.08" width="3.76" height="36.8"/><rect class="cls-30" x="1294.98" y="776.06" width="3.76" height="36.8"/><rect class="cls-30" x="1270.23" y="776.04" width="3.76" height="36.8"/><rect class="cls-30" x="1232.28" y="776.02" width="3.76" height="36.8"/><rect class="cls-30" x="1196.75" y="775.99" width="3.76" height="36.8"/><rect class="cls-30" x="1368.06" y="1072.63" width="3.76" height="36.8" transform="matrix(1, 0, 0, 1, -201.9, -298.08)"/><rect class="cls-30" x="1358.52" y="776.1" width="3.76" height="36.8"/><rect class="cls-30" x="1366.53" y="776.11" width="3.76" height="36.8"/><rect class="cls-30" x="1374.26" y="776.11" width="3.76" height="36.8"/><path class="cls-30" d="M1586.89,1072.91l0,36.54a7.92,7.92,0,0,1-1.41.13h-2.35l0-36.8h2.35A7.76,7.76,0,0,1,1586.89,1072.91Z" transform="translate(-203.04 -296.66)"/><path class="cls-30" d="M1592.11,1076.32l0,29.72a8.05,8.05,0,0,1-3.76,3l0-35.72A8.06,8.06,0,0,1,1592.11,1076.32Z" transform="translate(-203.04 -296.66)"/><path class="cls-29" d="M1617.84,1044.86v20.78a7.94,7.94,0,0,1-1.38,4.47,8.07,8.07,0,0,1-3.76,3,7.63,7.63,0,0,1-1.47.41,7.93,7.93,0,0,1-1.41.13l-331-.23a7.9,7.9,0,0,1-3.58-.85,8,8,0,0,1-4.4-6.42c0-.11,0-.22,0-.33s0-.27,0-.41v-20.78c0-.14,0-.27,0-.41a8,8,0,0,1,7.06-7.53,7.2,7.2,0,0,1,.95-.06l331,.23a7.84,7.84,0,0,1,1.41.13,7.53,7.53,0,0,1,1.46.41,8.06,8.06,0,0,1,3.76,3A7.93,7.93,0,0,1,1617.84,1044.86Z" transform="translate(-203.04 -296.66)"/><path class="cls-30" d="M1455.28,1073.54l-177.33-.12a6.45,6.45,0,0,1-3.19-.85,8.09,8.09,0,0,1-3.92-6.42c0-.11,0-.22,0-.33s0-.27,0-.41v-20.78c0-.14,0-.27,0-.41.18-3.9,2.88-7.08,6.3-7.54a5.84,5.84,0,0,1,.84-.06l155.56.11v.06c2.42,10.55,8,25,20.72,35.91Z" transform="translate(-203.04 -296.66)"/><rect class="cls-30" x="1370.76" y="740.16" width="3.76" height="36.8"/><rect class="cls-30" x="1358.02" y="740.15" width="3.76" height="36.8"/><rect class="cls-30" x="1342.75" y="740.14" width="3.76" height="36.8"/><rect class="cls-30" x="1319.34" y="740.13" width="3.76" height="36.8"/><rect class="cls-30" x="1294.59" y="740.11" width="3.76" height="36.8"/><rect class="cls-30" x="1256.64" y="740.08" width="3.76" height="36.8"/><rect class="cls-30" x="1221.11" y="740.06" width="3.76" height="36.8"/><rect class="cls-30" x="1189.39" y="740.04" width="3.76" height="36.8"/><rect class="cls-30" x="1382.88" y="740.17" width="3.76" height="36.8"/><rect class="cls-30" x="1390.89" y="740.18" width="3.76" height="36.8"/><rect class="cls-30" x="1398.62" y="740.18" width="3.76" height="36.8"/><path class="cls-30" d="M1611.25,1037l0,36.54a7.75,7.75,0,0,1-1.41.13h-2.35l0-36.8h2.35A7.94,7.94,0,0,1,1611.25,1037Z" transform="translate(-203.04 -296.66)"/><path class="cls-30" d="M1616.47,1040.39l0,29.72a8.06,8.06,0,0,1-3.76,3l0-35.72A8.06,8.06,0,0,1,1616.47,1040.39Z" transform="translate(-203.04 -296.66)"/><path class="cls-29" d="M1593.53,1008.11v20.78a7.94,7.94,0,0,1-1.38,4.47,8.07,8.07,0,0,1-3.76,3,7.46,7.46,0,0,1-1.47.41l-.46.07-.26,0-.26,0h-.42l-331-.23a8,8,0,0,1-8-7.6c0-.14,0-.28,0-.41v-20.78c0-.14,0-.27,0-.41a8,8,0,0,1,8-7.59l331,.23a7.76,7.76,0,0,1,1.41.13,7.47,7.47,0,0,1,1.46.41,8.06,8.06,0,0,1,3.76,3A7.93,7.93,0,0,1,1593.53,1008.11Z" transform="translate(-203.04 -296.66)"/><path class="cls-30" d="M1431,1036.78l-177.33-.12c-3.81,0-6.94-3.39-7.14-7.6,0-.14,0-.28,0-.41v-20.78c0-.14,0-.27,0-.41.2-4.21,3.34-7.59,7.15-7.59l155.56.11c2.47,10.82,8.23,25.77,21.68,36.76Z" transform="translate(-203.04 -296.66)"/><rect class="cls-30" x="1549.48" y="1000.07" width="3.76" height="36.8" transform="translate(-201.98 -298.27) rotate(0.06)"/><rect class="cls-30" x="1333.71" y="703.4" width="3.76" height="36.8"/><rect class="cls-30" x="1318.44" y="703.39" width="3.76" height="36.8"/><rect class="cls-30" x="1295.03" y="703.37" width="3.76" height="36.8"/><rect class="cls-30" x="1270.28" y="703.35" width="3.76" height="36.8"/><rect class="cls-30" x="1232.33" y="703.33" width="3.76" height="36.8"/><rect class="cls-30" x="1196.8" y="703.3" width="3.76" height="36.8"/><rect class="cls-30" x="1165.08" y="703.28" width="3.76" height="36.8"/><rect class="cls-30" x="1358.57" y="703.41" width="3.76" height="36.8"/><rect class="cls-30" x="1366.58" y="703.42" width="3.76" height="36.8"/><rect class="cls-30" x="1374.31" y="703.42" width="3.76" height="36.8"/><path class="cls-30" d="M1586.94,1000.22l0,36.54a7.94,7.94,0,0,1-1.41.13h-2.35l0-36.8h2.35A7.85,7.85,0,0,1,1586.94,1000.22Z" transform="translate(-203.04 -296.66)"/><path class="cls-30" d="M1592.16,1003.63l0,29.72a8.06,8.06,0,0,1-3.76,3l0-35.72A8.06,8.06,0,0,1,1592.16,1003.63Z" transform="translate(-203.04 -296.66)"/><path class="cls-31" d="M1638.27,1175.45Q1627,1179,1615.43,1182l-3.61.89q-4.3,1.06-8.64,2l-.47.1q-13.83,3-28,5.16-13.12,1.94-26.52,3.05h0q-11.63,1-23.45,1.29l-1.22,0-.86,0h-.42l-1.68,0-1.19,0-1.2,0c-.61,0-1.22,0-1.84,0s-1.11,0-1.67,0h-3l-3.21,0-3-.05q-1.72,0-3.44-.08c-1,0-2-.05-3-.09-1.31,0-2.63-.09-3.94-.15l-.45,0c-.79,0-1.58-.07-2.37-.12l-3-.15c-2.22-.13-4.45-.26-6.68-.43l-.58,0-3-.23-.9-.08-1.93-.17c-1.52-.13-3.05-.26-4.58-.42l-1.9-.19-3-.33q-5.41-.57-10.85-1.31h0l-3.12-.43-1-.15c-.28,0-.57-.07-.85-.12-.71-.09-1.44-.2-2.15-.32l-.6-.09-.12,0h0l-.18,0q-4.05-.6-8.12-1.31l-2.84-.49-2.84-.52-3.19-.6-3-.58q-7.43-1.45-14.87-3.07h0q-6.37-1.38-12.77-2.9l-3-.74-1.46-.36a117.53,117.53,0,0,1,60.42-113c1.5-.82,3-1.62,4.55-2.37s2.93-1.74,4.44-2.58a117.53,117.53,0,0,1,173.65,114.44Z" transform="translate(-203.04 -296.66)"/><path class="cls-31" d="M1660.93,1092.29a116.9,116.9,0,0,0-43.09-44.47l-1.38-.8q-1.86-1.07-3.76-2.06c-.49-.26-1-.52-1.47-.76-1.24-.64-2.49-1.25-3.76-1.83-.68-.31-1.36-.63-2-.93-1.25-.55-2.5-1.08-3.77-1.58s-2.63-1-4-1.51l-.3-.1q-1.72-.61-3.47-1.17l-.8-.25h-.34a5,5,0,0,0-.89-.38c-.77-.24-1.56-.46-2.34-.68l-1.18-.32-1.47-.38c-1.25-.32-2.51-.62-3.77-.89-.68-.15-1.36-.3-2-.43-1.25-.25-2.51-.49-3.76-.7s-2.64-.42-4-.6-2.46-.31-3.71-.43h-.06c-1.41-.14-2.82-.25-4.24-.35-1.25-.08-2.51-.14-3.77-.18q-4.17-.13-8.36,0c-1.25.05-2.51.12-3.76.21q-4.49.32-9,1c-1.25.18-2.51.39-3.76.62a114.07,114.07,0,0,0-11.51,2.73c-.76.22-1.53.45-2.29.7h0l-.19.06-.35.11a117.85,117.85,0,0,0-21,9l-.09.05c-1.24.69-2.47,1.39-3.68,2.12l-.65.4a116.88,116.88,0,0,0-28.42,24.15c-.25.28-.48.57-.71.85a117.44,117.44,0,0,0-20.52,35.88.16.16,0,0,0,0,.06l-.31.87a116.58,116.58,0,0,0-3.77,13.33v.34a113.57,113.57,0,0,0-2.74,22.19h0a116.38,116.38,0,0,0,4.39,34.74c.19.69.39,1.37.6,2.06q1,3.31,2.23,6.6l.6.09c.71.11,1.44.22,2.15.32.28,0,.57.09.85.12l1,.15,3.12.43h0q5.43.73,10.85,1.31l3,.33,1.9.19c1.53.15,3.06.29,4.58.42l1.93.17.9.08,3,.23.58,0c2.23.17,4.46.31,6.68.43l3,.15c.79.05,1.58.09,2.37.12l.45,0c1.32.06,2.63.12,3.94.15,1,0,2,.07,3,.09s2.3.07,3.44.08l3,.05,3.21,0h3c.56,0,1.11,0,1.67,0s1.23,0,1.84,0l1.2,0,1.19,0,1.68,0h.42l.86,0,1.22,0q11.82-.32,23.45-1.29h0q13.4-1.1,26.52-3.05,14.19-2.1,28-5.16l.47-.1a.58.58,0,0,1,0,.12l8.68-2.13,3.61-.89q17.1-4.34,33.54-10.06,2.75-1,5.48-1.95l1.36-.5q5.11-1.86,10.14-3.88l2.73-1.09h0l.55-.21h0l3.19-1.32,2.38-1c.09-.85.19-1.7.25-2.56A116.93,116.93,0,0,0,1660.93,1092.29Z" transform="translate(-203.04 -296.66)"/><path class="cls-29" d="M1652,1097.23a116.91,116.91,0,0,0-34.12-38.6c-.45-.33-.91-.65-1.38-1q-1.85-1.3-3.75-2.52l-1.47-.93c-1.24-.76-2.5-1.51-3.77-2.24-.68-.39-1.36-.77-2-1.14-1.24-.69-2.5-1.34-3.76-2s-2.64-1.28-4-1.89-2.5-1.11-3.77-1.63l-1.35-.55c-1-.38-1.92-.75-2.89-1.1s-1.65-.6-2.47-.88l-1.28-.42q-4.13-1.38-8.36-2.43c-1.25-.31-2.51-.6-3.77-.87q-4.09-.89-8.25-1.48l-.72-.1c-1.25-.18-2.5-.32-3.76-.45-.49-.06-1-.1-1.49-.14h-.37a1.41,1.41,0,0,0-.28-.06h-.73c-1.6-.17-3.43-.28-5-.35-1.26-.05-2.51-.08-3.76-.08q-4.48,0-9,.3l-1.41.11h-.49l-.2.06h-.46a107.42,107.42,0,0,0-11.79,1.76c-1.26.25-2.51.52-3.77.82a116.28,116.28,0,0,0-21,7c-1.26.55-2.52,1.14-3.77,1.75l-.65.32q-2.35,1.15-4.65,2.42a117.44,117.44,0,0,0-28.29,21.72l-.6.64-.2.21h0a117.06,117.06,0,0,0-23,35.87l0,.06a118,118,0,0,0-8.48,36.74,116.94,116.94,0,0,0,3.39,36.79c.4,1.6.84,3.18,1.33,4.76l2.84.49q4.07.7,8.12,1.31l.18,0h0l.12,0,.6.09c.71.11,1.44.22,2.15.32.28,0,.57.09.85.12l1,.15,3.12.43h0q5.43.73,10.85,1.31l3,.33,1.9.19c1.53.15,3.06.29,4.58.42l1.93.17.9.08,3,.23.58,0c2.23.17,4.46.31,6.68.43l3,.15c.79.05,1.58.09,2.37.12l.45,0c1.32.06,2.63.12,3.94.15,1,0,2,.07,3,.09s2.3.07,3.44.08l3,.05,3.21,0h3c.56,0,1.11,0,1.67,0s1.23,0,1.84,0l1.2,0,1.19,0,1.68,0h.42l.86,0,1.22,0q11.82-.32,23.45-1.29h0q13.4-1.1,26.52-3.05,14.19-2.1,28-5.16l.47-.1a.58.58,0,0,1,0,.12l8.68-2.13,3.61-.89q17.1-4.34,33.54-10.06,2.75-1,5.48-1.95l1.36-.5q5.11-1.86,10.14-3.88A116.91,116.91,0,0,0,1652,1097.23Z" transform="translate(-203.04 -296.66)"/><path class="cls-30" d="M1643.47,1103.49a106.39,106.39,0,0,0-27.66-32.55q-1.54-1.21-3.12-2.35c-.48-.36-1-.71-1.47-1-1.23-.88-2.49-1.72-3.76-2.52-.68-.43-1.36-.86-2-1.28q-1.86-1.14-3.77-2.18t-4-2.09c-1.25-.63-2.5-1.22-3.77-1.79s-2.81-1.24-4.24-1.8c-1.24-.51-2.5-1-3.76-1.44l-.4-.14q-2.73-1-5.51-1.79c-.82-.25-1.63-.48-2.45-.7-1.25-.34-2.5-.66-3.76-.94q-4.45-1-9-1.69c-1.25-.18-2.5-.33-3.76-.47l-1.14-.12-2.38-.2h0q-4-.31-8-.31c-1.26,0-2.52,0-3.77.07a105.8,105.8,0,0,0-19.64,2.53c-1.26.28-2.52.59-3.77.93a106.93,106.93,0,0,0-21,8q-1.68.85-3.35,1.77l-.42.24a106.83,106.83,0,0,0-16.3,11.13c-.35.27-.69.55-1,.85-1.11.93-2.18,1.89-3.25,2.87-1.29,1.18-2.54,2.39-3.77,3.64a105.56,105.56,0,0,0-20.44,29.37.1.1,0,0,0,0,.06,1.91,1.91,0,0,0-.13.27,106.59,106.59,0,0,0-5.69,15.07v.22a1.29,1.29,0,0,0-.15.28,99.24,99.24,0,0,0-3.63,17.42v.8c-.1.88-.19,1.78-.26,2.67q-.4,4.54-.39,9.07a105.43,105.43,0,0,0,3.41,26.62c.09.37.2.74.3,1.11.6,2.25,1.29,4.48,2,6.7.71.11,1.44.22,2.15.32.28,0,.57.09.85.12l1,.15,3.12.43c-.39-1-.77-2.08-1.12-3.13-.53-1.51-1-3-1.46-4.58s-.85-2.69-1.22-4.24v-.4a99.52,99.52,0,0,1-2.3-32.16,101.79,101.79,0,0,1,3.61-19.11q1.15-4,2.59-7.75h0a98.14,98.14,0,0,1,4.35-9.86.09.09,0,0,1,0-.06,99,99,0,0,1,13.33-19.93c1.21-1.41,2.46-2.79,3.77-4.13a98.19,98.19,0,0,1,13.6-11.81h0c.4-.29.79-.58,1.2-.85h.08c1.87-1.32,3.71-2.57,5.69-3.75,1.15-.71,2.32-1.38,3.5-2l.27-.14a99.6,99.6,0,0,1,21-8.58c1.25-.36,2.51-.68,3.77-1a99.53,99.53,0,0,1,19.65-2.69q1.86-.07,3.72-.08h0c1.14,0,2.29,0,3.43.06h0c1.16,0,2.34.1,3.5.19,1.53.1,3.06.25,4.57.42q1.89.22,3.75.51c3,.46,6,1.05,9,1.79l2.16.56,1.61.45c1.34.38,2.66.8,4,1.23q2.21.74,4.38,1.57c1.27.49,2.52,1,3.76,1.53q2.14.93,4.24,2,1.9.93,3.77,1.94t4,2.26c1.27.76,2.52,1.55,3.77,2.38.69.45,1.37.92,2,1.39.44.31.89.62,1.33.94h0A100.67,100.67,0,0,1,1649,1171.9q2.75-1,5.48-1.95l1.36-.5A106.3,106.3,0,0,0,1643.47,1103.49Z" transform="translate(-203.04 -296.66)"/><path class="cls-30" d="M1546.61,1191.79a25.6,25.6,0,0,1-5.23-8.5l-19.28,7.82c0,1.14,0,2.28.09,3.42h.42l.86,0,1.22,0q11.82-.32,23.45-1.29C1547.62,1192.76,1547.11,1192.3,1546.61,1191.79Zm0,0a25.6,25.6,0,0,1-5.23-8.5l-19.28,7.82c0,1.14,0,2.28.09,3.42h.42l.86,0,1.22,0q11.82-.32,23.45-1.29C1547.62,1192.76,1547.11,1192.3,1546.61,1191.79Zm0,0a25.6,25.6,0,0,1-5.23-8.5l-19.28,7.82c0,1.14,0,2.28.09,3.42h.42l.86,0,1.22,0q11.82-.32,23.45-1.29C1547.62,1192.76,1547.11,1192.3,1546.61,1191.79Zm0,0a25.6,25.6,0,0,1-5.23-8.5l-19.28,7.82c0,1.14,0,2.28.09,3.42h.42l.86,0,1.22,0q11.82-.32,23.45-1.29C1547.62,1192.76,1547.11,1192.3,1546.61,1191.79Zm0,0a25.6,25.6,0,0,1-5.23-8.5l-19.28,7.82c0,1.14,0,2.28.09,3.42h.42l.86,0,1.22,0q11.82-.32,23.45-1.29C1547.62,1192.76,1547.11,1192.3,1546.61,1191.79Zm0,0a25.6,25.6,0,0,1-5.23-8.5l-19.28,7.82c0,1.14,0,2.28.09,3.42h.42l.86,0,1.22,0q11.82-.32,23.45-1.29C1547.62,1192.76,1547.11,1192.3,1546.61,1191.79Zm56.62-20.88a36.58,36.58,0,0,0-1.77-5.53,42.74,42.74,0,0,0-2-4.23,34.49,34.49,0,0,0-2.06-3.3,2.31,2.31,0,0,0-.17-.23h0a26,26,0,0,0-3.6-4.06l0,0a32.34,32.34,0,0,0-3.92-3.06,34.29,34.29,0,0,0-3.76-2.11,32.44,32.44,0,0,0-3.55-1.45l-.7-.23-1.13-.36h0l-.42-.11a54.66,54.66,0,0,0-11.51-1.95l-.48,0c-1.08-.07-2.17-.12-3.29-.17q-6.48-.25-13.83-.06-3.16.1-5.81,0c-1.35,0-2.61-.11-3.77-.21l-.2,0a24.45,24.45,0,0,1-6.88-1.5,12.18,12.18,0,0,1-4.59-3.11,16.42,16.42,0,0,1-2.92-4.82c-.08-.2-.15-.39-.22-.59a18,18,0,0,1-1.1-5.07,12.25,12.25,0,0,1,.84-5.31,13,13,0,0,1,3.27-4.64,15.81,15.81,0,0,1,2.84-2.09,23.29,23.29,0,0,1,3.16-1.56,17.56,17.56,0,0,1,5.81-1.34h0a13.91,13.91,0,0,1,3.76.33,14.35,14.35,0,0,1,3.24,1.14q6,2.92,9.71,12.16l6.69-2.71,3.77-1.53,11.51-4.67,2-.8c-.61-1.51-1.27-3-2-4.32v-.4c-.68-1.28-1.4-2.19-2.17-3.38a.15.15,0,0,0,0-.06c-.21-.34-.43-.67-.66-1a38,38,0,0,0-3-3.85c-.32-.36-.63-.7-1-1v0a36.3,36.3,0,0,0-3.76-3.42,31.61,31.61,0,0,0-4.24-2.85c-.54-.32-1.09-.6-1.64-.88s-1.41-.66-2.12-.94a34.4,34.4,0,0,0-5.35-1.67c-1-.22-2-.39-3-.53-.78-.11-1.57-.19-2.37-.25l-.86,0-.54,0a43.24,43.24,0,0,0-9,.65q-1.86.32-3.77.82l-.32.08-.81-2-3.81-9.38-2.16-5.32-4.4,1.79-3.77,1.52-5.09,2.07,5.08,12.54.36.88,1.24,3.06c-.54.28-1.08.57-1.6.87a49.77,49.77,0,0,0-4.74,2.95h0a45,45,0,0,0-5.82,4.84c-.37.37-.74.75-1.09,1.12l-.06.06a36.33,36.33,0,0,0-6.54,9.5,30.09,30.09,0,0,0-1.89,5.25h0a29.89,29.89,0,0,0-.94,6.82,32.35,32.35,0,0,0,2.52,12.87c.32.78.66,1.55,1,2.28h0a35.06,35.06,0,0,0,2.9,5c.29.42.59.84.9,1.23a25.18,25.18,0,0,0,2.75,3.07l.33.31a29.9,29.9,0,0,0,3.63,2.85,30.27,30.27,0,0,0,3.76,2.17,31.37,31.37,0,0,0,3.82,1.56,48.42,48.42,0,0,0,9.15,2.11q2.47.35,5.13.49l1.56.08c1.22.05,2.48.09,3.76.11q5.46.1,11.51-.18l.34,0c1.19-.07,2.34-.11,3.42-.13a55.84,55.84,0,0,1,5.92.2,26.5,26.5,0,0,1,3.05.43,20.64,20.64,0,0,1,3.77,1.08h0a12.84,12.84,0,0,1,4.79,3.26,17.67,17.67,0,0,1,3.22,5.32,3.49,3.49,0,0,0,.33.48v.4a14.45,14.45,0,0,1,.82,4.8,11.85,11.85,0,0,1-.2,2.19,12.12,12.12,0,0,1-1.08,3.21,14.54,14.54,0,0,1-2.77,3.8q14.19-2.1,28-5.16l.47-.1q.24-1,.41-1.94a30.52,30.52,0,0,0,.45-4.43A29.59,29.59,0,0,0,1603.23,1170.92Zm-56.62,20.88a25.6,25.6,0,0,1-5.23-8.5l-19.28,7.82c0,1.14,0,2.28.09,3.42h.42l.86,0,1.22,0q11.82-.32,23.45-1.29C1547.62,1192.76,1547.11,1192.3,1546.61,1191.79Zm0,0a25.6,25.6,0,0,1-5.23-8.5l-19.28,7.82c0,1.14,0,2.28.09,3.42h.42l.86,0,1.22,0q11.82-.32,23.45-1.29C1547.62,1192.76,1547.11,1192.3,1546.61,1191.79Zm0,0a25.6,25.6,0,0,1-5.23-8.5l-19.28,7.82c0,1.14,0,2.28.09,3.42h.42l.86,0,1.22,0q11.82-.32,23.45-1.29C1547.62,1192.76,1547.11,1192.3,1546.61,1191.79Zm0,0a25.6,25.6,0,0,1-5.23-8.5l-19.28,7.82c0,1.14,0,2.28.09,3.42h.42l.86,0,1.22,0q11.82-.32,23.45-1.29C1547.62,1192.76,1547.11,1192.3,1546.61,1191.79Zm0,0a25.6,25.6,0,0,1-5.23-8.5l-19.28,7.82c0,1.14,0,2.28.09,3.42h.42l.86,0,1.22,0q11.82-.32,23.45-1.29C1547.62,1192.76,1547.11,1192.3,1546.61,1191.79Zm0,0a25.6,25.6,0,0,1-5.23-8.5l-19.28,7.82c0,1.14,0,2.28.09,3.42h.42l.86,0,1.22,0q11.82-.32,23.45-1.29C1547.62,1192.76,1547.11,1192.3,1546.61,1191.79Zm0,0a25.6,25.6,0,0,1-5.23-8.5l-19.28,7.82-4.67,1.89c.22.54.44,1.08.68,1.6l1.2,0,1.19,0,1.68,0h.42l.86,0,1.22,0q11.82-.32,23.45-1.29C1547.62,1192.76,1547.11,1192.3,1546.61,1191.79Z" transform="translate(-203.04 -296.66)"/></g></svg>