<svg xmlns="http://www.w3.org/2000/svg" viewBox="0 0 460.24 428.71"><defs><style>.cls-1{fill:#f5f5f5;}.cls-2{fill:#e0e0e0;}.cls-19,.cls-3{fill:#97c371;}.cls-4{opacity:0.1;}.cls-12,.cls-13,.cls-14,.cls-15,.cls-16,.cls-18,.cls-23,.cls-5{fill:#fff;}.cls-6{fill:#e6e6e6;}.cls-7{fill:#37474f;}.cls-8{fill:#263238;}.cls-9{fill:#455a64;}.cls-10{fill:#c4e8a0;}.cls-11,.cls-16{opacity:0.4;}.cls-12{opacity:0.8;}.cls-13{opacity:0.85;}.cls-14{opacity:0.65;}.cls-15{opacity:0.55;}.cls-17{opacity:0.05;}.cls-18,.cls-19{opacity:0.75;}.cls-20,.cls-22{opacity:0.15;}.cls-21{fill:#27debf;}.cls-22{fill:none;stroke:#000;stroke-miterlimit:10;stroke-width:0.73px;}.cls-23{opacity:0.5;}.cls-24{fill:#ffa8a7;}.cls-25{fill:#f28f8f;}.cls-26{opacity:0.25;}</style></defs><title>privpol</title><g id="Floor"><path id="Floor-2" data-name="Floor" class="cls-1" d="M412.72,252.6c89.87,51.88,89.87,136,0,187.86s-235.57,51.88-325.44,0-89.87-136,0-187.86S322.85,200.72,412.72,252.6Z" transform="translate(-19.88 -50.66)"/></g><g id="Shadows"><path id="Shadow" class="cls-2" d="M442.79,350c22.47,13,22.47,34,0,47s-58.9,13-81.36,0-22.47-34,0-47S420.33,337,442.79,350Z" transform="translate(-19.88 -50.66)"/><path id="Shadow-2" data-name="Shadow" class="cls-2" d="M196.14,445.23,53.41,362.83c-2.34-1.35-2.34-3.54,0-4.9L259.75,238.81a9.37,9.37,0,0,1,8.48,0l142.69,82.38c2.34,1.35,2.34,3.54,0,4.9L204.62,445.23A9.37,9.37,0,0,1,196.14,445.23Z" transform="translate(-19.88 -50.66)"/></g><g id="Plant"><g id="Plants"><g id="_Group_" data-name="&lt;Group&gt;"><g id="_Group_2" data-name="&lt;Group&gt;"><path id="_Path_" data-name="&lt;Path&gt;" class="cls-3" d="M431.15,354.41c-1.23-8.44,1.92-40.59,9.07-52.83s19-25.08,29.31-23.17c9.56,1.79,10.32,13.88.42,23.41s-25.06,21.9-27.92,36.3l-7.8,24.51Z" transform="translate(-19.88 -50.66)"/><path id="_Path_2" data-name="&lt;Path&gt;" class="cls-4" d="M431.15,354.41c-1.23-8.44,1.92-40.59,9.07-52.83s19-25.08,29.31-23.17c9.56,1.79,10.32,13.88.42,23.41s-25.06,21.9-27.92,36.3l-7.8,24.51Z" transform="translate(-19.88 -50.66)"/></g><g id="_Group_3" data-name="&lt;Group&gt;"><path id="_Path_3" data-name="&lt;Path&gt;" class="cls-5" d="M433.44,351.76a.62.62,0,0,0,.46-.59c.44-29.66,19.41-57.14,32.35-64.79a.62.62,0,0,0,.22-.85.62.62,0,0,0-.85-.22c-13.19,7.8-32.51,35.73-33,65.84a.62.62,0,0,0,.61.63Z" transform="translate(-19.88 -50.66)"/></g></g><g id="_Group_4" data-name="&lt;Group&gt;"><g id="_Group_5" data-name="&lt;Group&gt;"><path id="_Path_4" data-name="&lt;Path&gt;" class="cls-3" d="M438.08,367.24c.66-4.94,4.12-13.47,11.94-21.91,9.58-10.33,25.49-16,27.7-22,2.66-7.22-3.41-12.15-13.74-8.86-13.9,4.42-29.39,21.76-29.2,44.08Z" transform="translate(-19.88 -50.66)"/></g><g id="_Group_6" data-name="&lt;Group&gt;"><path id="_Path_5" data-name="&lt;Path&gt;" class="cls-5" d="M435.29,362.57a.62.62,0,0,0,.47-.49c5.23-26,26.2-40,34.75-42.36a.62.62,0,0,0,.43-.77.61.61,0,0,0-.77-.43c-9.46,2.66-30.29,16.81-35.64,43.31a.62.62,0,0,0,.49.73A.61.61,0,0,0,435.29,362.57Z" transform="translate(-19.88 -50.66)"/></g></g></g></g><g id="Clouds"><g id="Clouds-2" data-name="Clouds"><g id="_Group_7" data-name="&lt;Group&gt;"><path id="_Path_6" data-name="&lt;Path&gt;" class="cls-6" d="M146.31,74.42l-7.62,4.4a9.18,9.18,0,0,0,.06-1V75.61c0-3.93-2.76-5.52-6.16-3.56a11.91,11.91,0,0,0-3.67,3.53c-.56-4.94-4.43-6.78-9.14-4.06-5.09,2.94-9.21,10.08-9.21,16v3.3a8.69,8.69,0,0,0,.78,3.82L105,98.25a7.55,7.55,0,0,0-3.42,5.92c0,2.18,1.53,3.06,3.42,2l41.28-23.83a7.55,7.55,0,0,0,3.42-5.92C149.73,74.22,148.2,73.33,146.31,74.42Z" transform="translate(-19.88 -50.66)"/></g><g id="_Group_8" data-name="&lt;Group&gt;"><path id="_Path_7" data-name="&lt;Path&gt;" class="cls-6" d="M50.14,84.25,54.34,81V71.76c0-7.34,5.85-15.86,12.21-19.52h0c6.35-3.67,11.51-.69,11.51,6.64v1.34a16.42,16.42,0,0,1,5.34-5.34h0c4.57-2.64,8.28-.5,8.28,4.78v.61l5.86-3.38c3-1.74,5.45-.33,5.45,3.15a12.05,12.05,0,0,1-5.45,9.44L50.14,96.84c-3,1.74-5.45.33-5.45-3.15A12.05,12.05,0,0,1,50.14,84.25Z" transform="translate(-19.88 -50.66)"/></g></g></g><g id="Device"><g id="Laptop"><path id="_Path_8" data-name="&lt;Path&gt;" class="cls-7" d="M62.22,351.49a9.91,9.91,0,0,0,4.62,7.67l129.49,74.76a10.21,10.21,0,0,0,9.24,0L397.49,323.14a8.68,8.68,0,0,0,0-15.35L268,233a10.22,10.22,0,0,0-9.24,0L66.84,343.82A9.91,9.91,0,0,0,62.22,351.49Z" transform="translate(-19.88 -50.66)"/><path id="_Path_9" data-name="&lt;Path&gt;" class="cls-8" d="M201,425v10a9.42,9.42,0,0,1-4.62-1.1L66.84,359.17a8.66,8.66,0,0,1-.47-15c-2.07,1.48-1.91,3.66.47,5l129.5,74.76A9.43,9.43,0,0,0,201,425Z" transform="translate(-19.88 -50.66)"/><path id="_Path_10" data-name="&lt;Path&gt;" class="cls-9" d="M57.88,344a9.91,9.91,0,0,1-4.34-7.84V181.61a10.22,10.22,0,0,1,4.62-8L250.08,62.82a9.91,9.91,0,0,1,9-.17,9.91,9.91,0,0,1,4.34,7.84V225a10.22,10.22,0,0,1-4.62,8L66.84,343.82A9.91,9.91,0,0,1,57.88,344Z" transform="translate(-19.88 -50.66)"/><path id="_Path_11" data-name="&lt;Path&gt;" class="cls-8" d="M66.3,344.1a9.93,9.93,0,0,1-8.41-.12,9.9,9.9,0,0,1-4.33-7.83V181.61a9.33,9.33,0,0,1,1.36-4.55l8.67,5h0a9.47,9.47,0,0,0-1.36,4.55V341.15C62.22,343.88,64,345.11,66.3,344.1Z" transform="translate(-19.88 -50.66)"/><path id="_Path_12" data-name="&lt;Path&gt;" class="cls-7" d="M62.22,186.62V341.15c0,2.95,2.07,4.14,4.62,2.67L258.75,233a10.22,10.22,0,0,0,4.62-8V70.49c0-2.95-2.07-4.14-4.62-2.67L66.84,178.61A10.22,10.22,0,0,0,62.22,186.62Z" transform="translate(-19.88 -50.66)"/><path id="_Path_13" data-name="&lt;Path&gt;" class="cls-9" d="M66.84,349.15l129.49,74.76a10.22,10.22,0,0,0,9.24,0L397.49,313.13c2.55-1.47,2.55-3.86,0-5.34L268,233a10.22,10.22,0,0,0-9.24,0L66.84,343.82C64.29,345.29,64.29,347.68,66.84,349.15Z" transform="translate(-19.88 -50.66)"/><path id="_Path_14" data-name="&lt;Path&gt;" class="cls-10" d="M69.33,184.55,254.88,77.45c1.53-.88,2.77-.17,2.77,1.6V221.63a6.13,6.13,0,0,1-2.77,4.8L69.33,333.53c-1.53.88-2.77.17-2.77-1.6V189.35A6.13,6.13,0,0,1,69.33,184.55Z" transform="translate(-19.88 -50.66)"/><path id="_Path_15" data-name="&lt;Path&gt;" class="cls-11" d="M69.33,184.55,254.88,77.45c1.53-.88,2.77-.17,2.77,1.6V221.63a6.13,6.13,0,0,1-2.77,4.8L69.33,333.53c-1.53.88-2.77.17-2.77-1.6V189.35A6.13,6.13,0,0,1,69.33,184.55Z" transform="translate(-19.88 -50.66)"/><path id="_Path_16" data-name="&lt;Path&gt;" class="cls-7" d="M81.87,345.15,261.07,241.71a5.11,5.11,0,0,1,4.62,0l8.41,4.86c1.28.74,1.28,1.93,0,2.67L94.88,352.66a5.11,5.11,0,0,1-4.62,0l-8.39-4.84C80.6,347.08,80.6,345.89,81.87,345.15Z" transform="translate(-19.88 -50.66)"/><path id="_Path_17" data-name="&lt;Path&gt;" class="cls-8" d="M103.55,357.67,282.74,254.22a5.11,5.11,0,0,1,4.62,0l51.74,29.87c1.28.74,1.28,1.93,0,2.67l-179,103.31a5.13,5.13,0,0,1-4.63,0l-51.92-29.76C102.28,359.6,102.28,358.4,103.55,357.67Z" transform="translate(-19.88 -50.66)"/><path id="_Compound_Path_" data-name="&lt;Compound Path&gt;" class="cls-9" d="M261,298.21l5.64-3.26c.24-.14.24-.36,0-.5l-6-3.44a1,1,0,0,0-.86,0l-5.64,3.26c-.24.14-.24.36,0,.5l6,3.44A1,1,0,0,0,261,298.21Zm-9.67-12.1-5.64,3.26c-.24.14-.24.36,0,.5l6,3.44a1,1,0,0,0,.86,0l5.64-3.26c.24-.14.24-.36,0-.5l-6-3.44A1,1,0,0,0,251.35,286.11Zm-18.23,10.52-9.55,5.51c-.24.14-.24.36,0,.5l6,3.44a1,1,0,0,0,.86,0l9.55-5.51c.24-.14.24-.36,0-.5l-6-3.44A1,1,0,0,0,233.12,296.63Zm10-5.76-5.64,3.26c-.24.14-.24.36,0,.5l6,3.44a1,1,0,0,0,.86,0l5.64-3.26c.24-.14.24-.36,0-.5l-6-3.44A1,1,0,0,0,243.11,290.87ZM221,303.65l-5.64,3.26c-.24.14-.24.36,0,.5l6,3.44a1,1,0,0,0,.86,0l5.64-3.26c.24-.14.24-.36,0-.5l-6-3.44A1,1,0,0,0,221,303.65Zm-8.25,4.76-5.64,3.26c-.24.14-.24.36,0,.5l6,3.44a1,1,0,0,0,.86,0l5.64-3.26c.24-.14.24-.36,0-.5l-6-3.44A1,1,0,0,0,212.73,308.41Zm23.38,14,5.64-3.26c.24-.14.24-.36,0-.5l-6-3.44a1,1,0,0,0-.86,0l-5.64,3.26c-.24.14-.24.36,0,.5l6,3.44A1,1,0,0,0,236.11,322.41Zm-8.25,4.76,5.64-3.26c.24-.14.24-.36,0-.5l-6-3.44a1,1,0,0,0-.86,0l-5.64,3.26c-.24.14-.24.36,0,.5l6,3.44A1,1,0,0,0,227.86,327.17Zm-8.25,4.76,5.64-3.26c.24-.14.24-.36,0-.5l-6-3.44a1,1,0,0,0-.86,0L212.81,328c-.24.14-.24.36,0,.5l6,3.44A1,1,0,0,0,219.62,331.93Zm-8.25,4.76,5.64-3.26c.24-.14.24-.36,0-.5l-6-3.44a1,1,0,0,0-.86,0l-5.64,3.26c-.24.14-.24.36,0,.5l6,3.44A1,1,0,0,0,211.37,336.69ZM252.77,303l5.64-3.26c.24-.14.24-.36,0-.5l-6-3.44a1,1,0,0,0-.86,0L246,299c-.24.14-.24.36,0,.5l6,3.44A1,1,0,0,0,252.77,303Zm-8.42,14.68,12.59-7.27c.24-.14.24-.36,0-.5l-14.46-8.35a1,1,0,0,0-.86,0l-6.51,3.76c-.24.14-.24.36,0,.5l7.66,4.42c.23.14.23.36,0,.5l-5.21,3c-.24.14-.24.36,0,.5l6,3.44A1,1,0,0,0,244.36,317.65Zm-39.87-4.48-5.64,3.26c-.24.14-.24.36,0,.5l6,3.44a1,1,0,0,0,.86,0l5.64-3.26c.24-.14.24-.36,0-.5l-6-3.44A1,1,0,0,0,204.48,313.17Zm-8.25,4.76-5.64,3.26c-.24.14-.24.36,0,.5l6,3.44a1,1,0,0,0,.86,0l5.64-3.26c.24-.14.24-.36,0-.5l-6-3.44A1,1,0,0,0,196.24,317.93ZM152.79,370a1,1,0,0,0,.86,0l5.64-3.26c.24-.14.24-.36,0-.5l-6-3.44a1,1,0,0,0-.86,0l-5.64,3.26c-.24.14-.24.36,0,.5Zm-22.52-14-5.64,3.26c-.24.14-.24.36,0,.5l6,3.44a1,1,0,0,0,.86,0l5.64-3.26c.24-.14.24-.36,0-.5l-6-3.44A1,1,0,0,0,130.27,356Zm11.85,10.35a1,1,0,0,0,.86,0l5.64-3.26c.24-.14.24-.36,0-.5l-6-3.44a1,1,0,0,0-.86,0l-5.64,3.26c-.24.14-.24.36,0,.5Zm24.38,6.06,5.64-3.26c.24-.14.24-.36,0-.5l-6-3.44a1,1,0,0,0-.86,0l-5.64,3.26c-.24.14-.24.36,0,.5l6,3.44A1,1,0,0,0,166.5,372.42Zm-9.1,4.77a1,1,0,0,0,.86,0l5.64-3.26c.24-.14.24-.36,0-.5l-6-3.44a1,1,0,0,0-.86,0l-5.64,3.26c-.24.14-.24.36,0,.5Zm-18.88-25.93-5.64,3.26c-.24.14-.24.36,0,.5l6,3.44a1,1,0,0,0,.86,0l5.64-3.26c.24-.14.24-.36,0-.5l-6-3.44A1,1,0,0,0,138.52,351.25Zm41.23-23.8-5.64,3.26c-.24.14-.24.36,0,.5l6,3.44a1,1,0,0,0,.86,0l5.64-3.26c.24-.14.24-.36,0-.5l-6-3.44A1,1,0,0,0,179.74,327.45Zm-33,19-5.64,3.26c-.24.14-.24.36,0,.5l6,3.44a1,1,0,0,0,.86,0l5.64-3.26c.24-.14.24-.36,0-.5l-6-3.44A1,1,0,0,0,146.76,346.49ZM188,322.69l-5.64,3.26c-.24.14-.24.36,0,.5l6,3.44a1,1,0,0,0,.86,0l5.64-3.26c.24-.14.24-.36,0-.5l-6-3.44A1,1,0,0,0,188,322.69Zm-16.49,9.52-5.64,3.26c-.24.14-.24.36,0,.5l6,3.44a1,1,0,0,0,.86,0l5.64-3.26c.24-.14.24-.36,0-.5l-6-3.44A1,1,0,0,0,171.5,332.21ZM163.25,337l-5.64,3.26c-.24.14-.24.36,0,.5l6,3.44a1,1,0,0,0,.86,0l5.64-3.26c.24-.14.24-.36,0-.5l-6-3.44A1,1,0,0,0,163.25,337ZM155,341.73,149.37,345c-.24.14-.24.36,0,.5l6,3.44a1,1,0,0,0,.86,0l5.64-3.26c.24-.14.24-.36,0-.5l-6-3.44A1,1,0,0,0,155,341.73Zm39.87,4.48,5.64-3.26c.24-.14.24-.36,0-.5l-6-3.44a1,1,0,0,0-.86,0l-5.64,3.26c-.24.14-.24.36,0,.5l6,3.44A1,1,0,0,0,194.88,346.21Zm74.7-70.63-5.64,3.26c-.24.14-.24.36,0,.5l6,3.44a1,1,0,0,0,.86,0l5.64-3.26c.24-.14.24-.36,0-.5l-6-3.44A1,1,0,0,0,269.58,275.59Zm-10,5.76L254,284.61c-.24.14-.24.36,0,.5l6,3.44a1,1,0,0,0,.86,0l5.64-3.26c.24-.14.24-.36,0-.5l-6-3.44A1,1,0,0,0,259.6,281.35Zm18.23-10.52-5.64,3.26c-.24.14-.24.36,0,.5l6,3.44a1,1,0,0,0,.86,0l5.64-3.26c.24-.14.24-.36,0-.5l-6-3.44A1,1,0,0,0,277.82,270.82ZM233.68,314l5.64-3.26c.24-.14.24-.36,0-.5l-6-3.44a1,1,0,0,0-.86,0l-5.64,3.26c-.24.14-.24.36,0,.5l6,3.44A1,1,0,0,0,233.68,314Zm53.25-47.93a1,1,0,0,0-.86,0l-5.64,3.26c-.24.14-.24.36,0,.5l6,3.44a1,1,0,0,0,.86,0l5.64-3.26c.24-.14.24-.36,0-.5Zm-83.8,75.39,5.64-3.26c.24-.14.24-.36,0-.5l-6-3.44a1,1,0,0,0-.86,0l-5.64,3.26c-.24.14-.24.36,0,.5l6,3.44A1,1,0,0,0,203.13,341.45Zm101.12-58.38,5.64-3.26c.24-.14.24-.36,0-.5l-6-3.44a1,1,0,0,0-.86,0l-5.64,3.26c-.24.14-.24.36,0,.5l6,3.44A1,1,0,0,0,304.24,283.07Zm-16.75-.15,5.64-3.26c.24-.14.24-.36,0-.5l-6-3.44a1,1,0,0,0-.86,0L280.69,279c-.24.14-.24.36,0,.5l6,3.44A1,1,0,0,0,287.49,282.92Zm7.94-12a1,1,0,0,0-.86,0l-5.64,3.26c-.24.14-.24.36,0,.5l6,3.44a1,1,0,0,0,.86,0l5.64-3.26c.24-.14.24-.36,0-.5Zm1.74-1,14.46,8.35a1,1,0,0,0,.86,0l5.64-3.26c.24-.14.24-.36,0-.5l-14.46-8.35a1,1,0,0,0-.86,0l-5.64,3.26C296.94,269.61,296.94,269.83,297.17,270ZM278.08,280.5l-5.64,3.26c-.24.14-.24.36,0,.5l6,3.44a1,1,0,0,0,.86,0l5.64-3.26c.24-.14.24-.36,0-.5l-6-3.44A1,1,0,0,0,278.08,280.5ZM216,316.33l-5.64,3.26c-.24.14-.24.36,0,.5l6,3.44a1,1,0,0,0,.86,0l5.64-3.26c.24-.14.24-.36,0-.5l-6-3.44A1,1,0,0,0,216,316.33Zm79.12-28.49a1,1,0,0,0,.86,0l5.64-3.26c.24-.14.24-.36,0-.5l-6-3.44a1,1,0,0,0-.86,0l-5.64,3.26c-.24.14-.24.36,0,.5Zm-70.87,23.73-5.64,3.26c-.24.14-.24.36,0,.5l6,3.44a1,1,0,0,0,.86,0l5.64-3.26c.24-.14.24-.36,0-.5l-6-3.44A1,1,0,0,0,224.27,311.57ZM161,365.26a1,1,0,0,0,.86,0l5.64-3.26c.24-.14.24-.36,0-.5l-6-3.44a1,1,0,0,0-.86,0l-5.64,3.26c-.24.14-.24.36,0,.5Zm-11-10.85-5.64,3.26c-.24.14-.24.36,0,.5l6,3.44a1,1,0,0,0,.86,0l5.64-3.26c.24-.14.24-.36,0-.5l-6-3.44A1,1,0,0,0,150.06,354.41Zm20.08,6.08,5.64-3.26c.24-.14.24-.36,0-.5l-6-3.44a1,1,0,0,0-.86,0l-5.64,3.26c-.24.14-.24.36,0,.5l6,3.44A1,1,0,0,0,170.14,360.49Zm8.25-4.76,5.64-3.26c.24-.14.24-.36,0-.5l-6-3.44a1,1,0,0,0-.86,0l-5.64,3.26c-.24.14-.24.36,0,.5l6,3.44A1,1,0,0,0,178.39,355.73Zm8.25-4.76,5.64-3.26c.24-.14.24-.36,0-.5l-6-3.44a1,1,0,0,0-.86,0L179.83,347c-.24.14-.24.36,0,.5l6,3.44A1,1,0,0,0,186.64,351Zm-28.33-1.32-5.64,3.26c-.24.14-.24.36,0,.5l6,3.44a1,1,0,0,0,.86,0l5.64-3.26c.24-.14.24-.36,0-.5l-6-3.44A1,1,0,0,0,158.3,349.65Zm8.25-4.76-5.64,3.26c-.24.14-.24.36,0,.5l6,3.44a1,1,0,0,0,.86,0l5.64-3.26c.24-.14.24-.36,0-.5l-6-3.44A1,1,0,0,0,166.55,344.89Zm33-19-5.64,3.26c-.24.14-.24.36,0,.5l6,3.44a1,1,0,0,0,.86,0l5.64-3.26c.24-.14.24-.36,0-.5l-6-3.44A1,1,0,0,0,199.53,325.85Zm-8.25,4.76-5.64,3.26c-.24.14-.24.36,0,.5l6,3.44a1,1,0,0,0,.86,0l5.64-3.26c.24-.14.24-.36,0-.5l-6-3.44A1,1,0,0,0,191.29,330.61Zm16.49-9.52-5.64,3.26c-.24.14-.24.36,0,.5l6,3.44a1,1,0,0,0,.86,0l5.64-3.26c.24-.14.24-.36,0-.5l-6-3.44A1,1,0,0,0,207.78,321.09Zm-33,19-5.64,3.26c-.24.14-.24.36,0,.5l6,3.44a1,1,0,0,0,.86,0l5.64-3.26c.24-.14.24-.36,0-.5l-6-3.44A1,1,0,0,0,174.8,340.13Zm8.24-4.76-5.64,3.26c-.24.14-.24.36,0,.5l6,3.44a1,1,0,0,0,.86,0l5.64-3.26c.24-.14.24-.36,0-.5l-6-3.44A1,1,0,0,0,183,335.37Zm-8.3,32.29,5.64-3.26c.24-.14.24-.36,0-.5l-6-3.44a1,1,0,0,0-.86,0l-5.64,3.26c-.24.14-.24.36,0,.5l6,3.44A1,1,0,0,0,174.74,367.66Zm-45.91-3.45-6-3.44a1,1,0,0,0-.86,0L116.38,364c-.24.14-.24.36,0,.5l6,3.44a1,1,0,0,0,.86,0l5.64-3.26C129.07,364.57,129.07,364.34,128.84,364.21Zm11.54,3.16-6-3.44a1,1,0,0,0-.86,0l-8.68,5c-.24.14-.24.36,0,.5l6,3.44a1,1,0,0,0,.86,0l8.68-5C140.61,367.72,140.62,367.5,140.38,367.37Zm-20.57-9.87-6-3.44a1,1,0,0,0-.86,0l-6.94,4c-.24.14-.24.36,0,.5l6,3.44a1,1,0,0,0,.86,0l6.94-4C120,357.85,120.05,357.63,119.82,357.5Zm5.32-3.07a1,1,0,0,0,.86,0l5.64-3.26c.24-.14.24-.36,0-.5l-6-3.44a1,1,0,0,0-.86,0l-5.64,3.26c-.24.14-.24.36,0,.5ZM151.06,371l-6-3.44a1,1,0,0,0-.86,0l-10.85,6.26c-.24.14-.24.36,0,.5l6,3.44a1,1,0,0,0,.86,0L151,371.52C151.29,371.38,151.29,371.16,151.06,371Zm4.6,7.17-6-3.44a1,1,0,0,0-.86,0l-6.94,4c-.24.14-.24.36,0,.5l6,3.44a1,1,0,0,0,.86,0l6.94-4C155.89,378.55,155.89,378.33,155.66,378.19ZM186.45,319a1,1,0,0,0,.86,0l5.64-3.26c.24-.14.24-.36,0-.5l-6-3.44a1,1,0,0,0-.86,0l-5.64,3.26c-.24.14-.24.36,0,.5ZM170,328.55a1,1,0,0,0,.86,0l5.64-3.26c.24-.14.24-.36,0-.5l-6-3.44a1,1,0,0,0-.86,0L164,324.61c-.24.14-.24.36,0,.5Zm-36.57,21.11a1,1,0,0,0,.86,0l5.64-3.26c.24-.14.24-.36,0-.5l-6-3.44a1,1,0,0,0-.86,0l-5.64,3.26c-.24.14-.24.36,0,.5Zm44.82-25.87a1,1,0,0,0,.86,0l5.64-3.26c.24-.14.24-.36,0-.5l-6-3.44a1,1,0,0,0-.86,0l-5.64,3.26c-.24.14-.24.36,0,.5Zm-16.49,9.52a1,1,0,0,0,.86,0l5.64-3.26c.24-.14.24-.36,0-.5l-6-3.44a1,1,0,0,0-.86,0l-5.64,3.26c-.24.14-.24.36,0,.5Zm-1.76,45.35a1,1,0,0,0-.86,0l-8.68,5c-.24.14-.24.36,0,.5l6,3.44a1,1,0,0,0,.86,0l8.68-5c.24-.14.24-.36,0-.5Zm-10.07-38.52a1,1,0,0,0,.86,0l5.64-3.26c.24-.14.24-.36,0-.5l-6-3.44a1,1,0,0,0-.86,0l-5.64,3.26c-.24.14-.24.36,0,.5Zm-8.25,4.76a1,1,0,0,0,.86,0l5.64-3.26c.24-.14.24-.36,0-.5l-6-3.44a1,1,0,0,0-.86,0L135.68,341c-.24.14-.24.36,0,.5Zm171.08-54.44a1,1,0,0,0-.86,0l-13.89,8c-.24.14-.24.36,0,.5l6,3.44a1,1,0,0,0,.86,0l13.89-8c.24-.14.24-.36,0-.5ZM294.48,301a1,1,0,0,0-.86,0L288,304.25c-.24.14-.24.36,0,.5l6,3.44a1,1,0,0,0,.86,0l5.64-3.26c.24-.14.24-.36,0-.5ZM183,362.9l5.64-3.26c.24-.14.24-.36,0-.5l-6-3.44a1,1,0,0,0-.86,0L176.19,359c-.24.14-.24.36,0,.5l6,3.44A1,1,0,0,0,183,362.9Zm95-52.39a1,1,0,0,0-.86,0l-5.64,3.26c-.24.14-.24.36,0,.5l6,3.44a1,1,0,0,0,.86,0l5.64-3.26c.24-.14.24-.36,0-.5Zm43-24.81a1,1,0,0,0-.86,0L314.45,289c-.24.14-.24.36,0,.5l6,3.44a1,1,0,0,0,.86,0l5.64-3.26c.24-.14.24-.36,0-.5Zm14.2-1.32L320.69,276a1,1,0,0,0-.86,0l-5.64,3.26c-.24.14-.24.36,0,.5l14.46,8.35a1,1,0,0,0,.86,0l5.64-3.26C335.38,284.74,335.39,284.52,335.15,284.38Zm-88,43.92a1,1,0,0,0-.86,0l-6.94,4c-.24.14-.24.36,0,.5l6,3.44a1,1,0,0,0,.86,0l6.94-4c.24-.14.24-.36,0-.5Zm20.83-12a1,1,0,0,0-.86,0l-8.68,5c-.24.14-.24.36,0,.5l6,3.44a1,1,0,0,0,.86,0l8.68-5c.24-.14.24-.36,0-.5Zm-39.93,23.05a1,1,0,0,0-.86,0l-46.44,26.81c-.24.14-.24.36,0,.5l6,3.44a1,1,0,0,0,.86,0L234,343.26c.24-.14.24-.36,0-.5Zm-49,28.31a1,1,0,0,0-.86,0l-6.94,4c-.24.14-.24.36,0,.5l6,3.44a1,1,0,0,0,.86,0l6.94-4c.24-.14.24-.36,0-.5Zm58.59-33.83a1,1,0,0,0-.86,0l-6.94,4c-.24.14-.24.36,0,.5l6,3.44a1,1,0,0,0,.86,0l6.94-4c.24-.14.24-.36,0-.5Zm-68.14,39.34a1,1,0,0,0-.86,0l-6.94,4c-.24.14-.24.36,0,.5l6,3.44a1,1,0,0,0,.86,0l6.94-4c.24-.14.24-.36,0-.5Zm87.23-50.36a1,1,0,0,0-.86,0l-6.94,4c-.24.14-.24.36,0,.5l6,3.44a1,1,0,0,0,.86,0l6.94-4c.24-.14.24-.36,0-.5Zm29.51-17a1,1,0,0,0-.86,0L279.73,309c-.24.14-.24.36,0,.5l6,3.44a1,1,0,0,0,.86,0l5.64-3.26c.24-.14.24-.36,0-.5Zm18.27-13,5.64-3.26c.24-.14.24-.36,0-.5l-6-3.44a1,1,0,0,0-.86,0l-5.64,3.26c-.24.14-.24.36,0,.5l6,3.44A1,1,0,0,0,304.5,292.74Zm-35.24.7,5.64-3.26c.24-.14.24-.36,0-.5l-6-3.44a1,1,0,0,0-.86,0l-5.64,3.26c-.24.14-.24.36,0,.5l6,3.44A1,1,0,0,0,269.27,293.45ZM249,324.82l16.49-9.52c.24-.14.24-.36,0-.5l-6-3.44a1,1,0,0,0-.86,0l-16.49,9.52c-.24.14-.24.36,0,.5l6,3.44A1,1,0,0,0,249,324.82Zm46.44-27.31a1,1,0,0,0,.86,0l5.64-3.26c.24-.14.24-.36,0-.5l-6-3.44a1,1,0,0,0-.86,0l-5.64,3.26c-.24.14-.24.36,0,.5Zm-7.65-4.92,5.64-3.26c.24-.14.24-.36,0-.5l-6-3.44a1,1,0,0,0-.86,0l-5.64,3.26c-.24.14-.24.36,0,.5l6,3.44A1,1,0,0,0,287.75,292.59Zm-47,37,5.64-3.26c.24-.14.24-.36,0-.5l-6-3.44a1,1,0,0,0-.86,0l-5.64,3.26c-.24.14-.24.36,0,.5l6,3.44A1,1,0,0,0,240.71,329.58ZM277.17,308a1,1,0,0,0,.86,0l5.64-3.26c.24-.14.24-.36,0-.5l-6-3.44a1,1,0,0,0-.86,0l-5.64,3.26c-.24.14-.24.36,0,.5Zm-77.69,45.35,5.64-3.26c.24-.14.24-.36,0-.5l-6-3.44a1,1,0,0,0-.86,0l-5.64,3.26c-.24.14-.24.36,0,.5l6,3.44A1,1,0,0,0,199.48,353.38Zm8.25-4.76,5.64-3.26c.24-.14.24-.36,0-.5l-6-3.44a1,1,0,0,0-.86,0l-5.64,3.26c-.24.14-.24.36,0,.5l6,3.44A1,1,0,0,0,207.73,348.62Zm-16.49,9.52,5.64-3.26c.24-.14.24-.36,0-.5l-6-3.44a1,1,0,0,0-.86,0l-5.64,3.26c-.24.14-.24.36,0,.5l6,3.44A1,1,0,0,0,191.24,358.14Zm33-19,5.64-3.26c.24-.14.24-.36,0-.5l-6-3.44a1,1,0,0,0-.86,0l-5.64,3.26c-.24.14-.24.36,0,.5l6,3.44A1,1,0,0,0,224.22,339.1ZM216,343.86l5.64-3.26c.24-.14.24-.36,0-.5l-6-3.44a1,1,0,0,0-.86,0l-5.64,3.26c-.24.14-.24.36,0,.5l6,3.44A1,1,0,0,0,216,343.86Zm16.49-9.52,5.64-3.26c.24-.14.24-.36,0-.5l-6-3.44a1,1,0,0,0-.86,0l-5.64,3.26c-.24.14-.24.36,0,.5l6,3.44A1,1,0,0,0,232.46,334.34Zm41.4-68.3a1,1,0,0,0,.86,0l5.64-3.26c.24-.14.24-.36,0-.5l-1.58-.92a1,1,0,0,0-.86,0l-5.64,3.26c-.24.14-.24.36,0,.5ZM233.09,292.1a1,1,0,0,0,.86,0l5.64-3.26c.24-.14.24-.36,0-.5l-6-3.44a1,1,0,0,0-.86,0l-5.64,3.26c-.24.14-.24.36,0,.5Zm16.49-9.52a1,1,0,0,0,.86,0l5.64-3.26c.24-.14.24-.36,0-.5l-6-3.44a1,1,0,0,0-.86,0l-5.64,3.26c-.24.14-.24.36,0,.5ZM223,297.91a1,1,0,0,0,.86,0l5.64-3.26c.24-.14.24-.36,0-.5l-6-3.44a1,1,0,0,0-.86,0L217.07,294c-.24.14-.24.36,0,.5Zm18.31-10.57a1,1,0,0,0,.86,0l5.64-3.26c.24-.14.24-.36,0-.5l-6-3.44a1,1,0,0,0-.86,0l-5.64,3.26c-.24.14-.24.36,0,.5Zm-34.81,20.1a1,1,0,0,0,.86,0l5.64-3.26c.24-.14.24-.36,0-.5l-6-3.44a1,1,0,0,0-.86,0l-5.64,3.26c-.24.14-.24.36,0,.5Zm8.25-4.76a1,1,0,0,0,.86,0l5.64-3.26c.24-.14.24-.36,0-.5l-6-3.44a1,1,0,0,0-.86,0l-5.64,3.26c-.24.14-.24.36,0,.5Zm42.6-27.12a1,1,0,0,0,.86,0l5.64-3.26c.24-.14.24-.36,0-.5l-1.59-.92a1,1,0,0,0-.86,0l-5.64,3.26c-.24.14-.24.36,0,.5Zm24.74-14.28a1,1,0,0,0,.86,0l5.64-3.26c.24-.14.24-.36,0-.5L287,256.6a1,1,0,0,0-.86,0l-5.64,3.26c-.24.14-.24.36,0,.5Zm12.51,7.22a1,1,0,0,0,.86,0l5.64-3.26c.24-.14.24-.36,0-.5l-6-3.44a1,1,0,0,0-.86,0l-5.64,3.26c-.24.14-.24.36,0,.5ZM312.75,288l5.64-3.26c.24-.14.24-.36,0-.5l-6-3.44a1,1,0,0,0-.86,0l-5.64,3.26c-.24.14-.24.36,0,.5l6,3.44A1,1,0,0,0,312.75,288Zm-47.13-17.19a1,1,0,0,0,.86,0l5.64-3.26c.24-.14.24-.36,0-.5l-1.58-.91a1,1,0,0,0-.86,0L264,269.38c-.24.14-.24.36,0,.5Zm-67.34,41.4a1,1,0,0,0,.86,0l5.64-3.26c.24-.14.24-.36,0-.5l-6-3.44a1,1,0,0,0-.86,0l-5.64,3.26c-.24.14-.24.36,0,.5Z" transform="translate(-19.88 -50.66)"/><path id="_Path_18" data-name="&lt;Path&gt;" class="cls-8" d="M228.48,360.67l50.81-29.34a6.13,6.13,0,0,1,5.55,0L314,348.15c1.53.88,1.53,2.32,0,3.2l-50.82,29.34a6.13,6.13,0,0,1-5.55,0l-29.14-16.82C227,363,227,361.55,228.48,360.67Z" transform="translate(-19.88 -50.66)"/></g></g><g id="Shield"><g id="Shield-2" data-name="Shield"><g id="Shield-3" data-name="Shield"><path class="cls-3" d="M219.88,138.24c-15.89,14.27-29.6,13.52-38.18,6.91-8.57,16.51-22.29,33.09-38.17,37.17l-9.07,24.5s4.86,5.6,4.86,19a66.68,66.68,0,0,1-2.25,16.63c-1.66,6.61-3.79,13.46-3.79,24.88,0,7.75,1,15.28,4.94,22.13a27.29,27.29,0,0,0,9.93,10l-13.79-8a27.53,27.53,0,0,1-10.45-10.25C120,274.34,119,266.82,119,259.07c0-11.42,2.13-18.26,3.79-24.89A66.55,66.55,0,0,0,125,217.56c0-13.4-4.86-19-4.86-19l9.06-24.5c15.89-4.08,29.6-20.66,38.17-37.17,8.58,6.6,22.3,7.35,38.18-6.91Z" transform="translate(-19.88 -50.66)"/><path class="cls-12" d="M172.42,139.8l-5-2.9A21.9,21.9,0,0,0,172.42,139.8Z" transform="translate(-19.88 -50.66)"/><path class="cls-13" d="M205.57,130c-13.07,11.74-24.67,13.31-33.15,9.82l9.28,5.36c8.58,6.6,22.3,7.35,38.18-6.91Z" transform="translate(-19.88 -50.66)"/><path class="cls-14" d="M167.39,136.89c-8.57,16.51-22.29,33.09-38.17,37.17l14.31,8.26c15.89-4.08,29.6-20.66,38.17-37.17Z" transform="translate(-19.88 -50.66)"/><polygon class="cls-15" points="109.34 123.4 100.28 147.9 114.58 156.16 123.65 131.66 109.34 123.4"/><path class="cls-16" d="M138.23,289.45c-3.92-6.85-4.94-14.38-4.94-22.13,0-11.42,2.13-18.26,3.79-24.88a66.68,66.68,0,0,0,2.25-16.63c0-13.4-4.86-19-4.86-19l-14.3-8.26s4.86,5.6,4.86,19a66.55,66.55,0,0,1-2.25,16.62c-1.66,6.62-3.79,13.46-3.79,24.89,0,7.75,1,15.27,4.94,22.13a27.53,27.53,0,0,0,10.45,10.25l13.79,8A27.29,27.29,0,0,1,138.23,289.45Z" transform="translate(-19.88 -50.66)"/><path class="cls-17" d="M138.23,289.45c-3.92-6.85-4.94-14.38-4.94-22.13,0-11.42,2.13-18.26,3.79-24.88a66.68,66.68,0,0,0,2.25-16.63c0-13.4-4.86-19-4.86-19l-14.3-8.26s4.86,5.6,4.86,19a66.55,66.55,0,0,1-2.25,16.62c-1.66,6.62-3.79,13.46-3.79,24.89,0,7.75,1,15.27,4.94,22.13a27.53,27.53,0,0,0,10.45,10.25l13.79,8A27.29,27.29,0,0,1,138.23,289.45Z" transform="translate(-19.88 -50.66)"/><path class="cls-3" d="M181.7,306.23c-23.73.26-37.32-6-43.48-16.78-3.91-6.85-4.94-14.38-4.94-22.13,0-11.42,2.12-18.26,3.78-24.88a66.66,66.66,0,0,0,2.25-16.62c0-13.4-4.86-19-4.86-19l9.06-24.5c15.88-4.08,29.6-20.66,38.18-37.17,8.57,6.61,22.29,7.35,38.18-6.91l9.06,14a69,69,0,0,0-4.86,24.62,40.17,40.17,0,0,0,2.25,14c1.66,4.7,3.78,9.09,3.78,20.51a82.22,82.22,0,0,1-4.94,27.83C219,257.15,205.43,279.1,181.7,306.23Z" transform="translate(-19.88 -50.66)"/><path class="cls-18" d="M181.7,306.23c-23.73.26-37.32-6-43.48-16.78-3.91-6.85-4.94-14.38-4.94-22.13,0-11.42,2.12-18.26,3.78-24.88a66.66,66.66,0,0,0,2.25-16.62c0-13.4-4.86-19-4.86-19l9.06-24.5c15.88-4.08,29.6-20.66,38.18-37.17,8.57,6.61,22.29,7.35,38.18-6.91l9.06,14a69,69,0,0,0-4.86,24.62,40.17,40.17,0,0,0,2.25,14c1.66,4.7,3.78,9.09,3.78,20.51a82.22,82.22,0,0,1-4.94,27.83C219,257.15,205.43,279.1,181.7,306.23Z" transform="translate(-19.88 -50.66)"/><path class="cls-19" d="M178.89,300.07c-18.38-.22-30.26-4.81-35.32-13.67-2.85-5-4.12-10.88-4.12-19.07a76,76,0,0,1,3-21.14c.19-.76.39-1.5.57-2.24a72.12,72.12,0,0,0,2.44-18.12c0-9.76-2.34-16.16-4.2-19.7l7-18.8c17-5.91,29.29-22.7,35.8-33.71a28.14,28.14,0,0,0,11.09,2.24c7.68,0,15.49-2.86,23.28-8.51l3.66,5.66a75.63,75.63,0,0,0-4.16,23.88,46.34,46.34,0,0,0,2.6,16.07c.19.54.39,1.08.59,1.62,1.46,4,2.85,7.77,2.85,16.84a76.37,76.37,0,0,1-4.6,25.82C213.29,254.86,199.68,276,178.89,300.07Z" transform="translate(-19.88 -50.66)"/><path class="cls-16" d="M178.89,300.07c-18.38-.22-30.26-4.81-35.32-13.67-2.85-5-4.12-10.88-4.12-19.07a76,76,0,0,1,3-21.14c.19-.76.39-1.5.57-2.24a72.12,72.12,0,0,0,2.44-18.12c0-9.76-2.34-16.16-4.2-19.7l7-18.8c17-5.91,29.29-22.7,35.8-33.71a28.14,28.14,0,0,0,11.09,2.24c7.68,0,15.49-2.86,23.28-8.51l3.66,5.66a75.63,75.63,0,0,0-4.16,23.88,46.34,46.34,0,0,0,2.6,16.07c.19.54.39,1.08.59,1.62,1.46,4,2.85,7.77,2.85,16.84a76.37,76.37,0,0,1-4.6,25.82C213.29,254.86,199.68,276,178.89,300.07Z" transform="translate(-19.88 -50.66)"/><path class="cls-20" d="M178.89,300.07c-18.38-.22-30.26-4.81-35.32-13.67-2.85-5-4.12-10.88-4.12-19.07a76,76,0,0,1,3-21.14c.19-.76.39-1.5.57-2.24a72.12,72.12,0,0,0,2.44-18.12c0-9.76-2.34-16.16-4.2-19.7l7-18.8c17-5.91,29.29-22.7,35.8-33.71a28.14,28.14,0,0,0,11.09,2.24c7.68,0,15.49-2.86,23.28-8.51l3.66,5.66a75.63,75.63,0,0,0-4.16,23.88,46.34,46.34,0,0,0,2.6,16.07c.19.54.39,1.08.59,1.62,1.46,4,2.85,7.77,2.85,16.84a76.37,76.37,0,0,1-4.6,25.82C213.29,254.86,199.68,276,178.89,300.07Z" transform="translate(-19.88 -50.66)"/><path class="cls-12" d="M147.79,291.49c6.26,5.52,16.67,8.41,31.11,8.58l-9.22-5.25A67.56,67.56,0,0,1,147.79,291.49Z" transform="translate(-19.88 -50.66)"/><polygon class="cls-20" points="197.41 99.58 202.2 102.35 198.55 96.69 196.47 98.12 197.41 99.58"/><path class="cls-9" d="M215.72,190.19a46.34,46.34,0,0,1-2.6-16.07,75.64,75.64,0,0,1,4.16-23.88l-.94-1.45c-7.1,4.7-14.2,7.08-21.2,7.08A28.14,28.14,0,0,1,184,153.62c-6.51,11-18.8,27.8-35.8,33.71l-7,18.8c1.86,3.54,4.2,9.93,4.2,19.7a72.12,72.12,0,0,1-2.44,18.12c-.19.74-.38,1.49-.57,2.24a76,76,0,0,0-3,21.14c0,8.2,1.27,14.08,4.12,19.07a20.67,20.67,0,0,0,6,6.51q9.21,4.2,24.54,4.4c20.79-24.08,34.4-45.21,40.46-62.83a76.37,76.37,0,0,0,4.6-25.82c0-9.07-1.38-12.84-2.85-16.84C216.11,191.27,215.91,190.73,215.72,190.19Z" transform="translate(-19.88 -50.66)"/><path class="cls-7" d="M148.25,187.33l-7,18.8c1.86,3.54,4.2,9.93,4.2,19.7a72.12,72.12,0,0,1-2.44,18.12c-.19.74-.38,1.49-.57,2.24a76,76,0,0,0-3,21.14c0,8.2,1.27,14.08,4.12,19.07a20.67,20.67,0,0,0,6,6.51q9.21,4.2,24.54,4.4V228l10-3V153.62a110.14,110.14,0,0,1-10,14.24C167.44,175.89,158.74,183.68,148.25,187.33Z" transform="translate(-19.88 -50.66)"/></g><path id="Shadow-3" data-name="Shadow" class="cls-8" d="M198.12,202.42a2.76,2.76,0,0,0-.38-.54l0-.06a4.29,4.29,0,0,0-1-.81l-3.34-1.93a7.07,7.07,0,0,0-1.92-.73,9.27,9.27,0,0,0-1.22-.19v-9.86c0-4.95-1.87-8.86-5.13-10.74s-7-1.55-10.83.68c-7.12,4.11-12.69,14.14-12.69,22.83V212.7l-6.63,3.83a4.8,4.8,0,0,0-.56.38l-.18.14,0,0a2.45,2.45,0,0,0-.91,1.81v39.93a2,2,0,0,0,.07.52,3,3,0,0,0,1.25,1.62l.37.24,1.62.94,1.72,1a7.15,7.15,0,0,0,2.14.77,9.06,9.06,0,0,0,6-.77l30.23-17.45a2.88,2.88,0,0,0,1.7-2.36V203.37A2.08,2.08,0,0,0,198.12,202.42Zm-30-1.36c0-6.36,4.32-14.22,9.43-17.17,1.74-1,3.31-1.26,4.3-.68,1.16.67,1.86,2.57,1.86,5.08v11.64l-8.6,5-7,4Z" transform="translate(-19.88 -50.66)"/><g id="Padlock"><path class="cls-3" d="M201.88,205.13a2.88,2.88,0,0,0-1.7-2.36l-3.34-1.93a9.05,9.05,0,0,0-8.19,0l-30.23,17.45a2.88,2.88,0,0,0-1.7,2.37h0v39.93h0a2.87,2.87,0,0,0,1.7,2.37l3.33,1.93a9.05,9.05,0,0,0,8.19,0l30.23-17.45a2.88,2.88,0,0,0,1.7-2.36h0V205.13Z" transform="translate(-19.88 -50.66)"/><path class="cls-16" d="M161.76,224.95,158.43,223c-2.26-1.31-2.26-3.42,0-4.73l30.23-17.45a9.05,9.05,0,0,1,8.19,0l3.34,1.93c2.26,1.31,2.26,3.42,0,4.73L170,224.95A9.05,9.05,0,0,1,161.76,224.95Z" transform="translate(-19.88 -50.66)"/><path class="cls-4" d="M165.86,225.93v39.94a8.35,8.35,0,0,1-4.1-1L158.42,263a2.85,2.85,0,0,1-1.69-2.37V220.66a2.86,2.86,0,0,0,1.69,2.36l3.34,1.93A8.35,8.35,0,0,0,165.86,225.93Z" transform="translate(-19.88 -50.66)"/><g id="_Group_9" data-name="&lt;Group&gt;"><path id="_Path_19" data-name="&lt;Path&gt;" class="cls-9" d="M187.86,245.68l-7.22,4.17,1.12-13.06c-.86-.46-1.41-1.58-1.41-3.19,0-2.88,1.75-6.22,3.9-7.46s3.9.08,3.9,3a9.81,9.81,0,0,1-1.41,4.82Z" transform="translate(-19.88 -50.66)"/><polygon id="_Path_20" data-name="&lt;Path&gt;" class="cls-7" points="167.98 195.02 161.44 191.24 160.76 199.19 167.98 195.02"/><path id="_Path_21" data-name="&lt;Path&gt;" class="cls-7" d="M184.25,226.14a8.52,8.52,0,0,0-3.33,4.42l5.82,3.36h0a9.81,9.81,0,0,0,1.41-4.82C188.15,226.21,186.41,224.89,184.25,226.14Z" transform="translate(-19.88 -50.66)"/></g><path class="cls-2" d="M193.71,206h0V190c0-4.95-1.87-8.86-5.13-10.74s-7-1.55-10.83.68c-7.12,4.11-12.69,14.14-12.69,22.83v16.05h0a1.63,1.63,0,0,0,1,1.33,5.1,5.1,0,0,0,4.62,0,1.63,1.63,0,0,0,1-1.33h0V202.82c0-6.36,4.32-14.22,9.43-17.17,1.74-1,3.31-1.26,4.3-.68,1.16.67,1.86,2.57,1.86,5.08v16h0a1.63,1.63,0,0,0,1,1.32,5.1,5.1,0,0,0,4.62,0,1.63,1.63,0,0,0,1-1.32h0Z" transform="translate(-19.88 -50.66)"/></g></g></g><g id="Key"><g id="Key-2" data-name="Key"><g id="_Group_10" data-name="&lt;Group&gt;"><polyline id="_Path_22" data-name="&lt;Path&gt;" class="cls-21" points="212.69 225.54 217.09 223 218.83 220.89 214.43 223.43 212.69 225.54"/><polyline id="_Path_23" data-name="&lt;Path&gt;" class="cls-11" points="212.69 225.54 217.09 223 218.83 220.89 214.43 223.43 212.69 225.54"/></g><g id="_Group_11" data-name="&lt;Group&gt;"><polyline id="_Path_24" data-name="&lt;Path&gt;" class="cls-21" points="224.66 232.46 229.06 229.92 232.74 226.66 228.34 229.2 224.66 232.46"/><polyline id="_Path_25" data-name="&lt;Path&gt;" class="cls-11" points="224.66 232.46 229.06 229.92 232.74 226.66 228.34 229.2 224.66 232.46"/></g><path id="_Compound_Path_2" data-name="&lt;Compound Path&gt;" class="cls-3" d="M282,291.9a9.38,9.38,0,0,1,1.82,4.79A9.38,9.38,0,0,1,282,291.9Zm10.23.13c-1.48-10.08-6.9-20.05-13.35-23.78-3.1-1.79-6-1.86-8.26-.51l-4.15,2.39-.23.14a6.07,6.07,0,0,0-.53.34,7.45,7.45,0,0,0-1,.79l-.14.13c-.13.13-.26.27-.38.42s-.3.35-.44.54a10.2,10.2,0,0,0-.81,1.24c-.12.22-.25.45-.36.69l-36.19-20.89-4.4,2.53v2.8l.38.22.35.2v.59l-.72.42v1.63l5.31,11.25,5.26,3,1.75-2.12,4.64,2.77,2.66,4.56,2.93,1.69,3.68-3.26,4.51,2.61,1.52,6.25,7.56,4.36a41.62,41.62,0,0,0,1.43,4.7c.05.16.11.32.17.49,2.51,6.61,6.51,12.26,11,14.87a11.69,11.69,0,0,0,1.7.82,8.59,8.59,0,0,0,.95.32,7.1,7.1,0,0,0,.85.19,7.26,7.26,0,0,0,2.68,0l.37-.09a3.2,3.2,0,0,0,.51-.15l.39-.15a2.94,2.94,0,0,0,.4-.19l.38-.2.19-.11.09-.05,4.15-2.39c3.34-1.94,5.51-6.84,5.51-13.77A36.1,36.1,0,0,0,292.18,292Z" transform="translate(-19.88 -50.66)"/><path id="_Compound_Path_3" data-name="&lt;Compound Path&gt;" class="cls-3" d="M280.66,300.4c-1.74-1-3.14-4-3.14-6.65s1.41-4,3.14-3,3.14,4,3.14,6.65S282.4,301.4,280.66,300.4Zm7.12-5.84c-1.48-10.07-6.9-20-13.35-23.77-3-1.73-5.76-1.86-8-.66l-.23.14a6.07,6.07,0,0,0-.53.34,7.45,7.45,0,0,0-1,.79l-.14.13c-.13.13-.26.27-.38.42s-.3.35-.44.54a10.2,10.2,0,0,0-.81,1.24c-.12.22-.25.45-.36.69a17.39,17.39,0,0,0-1.39,4.27L222,256.05v2.8l.38.22.35.2v.59l-.72.42v1.63l5.31,11.25,5.26,3,1.75-2.12,4.64,2.77,2.66,4.56,2.93,1.69,3.68-3.26,4.51,2.61,1.52,6.25,7.56,4.36a41.62,41.62,0,0,0,1.43,4.7c.05.16.11.32.17.49,2.51,6.61,6.51,12.26,11,14.87a11.69,11.69,0,0,0,1.7.82,8.59,8.59,0,0,0,.95.32,7.1,7.1,0,0,0,.85.19,7.26,7.26,0,0,0,2.68,0l.37-.09a3.2,3.2,0,0,0,.51-.15l.39-.15a2.94,2.94,0,0,0,.4-.19l.38-.2.19-.11.09-.05c3.21-2,5.26-6.85,5.26-13.62A37.29,37.29,0,0,0,287.79,294.57Z" transform="translate(-19.88 -50.66)"/><path id="_Path_26" data-name="&lt;Path&gt;" class="cls-11" d="M283.81,297.37c0,2.67-1.41,4-3.14,3s-3.15-4-3.15-6.65,1.41-4,3.15-3A4.45,4.45,0,0,1,282,291.9a9.44,9.44,0,0,0,1.82,4.79A5.53,5.53,0,0,1,283.81,297.37Z" transform="translate(-19.88 -50.66)"/><path id="_Path_27" data-name="&lt;Path&gt;" class="cls-16" d="M292.59,297.37c0,6.93-2.17,11.84-5.51,13.77l-4.15,2.39c3.21-2,5.26-6.85,5.26-13.62a37.29,37.29,0,0,0-.4-5.34c-1.48-10.07-6.9-20-13.35-23.77-3-1.73-5.76-1.86-8-.66l4.15-2.39c2.3-1.34,5.16-1.28,8.26.51,6.46,3.73,11.87,13.7,13.35,23.78A36.1,36.1,0,0,1,292.59,297.37Z" transform="translate(-19.88 -50.66)"/><g id="_Group_12" data-name="&lt;Group&gt;"><path id="_Path_28" data-name="&lt;Path&gt;" class="cls-3" d="M288.19,299.91c0,6.77-2.06,11.6-5.26,13.62l4.15-2.39c3.34-1.94,5.51-6.84,5.51-13.77,0-.26,0-.51,0-.77l-4.4,2.54C288.18,299.39,288.19,299.65,288.19,299.91Z" transform="translate(-19.88 -50.66)"/><path id="_Path_29" data-name="&lt;Path&gt;" class="cls-4" d="M288.19,299.91c0,6.77-2.06,11.6-5.26,13.62l4.15-2.39c3.34-1.94,5.51-6.84,5.51-13.77,0-.26,0-.51,0-.77l-4.4,2.54C288.18,299.39,288.19,299.65,288.19,299.91Z" transform="translate(-19.88 -50.66)"/></g><g id="_Group_13" data-name="&lt;Group&gt;"><polygon id="_Path_30" data-name="&lt;Path&gt;" class="cls-20" points="241.46 230.91 241.46 232.34 202.12 209.62 202.84 209.21 202.84 208.61 241.46 230.91"/><polygon id="_Path_31" data-name="&lt;Path&gt;" class="cls-20" points="241.46 231.5 241.46 232.34 202.12 209.62 202.84 209.21 202.84 209.2 241.46 231.5"/></g><path id="_Path_32" data-name="&lt;Path&gt;" class="cls-22" d="M263,285.35c0,9.74,5.13,20.6,11.45,24.25s11.45-1.28,11.45-11-5.13-20.6-11.45-24.25S263,275.61,263,285.35Z" transform="translate(-19.88 -50.66)"/><path id="_Path_33" data-name="&lt;Path&gt;" class="cls-23" d="M262.58,274.41a17.39,17.39,0,0,0-1.39,4.27L222,256.05l4.4-2.53Z" transform="translate(-19.88 -50.66)"/></g></g><g id="Character"><g id="Character-2" data-name="Character"><g id="_Group_14" data-name="&lt;Group&gt;"><path class="cls-8" d="M412,385c.15,1.37.34,5.21,7.3,6.16s11.35-1.35,13.2-4.69,1.43-6.08,1.73-9.18,2.86-4.75,3.6-6.35c1.08-2.35-.5-6-.5-6Z" transform="translate(-19.88 -50.66)"/><path class="cls-8" d="M361.17,374.14a4.21,4.21,0,0,0,.45,3.37c.54.67,5.37,3.91,11.15,3a26.85,26.85,0,0,0,11.81-4.63,15.56,15.56,0,0,1,9.11-2.63c3.35-.11,5.8-.86,6.05-1.74.45-1.54.44-2.52-.29-2.47Z" transform="translate(-19.88 -50.66)"/><path id="_Path_34" data-name="&lt;Path&gt;" class="cls-24" d="M435.66,359.58c-.87,6.34-13.18,5.83-12.18.76l-2.2-15.41,13.93.43Z" transform="translate(-19.88 -50.66)"/><path class="cls-7" d="M412.46,381.88c.62-1.14,2.41-2.79,3.2-3.82a34.43,34.43,0,0,0,7.24-18.46c0-.37.07-1.1.45-1.32s.75.09,1.15.26l0,0v0a7.33,7.33,0,0,0,2.16.56c2.47.28,5.19-.32,5.81-.23s.63,1.55.59,3.15c.88-.55,1.16-1.65,2-2.3.43-.35.61-.36.6-.93,0-.37,0-.71,0-1.08.63-.19,1.16,2.24,1.68,4.09.6,2.14,1.35,4.56.51,6.74a18.51,18.51,0,0,1-2,3.36,13.93,13.93,0,0,0-2.53,6.16c-.09,1,0,2-.16,2.94a8.61,8.61,0,0,1-6.07,7.07c-4.24,1.33-10.62,1.12-14.36-1.85C411.4,385.21,411.84,383,412.46,381.88Z" transform="translate(-19.88 -50.66)"/><path id="_Path_35" data-name="&lt;Path&gt;" class="cls-24" d="M396.62,358.52c-3.37,2.62-7.44,4.16-11.59,2.27l-1-25.93,14,2.51Z" transform="translate(-19.88 -50.66)"/><path class="cls-7" d="M364,369.66q1.39-.44,2.74-1A50.22,50.22,0,0,0,374,365q1.54-.93,3-2c1-.72,2-1.52,3-2.32a10.5,10.5,0,0,0,1.42-1.52,15.41,15.41,0,0,0,2.09-3.38,1.28,1.28,0,0,1,.52-.69,1,1,0,0,1,1,.2,4.59,4.59,0,0,0,.77.52l.82.34a9.29,9.29,0,0,0,2.74.67c3.53.32,3.65-.39,3.8.75a8.06,8.06,0,0,1,0,1.28c1.87-.31,3.34-.91,3.42-1.62l.23-2.26c1.86-.17,2,3.16,2.59,6.9.49,3,1.22,5.22.39,7.44-2.81,2.46-7.77,1.86-10.6,2.33-4,.66-5.86,3.62-11.42,5.54-9,3.1-14.61-.48-16.29-2C360.39,373.23,360.17,370.88,364,369.66Z" transform="translate(-19.88 -50.66)"/><path id="_Path_36" data-name="&lt;Path&gt;" class="cls-8" d="M431.73,205.18c.71,11,2,27.12,2.45,39.82.84,23.89.52,51.11.52,51.11a82.58,82.58,0,0,1,2.57,15.31c.57,15.26.46,49.52.46,49.52s-6.32,6.37-15.79,1.37c0,0-8.38-48-10.73-63.08-2.24-14.34-6.61-43-6.61-43l-2,40.72a62.85,62.85,0,0,1,1.49,19.55c-.51,7-4.5,41.51-4.5,41.51-3.64,3.41-14.24,1.56-16.56-1.16,0,0-3.71-51-4.13-58.38-.89-15.94-3.26-75.34-2.08-84.57S431.73,205.18,431.73,205.18Z" transform="translate(-19.88 -50.66)"/><path d="M404.6,256.18l-2.78-18.38s-7.64-1.45-13.21-5.58c0,0,2.17,4.91,10.61,8.41L402,257.75l.66,39.16Z" transform="translate(-19.88 -50.66)"/></g><g id="_Group_15" data-name="&lt;Group&gt;"><path class="cls-8" d="M420.19,131.43c.51,2.07,4,1.75,5.56,1.37a3.88,3.88,0,0,0,3.06-4.12,4.27,4.27,0,0,0,2-1.25A3,3,0,0,0,431,124a4.23,4.23,0,0,0,1.74-4,4.69,4.69,0,0,0-1.72-2.81,4.92,4.92,0,0,0-3.07-1.09c-.36.05-.72.73-.2.78a5.34,5.34,0,0,1,2.23,1,4.3,4.3,0,0,1,1.52,1.92,3.15,3.15,0,0,1-1.08,3.44,4.8,4.8,0,0,0-.61-.63,3.53,3.53,0,0,0-2.53-.9,1.81,1.81,0,0,0-1.67,1c-.24.78.57,1.44,1.17,1.79a3.56,3.56,0,0,0,2.89.26l.23-.1c.05.11.1.21.14.32.54,1.44-.33,2.33-1.51,2.72-.7-1.46-2.62-2.54-4.17-1.77A1.29,1.29,0,0,0,424,128a3.4,3.4,0,0,0,2.36.94,7.26,7.26,0,0,0,1.21,0,2.63,2.63,0,0,1-.42,1.84,3.68,3.68,0,0,1-2.9,1.23,4.72,4.72,0,0,1-3.43-1.09C420.53,130.67,420.11,131.12,420.19,131.43Zm9.13-7.68a2.29,2.29,0,0,1-1.93-.31c-.42-.28-.88-.69-.14-.75A2.63,2.63,0,0,1,429.32,123.75Zm-2.09,4.15a4.44,4.44,0,0,1-1.27-.11c-.3-.08-1.6-.74-.94-1,.52-.23,1.41.28,1.77.61A2.36,2.36,0,0,1,427.23,127.9Z" transform="translate(-19.88 -50.66)"/><g id="_Group_16" data-name="&lt;Group&gt;"><path class="cls-8" d="M422.62,92.75s.25,0,.65.14a3,3,0,0,1,1.6-3.37,3.22,3.22,0,0,1,4.15,1.7l-4.53,2.07a6.32,6.32,0,0,1,3.45,2.94c1.24,2.55-.39,8-2,14.7a94.82,94.82,0,0,1-3.65,12.43c-.76,2-2.13,2-2.13,2v-6.7l.29-5.55s-3.56-4.86-4-8.85c-.5-5.13.58-7.23.58-7.23Z" transform="translate(-19.88 -50.66)"/><circle class="cls-8" cx="397.96" cy="98.28" r="11.29" transform="translate(278.5 445.26) rotate(-89.81)"/><path id="_Path_37" data-name="&lt;Path&gt;" class="cls-24" d="M420.19,112.24c1.34,1.16,2.43-1.84,3.55-3s4.8-2.76,6.61,1.09-1.68,9.27-4.42,10.54c-4,1.86-5.82-2.19-5.82-2.19v16.75c-4.23,7.63-13.39,5.84-17.71,6.91a9.61,9.61,0,0,1,0-6l0-5.46a20.24,20.24,0,0,1-5.53.3c-3.66-.58-5.61-3.59-6.71-7.55-1.76-6.36-2.12-17,.32-29.4C394.58,91.08,408.43,91.6,417,97,416.4,108,418.85,111.08,420.19,112.24Z" transform="translate(-19.88 -50.66)"/><path id="_Path_38" data-name="&lt;Path&gt;" class="cls-25" d="M402.41,130.91s8.17-1.62,11-3.13a9.4,9.4,0,0,0,4-3.89,12.86,12.86,0,0,1-2.26,4.6c-2.1,2.66-12.73,4.59-12.73,4.59Z" transform="translate(-19.88 -50.66)"/><path class="cls-8" d="M384.89,105.63a3.3,3.3,0,0,0,.75,1.76,1.66,1.66,0,0,1,.3.63,31.18,31.18,0,0,0,1,4.72,5.19,5.19,0,0,0,5,3.44,6.87,6.87,0,0,0,1.72-.11l.14,0a5,5,0,0,0,1.41-.52.31.31,0,0,1,.09,0l.12-.07.15-.11a.55.55,0,0,0,.14-.1.79.79,0,0,0,.16-.12l.15-.12.28-.27a6.65,6.65,0,0,0,1.16-1.77c.76-1.62.61-3.93,1.82-4.17l.15,0h.16c1.64.06,1.4,2.56,2.27,4.36a6.1,6.1,0,0,0,5.9,3.7h.45l.37,0a5.73,5.73,0,0,0,.85-.1l.27-.06.26-.06.16,0a5.48,5.48,0,0,0,1-.43l.33-.21a5.15,5.15,0,0,0,1.66-2.13,28.86,28.86,0,0,0,1.07-4.64,1.86,1.86,0,0,1,.28-.68,3.19,3.19,0,0,0,.82-1.66,1.45,1.45,0,0,0-1-1.5l-.86-.14c-2.79-.39-6.43-.61-8.62-.06-2.75.69-3.73,1.55-5.25,1.5s-2.32-1-4.91-1.89c-2.05-.71-5.46-.75-8.07-.57l-.81.06C385.33,104.21,384.85,104.88,384.89,105.63Zm18,2.07a2.39,2.39,0,0,1,.79-.61.82.82,0,0,1,.15-.07l.07,0,.39-.17.36-.14a10.27,10.27,0,0,1,1.18-.34l.47-.1c.39-.07.8-.14,1.2-.17h.28c2.63-.16,4.27.49,4.84,1s.28,3,0,4.23c0,0,0,.06,0,.09a.29.29,0,0,1,0,.1,4.87,4.87,0,0,1-.12.49,2.86,2.86,0,0,1-.09.31h0c-.06.17-.12.34-.2.52a.71.71,0,0,1-.07.17.43.43,0,0,1,0,.11l0,.11-.07.15c0,.06-.06.11-.1.16a.82.82,0,0,1-.11.17l-.11.17a4.16,4.16,0,0,1-3.71,1.67A5.12,5.12,0,0,1,404,114a5.4,5.4,0,0,1-1.23-2.52C402.47,110.05,402.31,108.43,402.84,107.69Zm-15.46-1.59a2,2,0,0,1,.65-.39.06.06,0,0,1,0,0l.28-.11.17,0,.15,0,.1,0h0l.15,0a4.46,4.46,0,0,1,.6-.09l.33,0H391a11.53,11.53,0,0,1,1.22.14c1.87.31,3.81,1.22,4.3,2s.36,2.37.09,3.75a7,7,0,0,1-.26.91.18.18,0,0,0,0,.07l0,.1s0,0,0,.06l0,.11-.11.22c0,.06-.06.12-.1.2l0,.06-.09.14-.07.11h0a4.13,4.13,0,0,1-3.95,1.71,4.58,4.58,0,0,1-2-.52c-1.84-1-2.27-3.09-2.48-4.06C387.13,109.08,386.82,106.62,387.39,106.11Z" transform="translate(-19.88 -50.66)"/><path class="cls-8" d="M414.1,105.3l12,2.69a5.16,5.16,0,0,0-2.75,1.78L414.09,108Z" transform="translate(-19.88 -50.66)"/><path class="cls-7" d="M387.39,110.34c.21,1,.64,3.07,2.48,4.06a4.58,4.58,0,0,0,2,.52,4.13,4.13,0,0,0,3.95-1.71h0l.07-.11.09-.14,0-.06c0-.07.07-.14.1-.2l.11-.22,0-.11s0,0,0-.06l0-.1a.18.18,0,0,1,0-.07,7,7,0,0,0,.26-.91c.27-1.38.42-3-.09-3.75s-2.43-1.7-4.3-2a11.53,11.53,0,0,0-1.22-.14h-1.07l-.33,0a4.46,4.46,0,0,0-.6.09l-.15,0h0l-.1,0-.15,0-.17,0-.28.11a.06.06,0,0,0,0,0,2,2,0,0,0-.65.39C386.82,106.62,387.13,109.08,387.39,110.34Z" transform="translate(-19.88 -50.66)"/><path class="cls-7" d="M402.77,111.44A5.4,5.4,0,0,0,404,114a5.12,5.12,0,0,0,3.86,1.56,4.16,4.16,0,0,0,3.71-1.67l.11-.17a.82.82,0,0,0,.11-.17s.06-.1.1-.16l.07-.15,0-.11a.43.43,0,0,0,0-.11.71.71,0,0,0,.07-.17c.07-.17.14-.34.2-.52h0a2.86,2.86,0,0,0,.09-.31,4.87,4.87,0,0,0,.12-.49.29.29,0,0,0,0-.1s0-.06,0-.09c.27-1.23.6-3.66,0-4.23s-2.21-1.2-4.84-1h-.28c-.41,0-.81.1-1.2.17l-.47.1a10.27,10.27,0,0,0-1.18.34l-.36.14-.39.17-.07,0a.82.82,0,0,0-.15.07,2.39,2.39,0,0,0-.79.61C402.31,108.43,402.47,110.05,402.77,111.44Z" transform="translate(-19.88 -50.66)"/><path class="cls-8" d="M387.71,85.51q0-.21.05-.41a1.25,1.25,0,0,1,.27-.71c.55-.57,1.65.86,2,1.2a14.82,14.82,0,0,0,1.17.92,8.2,8.2,0,0,1,1.1.66,11.71,11.71,0,0,1,0-4.12c.16-.9.42-3,1.53-3.21.66-.13,1.24.42,1.74.88,4.47,4.18,10.3,2.25,15.69,2.42,4.5.14,9.94,2,12,6.35.93,2,1.09,4.11-.75,5.5-1.19.89-2.35.85-3,2.28-.16.35-1.19,4.61-.58,4.57a4.69,4.69,0,0,1-5-3.43c-.11-.47-.36-1.31-.46-1.79a1,1,0,0,0-1.29-.78c-1.37.29-2.26.85-3.55,1.21a25.9,25.9,0,0,1-11.34.67,13.44,13.44,0,0,1-7.12-3.82A10.68,10.68,0,0,1,387.71,85.51Z" transform="translate(-19.88 -50.66)"/></g><g id="_Group_17" data-name="&lt;Group&gt;"><path id="_Path_39" data-name="&lt;Path&gt;" class="cls-8" d="M405.28,103.09l3.95.61a2.1,2.1,0,0,0-1.72-2.34A2,2,0,0,0,405.28,103.09Z" transform="translate(-19.88 -50.66)"/><path id="_Path_40" data-name="&lt;Path&gt;" class="cls-25" d="M404.36,121.47l-3.33.86a1.69,1.69,0,0,0,2.06,1.29A1.8,1.8,0,0,0,404.36,121.47Z" transform="translate(-19.88 -50.66)"/><path id="_Path_41" data-name="&lt;Path&gt;" class="cls-8" d="M390.3,103.32l4-.44a1.93,1.93,0,0,0-2.15-1.81A2.12,2.12,0,0,0,390.3,103.32Z" transform="translate(-19.88 -50.66)"/><path id="_Path_42" data-name="&lt;Path&gt;" class="cls-25" d="M400,108.82l-.54,9.33-5.2-1.36,5.18-8.08A1.28,1.28,0,0,1,400,108.82Z" transform="translate(-19.88 -50.66)"/></g><circle class="cls-8" cx="404.9" cy="64.64" r="2.43"/><path class="cls-8" d="M422.08,110.85a5.31,5.31,0,0,1,1.08-2,2.47,2.47,0,0,1,1.93-.66s.07.08,0,.11c-.27.16-.46.24-.73.43a4.55,4.55,0,0,0-.75.63,2.88,2.88,0,0,0-.47.76,3.36,3.36,0,0,0-.28,1,3.1,3.1,0,0,0,.23,1.6,2.65,2.65,0,0,0,.46.76,2.78,2.78,0,0,1,.54.6c.15.31-.28.84-.61.66a3.65,3.65,0,0,1-1.44-4Z" transform="translate(-19.88 -50.66)"/></g><path class="cls-9" d="M387.42,144.07c-3.38,2.21-8,5.09-9.19,8.22s-4.43,21.28-4.8,27.13a29.84,29.84,0,0,0,9.5,2.68Z" transform="translate(-19.88 -50.66)"/><path class="cls-7" d="M427.35,135.42c8.56,4.69,17,11.72,18.82,14.42,0,0-5,16.67-9.41,24.58s-6.77,31.3-6.77,31.3-30.16,10-39.61,10.79-10.65-3.23-10.65-3.23-.2-26.14,2-43.6,1.72-22.64,5.72-25.6c2.59-1.92,13.75-6.75,13.75-6.75v5C407.3,142.44,427.35,135.42,427.35,135.42Z" transform="translate(-19.88 -50.66)"/><path class="cls-21" d="M398.85,145a6.71,6.71,0,0,1-.64-3.65l2.52-1.83,0,3.18Z" transform="translate(-19.88 -50.66)"/><path class="cls-26" d="M398.85,145a6.71,6.71,0,0,1-.64-3.65l2.52-1.83,0,3.18Z" transform="translate(-19.88 -50.66)"/><polygon class="cls-21" points="383.87 92.41 390.39 88.69 395.29 92.57 385.39 96.68 383.87 92.41"/><polygon class="cls-26" points="383.87 92.41 390.39 88.69 395.29 92.57 385.39 96.68 383.87 92.41"/><path class="cls-9" d="M420.11,128.34v1.32c-.25,1.25-2.71,4.15-8.92,6.94s-8.79,5.75-8.79,5.75a16.09,16.09,0,0,1,4.92.91c2.83,1,7.52,4.6,8.87,4.56s3.19-3.74,6.71-7.43c3-3.1,4.46-5,4.46-5S422.53,128.37,420.11,128.34Z" transform="translate(-19.88 -50.66)"/><path class="cls-9" d="M402.4,142.34c-2.25.25-4.36,1.81-4.91,1s1.36-8.34,4.89-10.62Z" transform="translate(-19.88 -50.66)"/><path class="cls-25" d="M380.6,181.8s-.28,4.67-.35,6.27,2.61,29,2.61,29l-9.43,4s-1.14-10.56-1.51-16.45a95.58,95.58,0,0,1,.81-18.13c.74-5,1-6.92,1-6.92A34.92,34.92,0,0,0,380.6,181.8Z" transform="translate(-19.88 -50.66)"/><path class="cls-24" d="M374.2,234.46s0,.42,0,2a36.08,36.08,0,0,0,1.57,7.78c.59,1.48,2,4.73,2.74,5.11a3.54,3.54,0,0,0,2.3.41c1.49-.14,3.05.63,4.46,0a8.65,8.65,0,0,1,1.66-.76c.88-.21,1.88.05,2.66-.41.5-.29.81-.83,1.3-1.13.72-.44,1.67-.28,2.44-.63a2.52,2.52,0,0,0,1.27-1.52c.44-1.32,0-2.8-.26-4.13a3.67,3.67,0,0,0,.68-2.24,19.63,19.63,0,0,0-.59-5.06c-.34-1-7.17-4.89-7.17-4.89l-1.35-.89a11.49,11.49,0,0,0-8.4,1.35C373.55,232,374.2,234.46,374.2,234.46Z" transform="translate(-19.88 -50.66)"/><path class="cls-25" d="M376,234.27c-1.81,3-.74,8.41-.74,8.47a33.13,33.13,0,0,1-1.1-6.26c0-1.6,0-2,0-2s-.65-2.5,3.32-5a11.49,11.49,0,0,1,8.4-1.35S377.86,231.24,376,234.27Z" transform="translate(-19.88 -50.66)"/><path class="cls-25" d="M394.35,241.15a16.88,16.88,0,0,0-2.91-5.37c-.76-.71-1.39-1.59-.63-1.3s1.81.47,2.24-.06.51.4,0,1.11-.08,1.27.46,2.45A12.18,12.18,0,0,1,394.35,241.15Z" transform="translate(-19.88 -50.66)"/><path class="cls-24" d="M443.56,150.17c2.85,1,3.23,8.8,2.61,15.79s-6.08,23.55-8.57,29.32c-2.79,6.46-4.49,10.2-6.34,12.23s-5.75,3.69-10.72,6.27c-4.51,2.34-7.59,3.51-15.26,5.9-8.66,2.69-12,2.85-13.84,4.14s-2.36,4.09-4.17,5.14l-1.35-.89a29.07,29.07,0,0,0-8.61,3.59,11.92,11.92,0,0,0-3.1,2.79v2s-2.19.93-4.05-3-2.72-9.8-.57-12.37S378.5,215,384,213.28s8.23-3.52,14.65-7.4c6.84-4.13,11.58-6.88,15-8.74,1.3-.75,2.17-1.66,2.74-4,.46-1.89,1.83-7.45,2.67-11.62C420.4,174.53,423.41,153.39,443.56,150.17Z" transform="translate(-19.88 -50.66)"/><path class="cls-9" d="M446.17,149.84s1.33.23,1.51,5.77a84.94,84.94,0,0,1-.76,15.69c-.72,4.25-5,16.81-5,16.81s-12.27,4-24.83-.78c0,0,3-18.1,4.06-22.9S437.82,144.82,446.17,149.84Z" transform="translate(-19.88 -50.66)"/><path class="cls-3" d="M402.75,150.2c-.7,4.5-1.67,15.19-1.67,30.28,0,3.7-5.4,11.21-6.67,11s-3.6-7.22-3.93-11.32c.51-9.92,6.51-25.31,9.13-30.57Z" transform="translate(-19.88 -50.66)"/><path class="cls-20" d="M399.42,150.07l.2-.43,3.14.56-.19,1.32A5.44,5.44,0,0,1,399.42,150.07Z" transform="translate(-19.88 -50.66)"/><path class="cls-3" d="M403.75,143.07a13.51,13.51,0,0,0-3-.36,7.13,7.13,0,0,0-1.92,2.3,10.83,10.83,0,0,0,.77,4.63,3.8,3.8,0,0,0,3.14.56,6.64,6.64,0,0,0,2.51-2.86A6,6,0,0,0,403.75,143.07Z" transform="translate(-19.88 -50.66)"/></g></g></svg>