<svg id="Layer_1" data-name="Layer 1" xmlns="http://www.w3.org/2000/svg" viewBox="0 0 403.49 329.74"><defs><style>.cls-1{fill:#29969b;}.cls-1,.cls-23,.cls-34{opacity:0.5;}.cls-2{fill:#d83030;}.cls-3{fill:#e93b3b;}.cls-4{fill:#ff5252;}.cls-5{fill:#fab234;}.cls-6{fill:#f79826;}.cls-7{fill:#ffc943;}.cls-8{fill:#fddb6f;}.cls-9{fill:#ffe499;}.cls-10{fill:#f4a300;}.cls-11{fill:#703434;}.cls-12{fill:#7fa0dd;}.cls-13{fill:#824545;}.cls-14{fill:#6382c6;}.cls-15{fill:#602b2b;}.cls-16{fill:#441c1c;}.cls-17{fill:#efe8eb;}.cls-18{fill:#ffad97;}.cls-19{fill:#ffc5b3;}.cls-20{fill:#fff;}.cls-21,.cls-23{fill:#b59eab;}.cls-22{fill:#eadce1;}.cls-24{fill:#9b8790;}.cls-25{fill:#ddccd3;}.cls-26{fill:#f7f0f3;}.cls-27,.cls-34{fill:#c1aeb6;}.cls-28{fill:#d8cbd1;}.cls-29{fill:#4b70b2;}.cls-30{fill:#ffc36c;}.cls-31{fill:#fc8;}.cls-32{fill:#ffb240;}.cls-33{fill:#ffdc5a;}.cls-35{fill:#40c1bd;}.cls-36{fill:#2ca8a8;}.cls-37{fill:#1f9390;}.cls-38{fill:#442020;}.cls-39{fill:#ccb8c1;}.cls-40{fill:#43439b;}.cls-41{fill:#147c77;}.cls-42{fill:#0156bd;}</style></defs><title>sellers</title><path class="cls-1" d="M407.66,203.93c-27.51,0-49.82,12.55-49.82,28a16.69,16.69,0,0,0,1.48,6.79c-4.58,1.94-7.55,5-7.55,8.5,0,5.88,8.47,10.65,18.92,10.65a29.71,29.71,0,0,0,11-2,80.45,80.45,0,0,0,25.95,4.1c27.51,0,49.82-12.55,49.82-28S435.17,203.93,407.66,203.93Z" transform="translate(-53.99 -34.94)"/><path class="cls-1" d="M164.59,346.28c7.08-5.48,11.26-12.21,11.26-19.5,0-18.33-26.4-33.19-59-33.19s-59,14.86-59,33.19,26.4,33.19,59,33.19a101.92,101.92,0,0,0,17.58-1.5c3,3.66,9.55,6.21,17.18,6.21,10.45,0,18.92-4.77,18.92-10.65C170.56,351,168.26,348.22,164.59,346.28Z" transform="translate(-53.99 -34.94)"/><ellipse class="cls-1" cx="89.79" cy="196.88" rx="17.68" ry="9.95"/><ellipse class="cls-1" cx="157.87" cy="97" rx="18.78" ry="10.57"/><ellipse class="cls-1" cx="44.85" cy="202.08" rx="17.68" ry="9.95"/><ellipse class="cls-1" cx="122.94" cy="204.77" rx="12.87" ry="7.24"/><ellipse class="cls-1" cx="151.19" cy="188.5" rx="19.75" ry="11.11"/><ellipse class="cls-1" cx="269.94" cy="162.75" rx="19.75" ry="11.11"/><ellipse class="cls-1" cx="224.06" cy="134.23" rx="13.14" ry="7.4"/><ellipse class="cls-1" cx="305.8" cy="119.64" rx="20.2" ry="11.37"/><path class="cls-1" d="M175.57,308.39l70.08,40.46c2.8,1.61,7.72,1.41,11-.45L373.19,281.1c3.23-1.86,3.58-4.71.79-6.32l-70.08-40.46c-2.8-1.61-7.72-1.41-11,.45L176.36,302.07C173.13,303.93,172.78,306.78,175.57,308.39Z" transform="translate(-53.99 -34.94)"/><polygon class="cls-1" points="127.85 134.57 120.08 130.09 85.84 149.85 72.97 142.42 34.2 164.8 47.07 172.23 0 199.41 7.77 203.9 54.84 176.72 70.62 185.83 109.39 163.45 93.61 154.34 127.85 134.57"/><polygon class="cls-1" points="388.04 138.37 335.92 108.36 345.74 102.68 397.86 132.69 388.04 138.37"/><polygon class="cls-1" points="181.2 113.07 201.03 101.85 195.31 98.55 175.48 109.77 181.2 113.07"/><polygon class="cls-2" points="339.89 20.03 354.18 0 367.4 35.92 360.53 31.95 360.53 101.45 346.77 93.5 346.77 24 339.89 20.03"/><polygon class="cls-2" points="360.53 113.69 355.23 116.64 355.23 34.89 360.53 31.95 360.53 113.69"/><polygon class="cls-3" points="334.59 22.97 348.88 2.94 362.11 38.86 355.23 34.89 355.23 116.64 341.47 108.69 341.47 26.95 334.59 22.97"/><polygon class="cls-4" points="348.88 2.94 354.18 0 367.4 35.92 362.11 38.86 348.88 2.94"/><path class="cls-5" d="M227.61,126h-2.31c-2.83-2.65-8-4.43-13.87-4.43s-11,1.78-13.86,4.43h-2.31v4.67a5.46,5.46,0,0,0,.57,2.36v-6.51h.63v7.57a8.32,8.32,0,0,0,.75.9v-6.7h.63v7.29a11.67,11.67,0,0,0,.94.74V130h.63v6.79a18.58,18.58,0,0,0,4.87,2.08v-6.92h.63V139l1.06.23v-6.71h.63v6.84l.94.14v-6.35h.63v6.44a28.15,28.15,0,0,0,6.21,0V132.3H215v7.29c.41-.05.82-.11,1.22-.18v-6.85h.63v6.72c.37-.07.74-.15,1.1-.24V132.2h.63v6.68a18.69,18.69,0,0,0,4.83-2V130H224v6.44a11.86,11.86,0,0,0,.94-.73v-7.36h.63v6.78a8.63,8.63,0,0,0,.75-.85v-7.69H227v6.67a5.51,5.51,0,0,0,.65-2.53Z" transform="translate(-53.99 -34.94)"/><path class="cls-6" d="M195.82,126.57v6.51a6.77,6.77,0,0,0,.63,1.07v-7.57Z" transform="translate(-53.99 -34.94)"/><path class="cls-6" d="M197.19,128.33V135c.19.2.41.39.63.58v-7.29Z" transform="translate(-53.99 -34.94)"/><path class="cls-6" d="M198.76,130v6.38c.2.14.41.28.63.41V130Z" transform="translate(-53.99 -34.94)"/><path class="cls-6" d="M226.33,126.57v7.69a7,7,0,0,0,.63-1v-6.67Z" transform="translate(-53.99 -34.94)"/><path class="cls-6" d="M225,128.33v7.36c.22-.19.43-.38.63-.58v-6.78Z" transform="translate(-53.99 -34.94)"/><path class="cls-6" d="M223.39,130v6.84c.21-.13.43-.26.63-.4V130Z" transform="translate(-53.99 -34.94)"/><path class="cls-6" d="M204.26,131.95v6.92l.63.17v-7.09Z" transform="translate(-53.99 -34.94)"/><path class="cls-6" d="M206,132.56v6.71l.63.13v-6.84Z" transform="translate(-53.99 -34.94)"/><path class="cls-6" d="M207.52,133.18v6.35l.63.09v-6.44Z" transform="translate(-53.99 -34.94)"/><path class="cls-6" d="M214.36,132.3v7.36l.63-.07V132.3Z" transform="translate(-53.99 -34.94)"/><path class="cls-6" d="M216.2,132.56v6.85l.63-.13v-6.72Z" transform="translate(-53.99 -34.94)"/><path class="cls-6" d="M217.93,132.2V139l.63-.17V132.2Z" transform="translate(-53.99 -34.94)"/><ellipse class="cls-7" cx="157.44" cy="91.09" rx="16.18" ry="9.11"/><ellipse class="cls-8" cx="157.44" cy="91.09" rx="12.86" ry="7.24"/><ellipse class="cls-9" cx="157.44" cy="90.98" rx="10.68" ry="6.01"/><ellipse class="cls-8" cx="157.44" cy="90.85" rx="9.35" ry="5.26"/><ellipse class="cls-9" cx="157.44" cy="90.57" rx="7.24" ry="4.08"/><path class="cls-10" d="M211.43,133.47c-7.2,0-13.06-3.34-13.06-7.44s5.86-7.44,13.06-7.44,13.06,3.34,13.06,7.44S218.63,133.47,211.43,133.47Zm0-14.48c-7,0-12.66,3.16-12.66,7s5.68,7,12.66,7,12.66-3.16,12.66-7S218.41,119,211.43,119Z" transform="translate(-53.99 -34.94)"/><polygon class="cls-6" points="158.48 90.41 148.38 96.18 147.79 95.84 157.9 90.07 158.48 90.41"/><polygon class="cls-6" points="159.54 92.12 155.95 94.19 155.43 93.81 158.95 91.78 159.54 92.12"/><polygon class="cls-6" points="157.72 86.58 154.79 88.27 154.26 87.9 157.23 86.18 157.72 86.58"/><path class="cls-6" d="M210.77,133.38l-.57-4.6-.78,0,.56,4.54Z" transform="translate(-53.99 -34.94)"/><path class="cls-6" d="M214.24,133.18l-.46-3.74-.78,0,.47,3.77Z" transform="translate(-53.99 -34.94)"/><polygon class="cls-6" points="157.29 86.63 167.88 87.07 167.29 86.6 157.23 86.18 157.29 86.63"/><path class="cls-6" d="M208.54,133l-.21-1.81-.77,0,.19,1.65Z" transform="translate(-53.99 -34.94)"/><path class="cls-6" d="M206.85,130.24c-.41.24-.36.66.12.93a1.79,1.79,0,0,0,1.61.07c.41-.24.36-.66-.12-.93A1.79,1.79,0,0,0,206.85,130.24Zm1.35.78a1,1,0,0,1-.91,0c-.27-.15-.3-.39-.06-.52a1,1,0,0,1,.91,0C208.4,130.65,208.43,130.89,208.2,131Z" transform="translate(-53.99 -34.94)"/><polygon class="cls-6" points="160.5 85.27 165.45 85.45 164.56 84.97 160.54 84.82 160.5 85.27"/><path class="cls-6" d="M212.79,119.35a1.79,1.79,0,0,1,1.61.07c.48.28.53.69.12.93a1.79,1.79,0,0,1-1.61-.07C212.43,120,212.38,119.59,212.79,119.35Zm1.35.78c.23-.13.2-.37-.06-.52a1,1,0,0,0-.91,0c-.23.13-.2.37.06.52A1,1,0,0,0,214.14,120.13Z" transform="translate(-53.99 -34.94)"/><path class="cls-6" d="M207.14,122.82c-.41.24-.36.66.12.93a1.79,1.79,0,0,0,1.61.07c.41-.24.36-.66-.12-.93A1.79,1.79,0,0,0,207.14,122.82Zm1.35.78a1,1,0,0,1-.91,0c-.27-.15-.3-.39-.06-.52a1,1,0,0,1,.91,0C208.69,123.23,208.72,123.47,208.49,123.6Z" transform="translate(-53.99 -34.94)"/><path class="cls-6" d="M212.91,126.08c-.41.24-.36.66.12.93a1.79,1.79,0,0,0,1.61.07c.41-.24.36-.66-.12-.93A1.79,1.79,0,0,0,212.91,126.08Zm1.35.78a1,1,0,0,1-.91,0c-.27-.15-.3-.39-.06-.52a1,1,0,0,1,.91,0C214.47,126.49,214.49,126.72,214.26,126.86Z" transform="translate(-53.99 -34.94)"/><polygon class="cls-6" points="160.72 89.4 157.94 91.01 156.93 90.43 159.71 88.82 160.72 89.4"/><polygon class="cls-6" points="154.25 90.75 146.81 95.05 146.32 94.66 153.67 90.41 154.25 90.75"/><polygon class="cls-6" points="157.04 89.39 154.26 90.99 153.25 90.41 156.03 88.8 157.04 89.39"/><polygon class="cls-6" points="162.29 93.22 159.56 94.83 159 94.47 161.71 92.88 162.29 93.22"/><polygon class="cls-6" points="165.08 91.86 162.3 93.46 161.29 92.88 164.07 91.27 165.08 91.86"/><path class="cls-6" d="M211.08,118.8l-5,2.9.59.34,5.58-3.22C211.92,118.76,211.39,118.84,211.08,118.8Z" transform="translate(-53.99 -34.94)"/><polygon class="cls-6" points="149.28 88.12 152.07 86.51 153.08 87.09 150.29 88.7 149.28 88.12"/><path class="cls-5" d="M232.38,117.21h-2.31c-2.83-2.65-8-4.43-13.87-4.43s-11,1.78-13.86,4.43H200v4.67a5.47,5.47,0,0,0,.57,2.36v-6.51h.63v7.57a8.37,8.37,0,0,0,.75.9v-6.7h.63v7.29a11.68,11.68,0,0,0,.94.74v-6.38h.63V128A18.58,18.58,0,0,0,209,130v-6.92h.63v7.09l1.06.23v-6.71h.63v6.84l.94.14v-6.35h.63v6.44a28.14,28.14,0,0,0,6.21,0v-7.36h.63v7.29c.41-.05.82-.11,1.22-.18v-6.85h.63v6.72c.37-.07.74-.15,1.1-.24v-6.85h.63V130a18.69,18.69,0,0,0,4.83-2v-6.84h.63v6.44a11.86,11.86,0,0,0,.94-.73v-7.36h.63v6.78a8.63,8.63,0,0,0,.75-.85v-7.69h.63v6.67a5.51,5.51,0,0,0,.65-2.53Z" transform="translate(-53.99 -34.94)"/><path class="cls-6" d="M200.59,117.74v6.51a6.83,6.83,0,0,0,.63,1.07v-7.57Z" transform="translate(-53.99 -34.94)"/><path class="cls-6" d="M202,119.51v6.7c.19.2.41.39.63.58v-7.29Z" transform="translate(-53.99 -34.94)"/><path class="cls-6" d="M203.54,121.16v6.38c.2.14.41.28.63.41v-6.79Z" transform="translate(-53.99 -34.94)"/><path class="cls-6" d="M231.1,117.74v7.69a7,7,0,0,0,.63-1v-6.67Z" transform="translate(-53.99 -34.94)"/><path class="cls-6" d="M229.73,119.51v7.36c.22-.19.43-.38.63-.58v-6.78Z" transform="translate(-53.99 -34.94)"/><path class="cls-6" d="M228.16,121.16V128c.21-.13.43-.26.63-.4v-6.44Z" transform="translate(-53.99 -34.94)"/><path class="cls-6" d="M209,123.12V130l.63.17v-7.09Z" transform="translate(-53.99 -34.94)"/><path class="cls-6" d="M210.72,123.73v6.71l.63.13v-6.84Z" transform="translate(-53.99 -34.94)"/><path class="cls-6" d="M212.29,124.35v6.35l.63.09v-6.44Z" transform="translate(-53.99 -34.94)"/><path class="cls-6" d="M219.13,123.47v7.36l.63-.07v-7.29Z" transform="translate(-53.99 -34.94)"/><path class="cls-6" d="M221,123.73v6.85l.63-.13v-6.72Z" transform="translate(-53.99 -34.94)"/><path class="cls-6" d="M222.7,123.37v6.85l.63-.17v-6.68Z" transform="translate(-53.99 -34.94)"/><ellipse class="cls-7" cx="162.21" cy="82.26" rx="16.18" ry="9.11"/><ellipse class="cls-8" cx="162.21" cy="82.26" rx="12.86" ry="7.24"/><ellipse class="cls-9" cx="162.21" cy="82.15" rx="10.68" ry="6.01"/><ellipse class="cls-8" cx="162.21" cy="82.02" rx="9.35" ry="5.26"/><ellipse class="cls-9" cx="162.21" cy="81.74" rx="7.24" ry="4.08"/><path class="cls-10" d="M216.2,124.65c-7.2,0-13.06-3.34-13.06-7.44s5.86-7.44,13.06-7.44,13.06,3.34,13.06,7.44S223.4,124.65,216.2,124.65Zm0-14.48c-7,0-12.66,3.16-12.66,7s5.68,7,12.66,7,12.66-3.16,12.66-7S223.18,110.17,216.2,110.17Z" transform="translate(-53.99 -34.94)"/><polygon class="cls-6" points="163.26 81.58 153.15 87.35 152.56 87.01 162.67 81.24 163.26 81.58"/><polygon class="cls-6" points="164.31 83.29 160.72 85.36 160.2 84.98 163.72 82.95 164.31 83.29"/><polygon class="cls-6" points="162.49 77.75 159.56 79.44 159.03 79.07 162 77.35 162.49 77.75"/><path class="cls-6" d="M215.54,124.56,215,120l-.78,0,.56,4.54Z" transform="translate(-53.99 -34.94)"/><path class="cls-6" d="M219,124.35l-.46-3.74-.78,0,.47,3.77Z" transform="translate(-53.99 -34.94)"/><polygon class="cls-6" points="162.06 77.8 172.65 78.24 172.07 77.77 162 77.35 162.06 77.8"/><path class="cls-6" d="M213.31,124.2l-.21-1.81-.77,0,.19,1.65Z" transform="translate(-53.99 -34.94)"/><path class="cls-6" d="M211.62,121.41c-.41.24-.36.66.12.93a1.79,1.79,0,0,0,1.61.07c.41-.24.36-.66-.12-.93A1.79,1.79,0,0,0,211.62,121.41Zm1.35.78a1,1,0,0,1-.91,0c-.27-.15-.3-.39-.06-.52a1,1,0,0,1,.91,0C213.17,121.82,213.2,122.06,213,122.19Z" transform="translate(-53.99 -34.94)"/><polygon class="cls-6" points="165.27 76.44 170.22 76.63 169.33 76.14 165.31 75.99 165.27 76.44"/><path class="cls-6" d="M217.57,110.52a1.79,1.79,0,0,1,1.61.07c.48.28.53.69.12.93a1.79,1.79,0,0,1-1.61-.07C217.2,111.18,217.15,110.76,217.57,110.52Zm1.35.78c.23-.13.2-.37-.07-.52a1,1,0,0,0-.91,0c-.23.13-.2.37.06.52A1,1,0,0,0,218.91,111.3Z" transform="translate(-53.99 -34.94)"/><path class="cls-6" d="M211.91,114c-.41.24-.36.66.12.93a1.79,1.79,0,0,0,1.61.07c.41-.24.36-.66-.12-.93A1.79,1.79,0,0,0,211.91,114Zm1.35.78a1,1,0,0,1-.91,0c-.27-.15-.3-.39-.06-.52a1,1,0,0,1,.91,0C213.46,114.41,213.49,114.64,213.26,114.77Z" transform="translate(-53.99 -34.94)"/><path class="cls-6" d="M217.69,117.25c-.41.24-.36.66.12.93a1.79,1.79,0,0,0,1.61.07c.41-.24.36-.66-.12-.93A1.79,1.79,0,0,0,217.69,117.25ZM219,118a1,1,0,0,1-.91,0c-.27-.15-.3-.39-.06-.52a1,1,0,0,1,.91,0C219.24,117.66,219.27,117.9,219,118Z" transform="translate(-53.99 -34.94)"/><polygon class="cls-6" points="165.49 80.57 162.71 82.18 161.7 81.6 164.48 79.99 165.49 80.57"/><polygon class="cls-6" points="159.03 81.92 151.58 86.22 151.09 85.83 158.44 81.58 159.03 81.92"/><polygon class="cls-6" points="161.82 80.56 159.03 82.17 158.02 81.58 160.81 79.97 161.82 80.56"/><polygon class="cls-6" points="167.06 84.39 164.33 86 163.78 85.64 166.48 84.05 167.06 84.39"/><polygon class="cls-6" points="169.85 83.03 167.07 84.64 166.06 84.05 168.84 82.44 169.85 83.03"/><path class="cls-6" d="M215.85,110l-5,2.9.59.34L217,110C216.7,109.93,216.17,110,215.85,110Z" transform="translate(-53.99 -34.94)"/><polygon class="cls-6" points="154.05 79.29 156.84 77.68 157.85 78.27 155.06 79.87 154.05 79.29"/><path class="cls-5" d="M249.28,114.42l.58-1.3-3.34-2h0a5.36,5.36,0,0,0-2.27-.68l5,2.91-.71.41-5.65-3.26a7.65,7.65,0,0,0-1.4.32l5.83,3.36-.71.41-6-3.44a11.2,11.2,0,0,0-1.07.54l-.15.1,6.28,3.63-.71.41-6.24-3.6a17.71,17.71,0,0,0-3.39,3.06l6.06,3.5-.71.41-5.8-3.35c-.21.25-.41.51-.61.78l5.18,3-.71.41-4.89-2.82c-.22.32-.43.64-.64,1l4.63,2.67-.71.41-4.3-2.48a28.66,28.66,0,0,0-2.65,5.82l6.49,3.75-.71.41-6-3.46c-.09.31-.18.62-.26.93l6.56,3.79-.71.41-6-3.48q-.14.61-.24,1.21l6.25,3.61-.71.41-5.67-3.27a21.43,21.43,0,0,0-.23,3.08c0,.54,0,1.06.07,1.56l7.14,4.12-.71.41-6.32-3.65a13.06,13.06,0,0,0,.27,1.34l6.76,3.9-.71.41-5.74-3.31a8.68,8.68,0,0,0,.87,1.78l6.24,3.6-.71.41-3.73-2.16,0,0v0l4.19,2.49.89-2a10.32,10.32,0,0,0,2.08-.92c5.86-3.38,10.61-12.46,10.61-20.28A13.59,13.59,0,0,0,249.28,114.42Z" transform="translate(-53.99 -34.94)"/><path class="cls-6" d="M249.29,113.33l-5-2.91a6.35,6.35,0,0,0-1.32.06l5.65,3.26Z" transform="translate(-53.99 -34.94)"/><path class="cls-6" d="M247.35,114.15l-5.83-3.36c-.28.09-.56.21-.84.33l6,3.44Z" transform="translate(-53.99 -34.94)"/><path class="cls-6" d="M245.74,115.38l-6.28-3.63c-.23.13-.45.28-.67.43l6.24,3.6Z" transform="translate(-53.99 -34.94)"/><path class="cls-6" d="M236.22,137.62l-7.14-4.12c0,.31.07.6.12.89l6.32,3.65Z" transform="translate(-53.99 -34.94)"/><path class="cls-6" d="M236.22,139.62l-6.76-3.9c.09.35.2.68.31,1l5.74,3.31Z" transform="translate(-53.99 -34.94)"/><path class="cls-6" d="M236.88,142.1l-6.24-3.6a6.24,6.24,0,0,0,1.79,1.85l3.73,2.16Z" transform="translate(-53.99 -34.94)"/><path class="cls-6" d="M241.46,118.75l-6.06-3.5c-.16.18-.3.37-.46.56l5.8,3.35Z" transform="translate(-53.99 -34.94)"/><path class="cls-6" d="M239.52,119.58l-5.18-3-.42.58,4.89,2.82Z" transform="translate(-53.99 -34.94)"/><path class="cls-6" d="M237.91,120.81l-4.63-2.67c-.13.2-.26.39-.38.6l4.3,2.48Z" transform="translate(-53.99 -34.94)"/><path class="cls-6" d="M236.74,128.31l-6.49-3.75c-.08.23-.14.47-.21.7l6,3.46Z" transform="translate(-53.99 -34.94)"/><path class="cls-6" d="M236.34,130l-6.56-3.79c-.06.24-.12.48-.17.72l6,3.48Z" transform="translate(-53.99 -34.94)"/><path class="cls-6" d="M235.61,131.72l-6.25-3.61c0,.25-.09.5-.13.74l5.67,3.27Z" transform="translate(-53.99 -34.94)"/><path class="cls-7" d="M232.46,134c0,7.81,4.75,11.41,10.61,8s10.61-12.46,10.61-20.28-4.75-11.41-10.61-8S232.46,126.22,232.46,134Z" transform="translate(-53.99 -34.94)"/><path class="cls-8" d="M234.41,133.18c0,6.5,4,9.49,8.83,6.68s8.83-10.37,8.83-16.88-4-9.49-8.83-6.68S234.41,126.68,234.41,133.18Z" transform="translate(-53.99 -34.94)"/><path class="cls-9" d="M235.46,132.77c-.08,5.83,3.36,8.46,7.7,5.87s7.92-9.42,8-15.25-3.36-8.46-7.7-5.87S235.55,126.94,235.46,132.77Z" transform="translate(-53.99 -34.94)"/><path class="cls-8" d="M236.33,132.45c-.15,5.26,2.86,7.58,6.74,5.19s7.14-8.59,7.29-13.85-2.86-7.58-6.74-5.19S236.49,127.19,236.33,132.45Z" transform="translate(-53.99 -34.94)"/><path class="cls-9" d="M237.52,131.95c-.14,4.45,2.39,6.4,5.67,4.37s6-7.29,6.19-11.73-2.39-6.4-5.67-4.37S237.66,127.5,237.52,131.95Z" transform="translate(-53.99 -34.94)"/><polygon class="cls-6" points="190.28 93.06 180.23 98.81 180.23 98.13 190.28 92.38 190.28 93.06"/><polygon class="cls-6" points="189.33 95.93 185.74 98 185.8 97.29 189.33 95.25 189.33 95.93"/><polygon class="cls-6" points="193.21 87.1 190.28 88.79 190.34 88.08 193.31 86.36 193.21 87.1"/><path class="cls-6" d="M236.46,139.56l3.69-7.06-.36-.27-3.65,7Z" transform="translate(-53.99 -34.94)"/><path class="cls-6" d="M238.15,140.68l3.23-6.16-.36-.27-3.26,6.23Z" transform="translate(-53.99 -34.94)"/><polygon class="cls-6" points="192.96 87.05 197.87 90.76 197.99 89.89 193.31 86.36 192.96 87.05"/><path class="cls-6" d="M235.65,138.39l1.47-2.78-.41-.18L235.38,138Z" transform="translate(-53.99 -34.94)"/><path class="cls-6" d="M237.22,133.71a1.79,1.79,0,0,0-.75,1.43c0,.55.33.8.75.57a1.79,1.79,0,0,0,.75-1.43C238,133.73,237.64,133.48,237.22,133.71Zm0,1.56c-.23.13-.42,0-.42-.32a1,1,0,0,1,.42-.8c.23-.13.42,0,.42.32A1,1,0,0,1,237.22,135.27Z" transform="translate(-53.99 -34.94)"/><polygon class="cls-6" points="195.74 85.93 198.05 87.64 198.02 86.66 196.15 85.28 195.74 85.93"/><path class="cls-6" d="M249.63,119.09c.41-.24.75,0,.75.57a1.79,1.79,0,0,1-.75,1.43c-.41.24-.75,0-.75-.57A1.79,1.79,0,0,1,249.63,119.09Zm0,1.56a1,1,0,0,0,.42-.8c0-.31-.19-.45-.42-.32a1,1,0,0,0-.42.8C249.21,120.64,249.4,120.78,249.63,120.65Z" transform="translate(-53.99 -34.94)"/><path class="cls-6" d="M243.79,122.67a1.79,1.79,0,0,0-.75,1.43c0,.55.34.8.75.57a1.79,1.79,0,0,0,.75-1.43C244.54,122.69,244.21,122.43,243.79,122.67Zm0,1.56c-.23.13-.42,0-.42-.32a1,1,0,0,1,.42-.8c.23-.13.42,0,.42.32A1,1,0,0,1,243.79,124.23Z" transform="translate(-53.99 -34.94)"/><path class="cls-6" d="M243.86,129.22a1.79,1.79,0,0,0-.75,1.43c0,.55.33.8.75.57a1.79,1.79,0,0,0,.75-1.43C244.61,129.24,244.27,129,243.86,129.22Zm0,1.56c-.23.13-.42,0-.42-.32a1,1,0,0,1,.42-.8c.23-.13.42,0,.42.32A1,1,0,0,1,243.86,130.78Z" transform="translate(-53.99 -34.94)"/><polygon class="cls-6" points="192.27 92.2 189.48 93.81 189.48 92.64 192.27 91.03 192.27 92.2"/><polygon class="cls-6" points="187.87 92.36 180.42 96.66 180.52 95.92 187.87 91.68 187.87 92.36"/><polygon class="cls-6" points="190.45 91.11 187.66 92.72 187.66 91.55 190.45 89.94 190.45 91.11"/><polygon class="cls-6" points="189.75 98.38 186.99 100 187.02 99.31 189.75 97.7 189.75 98.38"/><polygon class="cls-6" points="192.33 97.14 189.54 98.75 189.54 97.58 192.33 95.97 192.33 97.14"/><path class="cls-6" d="M250.43,117.09l-6.2,3.58v.68l6.54-3.78Z" transform="translate(-53.99 -34.94)"/><polygon class="cls-6" points="187.66 86.97 190.45 85.36 190.45 86.53 187.66 88.14 187.66 86.97"/><path class="cls-6" d="M239.58,141.09a4.54,4.54,0,0,1-2.3-.6c-2-1.14-3.09-3.79-3.06-7.28.06-6.53,4.07-14.17,9-17,2.18-1.28,4.28-1.47,5.93-.51,2,1.14,3.09,3.79,3.06,7.28-.06,6.53-4.07,14.17-9,17A7.24,7.24,0,0,1,239.58,141.09Zm7.22-25.57a6.77,6.77,0,0,0-3.39,1c-4.75,2.8-8.66,10.27-8.72,16.65,0,3.31,1,5.81,2.82,6.86,1.49.86,3.43.68,5.45-.51,4.75-2.8,8.66-10.27,8.72-16.65,0-3.31-1-5.81-2.82-6.86A4.07,4.07,0,0,0,246.8,115.52Z" transform="translate(-53.99 -34.94)"/><path class="cls-2" d="M363.54,188.68v39.58c.52,7.08,6.28,14.12,16.89,19.07,13.78,6.43,31.94,7.57,46.67,3.83V188.68Z" transform="translate(-53.99 -34.94)"/><path class="cls-11" d="M451.82,228.26V199.4l-24.71-10.72v62.49a47.08,47.08,0,0,0,15.38-6.67C449.22,239.78,452.24,234,451.82,228.26Z" transform="translate(-53.99 -34.94)"/><path class="cls-12" d="M372.88,172.45c-6.74,4.72-9.75,10.49-9.33,16.23h44.12v-25C394.55,163.38,381.58,166.35,372.88,172.45Z" transform="translate(-53.99 -34.94)"/><path class="cls-4" d="M363.54,203.66c.52,7.08,6.28,14.12,16.89,19.07,13.78,6.43,31.94,7.57,46.67,3.83l-19.45-22.9Z" transform="translate(-53.99 -34.94)"/><path class="cls-13" d="M451.82,196.41c-.52-7.08-6.28-14.12-16.89-19.07a69.19,69.19,0,0,0-27.27-5.93v25l19.45,22.9a47.08,47.08,0,0,0,15.38-6.67C449.22,207.92,452.24,202.15,451.82,196.41Z" transform="translate(-53.99 -34.94)"/><rect class="cls-14" x="309.55" y="153.74" width="44.12" height="14.98"/><polygon class="cls-15" points="373.12 184.37 353.67 161.46 353.67 168.72 373.12 191.62 373.12 184.37"/><path class="cls-16" d="M377.39,186.2c-1.3,3.26-3.07,11.74-3,12.77.21,2.19,3.92,4.41,4.54,2.7.76-2.07,2.14-6.74,2.6-7.94a98.34,98.34,0,0,0,3-9.9c.2-3.64,2-9.78,4.41-12.26a3.32,3.32,0,0,0-3.57.34,22.13,22.13,0,0,0-4,5.21C380.82,178.12,378.41,183.65,377.39,186.2Z" transform="translate(-53.99 -34.94)"/><path class="cls-15" d="M358.51,242c-1.58,1.54-2.06,2-3.53,3.41-.85.83-.15,1.6,1.48,1.54a29.22,29.22,0,0,0,6.48-1.4A32.92,32.92,0,0,0,367.8,243a3.22,3.22,0,0,0,1.44-1.82v-2.56l-7.75.33S360.21,240.3,358.51,242Z" transform="translate(-53.99 -34.94)"/><path class="cls-15" d="M372.15,250.06c-1.58,1.54-2.06,2-3.53,3.41-.85.83-.15,1.6,1.48,1.54a29.22,29.22,0,0,0,6.48-1.4,32.91,32.91,0,0,0,4.85-2.53,3.21,3.21,0,0,0,1.44-1.82v-4.52L375.13,247S373.85,248.4,372.15,250.06Z" transform="translate(-53.99 -34.94)"/><path class="cls-16" d="M399.83,205.37l-15.49-6a43.92,43.92,0,0,1-7.2,5.26c-2.73,1.64-10.23,6.06-12.63,7.75-1.48,1-2.15,3.3-2.72,8.39-1,8.4-1.65,18-1.65,18a6.74,6.74,0,0,0,5.47,2.33,14.75,14.75,0,0,0,5.09-.92l.59-19.32L384,213.57s-7.19,4.45-8.22,8.4a38.9,38.9,0,0,0-1.23,9.57c-.27,8.53-.36,14.12-.36,14.12s.56,2.83,4.36,2.82a8.73,8.73,0,0,0,5.32-2.38l.77-19.56s11-7.81,13.82-11.11C401.63,211.73,399.83,205.37,399.83,205.37Z" transform="translate(-53.99 -34.94)"/><path class="cls-15" d="M387,172.4s-4.63,3.74-5.18,9c-.27,2.62.43,11.62.46,17.42-2.23,1.51-8.59,5.24-8.59,5.24s5.12,1.58,7.13,5.11a17.23,17.23,0,0,0,3.71-2.18s-.21.59-1.37,2.92c1.39.42,6.16-.69,10.59,1.23s7.51,1.06,7.51,1.06a24.36,24.36,0,0,0,.23-7.34c-.49-3.2-1.68-6.73-1.44-8.61.76-5.87,1.91-15.37,1.7-16.92-.35-2.6-6.24-5.41-6.24-5.41S391.36,170.7,387,172.4Z" transform="translate(-53.99 -34.94)"/><path class="cls-16" d="M389.72,171.91s-2.7,0-5,4.45c-.82,1.59-1.36,2.45-1.36,2.45l1.36,1.33-1.94.93s-.7,6.79-.14,9.59c.62,3.11,3.77,8.75,3.77,8.75a80,80,0,0,1,2.94-7.91c.9-1.58,4.28-5.95,4.28-5.95l-1.7-2.56,2.77-.9s3.9-4.89,3.49-6.37a4.79,4.79,0,0,0-3.41-3.32Z" transform="translate(-53.99 -34.94)"/><path class="cls-17" d="M386.53,177a63.32,63.32,0,0,0-1.7,6.34c-.6,3,1.07,12.86,1.07,12.86s1.49-9.62,3.45-12.4a63.43,63.43,0,0,1,5.35-6.44S388.54,176.18,386.53,177Z" transform="translate(-53.99 -34.94)"/><path class="cls-3" d="M387.68,177.57l-.33,2.57a7,7,0,0,0-1.85,3.26c-.33,1.8-.23,8.52-.23,8.52l.63,4.22.9-2.91s.7-4,1.29-6.47a15.16,15.16,0,0,1,.27-2.24,17.7,17.7,0,0,0,.5-3.71l1.61-1.92-1.53-1.79Z" transform="translate(-53.99 -34.94)"/><path class="cls-18" d="M388.69,172.24l-.28,4.07a10.92,10.92,0,0,0,1.91,2c1.47-.46,4.89-3.63,4.89-3.63l-1.14-6.32Z" transform="translate(-53.99 -34.94)"/><path class="cls-19" d="M394.7,161.39a5.35,5.35,0,0,0-8.8.65c-3,4.45-.17,11.73,2.47,11.3,1.48-.24,4.8-1.58,6.25-4C396.25,166.7,395.88,162.9,394.7,161.39Z" transform="translate(-53.99 -34.94)"/><path class="cls-20" d="M388.61,173.35l.33,3.76-2.68,1.09S386,174.22,388.61,173.35Z" transform="translate(-53.99 -34.94)"/><path class="cls-20" d="M394.8,172.4a19.85,19.85,0,0,1-2.49,2.91,9.38,9.38,0,0,1-3.36,1.81l1,3s3.7-1.7,5.06-3.18C395,177,396.62,174.19,394.8,172.4Z" transform="translate(-53.99 -34.94)"/><path class="cls-15" d="M384.77,163.52a4.47,4.47,0,0,0,4,2.25,9.76,9.76,0,0,0,3.59-.49L392.2,168a2.32,2.32,0,0,0,.74-.1c.27-1,.7-1.26,1.2-.83s.48,2.35.48,2.35a6.87,6.87,0,0,0,2.11-4.9c0-1.91-1.68-6.05-5.18-6.49a6.48,6.48,0,0,0-6.85,3.27A2.47,2.47,0,0,0,384.77,163.52Z" transform="translate(-53.99 -34.94)"/><rect class="cls-21" x="311.06" y="172.64" width="1.02" height="0.79"/><path class="cls-21" d="M379.64,217.19l-14.09-8.13c-.74-.43-.65-1.18.21-1.68l9.41-5.43a3.24,3.24,0,0,1,2.9-.12L392.16,210c.74.43.65,1.18-.21,1.68l-9.41,5.43A3.24,3.24,0,0,1,379.64,217.19Z" transform="translate(-53.99 -34.94)"/><rect class="cls-21" x="338.03" y="174.95" width="0.63" height="0.78"/><path class="cls-22" d="M379.64,216.45l-14.09-8.13c-.74-.43-.65-1.18.21-1.68l9.41-5.43a3.24,3.24,0,0,1,2.9-.12l14.09,8.13c.74.43.65,1.18-.21,1.68l-9.41,5.43A3.24,3.24,0,0,1,379.64,216.45Z" transform="translate(-53.99 -34.94)"/><polygon class="cls-23" points="322.91 166.41 312.98 172.14 327.78 180.64 337.74 174.93 322.91 166.41"/><polygon class="cls-22" points="322.06 166.32 321.31 166.76 336.1 175.26 336.89 174.83 322.06 166.32"/><polygon class="cls-22" points="333.36 174.27 332.6 174.71 334.84 175.98 335.63 175.56 333.36 174.27"/><polygon class="cls-22" points="330.9 172.84 330.14 173.28 331.71 174.19 332.5 173.77 330.9 172.84"/><polygon class="cls-22" points="328.94 171.73 328.18 172.17 329.75 173.08 330.54 172.65 328.94 171.73"/><polygon class="cls-22" points="326.99 170.61 326.23 171.05 327.8 171.96 328.59 171.54 326.99 170.61"/><polygon class="cls-22" points="331.69 176.38 330.93 176.82 332.03 177.46 332.82 177.04 331.69 176.38"/><polygon class="cls-22" points="330.07 175.44 329.31 175.89 330.42 176.52 331.21 176.1 330.07 175.44"/><polygon class="cls-22" points="328.08 174.32 327.32 174.76 328.9 175.67 329.69 175.25 328.08 174.32"/><polygon class="cls-22" points="330.39 177.14 329.63 177.58 330.73 178.22 331.52 177.79 330.39 177.14"/><polygon class="cls-22" points="328.77 176.2 328.01 176.64 329.12 177.28 329.91 176.85 328.77 176.2"/><polygon class="cls-22" points="329 177.87 328.25 178.31 329.35 178.94 330.14 178.52 329 177.87"/><polygon class="cls-22" points="327.39 176.92 326.63 177.37 327.74 178 328.52 177.58 327.39 176.92"/><polygon class="cls-22" points="326.78 175.07 326.02 175.51 327.6 176.42 328.38 176 326.78 175.07"/><polygon class="cls-22" points="326.19 173.21 325.43 173.65 327.01 174.56 327.79 174.13 326.19 173.21"/><polygon class="cls-22" points="324.24 172.09 323.48 172.53 325.06 173.44 325.84 173.01 324.24 172.09"/><polygon class="cls-22" points="331.61 174.78 330.85 175.22 333.47 176.71 334.26 176.29 331.61 174.78"/><polygon class="cls-22" points="329.53 173.57 328.77 174.01 330.35 174.92 331.13 174.5 329.53 173.57"/><polygon class="cls-22" points="327.57 172.46 326.81 172.9 328.38 173.81 329.17 173.38 327.57 172.46"/><polygon class="cls-22" points="325.62 171.34 324.86 171.78 326.44 172.69 327.22 172.27 325.62 171.34"/><path class="cls-19" d="M385.84,203.34s-2.31,1.2-3.77,1.92-5.79,4.46-4.87,5.32,3.19,1.85,3.81,1.72a7.64,7.64,0,0,0,2.33-2c.24-.35,3-1.43,3.86-2.65S385.84,203.34,385.84,203.34Z" transform="translate(-53.99 -34.94)"/><path class="cls-24" d="M382,203l0,12a1.16,1.16,0,0,1-1.74,1l-14.12-8.08a1.16,1.16,0,0,1-.58-1l0-12a1.16,1.16,0,0,1,1.74-1L381.45,202A1.16,1.16,0,0,1,382,203Z" transform="translate(-53.99 -34.94)"/><polygon class="cls-24" points="327.66 180.93 326.91 181.37 325.99 180.42 327.79 179.31 327.66 180.93"/><polygon class="cls-24" points="312.12 158.99 311.6 159.29 312.95 159.31 312.12 158.99"/><path class="cls-25" d="M381.45,203.32l0,12a1.16,1.16,0,0,1-1.74,1l-14.12-8.08a1.16,1.16,0,0,1-.58-1l0-12a1.16,1.16,0,0,1,1.74-1l14.12,8.08A1.16,1.16,0,0,1,381.45,203.32Z" transform="translate(-53.99 -34.94)"/><polygon class="cls-22" points="315.55 176.42 312.22 174.49 312.22 173.04 315.55 174.96 315.55 176.42"/><polygon class="cls-22" points="324.64 181.67 321.31 179.75 321.31 178.29 324.64 180.22 324.64 181.67"/><path class="cls-20" d="M374,205.64c0,.7-.62.91-1.39.46a2.78,2.78,0,0,1-1.39-2.06c0-.7.62-.91,1.39-.46A2.78,2.78,0,0,1,374,205.64Z" transform="translate(-53.99 -34.94)"/><path class="cls-16" d="M404.48,192.15c.89-6.28.85-11.69-2.56-13.94-2.48-1.63-3.94,5-4.62,10-.16,1.19-1.29,6.67-1.56,8-1.66.4-10.67,6.25-11.79,7.32.28.57,2.38,2.13,3,5.53,3.74-.83,9.64-4.46,13.57-6.48C403.41,201,404.06,195.09,404.48,192.15Z" transform="translate(-53.99 -34.94)"/><path class="cls-26" d="M157.32,193.71S138.19,183.24,133,179.57c-3.78-2.65-2.6-4.91-.28-12.45s7.38-21.34,7.38-21.34l-3.37-.54a37.32,37.32,0,0,1,2.27-6.08c-15.44,1.54-30.85,13.09-31.93,14.47S97.32,186.85,96.16,191s0,6.6,7.15,10.87,21.13,10.8,21.13,10.8l29.31-16.57,3.57,2.08Z" transform="translate(-53.99 -34.94)"/><path class="cls-27" d="M124.43,212.66s-19.5-11-24.6-14.22c-3.9-2.45-2.34-5.18,0-12.72s7.38-21.34,7.38-21.34l-4.66-.75s-5.43,16.64-7.36,23-3.25,11.32,2.55,15c7.89,5,26.72,15.49,26.72,15.49Z" transform="translate(-53.99 -34.94)"/><polygon class="cls-28" points="70.44 177.72 70.44 182.17 103.32 163.22 103.32 158.77 70.44 177.72"/><path class="cls-16" d="M175,39.59l-5.29-3.08a5.36,5.36,0,0,0-.8-.47l-.07,0h0a5.2,5.2,0,0,0-4.8.23L59.19,96.75A8.27,8.27,0,0,0,55,103.91v89.54a5.73,5.73,0,0,0,2.92,5v0l5.82,3.36,3.47-5.39,0,0,100.55-58.05a8.28,8.28,0,0,0,4.14-7.17V40.8c0-.15,0-.29,0-.43Z" transform="translate(-53.99 -34.94)"/><path class="cls-11" d="M60.86,107.32v89.54a5.79,5.79,0,0,0,8.68,5l104-60.06a8.28,8.28,0,0,0,4.14-7.17V44.21a5.27,5.27,0,0,0-7.9-4.56L65,100.16A8.28,8.28,0,0,0,60.86,107.32Z" transform="translate(-53.99 -34.94)"/><polygon class="cls-20" points="118.26 9.23 24.92 63.18 12.32 70.46 12.32 162.47 118.26 101.24 118.26 9.23"/><path class="cls-22" d="M164.07,57v75.11L76.76,182.58V107.47l10-5.81L164.07,57Zm1.26-2.18L86.18,100.57l-10.68,6.17v78l89.82-51.91v-78Z" transform="translate(-53.99 -34.94)"/><polygon class="cls-22" points="22.07 80.25 22.07 81.7 110.92 30.35 110.92 28.9 22.07 80.25"/><polygon class="cls-22" points="22.07 88.52 22.07 89.97 110.92 38.61 110.92 37.16 22.07 88.52"/><polygon class="cls-22" points="22.07 96.78 22.07 98.23 110.92 46.88 110.92 45.43 22.07 96.78"/><polygon class="cls-4" points="108.66 53.84 102.71 46.63 98.48 54.57 88.56 48.6 69.93 87.69 52.74 80.18 44.41 96.07 37.85 93.55 29.75 107.91 21.51 101.46 21.51 132.49 111.33 79.06 111.33 49.81 108.66 53.84"/><polygon class="cls-14" points="106.1 67.7 92.46 59.84 89.2 66.71 79.84 59.14 62.82 95.97 54.27 92.63 45.98 106.94 31.16 97.01 21.51 113.92 21.51 132.51 111.33 80.66 111.33 57.21 106.1 67.7"/><path class="cls-7" d="M156.79,98.51l-10,17.68L141,111.13l-10.25,22.06-12.56-5.5-7,14.7L101.24,136,90.92,155.18,83.46,150l-8,13.89v12.54l89.82-51.86v-17C163.34,104.88,156.79,98.51,156.79,98.51Z" transform="translate(-53.99 -34.94)"/><polygon class="cls-13" points="21.51 133.95 25.71 135.56 32.56 124.67 39.91 129.71 47.82 113.78 55.7 117.8 61.28 106.03 69.1 109.23 78.3 88.26 92.54 97.34 102.8 78.24 111.33 84.11 111.33 98.01 21.51 149.86 21.51 133.95"/><path class="cls-13" d="M165.33,83.83,155,73.66a5.39,5.39,0,0,0,.27-1.59,2.48,2.48,0,0,0-1-2.25,2,2,0,0,0-2,.11,5.67,5.67,0,0,0-2.43,4.58,2.89,2.89,0,0,0,.53,1.77l-5.65,10-9.51-5.91a5.19,5.19,0,0,0,.15-1.18,2.47,2.47,0,0,0-1-2.25,2,2,0,0,0-2,.11,5.67,5.67,0,0,0-2.42,4.58,2.82,2.82,0,0,0,.6,1.89l-16.79,35.83a2.69,2.69,0,0,0-.52.24,4.36,4.36,0,0,0-1.35,1.31L99.9,114.4a5.1,5.1,0,0,0,.12-1,2.48,2.48,0,0,0-1-2.25,2,2,0,0,0-2,.11,5.67,5.67,0,0,0-2.42,4.58,2.69,2.69,0,0,0,.72,2L75.51,151.89v2.61l20.92-36.21h0a2.32,2.32,0,0,0,1.15-.34,5,5,0,0,0,1.91-2.33l11.7,6.33a5.65,5.65,0,0,0-.47,2.17,2.47,2.47,0,0,0,1,2.25,1.69,1.69,0,0,0,.86.23,2.32,2.32,0,0,0,1.15-.34,5.67,5.67,0,0,0,2.42-4.58,2.47,2.47,0,0,0-1-2.25l-.13-.05L131.59,84l.17,0a2.32,2.32,0,0,0,1.15-.34,5,5,0,0,0,1.84-2.18L145.15,88l6.26-11.06a1.73,1.73,0,0,0,.31,0,2.32,2.32,0,0,0,1.15-.34,4.68,4.68,0,0,0,1.62-1.75L165.33,85.6ZM97,116.87a.82.82,0,0,1-.75.11,1.36,1.36,0,0,1-.42-1.16,4.44,4.44,0,0,1,1.8-3.49,1.13,1.13,0,0,1,.52-.17.46.46,0,0,1,.23.06,1.36,1.36,0,0,1,.42,1.16A4.44,4.44,0,0,1,97,116.87Zm16.19,8.31a.81.81,0,0,1-.75.11,1.36,1.36,0,0,1-.42-1.16,4.44,4.44,0,0,1,1.8-3.49,1.13,1.13,0,0,1,.52-.17.45.45,0,0,1,.23.06,1.35,1.35,0,0,1,.42,1.16A4.44,4.44,0,0,1,113.16,125.17Zm19.14-42.53a.81.81,0,0,1-.75.11,1.36,1.36,0,0,1-.42-1.16,4.44,4.44,0,0,1,1.8-3.49,1.13,1.13,0,0,1,.52-.17.45.45,0,0,1,.23.06,1.36,1.36,0,0,1,.42,1.16A4.44,4.44,0,0,1,132.29,82.64Zm20-7.09a.82.82,0,0,1-.75.11,1.36,1.36,0,0,1-.42-1.16,4.44,4.44,0,0,1,1.8-3.49,1.13,1.13,0,0,1,.52-.17.45.45,0,0,1,.23.06,1.36,1.36,0,0,1,.42,1.16A4.44,4.44,0,0,1,152.25,75.55Z" transform="translate(-53.99 -34.94)"/><path class="cls-19" d="M216.15,166.11a3,3,0,0,1,.8,2.49,4.65,4.65,0,0,1-.4,2,3.44,3.44,0,0,1,1.68-.64c.69.06.52,1.34-1.28,2.37s-2.66.76-3.18.3-1.31-5.84-1.18-6.09C213.4,164.91,216.15,166.11,216.15,166.11Z" transform="translate(-53.99 -34.94)"/><path class="cls-15" d="M191.14,223.43c.88-.55,6.61,1,6.61,1l6.18,2.07-.47,4.65a4,4,0,0,1-5.24.3c-1.81-1.22-5.32-2.8-6.64-4.7C190.62,225.42,190.26,224,191.14,223.43Z" transform="translate(-53.99 -34.94)"/><path class="cls-15" d="M206.43,214.41c.88-.55,6.61,1,6.61,1l6.18,2.07-.47,4.65a4,4,0,0,1-5.24.3c-1.81-1.22-5.32-2.8-6.64-4.7C205.91,216.4,205.54,215,206.43,214.41Z" transform="translate(-53.99 -34.94)"/><path class="cls-16" d="M214.33,171.84s2.84,2.79,3.28,8.64c.2,2.64-1.21,13.87-1.21,13.87a60.31,60.31,0,0,1,2.7,9.56,113.71,113.71,0,0,1,.48,13.13c-.37,1.16-1.57,2.25-4,2.08s-4.22-3.36-4.22-3.36-.86-7.2-1.66-12c-.46-2.72-1-4.51-1.24-6.77-.1-2.6-.37-8.91-.37-8.91s-3,11.81-3.91,15.42c1.83,6,.2,22.38,0,23.69-3.67,2.89-5.93.16-7.44-2.21.09-3.64-.49-10.06-.63-15.15-.11-4,0-5.69-.11-7-.13-2.62,1.06-10.5,1.67-16.53.7-7,.85-12.12.85-12.12Z" transform="translate(-53.99 -34.94)"/><path class="cls-25" d="M210,146.15a3.34,3.34,0,0,1,4.47-.75,15.4,15.4,0,0,1,3.18,3.21,16.16,16.16,0,0,1,2.72,4.21c.23.58-.27,3.47-.81,6-.48,2.25-1.4,7.14-2.27,8.82-1.15,1.23-4.82-.08-4.82-.08Z" transform="translate(-53.99 -34.94)"/><path class="cls-20" d="M199.79,154.64c-1.24,3.85-.13,9.9-.21,12.08-.14,3.81-1.77,7.84-1.11,10.2a12.06,12.06,0,0,0,17.47-2.71c0-.62-1.67-3.8-1.31-5.78.88-4.73,2.2-10.34,2.32-14.29.08-2.76-1-4.58-1.77-6.17s-2.43-2.5-4.68-2.56c-1.69.16-2.66,3.27-6.88,3.27C200.65,150.35,201,151,199.79,154.64Z" transform="translate(-53.99 -34.94)"/><path class="cls-18" d="M205.8,149.44a23.6,23.6,0,0,0,6-2l-.67-3.76-5.25,1.24a9.08,9.08,0,0,1,0,4.34Z" transform="translate(-53.99 -34.94)"/><path class="cls-19" d="M213,135.77a5.46,5.46,0,0,0-8.9-1.36c-4,3.74-2.43,11.27.52,11.79a8.4,8.4,0,0,0,6.48-2.5C213.36,141.41,213.85,137.55,213,135.77Z" transform="translate(-53.99 -34.94)"/><path class="cls-15" d="M201.86,133.53a6.52,6.52,0,0,0,3.52,4.19,3,3,0,0,1-.4,2.59c.1.31.6.49.6.49.66-.94,1.89-1.46,2.34-.41s-.16,1.62-1,2.61c-.61,2.79,3.32,4.48,3.32,4.48a44,44,0,0,1,3.48-4.61c1.67-1.84,2.25-5.85-.22-7.7a4.6,4.6,0,0,0-6.24-3.56c-1.31.5-2.06,1-2.94,1.39A6,6,0,0,1,201.86,133.53Z" transform="translate(-53.99 -34.94)"/><path class="cls-25" d="M207.91,147.16a23.9,23.9,0,0,1-4.3,1.5s3.4,1.66,5.53.77a11.8,11.8,0,0,0,3.3-2c.55-.71-.65-1.93-.65-1.93A31.77,31.77,0,0,0,207.91,147.16Z" transform="translate(-53.99 -34.94)"/><path class="cls-19" d="M178.42,137.8s-3.95-2.34-5.85-3.66-3.84-2.46-3.92-1.62c-.06.61,1,1.13,1.43,1.48s.69.67.93.85c-.36,1-1.14,3.67.63,4.61a38.35,38.35,0,0,0,4.59,1.87Z" transform="translate(-53.99 -34.94)"/><path class="cls-25" d="M203.88,149.9c-1.57-1.68-5.27-2.92-8.15-4.15-2.12-.9-6.84-3.45-10.31-5.34a71.72,71.72,0,0,0-6.56-3c-.65-.3-1.68-.54-2.77,1.26-.74,1.22-1,2.7,0,3.62,1.25,1.12,3.76,2.6,6.93,5.28,1.36,1.16,7.53,5.2,10.39,7.24s7,7.9,8.91,6.59c1.53-1.07,2.54-3.67,2.82-6.23C205.4,152.89,205.1,151.21,203.88,149.9Z" transform="translate(-53.99 -34.94)"/><path class="cls-19" d="M172.66,167.4c-.24-.08-3.34-2.4-3.9-2.91s-.72-.07-.48.52.64,1.43.64,1.43a5.78,5.78,0,0,0-2.83-1c-1.51,0-2.15.64-.84,1.95,1,1,6.05,2.83,6.05,2.83Z" transform="translate(-53.99 -34.94)"/><path class="cls-19" d="M189.8,175.68c0,2.88-3.31,4.94-5.57,2.5a7.22,7.22,0,0,1-1.52-2.62,75.64,75.64,0,0,1,2.88-10.23l3.33.55A93.25,93.25,0,0,1,189.8,175.68Z" transform="translate(-53.99 -34.94)"/><path class="cls-29" d="M186.61,172.13l3.91-1.43a60.57,60.57,0,0,0-1.93-6.92c-.63-1.49-1.22-3-3.13-3.41a2.31,2.31,0,0,0-2.74,1.94C182.38,164.28,186.61,172.13,186.61,172.13Z" transform="translate(-53.99 -34.94)"/><path class="cls-15" d="M185.81,238.63c-.55,1.32-1.83,1.19-4.4.27a22.17,22.17,0,0,1-5.8-3c-1.63-1.2-1.64-1.36-1.86-2.18-.3-1.14,1.36-1.78,4.12-.92l.76.24a1.68,1.68,0,0,0-1.26.7c-.5.94,1.07,2,2.72,2.78a4.59,4.59,0,0,0,3.83.45l1.81-.8C185.91,237.32,186.14,237.84,185.81,238.63Z" transform="translate(-53.99 -34.94)"/><path class="cls-19" d="M178.15,224.93h0c0,.23-.07-2-.13-4.9a23.87,23.87,0,0,1-6.06,1.71c.18,1.27.37,2.54.55,3.75.47,5.48.88,12.6.88,12.6s-.76-.34-2.29-.84a1.68,1.68,0,0,0-1.26.7c-.5.94,1.07,2,2.72,2.78a4.58,4.58,0,0,0,3.83.45l1.81-.8a13.27,13.27,0,0,1-.06-3.25C178.4,234.18,178.3,228.66,178.15,224.93Z" transform="translate(-53.99 -34.94)"/><path class="cls-19" d="M186,220.63c.05-.69.13-1.45.21-2.23a15.53,15.53,0,0,1-6,.7c.11,2.19.22,4.21.3,5.43.27,4.1.44,9.41.44,9.41s-.76-.34-2.29-.84a1.67,1.67,0,0,0-1.26.7c-.5.94,1.07,2,2.72,2.78a4.59,4.59,0,0,0,3.83.45l1.81-.8a13.25,13.25,0,0,1-.06-3.25C185.89,230.53,185.8,223,186,220.63Z" transform="translate(-53.99 -34.94)"/><path class="cls-15" d="M178.27,242.78c-.55,1.32-1.83,1.19-4.4.27a22.17,22.17,0,0,1-5.8-3c-1.63-1.2-1.64-1.36-1.86-2.18-.3-1.14,1.36-1.78,4.12-.92l.76.24a1.67,1.67,0,0,0-1.26.7c-.5.94,1.07,2,2.72,2.78a4.58,4.58,0,0,0,3.83.45l1.81-.8C178.37,241.48,178.61,242,178.27,242.78Z" transform="translate(-53.99 -34.94)"/><path class="cls-29" d="M187.25,212.07c-.29,4.2-.69,18.58-1.17,21.2-1.65,1-4.94,1-6.56-1,0-4.07.54-13.15.44-16.81-.11-4,.82-13.39.7-15.34-1.28,3.71-1.89,5.44-2.22,11.93-.51,10.22.33,23.75.21,26-3.09.83-4.63.39-5.74-1,0-.8-2.7-20.39-2.7-21.62,0-5.13.93-22.77,1.7-26.47.52-2.48.85-5.49.85-5.49L185,182s-.54-.22,1.6,4.84a20.79,20.79,0,0,1,1.52,11.34C187.9,200.06,187.31,210.49,187.25,212.07Z" transform="translate(-53.99 -34.94)"/><path class="cls-19" d="M177.37,145.79c-.64.44-3.25.37-3.92,5.62-.59,4.65.76,5.08,1.71,5.48.52.22,2.43.84,2.43.84l-.21,4.71a6.68,6.68,0,0,0,4.52,0l2.21-.91a7.78,7.78,0,0,1-.72-4.07c.18-3.2,1.31-7.75.51-9.44A4.57,4.57,0,0,0,177.37,145.79Z" transform="translate(-53.99 -34.94)"/><path class="cls-14" d="M188.52,189.63c-.7.9-1.68,1-3.17,1.49a7.47,7.47,0,0,0-1.18-2.59s-.43,2-.66,3.3c-1.28.31-3.68.67-4.24.74-2.48.3-7-1.23-8.21-3.06,1.51-4.73,2.21-13.88,2.21-13.88s-2.22-6-.63-9.22,3.61-3.56,5.13-4.07,6.77-1.46,6.77-1.46,4.89,3.82,3.81,8.59a46.29,46.29,0,0,0-1.1,8.74C187.13,180,188.49,187.85,188.52,189.63Z" transform="translate(-53.99 -34.94)"/><path class="cls-19" d="M171.06,182.15c-1.35.8-1.65.94-3.48-.08-1.07-1.39.86-2.44.3-4.15h0c1.27-3.56,3-7.39,3-7.39l5.44,1.71s-1.35,3.32-3,6.63A11.27,11.27,0,0,1,171.06,182.15Z" transform="translate(-53.99 -34.94)"/><path class="cls-19" d="M154.22,170.5c1.87.7,2.89,1,2.89,1a2.78,2.78,0,0,0-.3-1.45c-.37-.66.25-1.46.94-.29s1.82,1.84,2.41,2.9,1.61,1.4,4.83,2.76c1.79.76,3.4,1.34,4.66,1.9a16.1,16.1,0,0,0-1.46,5.06c-3.55-1.82-8.21-6-9.45-6.53a20.23,20.23,0,0,1-6.13-3.85C151.68,171,152.55,169.88,154.22,170.5Z" transform="translate(-53.99 -34.94)"/><path class="cls-29" d="M174.42,164c1-.23,2.79.58,3.41,2.71,1,3.27-.3,4.82-1,6.45-.24.53-1.27,2.4-1.27,2.4a6.1,6.1,0,0,1-3.92-.88,4.07,4.07,0,0,1-1.94-2.2s.6-2.3,1.25-4.37C171.48,166.28,172.52,164.44,174.42,164Z" transform="translate(-53.99 -34.94)"/><path class="cls-16" d="M176,163a2.81,2.81,0,0,1,2.22-1.66c4.68-.45,5.45-1.11,5.45-1.11a1.49,1.49,0,0,1,1.51.66l.56,1S180.2,164.57,176,163Z" transform="translate(-53.99 -34.94)"/><path class="cls-15" d="M173,149.5a15,15,0,0,0,2.83,1.52c-.49,8.39-2.19,10.14,1.2,12.16a5.56,5.56,0,0,1,3.49,4.84c.59,5.34,3.92,6.39,3.92,6.39s3.49-3.34,3.55-11.38c0-4.22-.29-15.16-1.9-17.12-2.61-3.18-5.44-3.23-8.13-2.1C175.85,143.3,173.56,144.25,173,149.5Z" transform="translate(-53.99 -34.94)"/><path class="cls-5" d="M154.92,224.55a24.24,24.24,0,0,0-22.47,0l-4.13,1.25v4.64a5.75,5.75,0,0,0,1.53,3.74v-8.59h1.32v9.86a13.44,13.44,0,0,0,2.31,1.45v-8.65h1.32v9.25a20.65,20.65,0,0,0,2.6.84v-9.21h1.32v9.5a25.69,25.69,0,0,0,3,.39v-9.49H143v9.56l.67,0c.81,0,1.6,0,2.37-.11V228.93h1.32v9.9a23.87,23.87,0,0,0,3-.6v-8.91h1.32v8.5a17.57,17.57,0,0,0,2.7-1.17v-9.9h1.32v9.08a9.66,9.66,0,0,0,2-1.88v-9.39Z" transform="translate(-53.99 -34.94)"/><path class="cls-6" d="M129.84,225.59v8.59a9.41,9.41,0,0,0,1.32,1.27v-9.86Z" transform="translate(-53.99 -34.94)"/><path class="cls-6" d="M157.73,233.95a5.64,5.64,0,0,0,1.32-3.5v-4.57l-1.32-1.32Z" transform="translate(-53.99 -34.94)"/><path class="cls-6" d="M133.47,228.24v8.65c.42.21.86.41,1.32.6v-9.25Z" transform="translate(-53.99 -34.94)"/><path class="cls-6" d="M154.37,226.75v9.9a13.51,13.51,0,0,0,1.32-.82v-9.08Z" transform="translate(-53.99 -34.94)"/><path class="cls-6" d="M137.4,229.12v9.21q.65.16,1.32.29v-9.5Z" transform="translate(-53.99 -34.94)"/><path class="cls-6" d="M141.69,229.52V239c.44,0,.88.05,1.32.06v-9.56Z" transform="translate(-53.99 -34.94)"/><path class="cls-6" d="M146.05,228.93V239q.67-.06,1.32-.15v-9.9Z" transform="translate(-53.99 -34.94)"/><path class="cls-6" d="M150.35,229.32v8.91q.68-.19,1.32-.41v-8.5Z" transform="translate(-53.99 -34.94)"/><ellipse class="cls-30" cx="89.69" cy="190.93" rx="15.37" ry="8.65"/><ellipse class="cls-5" cx="89.79" cy="190.59" rx="13.28" ry="6.81"/><ellipse class="cls-30" cx="89.76" cy="190.61" rx="11.77" ry="5.93"/><ellipse class="cls-31" cx="89.91" cy="190.45" rx="10.64" ry="5.37"/><path class="cls-6" d="M143.66,232.7c-7.42,0-13.46-3.19-13.46-7.11s6-7.11,13.46-7.11,13.46,3.19,13.46,7.11S151.08,232.7,143.66,232.7Zm0-13.63c-7.1,0-12.87,2.92-12.87,6.52s5.77,6.52,12.87,6.52,12.87-2.92,12.87-6.52S150.76,219.07,143.66,219.07Z" transform="translate(-53.99 -34.94)"/><path class="cls-20" d="M148.72,229.26a8.47,8.47,0,0,1-3,.8l-2.55-1.62,1.21-.78,1,.63a1,1,0,0,0,.8.19,2.91,2.91,0,0,0,.85-.29l-3.2-2a6.61,6.61,0,0,1-5.44-.72c-1.71-1.08-1.93-2.3-.76-3.21l-1.58-1,1-.53,1.54,1a8.56,8.56,0,0,1,2.74-.68l2.42,1.53-1.22.76-.93-.59a1,1,0,0,0-.8-.19,3.91,3.91,0,0,0-.62.19l3,1.91h0a7.1,7.1,0,0,1,5.63.76c1.85,1.17,2,2.41.8,3.33l1.76,1.12-1,.53Zm-6.94-4.39-2.47-1.56c-.24.35-.12.74.57,1.17A2.82,2.82,0,0,0,141.78,224.86Zm3.49,1,2.67,1.69c.27-.36.15-.79-.66-1.3A2.91,2.91,0,0,0,145.27,225.91Z" transform="translate(-53.99 -34.94)"/><path class="cls-5" d="M109.86,229.44a22.17,22.17,0,0,0-11.24-2.76,22.17,22.17,0,0,0-11.24,2.76l-4.13,1.25v4.64a5.75,5.75,0,0,0,1.53,3.74v-8.59H86.1v9.86a13.42,13.42,0,0,0,2.31,1.45v-8.65h1.32v9.25a20.59,20.59,0,0,0,2.6.84V234h1.33v9.5a25.69,25.69,0,0,0,3,.39v-9.49H98V244l.67,0c.81,0,1.6,0,2.37-.11V233.82h1.32v9.9a23.85,23.85,0,0,0,3-.6v-8.91h1.32v8.5a17.54,17.54,0,0,0,2.7-1.17v-9.9h1.32v9.08a9.67,9.67,0,0,0,2-1.88v-9.39Z" transform="translate(-53.99 -34.94)"/><path class="cls-6" d="M84.78,230.48v8.59a9.41,9.41,0,0,0,1.32,1.27v-9.86Z" transform="translate(-53.99 -34.94)"/><path class="cls-6" d="M112.67,238.84a5.64,5.64,0,0,0,1.32-3.5v-4.57l-1.32-1.32Z" transform="translate(-53.99 -34.94)"/><path class="cls-6" d="M88.41,233.13v8.65c.42.21.86.41,1.32.6v-9.25Z" transform="translate(-53.99 -34.94)"/><path class="cls-6" d="M109.31,231.64v9.9a13.5,13.5,0,0,0,1.32-.82v-9.08Z" transform="translate(-53.99 -34.94)"/><path class="cls-6" d="M92.34,234v9.21q.65.16,1.33.29V234Z" transform="translate(-53.99 -34.94)"/><path class="cls-6" d="M96.63,234.41v9.49c.44,0,.88.05,1.33.06v-9.56Z" transform="translate(-53.99 -34.94)"/><path class="cls-6" d="M101,233.82v10.05q.67-.06,1.32-.15v-9.9Z" transform="translate(-53.99 -34.94)"/><path class="cls-6" d="M105.29,234.21v8.91q.68-.19,1.32-.41v-8.5Z" transform="translate(-53.99 -34.94)"/><ellipse class="cls-30" cx="44.63" cy="195.82" rx="15.37" ry="8.65"/><ellipse class="cls-5" cx="44.73" cy="195.48" rx="13.28" ry="6.81"/><ellipse class="cls-30" cx="44.7" cy="195.5" rx="11.77" ry="5.93"/><ellipse class="cls-31" cx="44.85" cy="195.34" rx="10.64" ry="5.37"/><path class="cls-6" d="M98.6,237.59c-7.42,0-13.46-3.19-13.46-7.11s6-7.11,13.46-7.11,13.46,3.19,13.46,7.11S106,237.59,98.6,237.59Zm0-13.63c-7.1,0-12.87,2.92-12.87,6.52S91.51,237,98.6,237s12.87-2.92,12.87-6.52S105.7,224,98.6,224Z" transform="translate(-53.99 -34.94)"/><path class="cls-20" d="M103.66,234.15a8.47,8.47,0,0,1-3,.8l-2.55-1.62,1.21-.78,1,.63a1,1,0,0,0,.8.19,2.9,2.9,0,0,0,.85-.29l-3.2-2a6.61,6.61,0,0,1-5.44-.72c-1.71-1.08-1.93-2.3-.76-3.21l-1.58-1,1-.53,1.54,1a8.57,8.57,0,0,1,2.74-.68l2.42,1.53-1.22.76-.93-.59a1,1,0,0,0-.8-.2,3.91,3.91,0,0,0-.62.19l3,1.91h0a7.1,7.1,0,0,1,5.63.76c1.85,1.17,2,2.41.8,3.33l1.76,1.12-1,.53Zm-6.94-4.39-2.47-1.56c-.24.35-.12.74.57,1.17A2.82,2.82,0,0,0,96.72,229.75Zm3.49,1,2.67,1.69c.27-.36.15-.79-.66-1.3A2.91,2.91,0,0,0,100.21,230.8Z" transform="translate(-53.99 -34.94)"/><path class="cls-5" d="M114.6,222a24.24,24.24,0,0,0-22.47,0L88,223.26v4.64a5.75,5.75,0,0,0,1.53,3.74V223h1.32v9.86a13.45,13.45,0,0,0,2.31,1.45V225.7h1.32v9.25a20.64,20.64,0,0,0,2.6.84v-9.21H98.4v9.5a25.69,25.69,0,0,0,3,.39V227h1.33v9.56l.67,0c.81,0,1.6,0,2.37-.11V226.39h1.32v9.9a23.89,23.89,0,0,0,3-.6v-8.91h1.32v8.5a17.57,17.57,0,0,0,2.7-1.17v-9.9h1.32v9.08a9.66,9.66,0,0,0,2-1.88V222Z" transform="translate(-53.99 -34.94)"/><path class="cls-6" d="M89.52,223v8.59a9.42,9.42,0,0,0,1.32,1.27V223Z" transform="translate(-53.99 -34.94)"/><path class="cls-6" d="M117.41,231.4a5.64,5.64,0,0,0,1.32-3.5v-4.57L117.41,222Z" transform="translate(-53.99 -34.94)"/><path class="cls-6" d="M93.15,225.7v8.65c.42.21.86.41,1.32.6V225.7Z" transform="translate(-53.99 -34.94)"/><path class="cls-6" d="M114.06,224.2v9.9a13.54,13.54,0,0,0,1.32-.82V224.2Z" transform="translate(-53.99 -34.94)"/><path class="cls-6" d="M97.08,226.58v9.21q.65.16,1.32.29v-9.5Z" transform="translate(-53.99 -34.94)"/><path class="cls-6" d="M101.37,227v9.49c.44,0,.88.05,1.33.06V227Z" transform="translate(-53.99 -34.94)"/><path class="cls-6" d="M105.74,226.39v10.05q.67-.06,1.32-.15v-9.9Z" transform="translate(-53.99 -34.94)"/><path class="cls-6" d="M110,226.78v8.91q.68-.19,1.32-.41v-8.5Z" transform="translate(-53.99 -34.94)"/><ellipse class="cls-30" cx="49.37" cy="188.39" rx="15.37" ry="8.65"/><ellipse class="cls-5" cx="49.48" cy="188.05" rx="13.28" ry="6.81"/><ellipse class="cls-30" cx="49.45" cy="188.06" rx="11.77" ry="5.93"/><ellipse class="cls-31" cx="49.59" cy="187.9" rx="10.64" ry="5.37"/><path class="cls-6" d="M103.35,230.16c-7.42,0-13.46-3.19-13.46-7.11s6-7.11,13.46-7.11,13.46,3.19,13.46,7.11S110.77,230.16,103.35,230.16Zm0-13.63c-7.1,0-12.87,2.92-12.87,6.52s5.77,6.52,12.87,6.52,12.87-2.92,12.87-6.52S110.44,216.53,103.35,216.53Z" transform="translate(-53.99 -34.94)"/><path class="cls-20" d="M108.4,226.71a8.47,8.47,0,0,1-3,.8l-2.55-1.62,1.21-.78,1,.63a1,1,0,0,0,.8.19,2.91,2.91,0,0,0,.85-.29l-3.2-2a6.62,6.62,0,0,1-5.44-.72c-1.71-1.08-1.93-2.3-.76-3.21l-1.58-1,1-.53,1.54,1a8.56,8.56,0,0,1,2.74-.68l2.42,1.53-1.22.76-.93-.59a1,1,0,0,0-.8-.19,3.89,3.89,0,0,0-.62.19l3,1.91h0a7.1,7.1,0,0,1,5.63.76c1.85,1.17,2,2.41.8,3.33l1.76,1.12-1,.53Zm-6.94-4.39L99,220.76c-.24.35-.12.74.57,1.17A2.82,2.82,0,0,0,101.46,222.32Zm3.49,1,2.67,1.69c.27-.36.15-.79-.66-1.3A2.91,2.91,0,0,0,105,223.36Z" transform="translate(-53.99 -34.94)"/><polygon class="cls-32" points="391.84 131.31 386.55 134.25 386.55 84.75 391.84 81.81 391.84 131.31"/><polygon class="cls-7" points="365.91 72.84 380.2 52.81 393.43 88.72 386.55 84.75 386.55 134.25 372.79 126.31 372.79 76.81 365.91 72.84"/><polygon class="cls-33" points="380.2 52.81 385.49 49.86 398.72 85.78 393.43 88.72 380.2 52.81"/><path class="cls-21" d="M178.55,306l68.13,39.33c2.72,1.57,7.51,1.37,10.65-.44l113.32-65.43c3.14-1.81,3.48-4.58.76-6.15L303.28,234c-2.72-1.57-7.51-1.37-10.65.44L179.31,299.85C176.17,301.67,175.83,304.43,178.55,306Z" transform="translate(-53.99 -34.94)"/><rect class="cls-21" x="365.45" y="270.89" width="7.8" height="5.18" transform="translate(684.7 512.01) rotate(180)"/><rect class="cls-21" x="176.71" y="298.36" width="7.8" height="4.88" transform="translate(307.23 566.65) rotate(180)"/><path class="cls-22" d="M178.55,301.21l68.13,39.33c2.72,1.57,7.51,1.37,10.65-.44l113.32-65.43c3.14-1.81,3.48-4.58.76-6.15l-68.13-39.33c-2.72-1.57-7.51-1.37-10.65.44L179.31,295.06C176.17,296.87,175.83,299.64,178.55,301.21Z" transform="translate(-53.99 -34.94)"/><path class="cls-34" d="M180.78,301.33l65.7,37.7c2.64,1.53,7.31,1.33,10.36-.43L368,274.78c3.05-1.76,3.39-4.45.74-6l-65.7-37.7c-2.64-1.53-7.31-1.33-10.36.43L181.52,295.35C178.47,297.12,178.13,299.81,180.78,301.33Z" transform="translate(-53.99 -34.94)"/><polygon class="cls-20" points="134.24 261.67 200.64 300.01 307.74 238.18 241.33 199.84 134.24 261.67"/><polygon class="cls-35" points="165.62 274.9 199.77 294.62 222.56 281.47 188.41 261.75 165.62 274.9"/><polygon class="cls-35" points="191.95 259.62 226.1 279.33 233.96 274.79 199.81 255.07 191.95 259.62"/><path class="cls-16" d="M331,251c-.82.47-.91,1.19-.2,1.6a3.08,3.08,0,0,0,2.78-.11c.82-.47.91-1.19.2-1.6A3.09,3.09,0,0,0,331,251Z" transform="translate(-53.99 -34.94)"/><path class="cls-24" d="M212.28,315.13c-1.42.84-.27,2.86,2.57,4.5s6.29,2.29,7.71,1.44.27-2.86-2.57-4.5S213.7,314.29,212.28,315.13Z" transform="translate(-53.99 -34.94)"/><path class="cls-22" d="M213.3,315.72c-1,.56.08,2.08,2.36,3.4s4.91,1.92,5.88,1.36-.08-2.08-2.36-3.4S214.28,315.16,213.3,315.72Z" transform="translate(-53.99 -34.94)"/><path class="cls-16" d="M355.66,286.85l6.57-3.79a2,2,0,0,0,.82-1.58h0c0-.6-.37-.89-.82-.62l-6.57,3.79a2,2,0,0,0-.82,1.58h0C354.84,286.83,355.21,287.11,355.66,286.85Z" transform="translate(-53.99 -34.94)"/><path class="cls-16" d="M343.92,293.66l6.57-3.79a2,2,0,0,0,.82-1.58h0c0-.6-.37-.89-.82-.62l-6.57,3.79a2,2,0,0,0-.82,1.58h0C343.1,293.65,343.47,293.93,343.92,293.66Z" transform="translate(-53.99 -34.94)"/><path class="cls-16" d="M236.79,337.4a2.45,2.45,0,0,0,1,2c.56.33,1,0,1-.77a2.45,2.45,0,0,0-1-2C237.25,336.3,236.79,336.65,236.79,337.4Z" transform="translate(-53.99 -34.94)"/><polygon class="cls-17" points="197.44 242.65 210.43 235.14 197.44 227.63 184.44 235.14 197.44 242.65"/><polygon class="cls-17" points="175.26 255.49 188.25 247.98 175.26 240.47 162.26 247.98 175.26 255.49"/><polygon class="cls-17" points="153.42 268.03 166.42 260.52 153.42 253.01 140.42 260.52 153.42 268.03"/><polygon class="cls-17" points="261.36 234.04 274.36 226.54 261.36 219.03 248.36 226.54 261.36 234.04"/><polygon class="cls-17" points="284.22 246.58 297.22 239.07 284.22 231.56 271.22 239.07 284.22 246.58"/><path class="cls-20" d="M239.19,303.06l-.42,1.12a6,6,0,0,1,3.21.56c1,.55,1,1.27.08,1.82s-2.3.66-4.31-.5l-1.34.77c1.73,1,1.61,1.72.67,2.27a2.65,2.65,0,0,1-2.66,0,1.52,1.52,0,0,1-.81-1.58l-2,.18A2.39,2.39,0,0,0,233,310a5.55,5.55,0,0,0,5.53.1c1.13-.65,1.32-1.43.8-2.23l.06,0a5.59,5.59,0,0,0,4.35-.4c1.85-1.07,1.54-2.5-.15-3.48A7.68,7.68,0,0,0,239.19,303.06Z" transform="translate(-53.99 -34.94)"/><path class="cls-20" d="M242.63,309.52c-3.43,2-4.06,3.69-2.23,4.74s4.79.68,8.21-1.29,4.16-3.74,2.33-4.8S246.06,307.54,242.63,309.52Zm4.46,2.57c-2.88,1.66-4.39,1.83-5.25,1.34s-.56-1.37,2.32-3,4.5-1.88,5.35-1.4S250,310.44,247.08,312.1Z" transform="translate(-53.99 -34.94)"/><path class="cls-20" d="M258.07,316.14c-2.09,1.21-2.41,2.41-1.13,3.15s3.36.55,5.45-.65,2.44-2.43,1.16-3.17S260.18,314.92,258.07,316.14Zm3.17,1.83c-1.57.9-2.65,1-3.23.7s-.35-1,1.21-1.87,2.68-1.05,3.26-.72S262.81,317.06,261.24,318Zm-9.78,3,1,.56,5.91-9.1-1-.57Zm-4.1-6.17c-2.09,1.21-2.4,2.41-1.13,3.15s3.36.56,5.45-.65,2.44-2.43,1.16-3.17S249.48,313.6,247.37,314.82Zm3.17,1.83c-1.56.9-2.65,1-3.23.7s-.35-1,1.21-1.87,2.68-1.05,3.26-.72S252.1,315.75,250.54,316.65Z" transform="translate(-53.99 -34.94)"/><polygon class="cls-35" points="175.26 208.08 184.82 202.55 175.26 197.03 165.69 202.55 175.26 208.08"/><polygon class="cls-36" points="184.82 202.55 184.82 247.95 175.26 253.47 175.26 208.08 184.82 202.55"/><polygon class="cls-37" points="165.69 202.55 165.69 247.95 175.26 253.47 175.26 208.08 165.69 202.55"/><polygon class="cls-35" points="261.36 186.58 270.93 181.06 261.36 175.53 251.8 181.06 261.36 186.58"/><polygon class="cls-36" points="270.93 181.06 270.93 226.45 261.36 231.97 261.36 186.58 270.93 181.06"/><polygon class="cls-37" points="251.8 181.06 251.8 226.45 261.36 231.97 261.36 186.58 251.8 181.06"/><polygon class="cls-33" points="284.22 218.78 293.78 213.25 284.22 207.72 274.65 213.25 284.22 218.78"/><polygon class="cls-7" points="293.78 213.25 293.78 239.07 284.22 244.6 284.22 218.78 293.78 213.25"/><polygon class="cls-32" points="274.65 213.25 274.65 239.07 284.22 244.6 284.22 218.78 274.65 213.25"/><polygon class="cls-17" points="261.66 259.7 274.65 252.19 261.66 244.69 248.66 252.19 261.66 259.7"/><polygon class="cls-33" points="261.66 247.58 271.22 242.05 261.66 236.53 252.09 242.05 261.66 247.58"/><polygon class="cls-7" points="271.22 242.05 271.22 252.2 261.66 257.73 261.66 247.58 271.22 242.05"/><polygon class="cls-32" points="252.09 242.05 252.09 252.2 261.66 257.73 261.66 247.58 252.09 242.05"/><polygon class="cls-4" points="153.42 235.51 162.98 229.99 153.42 224.46 143.85 229.99 153.42 235.51"/><polygon class="cls-3" points="162.98 229.99 162.98 260.46 153.42 265.98 153.42 235.51 162.98 229.99"/><polygon class="cls-2" points="143.85 229.99 143.85 260.46 153.42 265.98 153.42 235.51 143.85 229.99"/><polygon class="cls-12" points="197.44 182.91 207 177.39 197.44 171.86 187.87 177.39 197.44 182.91"/><polygon class="cls-14" points="207 177.39 207 235.06 197.44 240.59 197.44 182.91 207 177.39"/><polygon class="cls-29" points="187.87 177.39 187.87 235.06 197.44 240.59 197.44 182.91 187.87 177.39"/><path class="cls-17" d="M299.65,283.44s6,4.88,2.84,7.23-10.85,0-10.85,0-2.19,3.09-5.62,3.09c-2.49,0-7.07-5-7.07-5s-7.6,1.36-11.62.87-3.89-3.51-1-4.59,4.14-1.63,4.14-1.63a12.42,12.42,0,0,1-4.14-4.28c-1.65-2.87-1-4.91,2.36-5.14S297.71,280.78,299.65,283.44Z" transform="translate(-53.99 -34.94)"/><path class="cls-15" d="M285.73,284.3S288.39,287,289,288s.42,2.17-1.12,3.57-2.49.39-3.74-1-4.55-4-5.2-5S285.73,284.3,285.73,284.3Z" transform="translate(-53.99 -34.94)"/><path class="cls-16" d="M296.63,272a21.57,21.57,0,0,1,5.56,8.76,6.51,6.51,0,0,1-.6,5.31c-.61,1-1.07,1.1-2.32,1.85-3.78-.36-5.35.61-7.63-.71-3-1.72-5-4.58-7-5.5-1.8-.82-3.95,1.36-6.92,1.15-2.43-.17-6-2.17-7.29-3.2a10.36,10.36,0,0,1-3.06-4c-.7-1.43-1.41-2.57-.91-3.85s1.12-2.52,2.84-2.89c6.66-1.43,15.22-.62,15.22-.62S295.34,271.2,296.63,272Z" transform="translate(-53.99 -34.94)"/><path class="cls-38" d="M277,257.56a80.52,80.52,0,0,0,4.48-13.16l-.73-1.15s-3-.34-5.73,5.1-5.74,10.9-4.21,13.34C272.67,262.68,273.86,260.94,277,257.56Z" transform="translate(-53.99 -34.94)"/><path class="cls-38" d="M294.13,279.59s-4.5.29-7,.36-4.54,0-4.54,0-3.61-3.48-5.43-5.11-3.59-2.89-3.59-2.89,4.85,1.35,5.75,2.05c.64-1.46,1.72-3.56,1.72-3.56l8.64,2.51a32.86,32.86,0,0,0-3.12,2c-1,.91-.57,1.64-.57,1.64S291.88,278.13,294.13,279.59Z" transform="translate(-53.99 -34.94)"/><path class="cls-15" d="M281,244s-4.41,3.56-4.94,8.6c-.26,2.5,1.22,8.68,1.24,14.2a4,4,0,0,0-1.61,1.4s3.21,7,12.62,5.63a42.57,42.57,0,0,1,10-.25s.28-1-.94-2.7c-1-1.36.48-1.58.38-2.26-.14-.92-.69-1.12-1.06-2.57-1.4-5.47,0-12.75-1.2-15.68-.95-2.31-6.35-4.92-6.35-4.92S285.09,242.39,281,244Z" transform="translate(-53.99 -34.94)"/><path class="cls-16" d="M282.89,243.54a26,26,0,0,0-4.12,4.24,8.51,8.51,0,0,0-1.3,2.34l1.3,1.27-1.85.89s-1,7,.37,9.3,3.09,8.18,3.09,8.18a76.28,76.28,0,0,1,2.8-7.54c.85-1.5,4.08-5.67,4.08-5.67l-1.62-2.44,2.06-.67s4.3-4.85,3.91-6.26a4.56,4.56,0,0,0-3.25-3.17Z" transform="translate(-53.99 -34.94)"/><path class="cls-20" d="M280.49,248.34a60.36,60.36,0,0,0-1.62,6c-.57,2.87,1.51,12.42,1.51,12.42s.93-9.34,2.8-12a60.42,60.42,0,0,1,5.1-6.14S282.4,247.61,280.49,248.34Z" transform="translate(-53.99 -34.94)"/><path class="cls-3" d="M281.58,248.93l-.31,2.45a6.68,6.68,0,0,0-1.76,3.11,64.78,64.78,0,0,0,0,7.91l.85,4.41.37-2.94s.66-3.81,1.23-6.16a14.45,14.45,0,0,1,.26-2.14,16.85,16.85,0,0,0,.47-3.54l1.53-1.83-1.46-1.7Z" transform="translate(-53.99 -34.94)"/><path class="cls-18" d="M282.54,243.85l-.27,3.88a10.4,10.4,0,0,0,1.82,1.88c1.4-.44,4.66-3.46,4.66-3.46l-1.08-6Z" transform="translate(-53.99 -34.94)"/><path class="cls-19" d="M289.35,234.65a5.1,5.1,0,0,0-8.31-1.27c-3.74,3.5-2.27,10.53.49,11a7.85,7.85,0,0,0,6.05-2.34C289.67,239.92,290.13,236.31,289.35,234.65Z" transform="translate(-53.99 -34.94)"/><path class="cls-25" d="M282.44,245.36l.35,3.15-2.56,1S279.94,246.18,282.44,245.36Z" transform="translate(-53.99 -34.94)"/><path class="cls-25" d="M288.53,244.91a7.13,7.13,0,0,1-2.63,2.51,17.51,17.51,0,0,1-3.12,1.08l1,2.89a23.88,23.88,0,0,0,4.54-2.42S290.27,246.62,288.53,244.91Z" transform="translate(-53.99 -34.94)"/><path class="cls-16" d="M284.54,268.36c.78,1.37,2.28,1.39,4.22,0,4.09-2.94,6.76-9.61,7.58-13.11,1-4.39-.69-6.08-3-7.1-1.3.33-2.48,2.46-4,6.57C288,258.4,283.17,266,284.54,268.36Z" transform="translate(-53.99 -34.94)"/><path class="cls-15" d="M288.31,232.08c-1.74-3.46-5.8-3.12-7.86-.66s-1.9,2.37-3.41,3.25c3.34,3.52,7.63,1.76,9.15,1.22-.73,2.12.2,4.15.48,4.11.46-.89.92-1,1.29-.51s-.05,2.29-.05,2.29a6.54,6.54,0,0,0,3-4.11C291.32,235.89,291.52,233.08,288.31,232.08Z" transform="translate(-53.99 -34.94)"/><path class="cls-19" d="M284.64,250.39s.15-3.42.25-4.12a15.07,15.07,0,0,1,.44-2.23c.33-1,.35-1.58-.3-1.1s-.83,1.23-1.45,1.54-1.55-1.45-2.8-2-1.9-1.07-2.2-.47a5.66,5.66,0,0,0-.15,2.9c.24,1,2.14,1.3,3.19,2.41a1.81,1.81,0,0,1,.54.89,18.29,18.29,0,0,1,.17,1.94Z" transform="translate(-53.99 -34.94)"/><path class="cls-20" d="M281.81,251.61V248.5a3.08,3.08,0,0,0,1.31.21,8,8,0,0,0,2.15-.46s.27,2.41.25,3.07S281.9,252.38,281.81,251.61Z" transform="translate(-53.99 -34.94)"/><path class="cls-16" d="M285.73,250a11.14,11.14,0,0,1-4.23.39,74.27,74.27,0,0,0,.11,9.63c.45,4.18.59,7.79,2.05,8.83s4-.82,4-.82.69-6.76,0-10.54A35.54,35.54,0,0,0,285.73,250Z" transform="translate(-53.99 -34.94)"/><path class="cls-19" d="M279,261.48a16.8,16.8,0,0,0,4.48,3.38c.4.2,3,.75,2,1.52-.69.53-3.24-.93-2.73.53s4.85.94,4.13,2.39c-1.72,1.38-4.22.67-5.49-.31a49.82,49.82,0,0,1-3.22-4.34Z" transform="translate(-53.99 -34.94)"/><path class="cls-20" d="M279,260.84a15.24,15.24,0,0,1,2.54,1.79,6.49,6.49,0,0,0-2.12,4.29,19.33,19.33,0,0,0-2.21-1.46Z" transform="translate(-53.99 -34.94)"/><path class="cls-38" d="M273.06,258s-2.45.23-2.57,1.37c-.21,2-.73,3,.63,4.08a28.78,28.78,0,0,0,7.49,3.39c-.81-3,1.84-5.54,1.84-5.54S276.91,257.76,273.06,258Z" transform="translate(-53.99 -34.94)"/><path class="cls-18" d="M279.34,241.85a4.23,4.23,0,0,1,1.67.77c.85.64,1.53,1.34,1.78,1.54a5,5,0,0,0-1.72-2.09C279.94,241.45,279.34,241.85,279.34,241.85Z" transform="translate(-53.99 -34.94)"/><path class="cls-18" d="M284.1,244s.56-.93.93-1.1.53,0,.53,0-.2-.62-.73-.27A2.52,2.52,0,0,0,284.1,244Z" transform="translate(-53.99 -34.94)"/><path class="cls-15" d="M278.79,280.11s-3.13-.28-4.66-.52a3.71,3.71,0,0,0-3,.9,29.09,29.09,0,0,0-4.33,1.69c-1.54.88-1.95,1.95-1.95,4,0,1.81,4.39,1.17,6.65.5s5.33-.08,6.75-1S278.79,280.11,278.79,280.11Z" transform="translate(-53.99 -34.94)"/><path class="cls-16" d="M297.69,279.36s-5.67-.18-9.76-.05-9.87-.36-11.94,0c-1.3,1.06-2.15,2.19-1.76,3.95a9,9,0,0,0,1.76,3.35s7.54.33,11,.84,10.09,1.28,12.3.55C302,286.14,297.69,279.36,297.69,279.36Z" transform="translate(-53.99 -34.94)"/><path class="cls-38" d="M353.2,85.86a80.53,80.53,0,0,0,4.48-13.16l-.73-1.15s-3-.34-5.73,5.1S345.48,87.56,347,90C348.83,91,350,89.24,353.2,85.86Z" transform="translate(-53.99 -34.94)"/><path class="cls-15" d="M350.81,144.25s-1.11,1.21-2.59,2.65-1.8,1.72-3.07,3c-.74.73-.13,1.39,1.28,1.34a25.44,25.44,0,0,0,5.64-1.22,28.67,28.67,0,0,0,4.22-2.2,2.8,2.8,0,0,0,1.25-1.58V144Z" transform="translate(-53.99 -34.94)"/><path class="cls-15" d="M365.74,151.29s-.26,2.29-.41,5.16.25,5.41,1.13,5.72,3.38.28,4.8-3.71a15.84,15.84,0,0,0,.57-7.85Z" transform="translate(-53.99 -34.94)"/><path class="cls-16" d="M371.27,107.74c.52-8.18-4-12.48-4-12.48.36-2.76-12.43,1.1-12.43,1.1S352.12,111.18,351,119c-1.31,8.87-.74,24.7-.74,24.7s.17,1.93,3.47,1.92a7.59,7.59,0,0,0,4.63-2.07l.26-18.48L362,112.37s-.07,12.61,1.4,17.74c2.19,7.64,1.49,22.26,1.49,22.26s4.29,1.53,7.23.06,2.36-3.11,2.36-3.11,1-12.55-2.82-21.05C371.35,121.83,371,111.5,371.27,107.74Z" transform="translate(-53.99 -34.94)"/><path class="cls-15" d="M357.12,72.31s-4.41,3.56-4.94,8.6c-.26,2.5.5,10.93.53,16.45,0,3.1-1.22,11.79-1.22,11.79a28.4,28.4,0,0,0,4,2.23,31.09,31.09,0,0,1,.83-5.65s.25,3.88.25,6a15.25,15.25,0,0,0,4.5.66c4.09,0,10.81-2.86,10.81-2.86s0-9.3-1.24-14.44c-1.33-5.49.68-14.71.49-16.19-.33-2.48-5.95-5.16-5.95-5.16S361.25,70.68,357.12,72.31Z" transform="translate(-53.99 -34.94)"/><path class="cls-16" d="M359,71.84a26,26,0,0,0-4.12,4.24,8.51,8.51,0,0,0-1.3,2.34l1.3,1.27-1.85.89s-1,7,.37,9.3,3.09,8.18,3.09,8.18a76.29,76.29,0,0,1,2.8-7.54c.85-1.5,4.08-5.67,4.08-5.67l-1.62-2.44,2.06-.67s4.3-4.85,3.91-6.26a4.56,4.56,0,0,0-3.25-3.17Z" transform="translate(-53.99 -34.94)"/><path class="cls-20" d="M356.65,76.64a60.33,60.33,0,0,0-1.62,6c-.57,2.87,1.51,12.42,1.51,12.42s.93-9.34,2.8-12a60.41,60.41,0,0,1,5.1-6.14S358.56,75.91,356.65,76.64Z" transform="translate(-53.99 -34.94)"/><path class="cls-3" d="M357.74,77.23l-.31,2.45a6.68,6.68,0,0,0-1.76,3.11,64.8,64.8,0,0,0,0,7.91l.85,4.41.37-2.94s.66-3.81,1.23-6.16a14.44,14.44,0,0,1,.26-2.14,16.87,16.87,0,0,0,.47-3.54l1.53-1.83-1.46-1.7Z" transform="translate(-53.99 -34.94)"/><path class="cls-18" d="M358.7,72.15,358.43,76a10.4,10.4,0,0,0,1.82,1.88c1.4-.44,4.66-3.46,4.66-3.46l-1.08-6Z" transform="translate(-53.99 -34.94)"/><path class="cls-19" d="M365.5,63a5.1,5.1,0,0,0-8.31-1.27c-3.74,3.49-2.27,10.53.49,11a7.85,7.85,0,0,0,6.05-2.34C365.82,68.22,366.29,64.61,365.5,63Z" transform="translate(-53.99 -34.94)"/><path class="cls-25" d="M358.6,73.65l.35,3.15-2.56,1S356.09,74.48,358.6,73.65Z" transform="translate(-53.99 -34.94)"/><path class="cls-25" d="M364.69,73.21a7.13,7.13,0,0,1-2.63,2.51,17.52,17.52,0,0,1-3.12,1.08l1,2.89a23.87,23.87,0,0,0,4.54-2.42S366.43,74.92,364.69,73.21Z" transform="translate(-53.99 -34.94)"/><path class="cls-16" d="M360.69,96.66c.78,1.36,2.28,1.39,4.22,0,4.09-2.94,6.76-9.61,7.58-13.11,1-4.39-.69-6.08-3-7.1-1.3.33-2.48,2.46-4,6.57C364.14,86.7,359.32,94.26,360.69,96.66Z" transform="translate(-53.99 -34.94)"/><path class="cls-15" d="M364.46,60.38c-1.74-3.46-5.8-3.12-7.86-.66s-1.9,2.37-3.41,3.25c3.34,3.52,7.63,1.76,9.15,1.22-.73,2.12.2,4.15.48,4.11.46-.89.92-1,1.29-.51s-.05,2.29-.05,2.29a6.54,6.54,0,0,0,3-4.1C367.48,64.19,367.68,61.38,364.46,60.38Z" transform="translate(-53.99 -34.94)"/><path class="cls-19" d="M360.8,78.69s.15-3.42.25-4.12a15.07,15.07,0,0,1,.44-2.23c.33-1,.35-1.58-.3-1.1s-.83,1.24-1.45,1.54-1.55-1.45-2.8-2-1.9-1.07-2.2-.47a5.66,5.66,0,0,0-.15,2.9c.24,1,2.14,1.3,3.19,2.41a1.82,1.82,0,0,1,.54.89,18.31,18.31,0,0,1,.17,1.94Z" transform="translate(-53.99 -34.94)"/><path class="cls-20" d="M358,79.91V76.8a3.08,3.08,0,0,0,1.31.21,8,8,0,0,0,2.15-.46s.27,2.41.25,3.07S358.06,80.68,358,79.91Z" transform="translate(-53.99 -34.94)"/><path class="cls-16" d="M361.89,78.3a11.14,11.14,0,0,1-4.23.39,74.25,74.25,0,0,0,.11,9.63c.45,4.18.59,7.79,2.05,8.83s4-.82,4-.82.69-6.76,0-10.54A35.55,35.55,0,0,0,361.89,78.3Z" transform="translate(-53.99 -34.94)"/><path class="cls-19" d="M355.21,89.78a16.8,16.8,0,0,0,4.48,3.38c.4.2,3,.75,2,1.52-.69.53-3.24-.93-2.73.53s4.85.94,4.13,2.39c-1.72,1.38-4.22.67-5.49-.31A49.82,49.82,0,0,1,354.36,93Z" transform="translate(-53.99 -34.94)"/><path class="cls-20" d="M355.12,89.14a15.23,15.23,0,0,1,2.54,1.79,6.49,6.49,0,0,0-2.12,4.29,19.34,19.34,0,0,0-2.21-1.46Z" transform="translate(-53.99 -34.94)"/><path class="cls-38" d="M349.21,86.28s-2.45.23-2.57,1.37c-.21,2-.73,3,.63,4.08a28.78,28.78,0,0,0,7.49,3.39c-.81-3,1.84-5.54,1.84-5.54S353.07,86.06,349.21,86.28Z" transform="translate(-53.99 -34.94)"/><path class="cls-18" d="M355.49,70.15a4.23,4.23,0,0,1,1.67.77c.85.64,1.53,1.34,1.78,1.54a5,5,0,0,0-1.72-2.09C356.1,69.75,355.49,70.15,355.49,70.15Z" transform="translate(-53.99 -34.94)"/><path class="cls-18" d="M360.25,72.34s.56-.93.93-1.1.53,0,.53,0-.2-.62-.73-.27A2.52,2.52,0,0,0,360.25,72.34Z" transform="translate(-53.99 -34.94)"/><path class="cls-19" d="M322,115.78s-1,1.6-1.46,2.29a6.68,6.68,0,0,0-.52,2.95,13.49,13.49,0,0,1-.44,2.22l3.13,1.48s2.15-2,2-3.39a14,14,0,0,1,.14-3.48C325,117.57,322,115.78,322,115.78Z" transform="translate(-53.99 -34.94)"/><path class="cls-39" d="M319.58,122.24l-1,1.57s-1.68.37-2.18,1.13a25.76,25.76,0,0,0-1.61,4.53c-.44,1.48-2.61,6.43-2.61,8.2s-.12,2.46.55,3.33,2.06.73,2.9.64,5.53-7.17,5.74-8,.56-7.51.56-7.51l1.51-2.49A20.58,20.58,0,0,0,319.58,122.24Z" transform="translate(-53.99 -34.94)"/><path class="cls-19" d="M336,139.65a3,3,0,0,1,.81,2.52,4.72,4.72,0,0,1-.4,2,3.49,3.49,0,0,1,1.7-.65c.7.06.53,1.36-1.3,2.41s-2.7.77-3.23.3-1.33-5.93-1.2-6.18C333.22,138.43,336,139.65,336,139.65Z" transform="translate(-53.99 -34.94)"/><path class="cls-15" d="M310.64,197.81c.9-.56,6.71,1.05,6.71,1.05l6.27,2.1-.48,4.72a4,4,0,0,1-5.32.3c-1.84-1.24-5.4-2.84-6.74-4.76C310.11,199.83,309.74,198.37,310.64,197.81Z" transform="translate(-53.99 -34.94)"/><path class="cls-15" d="M326.15,188.66c.9-.56,6.71,1.05,6.71,1.05l6.27,2.1-.48,4.72a4,4,0,0,1-5.32.3c-1.84-1.24-5.4-2.84-6.74-4.76C325.62,190.67,325.25,189.22,326.15,188.66Z" transform="translate(-53.99 -34.94)"/><path class="cls-16" d="M334.17,145.47s2.88,2.83,3.33,8.76c.2,2.67-1.23,14.07-1.23,14.07A61.17,61.17,0,0,1,339,178a115.37,115.37,0,0,1,.49,13.32c-.37,1.18-1.59,2.29-4,2.11s-4.28-3.4-4.28-3.4-.87-7.31-1.69-12.14c-.47-2.76-1-4.58-1.25-6.87-.1-2.63-.37-9-.37-9s-3,12-4,15.64c1.86,6.1.21,22.71,0,24-3.72,2.93-6,.16-7.55-2.24.09-3.69-.5-10.2-.64-15.37-.11-4.07,0-5.77-.11-7.14-.13-2.66,1.08-10.65,1.69-16.77.71-7.13.86-12.29.86-12.29Z" transform="translate(-53.99 -34.94)"/><path class="cls-25" d="M329.76,119.41a3.38,3.38,0,0,1,4.53-.77,15.62,15.62,0,0,1,3.22,3.26,16.4,16.4,0,0,1,2.76,4.27c.23.58-.27,3.52-.82,6.09-.49,2.28-1.42,7.24-2.3,8.94-1.17,1.25-4.89-.08-4.89-.08Z" transform="translate(-53.99 -34.94)"/><path class="cls-20" d="M321,124.82c-3,2.79-1.69,13.24-1.77,15.45-.14,3.86-1.8,8-1.13,10.34,1.32,1.32,4.82,3,8.82,2.57a11.82,11.82,0,0,0,8.9-5.32c0-.63-1.7-3.86-1.32-5.87.89-4.8,2.23-10.49,2.35-14.5.08-2.8-1-4.65-1.8-6.26s-2.46-2.53-4.75-2.6c-1.71.16-2.9,2.13-4.15,2.85A31.2,31.2,0,0,0,321,124.82Z" transform="translate(-53.99 -34.94)"/><path class="cls-18" d="M325.51,122.74a23.94,23.94,0,0,0,6.08-2l-.68-3.82-5.33,1.26a9.22,9.22,0,0,1,0,4.4Z" transform="translate(-53.99 -34.94)"/><path class="cls-19" d="M332.83,108.88a5.54,5.54,0,0,0-9-1.38c-4.06,3.79-2.46,11.43.53,12a8.52,8.52,0,0,0,6.57-2.54C333.18,114.6,333.68,110.68,332.83,108.88Z" transform="translate(-53.99 -34.94)"/><path class="cls-15" d="M321.51,106.6a6.62,6.62,0,0,0,3.57,4.25,3,3,0,0,1-.41,2.63c.1.32.61.5.61.5.67-.95,1.92-1.48,2.38-.42s-.17,1.65-1,2.65C326,119,330,120.75,330,120.75a44.69,44.69,0,0,1,3.53-4.68c1.69-1.86,2.28-5.94-.22-7.81a4.66,4.66,0,0,0-6.33-3.61c-1.32.5-2.09,1-3,1.41A6.09,6.09,0,0,1,321.51,106.6Z" transform="translate(-53.99 -34.94)"/><path class="cls-25" d="M327.65,120.43a35.22,35.22,0,0,0-4.36,2.61s3.45.6,5.61-.31a12,12,0,0,0,3.34-2c.56-.72-.65-2-.65-2A32.22,32.22,0,0,0,327.65,120.43Z" transform="translate(-53.99 -34.94)"/><path class="cls-25" d="M321.51,124.25c-1.14.19-3,2-4.1,4.15s-3.87,5.82-4.83,7.25-.61,3.27-.05,5,4,1.23,5.82.27,5.13-6.76,6.3-9.72S324.76,123.72,321.51,124.25Z" transform="translate(-53.99 -34.94)"/><path class="cls-18" d="M322.72,118.07a9.44,9.44,0,0,1,1.22-1.77.8.8,0,0,1,1.16.39,1.44,1.44,0,0,1,0,.79.81.81,0,0,0-.84-.8C323.74,116.65,323.44,117.71,322.72,118.07Z" transform="translate(-53.99 -34.94)"/><path class="cls-18" d="M321.71,116.18a6.57,6.57,0,0,0,.46,1.25,1.59,1.59,0,0,0,.55.64l.35-.25s-.17,0-.56-.43A6.8,6.8,0,0,1,321.71,116.18Z" transform="translate(-53.99 -34.94)"/><path class="cls-18" d="M275.28,124.44c-.5-1.32,8.12-2.33,8.12-2.33s0,6.43.25,9.13c.35,4.08.27,6-.91,11.51a98.73,98.73,0,0,0-1,14.88,13.93,13.93,0,0,0,3.19,8.17c.74,1.17-2.09,2.28-3.87.57s-2-2-3-2.58-.67-1.82-.6-4.5c.06-2.07-.84-9-1.19-13.41-.49-6.28.89-6.42.79-9.6A47.45,47.45,0,0,0,275.28,124.44Z" transform="translate(-53.99 -34.94)"/><path class="cls-29" d="M276.65,160.66v0a1.38,1.38,0,0,1,.05-.17h0a4,4,0,0,1,.76-1.18s.42,3.8,2.66,5.37c2.49,1.75,3.61,2,4.79,1.14a25.06,25.06,0,0,0,2,2.42c.74.82.12,1.64-2.06,1.48a5.49,5.49,0,0,1-3.7-1.83,28.28,28.28,0,0,0-2.59-3.33l-.38-.34h0c-.07,1,0,1.65-.08,2.38-.21.33-.53.25-.79,0a14.25,14.25,0,0,0-.41-3A5.49,5.49,0,0,1,276.65,160.66Z" transform="translate(-53.99 -34.94)"/><path class="cls-19" d="M268.64,127.86c-.5-1.32,8.12-2.33,8.12-2.33s0,6.43.25,9.13c.35,4.08.27,6-.91,11.51a98.71,98.71,0,0,0-1,14.88,13.93,13.93,0,0,0,3.19,8.16c.74,1.17-2.09,2.28-3.87.57s-2-2-3-2.58-.67-1.82-.6-4.5c.06-2.07-.84-9-1.19-13.41-.49-6.28.89-6.42.79-9.6A47.43,47.43,0,0,0,268.64,127.86Z" transform="translate(-53.99 -34.94)"/><path class="cls-29" d="M270,164v0a1.35,1.35,0,0,1,.05-.17h0a4,4,0,0,1,.76-1.18s.42,3.8,2.66,5.37c2.49,1.75,3.61,2,4.79,1.14a25,25,0,0,0,2,2.42c.74.82.12,1.64-2.06,1.48a5.49,5.49,0,0,1-3.7-1.83,28.26,28.26,0,0,0-2.59-3.33l-.38-.34h0c-.07,1,0,1.65-.08,2.38-.21.33-.53.25-.79,0a14.26,14.26,0,0,0-.41-3A5.49,5.49,0,0,1,270,164Z" transform="translate(-53.99 -34.94)"/><path class="cls-29" d="M291.14,96.77c-.3-.48-.6-.95-.88-1.39-2.24-3.38-5.35-11-9.41-12.54s-4.92,1.39-4.92,1.39l10,16.64A9.75,9.75,0,0,0,291.14,96.77Z" transform="translate(-53.99 -34.94)"/><path class="cls-15" d="M272.49,77.4s-2,2.26-2.68,7.49-.48,6.68-.48,6.68,4.48.56,5.49-1.74S272.49,77.4,272.49,77.4Z" transform="translate(-53.99 -34.94)"/><path class="cls-29" d="M285.44,109.86a42.08,42.08,0,0,1,.58,6.84c.11,5.43-.56,16.39-.56,16.39a8.58,8.58,0,0,1-4.6,2.77,15.1,15.1,0,0,1-8.33-.22c-.55-2.43-1-6.09-1-6.09-.15,1.72-.89,4.14-.94,5.73a4.94,4.94,0,0,1-2.32-1.25s-.43-4.43-.85-9.22A28.39,28.39,0,0,1,269.19,111C272.32,103.17,285.26,105.64,285.44,109.86Z" transform="translate(-53.99 -34.94)"/><path class="cls-20" d="M266.62,92.35c.42-2.93,7.08-6.89,7.08-6.89s1.09,3.26,2.11,4.06a26,26,0,0,1,2.74,2.89h0a22.08,22.08,0,0,0-1.23-5.67,10.46,10.46,0,0,1,.17-3.41s.41-.1,1-.21c.88,1,2.61,3.56,3.55,4.64s3.57,4.62,2.76,8a37.32,37.32,0,0,0-1,8.12,48.22,48.22,0,0,0,1.82,6.84s-1.71,4.28-8,3.3a18.37,18.37,0,0,1-8.05-3.53s1.13-7.13,1-10.07A7.84,7.84,0,0,1,266.62,92.35Z" transform="translate(-53.99 -34.94)"/><path class="cls-14" d="M278.57,86.19s1.44,4.1,2.78,7.71,1.32,13.64,1.71,15.14c.64,2.44,2.38,3.39,3.55,2.55,0,0-2.68-11.78-1.8-15.81s-.08-5.05-2.83-8.69-2.67-3-2.67-3Z" transform="translate(-53.99 -34.94)"/><path class="cls-29" d="M279.3,84.89,282.38,89l-.79,1.11a4.22,4.22,0,0,1,1.21,1.11c0,1.84-.56,7-.56,7a36.06,36.06,0,0,0-4.07-10.51c-1-1.54-.4-1.56-.4-1.56S278.81,84.83,279.3,84.89Z" transform="translate(-53.99 -34.94)"/><path class="cls-18" d="M277.82,83.73a26.72,26.72,0,0,0,.75,4.68.93.93,0,0,1-.76,1.09,4.82,4.82,0,0,1-2.8-.35c-2.19-1.75-2.52-2.67-2.52-2.67s.45-2,.5-2.79c.09-1.23,0-5.25,0-5.25Z" transform="translate(-53.99 -34.94)"/><path class="cls-3" d="M278.65,89a5.06,5.06,0,0,1,.15,1.6c-.1.65-.52.87-1.18.35a3.28,3.28,0,0,1-.94-1.29A1.56,1.56,0,0,1,278.65,89Z" transform="translate(-53.99 -34.94)"/><path class="cls-3" d="M278.58,90.68a15,15,0,0,1,1.91,4.38,95,95,0,0,1,2.1,9.6,7.94,7.94,0,0,1-1.31,2.58l-2.11-1.83L277.91,91Z" transform="translate(-53.99 -34.94)"/><path class="cls-25" d="M278.51,85.46s.68.49,1.19,2.87a3.57,3.57,0,0,1-.31,2.56l-1.78-2a5.39,5.39,0,0,0,.26-3.42C277.69,84.65,278.51,85.46,278.51,85.46Z" transform="translate(-53.99 -34.94)"/><path class="cls-19" d="M273.89,73.34a5.17,5.17,0,0,1,8.2,2.32c2,4.8-2.12,11.13-4.53,10.21-1.35-.51-4.08-1.77-5-4.3C271.53,78.73,272.47,74.55,273.89,73.34Z" transform="translate(-53.99 -34.94)"/><path class="cls-14" d="M272.38,85.46a25.89,25.89,0,0,1,5.72,11.68,70.27,70.27,0,0,1,1.56,9.91c.21,3.92-.42,7.26-1.92,8.44-4.54,3.54-10.06-1.82-10.06-1.82s2.2-7.4,1.82-9.68-3.25-12.23-2.32-13.85S272.38,85.46,272.38,85.46Z" transform="translate(-53.99 -34.94)"/><path class="cls-29" d="M272.81,84.89s-.18,2,2.2,4.61c3.65,4.08,3.56,10.33,3.56,10.33l-4.77-6,.81-1.77-1.87-.11a10.09,10.09,0,0,1-1.65-5.07C271.09,85.44,272.81,84.89,272.81,84.89Z" transform="translate(-53.99 -34.94)"/><path class="cls-25" d="M276.94,92.08a16.1,16.1,0,0,0,.67-3.2,17.36,17.36,0,0,1-4.72-3.2A6.9,6.9,0,0,0,276.94,92.08Z" transform="translate(-53.99 -34.94)"/><path class="cls-40" d="M265,113.69a1.91,1.91,0,0,0,2.54-.47c1.32-1.36,2-2.64,1.28-3.33s-1.92-.8-3.29.4A2.8,2.8,0,0,0,265,113.69Z" transform="translate(-53.99 -34.94)"/><path class="cls-29" d="M268.88,88.71c-1.5-.16-3.57,3.22-6.15,7.72s-3.4,7.39-3.53,9.68a4.77,4.77,0,0,0,.92,2.39,20.19,20.19,0,0,0,4.86,5.19,4.5,4.5,0,0,1,1.56-3.37,3.62,3.62,0,0,1,2.26-.43l-3.19-5.19s3.78-4.35,5.16-8.08C272,93.38,270.71,88.91,268.88,88.71Z" transform="translate(-53.99 -34.94)"/><path class="cls-15" d="M278.6,76.82s-3.1,3.59-6.4,4.4c-1.55-3.51-1.86-4.47-1.12-6.69A3.71,3.71,0,0,1,274.6,72s2.69-3,6.49-.27c5.52,4,1.3,8.66,1.3,8.66S282.19,78.1,278.6,76.82Z" transform="translate(-53.99 -34.94)"/><path class="cls-19" d="M275,80.72a4.31,4.31,0,0,0-.77-.83c-.34-.26-1-.34-1.18.65a1.67,1.67,0,0,0,.83,1.87Z" transform="translate(-53.99 -34.94)"/><path class="cls-29" d="M287.87,94.85c.24,0,9.8-1.28,11-1.33-.38,2-.85,2.62.93,4.46-.79,1-4.47,1.69-7,2.41a27.77,27.77,0,0,1-4.93,1.21,2.21,2.21,0,0,1-2-.71C283.86,98.38,287.87,94.85,287.87,94.85Z" transform="translate(-53.99 -34.94)"/><polygon class="cls-37" points="276.72 12.39 249.4 33.28 257.1 38.59 236.65 80.57 219.61 69.12 171.7 165.78 190.32 155.03 222.69 89.96 239.59 101.45 266.94 45.33 273.8 49.98 276.72 12.39"/><polygon class="cls-36" points="281.18 14.98 253.85 35.87 261.55 41.17 241.11 83.15 224.06 71.71 176.15 168.37 194.77 157.62 227.14 92.55 244.04 104.04 271.39 47.92 278.25 52.56 281.18 14.98"/><polygon class="cls-35" points="176.15 168.37 171.7 165.78 219.61 69.12 224.06 71.71 176.15 168.37"/><polygon class="cls-41" points="244.04 104.04 239.59 101.45 226.98 92.88 227.14 92.55 244.04 104.04"/><polygon class="cls-35" points="281.18 14.98 276.72 12.39 249.4 33.28 253.85 35.87 281.18 14.98"/><polygon class="cls-41" points="249.4 33.28 253.85 35.87 261.55 41.17 257.1 38.59 249.4 33.28"/><polygon class="cls-41" points="273.8 49.98 278.25 52.56 271.39 47.92 271.24 48.24 273.8 49.98"/><path class="cls-18" d="M298.75,93.92s.89-1,1.79-1.84a12.8,12.8,0,0,0,1.62-2.52c.36-.44,1,.25.47,1.34l-1.15,2.36-2.12,4.36S297.62,96.89,298.75,93.92Z" transform="translate(-53.99 -34.94)"/><path class="cls-19" d="M265.13,112.84a4,4,0,0,0,1.13,1.35c.72.35,1.32.32,2,.68a7,7,0,0,0,3,1.15,1.83,1.83,0,0,0,1.72-3c-1.29-1.44-1.87-2.27-2.62-2.41a8.79,8.79,0,0,1-2.63-.75C265.13,109.72,265.13,112.84,265.13,112.84Z" transform="translate(-53.99 -34.94)"/><path class="cls-42" d="M146.5,294.81a77.88,77.88,0,0,0-30.11-5.74c-15.15,0-30.12,3.85-39.94,11.21-6.69,5-10,10.88-10.07,16.73h50L151,297Q148.91,295.84,146.5,294.81Z" transform="translate(-53.99 -34.94)"/><polygon class="cls-14" points="12.39 240.6 12.39 281.97 62.39 274.71 62.39 232.62 12.39 240.6"/><polygon class="cls-29" points="97.04 220.58 62.39 232.62 62.39 274.71 97.04 269.67 97.04 220.58"/><path class="cls-12" d="M146.5,253.34a77.88,77.88,0,0,0-30.11-5.74c-15.15,0-30.12,3.85-39.94,11.21-6.69,5-10,10.89-10.07,16.73h50l34.63-20Q148.91,254.37,146.5,253.34Z" transform="translate(-53.99 -34.94)"/><rect class="cls-3" x="66.27" y="258.55" width="50" height="25.18"/><path class="cls-4" d="M170.26,293.5c-.2-7.37-5.47-14.64-15.37-20l-34.63,20h50Z" transform="translate(-53.99 -34.94)"/><polygon class="cls-15" points="59.5 252.57 59.5 294.08 24.25 307.79 24.25 272.94 59.5 252.57"/><path class="cls-11" d="M63.49,287.51v35.21h0c0,7.33,5.11,14.59,14.75,20V294.61Z" transform="translate(-53.99 -34.94)"/><path class="cls-13" d="M63.5,287.51c-.13,7.46,4.95,14.86,14.75,20.37l35.25-20.37Z" transform="translate(-53.99 -34.94)"/><path class="cls-32" d="M82.79,323.05v22.69a52.92,52.92,0,0,0,5.16,2.55c22.06,9.44,53.42,7,70-5.47,6.83-5.12,10.1-11.12,10.07-17.08h0v-23Z" transform="translate(-53.99 -34.94)"/><path class="cls-33" d="M118.06,302.68h0L82.79,323.05a52.94,52.94,0,0,0,5.16,2.55,77.88,77.88,0,0,0,30.11,5.74c15.15,0,30.12-3.85,39.94-11.21,7-5.22,10.23-11.37,10.06-17.44Z" transform="translate(-53.99 -34.94)"/><path class="cls-16" d="M157,320.87a34.8,34.8,0,0,0-7.48,3.09c-3.21,1.92-4.74,4-6.92,2.82s-3.3-8.75-3.3-8.75l18.84-3.4S159.3,319.43,157,320.87Z" transform="translate(-53.99 -34.94)"/><path class="cls-19" d="M156,312.46s4.67,3.91,4.34,8c-.18,2.25.09,3.26-.27,6.06-.34,2.64-.06,12.25.09,15.73.08,1.74,3,3.85,4.29,4.82s.76,2.27,1.18,2.88c.85,1.22-2.81,2.18-4.81.44s-5.29-3-5.44-5.91a74.38,74.38,0,0,0-1.7-13.11,37.37,37.37,0,0,1-.57-8.87c0-1.73-6.36-7.27-6.6-7.82C146,313.33,156,312.46,156,312.46Z" transform="translate(-53.99 -34.94)"/><path class="cls-19" d="M149.72,319.14a6.68,6.68,0,0,1,1.79,5.74,30.48,30.48,0,0,0-.79,6.26c0,2.66-1.22,14.06-1.07,17.53.11,2.55.91,5,1,6.57.07.8-.47,1.94-.42,2.78.09,1.48-3.51,1.22-4.62.7s-1-8-.15-10a60.92,60.92,0,0,0-1.87-11.83c-1.14-4.69.33-11-.65-12.17-2-2.35-6.06-4.39-6.2-6.76-.17-3,2.78-7.84,5.7-6.51C143.48,311.85,146.07,315.48,149.72,319.14Z" transform="translate(-53.99 -34.94)"/><path class="cls-16" d="M128.28,304.91s-2.69,7.25-.2,11.75c2.05,3.71,14.48,10.12,14.48,10.12s.92-4.75,4-6.67c2.58-1.62,11.56-5.48,11.56-5.48l-15.38-11.81A11.13,11.13,0,0,1,128.28,304.91Z" transform="translate(-53.99 -34.94)"/><path class="cls-19" d="M150.57,299.34a34.5,34.5,0,0,1,3.21-1.36,43.94,43.94,0,0,0-2-4.54,49.74,49.74,0,0,0-2.78-4.8c-.93-1.23-3.67-5.15-3.67-5.15l-4.05,3s5,5.86,5.61,6.73a60.06,60.06,0,0,1,3.64,5.83A.77.77,0,0,1,150.57,299.34Z" transform="translate(-53.99 -34.94)"/><path class="cls-16" d="M164.49,347.11a12.71,12.71,0,0,1,3.44,2.6c1.13,1.41-.15,3.53-3.2,3.07-1.61-.24-3.77-2-4.63-2.62-1.22-.9-3.35-1.93-4.3-2.75s-.37-2.9-.37-2.9a4.48,4.48,0,0,0,1.5,2.08,18.81,18.81,0,0,0,3.73,2.2c1.89.66,3.22,1.13,4,.24S164.49,347.11,164.49,347.11Z" transform="translate(-53.99 -34.94)"/><path class="cls-16" d="M150.58,354.38a5.47,5.47,0,0,1-.53,3.08c-.75,1.05-2.65,1.14-3.75-.75a12.92,12.92,0,0,1-1.21-5.41,8,8,0,0,1,.42-2.61,2.09,2.09,0,0,0-.94,2.32c.36,1.61-.1,4,0,5.19.19,2.88.94,5,3,5.94,1.67.75,4.11.2,4.08-2.59A14.32,14.32,0,0,0,150.58,354.38Z" transform="translate(-53.99 -34.94)"/><path class="cls-39" d="M142,287.35a6.83,6.83,0,0,0,1.68-1.16,8.54,8.54,0,0,0,1.72-2.28s-1.48-5.48-5.7-7.13c-2.06-.81-4.76,1.47-4.76,1.47Z" transform="translate(-53.99 -34.94)"/><path class="cls-20" d="M145,283l.61,1.13s-1.4,2.72-3.23,3.24-.89-1.16-.89-1.16S142.66,286.66,145,283Z" transform="translate(-53.99 -34.94)"/><path class="cls-17" d="M124.05,286.16c.34-1.72,5.37-5.53,5.37-5.53l4.08,2.93a26.17,26.17,0,0,1,2.89,2.77h0a22.2,22.2,0,0,0-1.51-5.63,10.51,10.51,0,0,1,0-3.43s.4-.12,1-.25c.93.94,2.79,3.45,3.79,4.48s4.65,4.07,3.82,7.47a27.66,27.66,0,0,1-1,3.15c-.52,1.41-.36,4.05-.21,5.48a35.74,35.74,0,0,0,1.91,5.91s-3.56,4.56-7.62,4.58a13.49,13.49,0,0,1-8.25-3.15s.78-7.21.49-10.15C128.77,294.76,122.92,291.83,124.05,286.16Z" transform="translate(-53.99 -34.94)"/><path class="cls-20" d="M136.51,279.87s3,3.38,2.73,4.72c-.75.71-2.48,2.13-2.48,2.13l-2-6.6Z" transform="translate(-53.99 -34.94)"/><path class="cls-19" d="M142.56,306.78a57.09,57.09,0,0,0-8.86-5.63,9.35,9.35,0,0,1-2.06-3.67c-.65-1.79-1.7-4.37-1.7-4.37l-5.36,1.79s2.08,4.83,3,6.41a13.89,13.89,0,0,0,3.09,4c1.52,1.12,3.42,2.48,10.22,4.51A10.58,10.58,0,0,1,142.56,306.78Z" transform="translate(-53.99 -34.94)"/><path class="cls-15" d="M140.86,268.93s1.11,3.38.49,11.14a15.57,15.57,0,0,1-1.65,5.71s-1.67-4.63-4.07-6.15c-1.69-1.08.84-3.09.84-3.09Z" transform="translate(-53.99 -34.94)"/><path class="cls-18" d="M135.23,277.64a18.13,18.13,0,0,0,.7,4.46,8.7,8.7,0,0,1,.84,4.63,25.77,25.77,0,0,1-3.58-2.89c-1.14-1-4.12-2.91-4.12-2.91l.1-8.66Z" transform="translate(-53.99 -34.94)"/><path class="cls-19" d="M131.74,267.35a5.19,5.19,0,0,1,8.11,2.76c1.74,4.91-2.71,11.05-5.08,10-1.33-.58-4.12-2.66-4.9-5.25C129,272,130.25,268.49,131.74,267.35Z" transform="translate(-53.99 -34.94)"/><path class="cls-20" d="M129.08,279.15a19.78,19.78,0,0,1,3.5,2.84c2.55,2.65,4.18,4.74,4.18,4.74s-.81.57-3.84.83c-2.45-2.36-4.55-3.81-5.4-5.39A12.92,12.92,0,0,1,129.08,279.15Z" transform="translate(-53.99 -34.94)"/><path class="cls-39" d="M125.42,296.81c-1-1.31-2.28-2.61-2.52-3.42-.65-2.13-1.76-5.52,1.61-8.15,2.65-2.06,5.22,2.95,5.75,4.82a15.71,15.71,0,0,1,.44,5C129.92,296,127.27,297.57,125.42,296.81Z" transform="translate(-53.99 -34.94)"/><path class="cls-20" d="M130.81,294.49a10.42,10.42,0,0,0,.23,1.41,6.68,6.68,0,0,1-3,1.6,9.43,9.43,0,0,1-2.19.36l-.78-1.41a11.33,11.33,0,0,0,3-.49A14.58,14.58,0,0,0,130.81,294.49Z" transform="translate(-53.99 -34.94)"/><path class="cls-15" d="M135.62,269.49a11.45,11.45,0,0,1-1.44,6.09c-1.66,2.54-1.69,4.84-1.63,7.44.1,4.53,1.31,5.88,1.31,5.88a10.08,10.08,0,0,1-6.3-8.6c-.6-6.39-.47-11.43,1.18-13.81,1.5-2.17,4.48-1.65,4.48-1.65s3.87-2.88,7,2.63a5,5,0,0,1,0,5.41A6.08,6.08,0,0,0,135.62,269.49Z" transform="translate(-53.99 -34.94)"/><path class="cls-39" d="M157.8,292.79c-.13-.09-.36-.07-.69.07l-7,4a5.62,5.62,0,0,0-2.23,2l-7.5,13c-.26.45-.27.75-.1.87h0l.74.43.35-.73,6.56-3.8a5.62,5.62,0,0,0,2.23-2l7.5-13,0-.09.17.17.59-.53-.7-.41Z" transform="translate(-53.99 -34.94)"/><path class="cls-17" d="M157.83,293.27l-7,4a5.62,5.62,0,0,0-2.23,2l-7.5,13c-.45.78-.18,1.14.6.8l7-4a5.62,5.62,0,0,0,2.23-2l7.5-13C158.88,293.29,158.61,292.93,157.83,293.27Z" transform="translate(-53.99 -34.94)"/><path class="cls-19" d="M155,300.08c-1.78,1.12-3.23,3.22-3,4.4s1.71.11,2.38-1A3.78,3.78,0,0,0,155,300.08Z" transform="translate(-53.99 -34.94)"/><path class="cls-19" d="M140.71,305.42s1.34.62,2,.12a3.61,3.61,0,0,1,1.83-.81s-.6.92.24,1.25a2.43,2.43,0,0,0,2.17.1c.9-.24,1.65-.12.86,1.49a6.56,6.56,0,0,1-3.24,2.72c-1.37.36-2.82-.16-4.38-.65C137.64,308.84,140.71,305.42,140.71,305.42Z" transform="translate(-53.99 -34.94)"/></svg>