<?xml version="1.0" encoding="utf-8"?>
<!-- Generator: Adobe Illustrator 21.0.0, SVG Export Plug-In . SVG Version: 6.00 Build 0)  -->
<svg version="1.1" id="Objects" xmlns="http://www.w3.org/2000/svg" xmlns:xlink="http://www.w3.org/1999/xlink" x="0px" y="0px"
	 width="750px" height="500px" viewBox="0 0 750 500" style="enable-background:new 0 0 750 500;" xml:space="preserve">
<style type="text/css">
	.st0{fill:none;}
	.st1{fill:#222221;}
	._x005B_Por_x0020_defecto_x005D_{fill:#FFFFFF;stroke:#222221;stroke-miterlimit:10;}
	.Sombra_x0020_paralela{fill:none;}
	.Esquinas_x0020_redondeadas_x0020_2_x0020_pt_x002E_{fill:#FFFFFF;stroke:#222221;stroke-miterlimit:10;}
	.Reflejo_x0020_vivo_x0020_X{fill:none;}
	.Bisel_x0020_suave{fill:url(#SVGID_1_);}
	.Atardecer{fill:#FFFFFF;}
	.Follaje_GS{fill:#F9DC0A;}
	.Pompadour_GS{fill-rule:evenodd;clip-rule:evenodd;fill:#75ACE0;}
	.st2{display:none;}
	.st3{display:inline;}
	.st4{fill:none;stroke:#222221;stroke-width:1.5;stroke-miterlimit:10;}
	.st5{fill:none;stroke:#222221;stroke-width:2;stroke-linejoin:round;stroke-miterlimit:10;}
	.st6{fill:none;stroke:#222221;stroke-miterlimit:10;}
	.st7{fill:url(#Nueva_muestra_de_motivo_2);}
	.st8{fill:none;stroke:#222221;stroke-width:16;stroke-miterlimit:10;}
	.st9{clip-path:url(#SVGID_3_);}
	.st10{clip-path:url(#SVGID_3_);fill:none;stroke:#222221;stroke-width:1.5;stroke-miterlimit:10;}
</style>
<pattern  width="13.3" height="13.3" patternUnits="userSpaceOnUse" id="Nueva_muestra_de_motivo_2" viewBox="0 -13.3 13.3 13.3" style="overflow:visible;">
	<g>
		<rect y="-13.3" class="st0" width="13.3" height="13.3"/>
		<path class="st1" d="M0-12.6c0.4,0,0.6-0.3,0.6-0.6H0V-12.6z"/>
		<path class="st1" d="M13.3-12.6v-0.6h-0.6C12.6-12.9,12.9-12.6,13.3-12.6z"/>
		<path class="st1" d="M0-0.6V0h0.6C0.6-0.4,0.4-0.6,0-0.6z"/>
		<path class="st1" d="M13.3-0.6c-0.4,0-0.6,0.3-0.6,0.6h0.6V-0.6z"/>
		<path class="st1" d="M4.5-12.6c0.4,0,0.6-0.3,0.6-0.6H3.8C3.8-12.9,4.1-12.6,4.5-12.6z"/>
		<path class="st1" d="M4.5-0.6C4.1-0.6,3.8-0.4,3.8,0h1.3C5.1-0.4,4.8-0.6,4.5-0.6z"/>
		<path class="st1" d="M8.8-12.6c0.4,0,0.6-0.3,0.6-0.6H8.2C8.2-12.9,8.5-12.6,8.8-12.6z"/>
		<path class="st1" d="M8.8-0.6C8.5-0.6,8.2-0.4,8.2,0h1.3C9.5-0.4,9.2-0.6,8.8-0.6z"/>
		<path class="st1" d="M0.6-4.5c0-0.4-0.3-0.6-0.6-0.6v1.3C0.4-3.8,0.6-4.1,0.6-4.5z"/>
		<path class="st1" d="M13.3-3.8v-1.3c-0.4,0-0.6,0.3-0.6,0.6C12.6-4.1,12.9-3.8,13.3-3.8z"/>
		<path class="st1" d="M0.6-8.8c0-0.4-0.3-0.6-0.6-0.6v1.3C0.4-8.2,0.6-8.5,0.6-8.8z"/>
		<path class="st1" d="M12.6-8.8c0,0.4,0.3,0.6,0.6,0.6v-1.3C12.9-9.5,12.6-9.2,12.6-8.8z"/>
		<circle class="st1" cx="8.8" cy="-4.5" r="0.6"/>
		<circle class="st1" cx="8.8" cy="-8.8" r="0.6"/>
		<circle class="st1" cx="4.5" cy="-4.5" r="0.6"/>
		<circle class="st1" cx="4.5" cy="-8.8" r="0.6"/>
	</g>
</pattern>
<linearGradient id="SVGID_1_" gradientUnits="userSpaceOnUse" x1="0" y1="0" x2="0.7071" y2="0.7071">
	<stop  offset="0" style="stop-color:#E5E5EA"/>
	<stop  offset="0.1761" style="stop-color:#E1E1E6"/>
	<stop  offset="0.3567" style="stop-color:#D5D5DA"/>
	<stop  offset="0.5393" style="stop-color:#C1C1C5"/>
	<stop  offset="0.7233" style="stop-color:#A4A5A8"/>
	<stop  offset="0.9067" style="stop-color:#808284"/>
	<stop  offset="1" style="stop-color:#6B6D6E"/>
</linearGradient>
<g>
	<g class="st2">
		<g class="st3">
			
				<rect x="282.2" y="157.2" transform="matrix(0.7071 -0.7071 0.7071 0.7071 -66.9417 338.3883)" class="st1" width="185.6" height="185.6"/>
		</g>
	</g>
	<g>
		<g>
			
				<rect x="394.2" y="73.1" transform="matrix(0.7071 -0.7071 0.7071 0.7071 44.5816 346.451)" class="st4" width="92.6" height="92.6"/>
			
				<rect x="403.5" y="82.4" transform="matrix(-0.7071 -0.7071 0.7071 -0.7071 667.5341 515.3235)" class="st4" width="74.1" height="74.1"/>
			
				<rect x="412.7" y="91.7" transform="matrix(-0.7071 -0.7071 0.7071 -0.7071 667.5339 515.3235)" class="st4" width="55.5" height="55.5"/>
			
				<rect x="422" y="100.9" transform="matrix(-0.7071 -0.7071 0.7071 -0.7071 667.5344 515.3232)" class="st4" width="36.9" height="36.9"/>
			
				<rect x="431.3" y="110.2" transform="matrix(-0.7071 -0.7071 0.7071 -0.7071 667.533 515.3241)" class="st4" width="18.4" height="18.4"/>
		</g>
		<g>
			<path class="st5" d="M280.8,78.2L280.8,78.2l0-42.3c0-4.5-3.6-8.1-8.1-8.1s-8.1,3.6-8.1,8.1v0v42.3c0,4.5-3.6,8.1-8.1,8.1
				c-4.5,0-8.1-3.6-8.1-8.1l0,0V35.9c0-4.5-3.6-8.1-8.1-8.1c-4.5,0-8.1,3.6-8.1,8.1v0v42.3c0,4.5-3.6,8.1-8.1,8.1s-8.1-3.6-8.1-8.1
				l0,0V35.9c0-4.5-3.6-8.1-8.1-8.1c-4.5,0-8.1,3.6-8.1,8.1v0v42.3c0,4.5-3.6,8.1-8.1,8.1s-8.1-3.6-8.1-8.1l0,0V35.9
				c0-4.5-3.6-8.1-8.1-8.1s-8.1,3.6-8.1,8.1v0v42.3c0,4.5-3.6,8.1-8.1,8.1s-8.1-3.6-8.1-8.1l0,0V35.9c0-4.5-3.6-8.1-8.1-8.1
				c-4.5,0-8.1,3.6-8.1,8.1v0v42.3c0,4.5-3.6,8.1-8.1,8.1c-4.5,0-8.1-3.6-8.1-8.1l0,0V35.9c0-4.5-3.6-8.1-8.1-8.1s-8.1,3.6-8.1,8.1
				v0v42.3c0,4.5-3.6,8.1-8.1,8.1c-4.5,0-8.1-3.6-8.1-8.1l0,0V35.9c0-4.5-3.6-8.1-8.1-8.1c-4.5,0-8.1,3.6-8.1,8.1v42.6"/>
			<path class="st5" d="M659.8,189.7L659.8,189.7l0-42.3c0-4.5-3.6-8.1-8.1-8.1s-8.1,3.6-8.1,8.1v0v42.3c0,4.5-3.6,8.1-8.1,8.1
				c-4.5,0-8.1-3.6-8.1-8.1l0,0v-42.3c0-4.5-3.6-8.1-8.1-8.1c-4.5,0-8.1,3.6-8.1,8.1v0v42.3c0,4.5-3.6,8.1-8.1,8.1s-8.1-3.6-8.1-8.1
				l0,0v-42.3c0-4.5-3.6-8.1-8.1-8.1s-8.1,3.6-8.1,8.1V190"/>
		</g>
		<g>
			<g>
				<g>
					<polygon class="st1" points="716,7.8 719.9,1 712.2,1 					"/>
					<polygon class="st1" points="716,23 719.9,16.3 712.2,16.3 					"/>
					<polygon class="st1" points="716,38.2 719.9,31.5 712.2,31.5 					"/>
					<polygon class="st1" points="716,53.4 719.9,46.7 712.2,46.7 					"/>
					<polygon class="st1" points="716,68.6 719.9,61.9 712.2,61.9 					"/>
					<polygon class="st1" points="716,83.8 719.9,77.1 712.2,77.1 					"/>
					<polygon class="st1" points="716,99 719.9,92.3 712.2,92.3 					"/>
					<polygon class="st1" points="716,114.2 719.9,107.5 712.2,107.5 					"/>
					<polygon class="st1" points="716,129.4 719.9,122.7 712.2,122.7 					"/>
					<polygon class="st1" points="716,144.6 719.9,137.9 712.2,137.9 					"/>
					<polygon class="st1" points="716,159.9 719.9,153.2 712.2,153.2 					"/>
					<polygon class="st1" points="716,175.1 719.9,168.4 712.2,168.4 					"/>
					<polygon class="st1" points="716,190.3 719.9,183.6 712.2,183.6 					"/>
					<polygon class="st1" points="716,205.5 719.9,198.8 712.2,198.8 					"/>
					<polygon class="st1" points="716,220.7 719.9,214 712.2,214 					"/>
					<polygon class="st1" points="716,235.9 719.9,229.2 712.2,229.2 					"/>
				</g>
			</g>
			<g>
				<polygon class="st1" points="367.8,432.6 361.1,428.7 361.1,436.5 				"/>
				<polygon class="st1" points="383.1,432.6 376.4,428.7 376.4,436.5 				"/>
				<polygon class="st1" points="398.3,432.6 391.6,428.7 391.6,436.5 				"/>
				<polygon class="st1" points="413.5,432.6 406.8,428.7 406.8,436.5 				"/>
			</g>
			<g>
				<polygon class="st1" points="175.9,120.4 169.2,116.5 169.2,124.3 				"/>
				<polygon class="st1" points="191.1,120.4 184.4,116.5 184.4,124.3 				"/>
				<polygon class="st1" points="206.3,120.4 199.6,116.5 199.6,124.3 				"/>
				<polygon class="st1" points="221.5,120.4 214.8,116.5 214.8,124.3 				"/>
			</g>
			<g>
				<polygon class="st1" points="527.4,284.4 520.7,280.5 520.7,288.3 				"/>
				<polygon class="st1" points="542.6,284.4 535.9,280.5 535.9,288.3 				"/>
				<polygon class="st1" points="557.9,284.4 551.1,280.5 551.1,288.3 				"/>
				<polygon class="st1" points="573.1,284.4 566.4,280.5 566.4,288.3 				"/>
			</g>
			<g>
				<g>
					<polygon class="st1" points="21.2,412.7 14.4,408.9 14.4,416.6 					"/>
					<polygon class="st1" points="36.4,412.7 29.7,408.9 29.7,416.6 					"/>
					<polygon class="st1" points="51.6,412.7 44.9,408.9 44.9,416.6 					"/>
					<polygon class="st1" points="66.8,412.7 60.1,408.9 60.1,416.6 					"/>
					<polygon class="st1" points="82,412.7 75.3,408.9 75.3,416.6 					"/>
					<polygon class="st1" points="97.2,412.7 90.5,408.9 90.5,416.6 					"/>
					<polygon class="st1" points="112.4,412.7 105.7,408.9 105.7,416.6 					"/>
					<polygon class="st1" points="127.6,412.7 120.9,408.9 120.9,416.6 					"/>
					<polygon class="st1" points="142.8,412.7 136.1,408.9 136.1,416.6 					"/>
					<polygon class="st1" points="158,412.7 151.3,408.9 151.3,416.6 					"/>
					<polygon class="st1" points="173.3,412.7 166.6,408.9 166.6,416.6 					"/>
					<polygon class="st1" points="188.5,412.7 181.8,408.9 181.8,416.6 					"/>
					<polygon class="st1" points="203.7,412.7 197,408.9 197,416.6 					"/>
					<polygon class="st1" points="218.9,412.7 212.2,408.9 212.2,416.6 					"/>
					<polygon class="st1" points="234.1,412.7 227.4,408.9 227.4,416.6 					"/>
					<polygon class="st1" points="249.3,412.7 242.6,408.9 242.6,416.6 					"/>
				</g>
				<g>
					<polygon class="st1" points="21.2,430.7 14.4,426.9 14.4,434.6 					"/>
					<polygon class="st1" points="36.4,430.7 29.7,426.9 29.7,434.6 					"/>
					<polygon class="st1" points="51.6,430.7 44.9,426.9 44.9,434.6 					"/>
					<polygon class="st1" points="66.8,430.7 60.1,426.9 60.1,434.6 					"/>
					<polygon class="st1" points="82,430.7 75.3,426.9 75.3,434.6 					"/>
					<polygon class="st1" points="97.2,430.7 90.5,426.9 90.5,434.6 					"/>
					<polygon class="st1" points="112.4,430.7 105.7,426.9 105.7,434.6 					"/>
					<polygon class="st1" points="127.6,430.7 120.9,426.9 120.9,434.6 					"/>
					<polygon class="st1" points="142.8,430.7 136.1,426.9 136.1,434.6 					"/>
					<polygon class="st1" points="158,430.7 151.3,426.9 151.3,434.6 					"/>
					<polygon class="st1" points="173.3,430.7 166.6,426.9 166.6,434.6 					"/>
					<polygon class="st1" points="188.5,430.7 181.8,426.9 181.8,434.6 					"/>
					<polygon class="st1" points="203.7,430.7 197,426.9 197,434.6 					"/>
					<polygon class="st1" points="218.9,430.7 212.2,426.9 212.2,434.6 					"/>
					<polygon class="st1" points="234.1,430.7 227.4,426.9 227.4,434.6 					"/>
					<polygon class="st1" points="249.3,430.7 242.6,426.9 242.6,434.6 					"/>
				</g>
				<g>
					<polygon class="st1" points="21.2,394.7 14.4,390.8 14.4,398.6 					"/>
					<polygon class="st1" points="36.4,394.7 29.7,390.8 29.7,398.6 					"/>
					<polygon class="st1" points="51.6,394.7 44.9,390.8 44.9,398.6 					"/>
					<polygon class="st1" points="66.8,394.7 60.1,390.8 60.1,398.6 					"/>
					<polygon class="st1" points="82,394.7 75.3,390.8 75.3,398.6 					"/>
					<polygon class="st1" points="97.2,394.7 90.5,390.8 90.5,398.6 					"/>
					<polygon class="st1" points="112.4,394.7 105.7,390.8 105.7,398.6 					"/>
					<polygon class="st1" points="127.6,394.7 120.9,390.8 120.9,398.6 					"/>
					<polygon class="st1" points="142.8,394.7 136.1,390.8 136.1,398.6 					"/>
					<polygon class="st1" points="158,394.7 151.3,390.8 151.3,398.6 					"/>
					<polygon class="st1" points="173.3,394.7 166.6,390.8 166.6,398.6 					"/>
					<polygon class="st1" points="188.5,394.7 181.8,390.8 181.8,398.6 					"/>
					<polygon class="st1" points="203.7,394.7 197,390.8 197,398.6 					"/>
					<polygon class="st1" points="218.9,394.7 212.2,390.8 212.2,398.6 					"/>
					<polygon class="st1" points="234.1,394.7 227.4,390.8 227.4,398.6 					"/>
					<polygon class="st1" points="249.3,394.7 242.6,390.8 242.6,398.6 					"/>
				</g>
				<g>
					<polygon class="st1" points="21.2,448.7 14.4,444.9 14.4,452.6 					"/>
					<polygon class="st1" points="36.4,448.7 29.7,444.9 29.7,452.6 					"/>
					<polygon class="st1" points="51.6,448.7 44.9,444.9 44.9,452.6 					"/>
					<polygon class="st1" points="66.8,448.7 60.1,444.9 60.1,452.6 					"/>
					<polygon class="st1" points="82,448.7 75.3,444.9 75.3,452.6 					"/>
					<polygon class="st1" points="97.2,448.7 90.5,444.9 90.5,452.6 					"/>
					<polygon class="st1" points="112.4,448.7 105.7,444.9 105.7,452.6 					"/>
					<polygon class="st1" points="127.6,448.7 120.9,444.9 120.9,452.6 					"/>
					<polygon class="st1" points="142.8,448.7 136.1,444.9 136.1,452.6 					"/>
					<polygon class="st1" points="158,448.7 151.3,444.9 151.3,452.6 					"/>
					<polygon class="st1" points="173.3,448.7 166.6,444.9 166.6,452.6 					"/>
					<polygon class="st1" points="188.5,448.7 181.8,444.9 181.8,452.6 					"/>
					<polygon class="st1" points="203.7,448.7 197,444.9 197,452.6 					"/>
					<polygon class="st1" points="218.9,448.7 212.2,444.9 212.2,452.6 					"/>
					<polygon class="st1" points="234.1,448.7 227.4,444.9 227.4,452.6 					"/>
					<polygon class="st1" points="249.3,448.7 242.6,444.9 242.6,452.6 					"/>
				</g>
				<g>
					<polygon class="st1" points="21.2,466.8 14.4,462.9 14.4,470.6 					"/>
					<polygon class="st1" points="36.4,466.8 29.7,462.9 29.7,470.6 					"/>
					<polygon class="st1" points="51.6,466.8 44.9,462.9 44.9,470.6 					"/>
					<polygon class="st1" points="66.8,466.8 60.1,462.9 60.1,470.6 					"/>
					<polygon class="st1" points="82,466.8 75.3,462.9 75.3,470.6 					"/>
					<polygon class="st1" points="97.2,466.8 90.5,462.9 90.5,470.6 					"/>
					<polygon class="st1" points="112.4,466.8 105.7,462.9 105.7,470.6 					"/>
					<polygon class="st1" points="127.6,466.8 120.9,462.9 120.9,470.6 					"/>
					<polygon class="st1" points="142.8,466.8 136.1,462.9 136.1,470.6 					"/>
					<polygon class="st1" points="158,466.8 151.3,462.9 151.3,470.6 					"/>
					<polygon class="st1" points="173.3,466.8 166.6,462.9 166.6,470.6 					"/>
					<polygon class="st1" points="188.5,466.8 181.8,462.9 181.8,470.6 					"/>
					<polygon class="st1" points="203.7,466.8 197,462.9 197,470.6 					"/>
					<polygon class="st1" points="218.9,466.8 212.2,462.9 212.2,470.6 					"/>
					<polygon class="st1" points="234.1,466.8 227.4,462.9 227.4,470.6 					"/>
					<polygon class="st1" points="249.3,466.8 242.6,462.9 242.6,470.6 					"/>
				</g>
			</g>
		</g>
		<g>
			<g>
				<g>
					<circle class="st6" cx="611.1" cy="83.7" r="3.6"/>
					<circle class="st6" cx="625.1" cy="83.7" r="3.6"/>
					<circle class="st6" cx="639.1" cy="83.7" r="3.6"/>
					<circle class="st6" cx="653.1" cy="83.7" r="3.6"/>
					<circle class="st6" cx="667.1" cy="83.7" r="3.6"/>
					<circle class="st6" cx="681.1" cy="83.7" r="3.6"/>
				</g>
				<g>
					<circle class="st6" cx="611.1" cy="96.7" r="3.6"/>
					<circle class="st6" cx="625.1" cy="96.7" r="3.6"/>
					<circle class="st6" cx="639.1" cy="96.7" r="3.6"/>
					<circle class="st6" cx="653.1" cy="96.7" r="3.6"/>
					<circle class="st6" cx="667.1" cy="96.7" r="3.6"/>
					<circle class="st6" cx="681.1" cy="96.7" r="3.6"/>
				</g>
				<g>
					<circle class="st6" cx="611.1" cy="109.7" r="3.6"/>
					<circle class="st6" cx="625.1" cy="109.7" r="3.6"/>
					<circle class="st6" cx="639.1" cy="109.7" r="3.6"/>
					<circle class="st6" cx="653.1" cy="109.7" r="3.6"/>
					<circle class="st6" cx="667.1" cy="109.7" r="3.6"/>
					<circle class="st6" cx="695.1" cy="83.7" r="3.6"/>
					<circle class="st6" cx="695.1" cy="96.7" r="3.6"/>
					<circle class="st6" cx="695.1" cy="109.7" r="3.6"/>
					<circle class="st6" cx="681.1" cy="109.7" r="3.6"/>
				</g>
			</g>
			<g>
				<g>
					<circle class="st6" cx="29.2" cy="370.8" r="3.6"/>
					<circle class="st6" cx="29.2" cy="356.8" r="3.6"/>
					<circle class="st6" cx="29.2" cy="342.8" r="3.6"/>
					<circle class="st6" cx="29.2" cy="328.8" r="3.6"/>
					<circle class="st6" cx="29.2" cy="314.8" r="3.6"/>
					<circle class="st6" cx="29.2" cy="300.8" r="3.6"/>
				</g>
				<g>
					<circle class="st6" cx="42.2" cy="370.8" r="3.6"/>
					<circle class="st6" cx="42.2" cy="356.8" r="3.6"/>
					<circle class="st6" cx="42.2" cy="342.8" r="3.6"/>
					<circle class="st6" cx="42.2" cy="328.8" r="3.6"/>
					<circle class="st6" cx="42.2" cy="314.8" r="3.6"/>
					<circle class="st6" cx="42.2" cy="300.8" r="3.6"/>
				</g>
				<g>
					<circle class="st6" cx="55.2" cy="370.8" r="3.6"/>
					<circle class="st6" cx="55.2" cy="356.8" r="3.6"/>
					<circle class="st6" cx="55.2" cy="342.8" r="3.6"/>
					<circle class="st6" cx="55.2" cy="328.8" r="3.6"/>
					<circle class="st6" cx="55.2" cy="314.8" r="3.6"/>
					<circle class="st6" cx="55.2" cy="300.8" r="3.6"/>
				</g>
			</g>
		</g>
		<g>
			
				<rect x="104.6" y="264.9" transform="matrix(0.7071 -0.7071 0.7071 0.7071 -171.8013 188.1559)" class="st4" width="73.2" height="73.2"/>
			
				<rect x="156.1" y="264.9" transform="matrix(0.7071 -0.7071 0.7071 0.7071 -156.7346 224.5302)" class="st4" width="73.2" height="73.2"/>
			
				<rect x="207.5" y="264.9" transform="matrix(0.7071 -0.7071 0.7071 0.7071 -141.6679 260.9044)" class="st4" width="73.2" height="73.2"/>
		</g>
		<g>
			<rect x="-0.2" y="120.3" class="st7" width="110.5" height="110.5"/>
			<polygon class="st7" points="505.7,250.6 375,381 636.5,381 			"/>
			<polygon class="st7" points="506,119.4 506,250.6 440.5,184.9 			"/>
		</g>
		<g>
			<g>
				<rect x="502.5" y="370.2" class="st1" width="16.6" height="70.2"/>
				
					<rect x="502.5" y="370.2" transform="matrix(6.123234e-17 -1 1 6.123234e-17 105.423 916.0613)" class="st1" width="16.6" height="70.2"/>
			</g>
			<path class="st8" d="M139,199.7c0-23.3-18.9-42.3-42.3-42.3"/>
			<path class="st8" d="M558.4,0c0,18,14.6,32.6,32.6,32.6c18,0,32.6-14.6,32.6-32.6"/>
			<rect x="281.5" y="459.7" class="st1" width="16.6" height="40.2"/>
		</g>
		<g>
			<g>
				<line class="st6" x1="736.3" y1="500" x2="736.3" y2="304.6"/>
				<line class="st6" x1="722.5" y1="500" x2="722.5" y2="304.6"/>
				<line class="st6" x1="708.8" y1="500" x2="708.8" y2="304.6"/>
				<line class="st6" x1="695" y1="500" x2="695" y2="304.6"/>
				<line class="st6" x1="681.3" y1="500" x2="681.3" y2="304.6"/>
				<line class="st6" x1="667.6" y1="500" x2="667.6" y2="304.6"/>
				<line class="st6" x1="653.8" y1="500" x2="653.8" y2="304.6"/>
				<line class="st6" x1="640.1" y1="500" x2="640.1" y2="304.6"/>
				<line class="st6" x1="626.3" y1="500" x2="626.3" y2="304.6"/>
				<line class="st6" x1="612.6" y1="500" x2="612.6" y2="304.6"/>
			</g>
			<line class="st6" x1="28.9" y1="193.3" x2="28.9" y2="0"/>
			<g>
				<line class="st6" x1="375" y1="466.6" x2="612.6" y2="466.6"/>
				<line class="st6" x1="375" y1="473.3" x2="612.6" y2="473.3"/>
				<line class="st6" x1="375" y1="480" x2="612.6" y2="480"/>
				<line class="st6" x1="419.3" y1="486.7" x2="612.6" y2="486.7"/>
				<line class="st6" x1="375" y1="486.7" x2="612.6" y2="486.7"/>
				<line class="st6" x1="375" y1="493.3" x2="612.6" y2="493.3"/>
			</g>
			<g>
				<defs>
					<rect id="SVGID_2_" x="230.7" y="1" width="271.7" height="259.7"/>
				</defs>
				<clipPath id="SVGID_3_">
					<use xlink:href="#SVGID_2_"  style="overflow:visible;"/>
				</clipPath>
				<g class="st9">
					<line class="st6" x1="244.8" y1="250" x2="493.2" y2="0"/>
					<line class="st6" x1="244.8" y1="242.3" x2="493.2" y2="-7.7"/>
					<line class="st6" x1="244.8" y1="234.7" x2="493.2" y2="-15.3"/>
					<line class="st6" x1="244.8" y1="227" x2="493.2" y2="-23"/>
					<line class="st6" x1="244.8" y1="219.4" x2="493.2" y2="-30.6"/>
					<line class="st6" x1="244.8" y1="211.7" x2="493.2" y2="-38.3"/>
					<line class="st6" x1="244.8" y1="204.1" x2="493.2" y2="-45.9"/>
					<line class="st6" x1="244.8" y1="196.4" x2="493.2" y2="-53.6"/>
					<line class="st6" x1="244.8" y1="188.7" x2="493.2" y2="-61.3"/>
					<line class="st6" x1="244.8" y1="181.1" x2="493.2" y2="-68.9"/>
					<line class="st6" x1="244.8" y1="173.4" x2="493.2" y2="-76.6"/>
					<line class="st6" x1="244.8" y1="165.8" x2="493.2" y2="-84.2"/>
					<line class="st6" x1="244.8" y1="158.1" x2="493.2" y2="-91.9"/>
					<line class="st6" x1="244.8" y1="150.5" x2="493.2" y2="-99.5"/>
				</g>
				<line class="st10" x1="244.8" y1="150.5" x2="244.8" y2="249.7"/>
			</g>
		</g>
	</g>
</g>
</svg>
