<svg id="OBJECTS" xmlns="http://www.w3.org/2000/svg" viewBox="0 0 378.45 405.53"><defs><style>.cls-1{isolation:isolate;}.cls-2{fill:#0290a7;}.cls-3{fill:#97c371;}.cls-4{fill:#74af3c;}.cls-5{fill:#02798c;}.cls-6{fill:#015a68;}.cls-7{fill:#5e8e25;}.cls-8{fill:#76ad42;}.cls-9{fill:#015c6b;}.cls-10{fill:#79b242;}.cls-11{fill:#76a549;}.cls-12{fill:#e6e6e6;}.cls-13,.cls-45{fill:none;}.cls-13{stroke:#b3b3b3;stroke-linecap:round;stroke-linejoin:round;stroke-width:1.27px;}.cls-14{fill:#7eb24d;}.cls-15{fill:#d41d59;}.cls-16{fill:#ed2064;}.cls-17{fill:#01778a;}.cls-18{fill:#dbdbdb;}.cls-19{fill:#ccc;}.cls-20{fill:#91a2ba;}.cls-21{fill:#f2f2f2;}.cls-22{fill:#402d4a;}.cls-23{fill:#fff;}.cls-24{fill:#51395d;}.cls-25{fill:#6a4b7a;}.cls-26{fill:#5b4069;}.cls-27{fill:#361845;}.cls-28{fill:#775b85;}.cls-29{fill:#c21b51;}.cls-30{fill:#b59a6e;}.cls-31{fill:#ebc88f;}.cls-32{fill:#636363;}.cls-33{fill:#828282;}.cls-34{fill:#333;}.cls-35{fill:#c9c9c9;}.cls-36{fill:#f6e6cc;}.cls-37{fill:#ccbea9;}.cls-38{opacity:0.4;}.cls-39{fill:#cbe6ff;}.cls-40{fill:#906ea1;}.cls-41{fill:#cf445d;}.cls-42{fill:#ad364b;}.cls-43{fill:#f5738a;}.cls-44{fill:#de5f76;}.cls-46{fill:#867091;}.cls-47{opacity:0.63;}.cls-48{fill:#b5d6f5;}.cls-49{opacity:0.58;}</style></defs><title>privpol</title><g class="cls-1"><polygon class="cls-2" points="226.08 380.93 214.59 387.61 0.01 263.72 11.5 257.04 226.08 380.93"/><polygon class="cls-3" points="226.08 380.93 226.08 382.77 214.58 389.45 214.59 387.61 226.08 380.93"/><polygon class="cls-4" points="214.59 387.61 214.58 389.45 0 265.56 0.01 263.72 214.59 387.61"/></g><g class="cls-1"><polygon class="cls-2" points="371.74 296.3 233.93 376.39 19.35 252.5 157.16 172.41 371.74 296.3"/><polygon class="cls-5" points="371.74 296.3 371.74 298.15 233.93 378.23 233.93 376.39 371.74 296.3"/><polygon class="cls-6" points="233.93 376.39 233.93 378.23 19.35 254.35 19.35 252.5 233.93 376.39"/></g><g class="cls-1"><polygon class="cls-7" points="371.74 294.45 214.59 385.78 0.01 261.89 157.16 170.56 371.74 294.45"/><polygon class="cls-3" points="371.74 294.45 371.74 296.3 214.58 387.63 214.59 385.78 371.74 294.45"/><polygon class="cls-3" points="214.59 385.78 214.58 387.63 0 263.74 0.01 261.89 214.59 385.78"/></g><g class="cls-1"><polygon class="cls-3" points="371.74 256.71 214.59 348.05 0.01 224.16 157.16 132.83 371.74 256.71"/><polygon class="cls-8" points="371.74 256.71 371.74 258.56 214.58 349.89 214.59 348.05 371.74 256.71"/><polygon class="cls-9" points="214.59 348.05 214.58 349.89 0 226 0.01 224.16 214.59 348.05"/></g><g class="cls-1"><polygon class="cls-3" points="226.08 339.52 214.59 346.2 0.01 222.31 11.5 215.63 226.08 339.52"/><polygon class="cls-3" points="226.08 339.52 226.08 341.36 214.58 348.05 214.59 346.2 226.08 339.52"/><polygon class="cls-3" points="214.59 346.2 214.58 348.05 0 224.16 0.01 222.31 214.59 346.2"/></g><g class="cls-1"><polygon class="cls-3" points="371.74 254.89 233.93 334.98 19.35 211.09 157.16 131.01 371.74 254.89"/><polygon class="cls-3" points="371.74 254.89 371.74 256.74 233.93 336.83 233.93 334.98 371.74 254.89"/><polygon class="cls-10" points="233.93 334.98 233.93 336.83 19.35 212.94 19.35 211.09 233.93 334.98"/></g><polygon class="cls-11" points="214.58 349.22 214.59 385.78 0.01 262.41 0.01 225.4 214.58 349.22"/><polygon class="cls-12" points="217.64 381.03 366.01 295.11 366.01 261.91 217.76 348.11 217.64 381.03"/><line class="cls-13" x1="217.76" y1="349.64" x2="366.01" y2="263.43"/><line class="cls-13" x1="217.76" y1="352.82" x2="366.01" y2="266.61"/><line class="cls-13" x1="217.76" y1="356" x2="366.01" y2="269.79"/><line class="cls-13" x1="217.76" y1="359.17" x2="366.01" y2="272.97"/><line class="cls-13" x1="217.76" y1="362.35" x2="366.01" y2="276.15"/><line class="cls-13" x1="217.76" y1="365.53" x2="366.01" y2="279.33"/><line class="cls-13" x1="217.76" y1="368.71" x2="366.01" y2="282.51"/><line class="cls-13" x1="217.76" y1="371.89" x2="366.01" y2="285.69"/><line class="cls-13" x1="217.76" y1="375.07" x2="366.01" y2="288.87"/><line class="cls-13" x1="217.76" y1="378.25" x2="366.01" y2="292.05"/><polygon class="cls-14" points="214.58 349.22 214.59 386.3 217.64 384.46 217.64 347.45 214.58 349.22"/><path class="cls-15" d="M367.38,422,328.3,399.66a8.72,8.72,0,0,1-4.4-7.57v-19a8.72,8.72,0,0,0-4.3-7.52l-3-1.78-11.47,6.75,3.06,1.92a8.72,8.72,0,0,1,4.3,7.52v19a8.72,8.72,0,0,0,4.4,7.57l27.55,15.74h0Z" transform="translate(-59.55 -31.17)"/><path class="cls-16" d="M312.47,399V380a8.72,8.72,0,0,0-4.3-7.52l-3.06-1.92-13.53,8,3,1.78a8.72,8.72,0,0,1,4.3,7.52v19a8.72,8.72,0,0,0,4.4,7.57l39.08,22.32,2-14.4-27.55-15.74A8.72,8.72,0,0,1,312.47,399Z" transform="translate(-59.55 -31.17)"/><path class="cls-17" d="M110.34,295.73m0,0" transform="translate(-59.55 -31.17)"/><polygon class="cls-18" points="378.45 237.35 245 314.9 65.04 211 198.49 133.45 378.45 237.35"/><polygon class="cls-19" points="214.76 157.07 113.06 216.17 107.94 213.21 209.64 154.11 214.76 157.07"/><polygon class="cls-19" points="231.03 165.91 129.33 225.02 126.65 223.47 228.35 164.37 231.03 165.91"/><polygon class="cls-19" points="236.39 168.97 134.69 228.08 132.01 226.53 233.72 167.43 236.39 168.97"/><polygon class="cls-19" points="241.76 171.97 140.06 231.07 137.38 229.52 239.08 170.42 241.76 171.97"/><polygon class="cls-19" points="279.71 194.03 178 253.13 175.33 251.58 277.03 192.48 279.71 194.03"/><polygon class="cls-19" points="285.2 197.23 183.49 256.33 180.82 254.78 282.52 195.68 285.2 197.23"/><polygon class="cls-19" points="290.68 200.43 188.98 259.53 186.3 257.99 288.01 198.88 290.68 200.43"/><polygon class="cls-19" points="296.5 203.63 194.79 262.73 192.12 261.19 293.82 202.08 296.5 203.63"/><polygon class="cls-19" points="302.11 206.5 200.41 265.61 197.74 264.06 299.44 204.96 302.11 206.5"/><polygon class="cls-19" points="307.6 209.64 205.9 268.74 203.22 267.2 304.93 208.09 307.6 209.64"/><polygon class="cls-19" points="313.35 212.84 211.65 271.94 208.97 270.4 310.67 211.29 313.35 212.84"/><polygon class="cls-19" points="286.82 234.47 216.94 275.08 214.26 273.53 284.13 232.93 286.82 234.47"/><polygon class="cls-19" points="269.14 251.24 222.63 278.27 219.95 276.73 266.45 249.7 269.14 251.24"/><polygon class="cls-19" points="213.54 194.4 145.29 234.06 142.61 232.51 210.85 192.85 213.54 194.4"/><polygon class="cls-19" points="218.82 197.47 150.58 237.13 147.89 235.58 216.14 195.92 218.82 197.47"/><polygon class="cls-19" points="274.94 191.02 247.05 207.24 216.54 189.63 244.44 173.41 274.94 191.02"/><polygon class="cls-19" points="274.88 254.51 228.25 281.61 225.57 280.07 272.19 252.98 274.88 254.51"/><polygon class="cls-19" points="204.17 212.52 156.18 240.41 153.51 238.87 201.5 210.98 204.17 212.52"/><polygon class="cls-19" points="209.54 215.64 161.55 243.53 158.87 241.98 206.86 214.09 209.54 215.64"/><polygon class="cls-19" points="215.02 218.84 167.03 246.73 164.35 245.18 212.35 217.29 215.02 218.84"/><polygon class="cls-19" points="195.81 236.23 172.57 249.73 169.89 248.19 193.12 234.69 195.81 236.23"/><path class="cls-20" d="M389.82,275.44a2.17,2.17,0,0,0-.76,1.19,2.19,2.19,0,0,1-1.43,1.62,6.38,6.38,0,0,1-3.21-.28,7.38,7.38,0,0,0-2-.33l-.19,0-.07,0-.11,0-.77-.44.44-.13.09,0a3.58,3.58,0,0,1,.45-.07,8.16,8.16,0,0,1,2.62.38,5.49,5.49,0,0,0,2.32.29c.49-.14.69-.69.9-1.22a2.57,2.57,0,0,1,1-1.49,7.69,7.69,0,0,1,2.57-.61,4.72,4.72,0,0,0,2.09-.52c.27-.3-.12-.83-.51-1.34s-.79-1-.67-1.51.79-.92,1.44-1.34,1.27-.84,1.18-1.17a.36.36,0,0,0-.1-.15l0,0-.17-.12-.31-.16-.08,0-.23-.09-.13,0-.24-.09-.11,0-.34-.12-.38-.13-.11,0-.31-.11-.1,0-.36-.15-.07,0-.26-.13-.09-.05-.17-.11-.07-.05a1.4,1.4,0,0,1-.19-.17,1.75,1.75,0,0,1-.19-1.53c.09-.56.18-1.14-.25-1.39a5.59,5.59,0,0,0-2.4-.14,8.53,8.53,0,0,1-2.65-.11l-.31-.11-.09,0-.19-.1-.09-.05L385,263l-.06,0-.26-.21-.07-.06-.19-.17-.07-.06-.23-.22-.21-.2-.07-.06-.15-.14-.09-.08-.17-.13-.06,0-.22-.15-.26-.12-.07,0a1.2,1.2,0,0,0-.26-.06l.75-.47.2.07.17.07.12.06.14.08.18.12.11.08.18.14.09.08.2.18.06.05.25.24.21.2,0,0,.22.2.23.18.06,0,.21.14.16.08.23.09a7.39,7.39,0,0,0,2.08,0,6.4,6.4,0,0,1,3.23.32c.78.45.67,1.18.56,1.87-.08.46-.15.94.08,1.2l.12.11.16.1.26.13.07,0,.3.12.36.13.07,0,.35.12.41.14.1,0,.31.11.13.05.25.1.14.06.2.1.14.08.1.06.14.1.08.07.11.12.05.06a.72.72,0,0,1,.1.2c.17.6-.64,1.14-1.43,1.66-.54.35-1.1.72-1.18,1s.26.75.59,1.18c.48.64,1,1.31.5,1.86a1.34,1.34,0,0,1-.32.26,7.43,7.43,0,0,1-2.48.58A6.85,6.85,0,0,0,389.82,275.44Z" transform="translate(-59.55 -31.17)"/><path class="cls-20" d="M364.36,271.62l0-.06a.7.7,0,0,1-.09-.2c-.17-.61.65-1.15,1.43-1.67l.25-.17.08-.05.26-.19h0l.21-.17,0,0,.18-.18h0l.77.44-.05,0-.14.12-.08.07-.15.12-.1.07-.16.11-.1.07-.25.16-.23.15-.06,0-.17.12-.07,0-.14.1-.08.06-.11.09-.07.07-.08.08-.05.06-.06.08,0,.06,0,.07a.27.27,0,0,0,0,.06.29.29,0,0,0,0,0l-.81.47Z" transform="translate(-59.55 -31.17)"/><path class="cls-20" d="M366.74,268.83l0-.05a.44.44,0,0,0,0-.11c.08-.29-.26-.74-.59-1.18-.48-.64-1-1.3-.5-1.86s1.66-.69,2.8-.84a6.86,6.86,0,0,0,2.06-.45,2.17,2.17,0,0,0,.76-1.19,2.23,2.23,0,0,1,1.44-1.63,6.47,6.47,0,0,1,3.21.28,7,7,0,0,0,2,.34,5.59,5.59,0,0,0,1.78-.69,5.24,5.24,0,0,1,2.87-.83l.34.05.11,0,.14,0-.81.47h-.19l-.12,0-.11,0-.13,0-.11,0-.14,0-.11,0-.15.06-.11,0-.18.08-.08,0-.21.1-.06,0-.26.13a6.59,6.59,0,0,1-2.31.83,8.32,8.32,0,0,1-2.61-.38,5.46,5.46,0,0,0-2.32-.3c-.48.14-.69.69-.89,1.21a2.6,2.6,0,0,1-1,1.49,7.6,7.6,0,0,1-2.56.61,4.75,4.75,0,0,0-2.1.52c-.27.3.14.83.52,1.34s.78,1,.66,1.51a.93.93,0,0,1-.13.26l0,.05a1.9,1.9,0,0,1-.21.24l-.78-.43Z" transform="translate(-59.55 -31.17)"/><path class="cls-20" d="M381,278.14l-.06,0-.32.16a5.33,5.33,0,0,1-2.88.84l-.35-.06-.1,0-.22-.06-.11,0-.18-.08-.11-.06-.14-.08-.18-.12-.11-.08-.17-.14-.1-.09-.18-.16-.07-.07-.24-.24-.2-.19-.07-.06-.21-.19-.23-.19-.06,0-.22-.15-.14-.07,0,0-.18-.07a7.84,7.84,0,0,0-2.07,0,6.38,6.38,0,0,1-3.24-.31c-.78-.45-.67-1.18-.55-1.88.07-.46.15-.94-.09-1.2l-.12-.1,0,0-.12-.08-.27-.13-.07,0-.3-.12-.35-.13-.12,0-.31-.11-.41-.14-.12,0-.28-.1-.15-.06-.23-.1-.14-.07-.2-.1-.14-.08-.11-.07-.13-.1-.09-.08,0,0,.81-.47v0a.38.38,0,0,0,.1.15l0,0,.17.12.31.16.08,0,.23.1.12,0,.24.09.1,0,.35.12.38.13.12,0,.3.11.1,0,.35.15.07,0,.26.13.09.05.17.11.07.05a1.48,1.48,0,0,1,.19.17,1.81,1.81,0,0,1,.19,1.54c-.09.55-.19,1.14.25,1.39a5.78,5.78,0,0,0,2.4.14,8.6,8.6,0,0,1,2.65.1l.3.11.09,0,.19.1.09.05.23.15.06,0,.26.21.06.06.2.18.07.06.23.22.21.2.07.06.15.14.08.07.17.13.06,0,.22.15.25.12.07,0a1.18,1.18,0,0,0,.26.06,4.39,4.39,0,0,0,2-.69l.29-.15.09,0,.21-.1.12-.06.19-.09.12-.05.2-.08.09,0,.77.44-.31.1-.07,0-.3.13Z" transform="translate(-59.55 -31.17)"/><path class="cls-20" d="M371.69,266l.18-.13c.21-.15.43-.29.67-.43s.49-.27.74-.39l.23-.11.58-.25.24-.09.79-.27h0l.86-.23.27-.06.65-.13.28-.05.83-.12h.08l-1.51.88h0l-.58.15-.31.08-.57.19-.28.1-.58.24-.23.1q-.39.18-.75.39t-.68.44l-.17.13c-.15.11-.29.22-.42.34l-.16.16c-.11.11-.23.22-.33.33l-.14.18c-.09.11-.18.22-.26.34l0,0-1.51.88,0-.06a4.22,4.22,0,0,1,.2-.48l.09-.16q.1-.19.22-.37l.11-.16a5.61,5.61,0,0,1,.4-.5l0,0c.14-.16.3-.31.46-.46l.16-.14Z" transform="translate(-59.55 -31.17)"/><path class="cls-20" d="M370.52,270.55c0,.11.05.22.08.33l.06.18,0,.13-1.26-.73a3.67,3.67,0,0,1,0-.52c0-.05,0-.11,0-.16a3.57,3.57,0,0,1,0-.4c0-.05,0-.11,0-.16a3.83,3.83,0,0,1,.13-.52l1.51-.88a4.24,4.24,0,0,0-.25.43l-.06.13a3.79,3.79,0,0,0-.15.35l-.06.18q0,.16-.08.32c0,.06,0,.12,0,.18a3.4,3.4,0,0,0,0,.37s0,.08,0,.12a3.35,3.35,0,0,0,0,.48C370.49,270.45,370.51,270.5,370.52,270.55Z" transform="translate(-59.55 -31.17)"/><path class="cls-20" d="M373.63,274.85l-.27-.12c-.27-.13-.53-.26-.78-.41s-.48-.3-.7-.45l-.21-.15-.41-.32-.21-.2-.31-.31-.19-.22-.25-.31-.16-.23c-.07-.11-.13-.21-.19-.32l-.12-.23c-.06-.11-.1-.23-.15-.34s-.06-.14-.08-.22a3.83,3.83,0,0,1-.11-.43s0-.09,0-.14l1.26.72.11.23.05.11a4.44,4.44,0,0,0,.27.45l.09.12q.13.18.28.35l.1.12c.13.14.28.28.43.42l.09.08.43.34.15.11c.19.13.39.26.6.38s.44.24.66.35l.19.09.59.25.13.05.73.25.2.06.6.16.2.05.77.16.2,0,.39.06,1.26.73-.26,0-.73-.06-.37,0-.59-.08-.39-.07-.56-.11-.39-.09-.53-.14-.37-.11-.53-.18-.34-.12Z" transform="translate(-59.55 -31.17)"/><path class="cls-20" d="M386.94,265l.16.08c.25.12.5.25.74.38,4.24,2.45,4.26,6.42,0,8.87-.24.14-.5.27-.76.4l-.1,0c-.25.12-.51.23-.77.33l-.13.05-.8.27-.14,0-.85.23-.09,0-.88.18h-.06l-.91.13-.15,0-.89.07h-.17l-.89,0h-.16l-.9,0L378,275.4l.26,0,.21,0,.79.07h.18l.68,0h.21l.8,0h.19l.68-.06.18,0,.79-.11.19,0,.68-.14.13,0,.75-.2.18-.06.67-.23.08,0,.69-.29.16-.08c.23-.11.45-.22.66-.35,3.8-2.21,3.78-5.8-.05-8-.22-.12-.44-.24-.67-.35l-.2-.09-.54-.23-.2-.08-.75-.25-.07,0-.71-.19-.24-.05-.6-.12-.23,0-.82-.12h-.14l-.7-.06H381l-.62,0h-.23l-.82,0h-.2l-.63.05-.28,0-.6.08-.23,0-.72.14,1.52-.88.89-.07h.21l.9,0h.14l.83,0h.16l.9.07.19,0,.89.13.9.18.18,0,.84.23.13,0,.74.25.13,0Q386.57,264.82,386.94,265Z" transform="translate(-59.55 -31.17)"/><path class="cls-20" d="M375.43,273.51l-.2-.09c-.2-.09-.39-.19-.57-.3s-.36-.22-.52-.33l-.15-.12-.3-.24-.16-.14-.23-.23-.14-.17-.18-.22-.12-.18-.13-.22-.1-.19-.1-.23-.07-.19c0-.08,0-.16-.06-.23s0-.12,0-.18,0,0,0-.06l1.28.74,0,0,0,.08a3,3,0,0,0,.16.26l0,.07a3.67,3.67,0,0,0,.24.3l.07.08.27.26,0,0,.35.28.09.07.42.27.46.24.12.05.48.2.07,0,.45.15.13,0,.52.14.12,0,.45.09.15,0h.06l1.28.74h-.1l-.31,0-.41,0-.32,0-.39-.06-.32-.05-.38-.08-.31-.07-.38-.1-.29-.08-.39-.13-.25-.09Z" transform="translate(-59.55 -31.17)"/><path class="cls-20" d="M373.41,270.28a2.45,2.45,0,0,0,.09.35l.05.13c0,.06,0,.13.08.19l-1.28-.74s0-.08,0-.12a2.72,2.72,0,0,1,0-.33c0-.06,0-.12,0-.17a2.71,2.71,0,0,1,.06-.33l0-.11,1.54-.89,0,.07-.11.16-.11.19-.08.16-.08.19-.06.16c0,.07,0,.13,0,.2s0,.11,0,.16,0,.15,0,.22,0,.1,0,.14a2.3,2.3,0,0,0,0,.28S373.41,270.25,373.41,270.28Z" transform="translate(-59.55 -31.17)"/><path class="cls-20" d="M385.12,266.33l.1,0,.54.28c3.09,1.78,3.11,4.68,0,6.46-.2.12-.41.23-.63.33l-.22.09-.45.19-.28.09-.43.14-.3.08-.44.11-.32.06-.45.08-.33,0-.45.05-.34,0-.46,0h-1l-1.28-.74.48.07H379l.45,0h.17l.56,0H381l.56,0h.1l.48-.07.15,0,.54-.11.07,0,.47-.13.13,0,.51-.18h0l.46-.19.13-.06.46-.24c2.65-1.54,2.64-4.06,0-5.6l-.47-.25-.15-.07-.36-.15-.17-.06-.41-.14-.12,0-.54-.15-.15,0-.42-.09-.19,0-.41-.06-.18,0-.59,0h-1.41l-.45,0h-.14l-.57.08-.17,0-.4.08-.2,0-.14,0,1.53-.89.49,0h.1l.59,0h.14l.64,0H381l.65.05h.07l.61.09.12,0,.62.13.13,0,.62.17.61.21.11,0Z" transform="translate(-59.55 -31.17)"/><path class="cls-20" d="M374,267.08l.14-.1c.15-.11.32-.21.49-.32l.54-.29.18-.08.41-.17.2-.08.44-.15.18-.06.63-.17.13,0,.52-.11.24,0,.44-.06.25,0h.12l-1.53.89-.19.06-.25.07-.32.11-.22.08-.34.14-.19.08-.49.26-.44.29-.14.11-.25.2-.14.13-.19.19-.13.15-.1.11-1.54.89,0-.07.05-.15c0-.09.07-.17.11-.25l.07-.14a3.52,3.52,0,0,1,.18-.31l0-.08a4.11,4.11,0,0,1,.29-.36l.1-.11.26-.25.13-.12Z" transform="translate(-59.55 -31.17)"/><polygon class="cls-21" points="357.98 237.24 224.54 314.79 44.58 210.89 178.02 133.34 357.98 237.24"/><polygon class="cls-19" points="194.3 156.96 92.6 216.07 87.47 213.11 189.18 154 194.3 156.96"/><polygon class="cls-19" points="210.57 165.81 108.86 224.91 106.19 223.37 207.89 164.27 210.57 165.81"/><polygon class="cls-19" points="215.93 168.87 114.23 227.97 111.55 226.43 213.25 167.32 215.93 168.87"/><polygon class="cls-19" points="221.29 171.86 119.59 230.97 116.92 229.42 218.62 170.32 221.29 171.86"/><polygon class="cls-19" points="259.25 193.92 157.54 253.03 154.87 251.48 256.57 192.38 259.25 193.92"/><polygon class="cls-19" points="264.73 197.12 163.03 256.23 160.35 254.68 262.06 195.58 264.73 197.12"/><polygon class="cls-19" points="270.22 200.32 168.52 259.43 165.84 257.88 267.54 198.78 270.22 200.32"/><polygon class="cls-19" points="276.03 203.53 174.33 262.63 171.65 261.08 273.36 201.98 276.03 203.53"/><polygon class="cls-19" points="281.65 206.4 179.95 265.5 177.27 263.96 278.98 204.85 281.65 206.4"/><polygon class="cls-19" points="287.14 209.53 185.44 268.64 182.76 267.09 284.46 207.99 287.14 209.53"/><polygon class="cls-19" points="292.89 212.74 191.18 271.84 188.51 270.3 290.21 211.19 292.89 212.74"/><polygon class="cls-19" points="266.36 234.36 196.47 274.98 193.8 273.43 263.67 232.83 266.36 234.36"/><polygon class="cls-19" points="248.68 251.14 202.16 278.17 199.49 276.62 245.99 249.6 248.68 251.14"/><polygon class="cls-19" points="193.07 194.3 124.83 233.96 122.15 232.41 190.39 192.75 193.07 194.3"/><polygon class="cls-19" points="198.36 197.36 130.11 237.02 127.43 235.47 195.68 195.81 198.36 197.36"/><polygon class="cls-19" points="254.48 190.92 226.58 207.13 196.08 189.52 223.98 173.31 254.48 190.92"/><polygon class="cls-19" points="254.41 254.41 207.78 281.51 205.11 279.97 251.72 252.88 254.41 254.41"/><polygon class="cls-19" points="183.71 212.42 135.72 240.31 133.04 238.76 181.03 210.87 183.71 212.42"/><polygon class="cls-19" points="189.07 215.53 141.08 243.42 138.41 241.88 186.4 213.99 189.07 215.53"/><polygon class="cls-19" points="194.56 218.74 146.57 246.62 143.89 245.08 191.88 217.19 194.56 218.74"/><polygon class="cls-19" points="175.34 236.13 152.11 249.63 149.43 248.08 172.65 234.59 175.34 236.13"/><path class="cls-20" d="M369.36,275.34a2.17,2.17,0,0,0-.76,1.19,2.19,2.19,0,0,1-1.43,1.62,6.38,6.38,0,0,1-3.21-.28,7.38,7.38,0,0,0-2-.33l-.19,0-.07,0-.11,0-.77-.44.44-.13.09,0a3.56,3.56,0,0,1,.45-.07,8.16,8.16,0,0,1,2.62.38,5.49,5.49,0,0,0,2.32.29c.49-.14.69-.69.9-1.22a2.57,2.57,0,0,1,1-1.49,7.68,7.68,0,0,1,2.57-.61,4.72,4.72,0,0,0,2.09-.52c.27-.3-.12-.83-.51-1.34s-.79-1-.67-1.51.79-.92,1.44-1.34,1.27-.84,1.18-1.17a.36.36,0,0,0-.1-.15l0,0-.17-.12-.3-.16-.08,0-.23-.09-.13,0-.24-.09-.11,0-.34-.12-.38-.13-.11,0-.31-.11-.1,0-.36-.15-.07,0-.26-.13-.09-.05-.17-.11-.07-.05a1.4,1.4,0,0,1-.19-.17,1.75,1.75,0,0,1-.19-1.53c.09-.56.18-1.14-.25-1.39a5.59,5.59,0,0,0-2.4-.14,8.53,8.53,0,0,1-2.65-.11l-.31-.11-.09,0-.19-.1-.09-.05-.23-.15-.06,0-.26-.21-.07-.06-.19-.17-.07-.06-.23-.22-.21-.2-.07-.06-.15-.14-.09-.08-.17-.13-.06,0-.22-.15-.26-.12-.07,0a1.2,1.2,0,0,0-.26-.06l.75-.47.2.07.17.07.12.06.14.08.18.12.11.08.18.14.09.08.2.18.06.05.25.24.21.2,0,0,.22.2.23.18.06,0,.21.14.16.08.23.09a7.39,7.39,0,0,0,2.08,0,6.4,6.4,0,0,1,3.23.32c.78.45.67,1.18.56,1.87-.08.46-.15.94.08,1.2l.12.11.16.1.26.13.07,0,.3.13.36.13.07,0,.35.12.41.14.1,0,.31.11.13.05.25.1.14.06.2.1.14.08.1.06.14.1.08.07.11.12.05.06a.72.72,0,0,1,.1.2c.17.6-.64,1.14-1.43,1.66-.54.35-1.1.72-1.18,1s.26.75.59,1.18c.48.64,1,1.31.5,1.86a1.34,1.34,0,0,1-.32.26,7.43,7.43,0,0,1-2.48.58A6.85,6.85,0,0,0,369.36,275.34Z" transform="translate(-59.55 -31.17)"/><path class="cls-20" d="M343.89,271.52l0-.06a.7.7,0,0,1-.09-.2c-.17-.61.65-1.15,1.43-1.67l.25-.17.08-.05.26-.19h0L346,269l0,0,.18-.18h0l.77.44-.05,0-.14.12-.08.07-.15.12-.1.07-.16.11-.1.07L346,270l-.23.15-.06,0-.17.12-.07,0-.14.1-.08.06-.11.09-.07.07-.08.08-.05.06-.06.08,0,.06,0,.07a.28.28,0,0,0,0,.06.27.27,0,0,0,0,0l-.81.47Z" transform="translate(-59.55 -31.17)"/><path class="cls-20" d="M346.28,268.72l0-.05a.44.44,0,0,0,0-.11c.08-.29-.26-.74-.59-1.18-.48-.64-1-1.3-.5-1.86s1.66-.69,2.8-.84a6.85,6.85,0,0,0,2.06-.45,2.17,2.17,0,0,0,.76-1.19,2.23,2.23,0,0,1,1.44-1.63,6.47,6.47,0,0,1,3.21.28,7,7,0,0,0,2,.34,5.59,5.59,0,0,0,1.78-.69,5.24,5.24,0,0,1,2.87-.83l.34.05.11,0,.14,0-.81.47h-.19l-.12,0-.11,0-.13,0-.11,0-.14,0-.11,0-.15.06-.11,0-.18.08-.08,0-.21.1-.06,0-.26.13a6.59,6.59,0,0,1-2.31.83,8.31,8.31,0,0,1-2.61-.38,5.46,5.46,0,0,0-2.32-.3c-.48.14-.69.69-.89,1.21a2.6,2.6,0,0,1-1,1.49,7.6,7.6,0,0,1-2.56.61,4.75,4.75,0,0,0-2.1.52c-.27.3.14.83.52,1.34s.78,1,.66,1.51a.93.93,0,0,1-.13.26l0,.05a1.9,1.9,0,0,1-.21.24l-.78-.43Z" transform="translate(-59.55 -31.17)"/><path class="cls-20" d="M360.52,278l-.06,0-.32.16a5.33,5.33,0,0,1-2.88.84l-.35-.06-.1,0-.22-.06-.11,0-.18-.08-.11-.06-.14-.08-.18-.12-.11-.08-.17-.14-.1-.09-.18-.16-.07-.07-.24-.24-.2-.19-.07-.06-.21-.19-.23-.19-.06,0-.22-.15-.14-.07,0,0-.18-.07a7.84,7.84,0,0,0-2.07,0,6.38,6.38,0,0,1-3.24-.31c-.78-.45-.67-1.18-.55-1.88.07-.46.15-.94-.09-1.2l-.12-.1,0,0-.12-.08-.27-.13-.07,0-.3-.12-.35-.13-.12,0-.31-.11-.41-.14-.12,0-.28-.1-.15-.06-.23-.1-.14-.07-.2-.1-.14-.08-.11-.07-.13-.1-.09-.08,0,0,.81-.47v0a.38.38,0,0,0,.1.15l0,0,.17.12.31.16.08,0,.23.1.12,0,.24.09.1,0,.35.12.38.13.12,0,.3.11.1,0,.35.15.07,0,.26.13.09.05.17.11.07,0a1.5,1.5,0,0,1,.19.17,1.81,1.81,0,0,1,.19,1.54c-.09.55-.19,1.14.25,1.39a5.77,5.77,0,0,0,2.4.14,8.6,8.6,0,0,1,2.65.1l.3.11.09,0,.19.1.09.05.23.15.06,0,.26.21.06.06.2.18.07.06.23.22.21.2.07.06.15.14.08.07.17.13.06,0,.22.15.25.12.07,0a1.18,1.18,0,0,0,.26.06,4.39,4.39,0,0,0,2-.69l.29-.15.09,0,.21-.1.12-.06.19-.09.12-.05.2-.08.09,0,.77.44-.31.11-.07,0-.3.13Z" transform="translate(-59.55 -31.17)"/><path class="cls-20" d="M351.22,265.92l.18-.13c.21-.15.43-.29.67-.43s.49-.27.74-.39l.23-.11.58-.25.24-.09.79-.27h0l.86-.23.27-.06.65-.13.28-.05.83-.12h.08l-1.51.88h0l-.58.15-.31.08-.57.19-.28.1-.58.24-.23.1q-.39.18-.75.39t-.68.44l-.17.13c-.15.11-.29.22-.42.34l-.16.16c-.11.11-.23.22-.33.33l-.14.18c-.09.11-.18.22-.26.34l0,0-1.51.88,0-.06a4.21,4.21,0,0,1,.2-.48l.09-.16q.1-.19.22-.37l.11-.16a5.6,5.6,0,0,1,.4-.5l0,0c.14-.16.3-.31.46-.46l.16-.14Z" transform="translate(-59.55 -31.17)"/><path class="cls-20" d="M350.05,270.45c0,.11.05.22.08.33l.06.18,0,.13-1.26-.73a3.67,3.67,0,0,1,0-.52c0-.05,0-.11,0-.16a3.57,3.57,0,0,1,0-.4c0-.05,0-.11,0-.16a3.85,3.85,0,0,1,.13-.52l1.51-.88a4.28,4.28,0,0,0-.25.43l-.06.13a3.75,3.75,0,0,0-.15.35l-.06.18q0,.16-.08.32c0,.06,0,.12,0,.18a3.4,3.4,0,0,0,0,.37s0,.08,0,.12a3.35,3.35,0,0,0,0,.48C350,270.34,350,270.4,350.05,270.45Z" transform="translate(-59.55 -31.17)"/><path class="cls-20" d="M353.17,274.75l-.27-.12c-.27-.13-.53-.26-.78-.41s-.48-.3-.7-.45l-.2-.15-.41-.32-.21-.2-.31-.31-.19-.22-.25-.31-.16-.23c-.07-.11-.13-.21-.19-.32l-.12-.23c-.06-.11-.1-.23-.15-.34s-.06-.14-.08-.22a3.81,3.81,0,0,1-.11-.43s0-.09,0-.14l1.26.72.11.23.05.11a4.47,4.47,0,0,0,.27.45l.09.12c.09.12.18.23.28.35l.1.12c.13.14.28.28.43.42l.09.08.43.34.15.11c.19.13.39.26.6.38s.44.24.66.35l.19.09.59.25.13.05.73.25.2.06.6.16.2.05.77.16.2,0,.39.06,1.26.73-.26,0-.73-.06-.37,0-.59-.08-.39-.07-.56-.11-.39-.09-.53-.14-.37-.11-.53-.18-.34-.12Z" transform="translate(-59.55 -31.17)"/><path class="cls-20" d="M366.48,264.9l.16.08c.25.12.5.25.74.38,4.24,2.45,4.26,6.42.05,8.87-.24.14-.5.27-.76.4l-.1,0c-.25.12-.51.23-.77.33l-.13.05-.8.27-.14,0-.85.23-.09,0-.88.18h-.06l-.91.13-.15,0-.89.07h-.17l-.89,0h-.16l-.9,0-1.26-.73.26,0,.21,0,.79.07H359l.68,0h.21l.8,0h.19l.68-.06.18,0,.79-.11.19,0,.68-.14.13,0,.75-.2.18-.06.67-.23.08,0,.69-.29.16-.08c.23-.11.45-.22.66-.35,3.8-2.21,3.78-5.8-.05-8-.22-.12-.44-.24-.67-.35l-.2-.09-.54-.23L365,265l-.75-.25-.07,0-.71-.19-.24-.05-.6-.12-.23,0-.82-.12h-.14l-.7-.06h-.27l-.62,0h-.23l-.82,0h-.2l-.63.05-.28,0-.6.08-.23,0-.72.14,1.52-.88.89-.07h.21l.9,0h.14l.83,0h.16l.9.07.19,0,.89.13.9.18.18,0,.84.23.13,0,.74.25.13,0Q366.11,264.72,366.48,264.9Z" transform="translate(-59.55 -31.17)"/><path class="cls-20" d="M355,273.41l-.2-.09c-.2-.09-.39-.19-.57-.3s-.36-.22-.52-.33l-.15-.12-.3-.24-.16-.14-.23-.23-.14-.17-.18-.22-.12-.18-.13-.22-.1-.19-.1-.23-.07-.19c0-.08,0-.16-.06-.23s0-.12,0-.18,0,0,0-.06l1.28.74,0,0,0,.08a3,3,0,0,0,.16.26l0,.07a3.67,3.67,0,0,0,.24.3l.07.07.27.26,0,0,.35.28.09.07.42.27.46.24.12.05.48.2.07,0,.45.15.13,0,.52.14.12,0,.45.09.15,0h.06l1.28.74h-.1l-.31,0-.41,0-.32,0-.39-.06-.32-.05-.38-.08-.31-.07-.38-.1-.29-.08-.39-.13-.25-.09Z" transform="translate(-59.55 -31.17)"/><path class="cls-20" d="M353,270.17a2.46,2.46,0,0,0,.09.35l.05.13c0,.06,0,.13.08.19l-1.28-.74s0-.08,0-.12a2.7,2.7,0,0,1,0-.33c0-.06,0-.12,0-.17a2.73,2.73,0,0,1,.06-.33l0-.11,1.54-.89,0,.07-.11.16-.11.19-.08.16-.08.19-.06.16c0,.07,0,.13,0,.2s0,.11,0,.16,0,.15,0,.22,0,.1,0,.14a2.32,2.32,0,0,0,0,.28S352.95,270.15,353,270.17Z" transform="translate(-59.55 -31.17)"/><path class="cls-20" d="M364.66,266.23l.1,0,.54.28c3.09,1.78,3.11,4.68,0,6.46-.2.12-.41.23-.63.33l-.22.09-.45.19-.28.09-.43.14-.3.08-.44.11-.32.06-.45.08-.33,0-.45.05-.34,0-.46,0h-1l-1.28-.74.48.07h.14l.45,0h.17l.56,0h.76l.56,0h.1l.48-.07.15,0,.54-.11.07,0,.47-.13.13,0,.51-.18h0l.46-.19.13-.06.46-.24c2.65-1.54,2.64-4.06,0-5.6l-.47-.25-.15-.07-.36-.15-.17-.06-.41-.14-.12,0-.54-.15-.15,0-.42-.09-.19,0-.41-.06-.18,0-.59,0H359l-.45,0h-.14l-.57.08-.17,0-.4.08-.2,0-.14,0,1.53-.89.49,0h.1l.59,0h.14l.64,0h.16l.65.05h.07l.61.09.12,0,.62.13.13,0,.62.17.61.21.11,0Z" transform="translate(-59.55 -31.17)"/><path class="cls-20" d="M353.53,267l.14-.1c.15-.11.32-.21.49-.32l.54-.29.18-.08.41-.17.2-.08.44-.15.18-.06.63-.17.13,0,.52-.11.24,0,.44-.06.25,0h.12l-1.53.89-.19.06-.25.07-.33.11-.22.08-.34.14-.19.08-.49.26-.44.29-.14.11-.25.2-.14.13-.19.19-.13.15-.1.11-1.54.89,0-.07.05-.15c0-.09.07-.17.11-.25l.07-.14a3.51,3.51,0,0,1,.18-.31l0-.08a4.14,4.14,0,0,1,.29-.36l.1-.11.26-.25.13-.12Z" transform="translate(-59.55 -31.17)"/><polygon class="cls-22" points="95.86 44.77 96.94 49.58 101.75 50.66 96.94 51.73 95.86 56.55 94.78 51.73 89.97 50.66 94.78 49.58 95.86 44.77"/><polygon class="cls-22" points="92.54 32.03 93.33 35.59 96.89 36.38 93.33 37.17 92.54 40.73 91.74 37.17 88.19 36.38 91.74 35.59 92.54 32.03"/><polygon class="cls-23" points="245.74 355.13 246.54 358.68 250.09 359.47 246.54 360.27 245.74 363.82 244.95 360.27 241.4 359.47 244.95 358.68 245.74 355.13"/><g class="cls-1"><polygon class="cls-24" points="126.88 238.05 162.83 217.16 162.75 245.95 126.8 266.83 126.88 238.05"/><path class="cls-25" d="M189.48,222.26c-1.71-1-3.26-1.08-4.38-.43l-35.94,20.89c1.12-.65,2.67-.56,4.38.43l26.77,15.46,35.94-20.89Z" transform="translate(-59.55 -31.17)"/><path class="cls-22" d="M180.31,258.6a13.52,13.52,0,0,1,6.13,10.62L186.36,298l-39.07-22.56.08-28.78c0-3.9,2.78-5.48,6.17-3.52Z" transform="translate(-59.55 -31.17)"/><path class="cls-26" d="M180.31,258.6l35.94-20.89a13.52,13.52,0,0,1,6.13,10.62l-35.94,20.89A13.52,13.52,0,0,0,180.31,258.6Z" transform="translate(-59.55 -31.17)"/></g><ellipse class="cls-27" cx="125.13" cy="203.01" rx="9.45" ry="5.05"/><g class="cls-1"><path class="cls-22" d="M195.09,229.15l0,9.59c0-1.52-1-3-3-4.19a15.83,15.83,0,0,0-14.37,0c-2,1.14-3,2.64-3,4.14l0-9.59c0-1.5,1-3,3-4.14a15.83,15.83,0,0,1,14.37,0C194.09,226.12,195.1,227.64,195.09,229.15Z" transform="translate(-59.55 -31.17)"/><path class="cls-24" d="M199.5,229.17l0,9.59c0,2.15-1.42,4.29-4.23,5.93-5.67,3.3-14.9,3.29-20.6,0-2.87-1.66-4.31-3.83-4.3-6l0-9.59c0,2.17,1.43,4.35,4.3,6,5.71,3.29,14.93,3.3,20.6,0C198.08,233.45,199.49,231.31,199.5,229.17Z" transform="translate(-59.55 -31.17)"/><path class="cls-28" d="M195.2,223.16c5.71,3.29,5.74,8.64.07,11.93s-14.9,3.29-20.6,0-5.74-8.64-.07-11.93S189.49,219.86,195.2,223.16Zm-17.43,10.13a15.84,15.84,0,0,0,14.38,0c4-2.3,3.94-6,0-8.32a15.83,15.83,0,0,0-14.37,0c-4,2.3-3.94,6,0,8.33" transform="translate(-59.55 -31.17)"/></g><path class="cls-29" d="M180.33,276.22v5.15c-.59-.34-1.08-.06-1.08.61l-25.31-14.61a2.36,2.36,0,0,0-1.07-1.85v-5.15l2,1.18v3.57l22.77,13.15V274.7Z" transform="translate(-59.55 -31.17)"/><path class="cls-16" d="M179.28,269.21a2.37,2.37,0,0,0,1.07,1.85v5.16l-2.64-1.53v-3.57L154.93,258v3.57l-2-1.18v-5.16c.6.34,1.08.06,1.08-.61Z" transform="translate(-59.55 -31.17)"/><polygon class="cls-30" points="118.14 243.53 118.13 247.1 95.36 233.95 95.37 230.38 118.14 243.53"/><polygon class="cls-31" points="118.14 239.96 118.14 243.53 95.37 230.38 95.38 226.81 118.14 239.96"/><path class="cls-32" d="M203.44,49.93V193.64l-18.76,7.92V31.17A18.76,18.76,0,0,1,203.44,49.93Z" transform="translate(-59.55 -31.17)"/><path class="cls-33" d="M184.68,31.17V201.56l-18.76-7.92V49.93A18.76,18.76,0,0,1,184.68,31.17Z" transform="translate(-59.55 -31.17)"/><path class="cls-34" d="M203.44,184.59v1.25l-18.53,8a.54.54,0,0,1-.23,0,.57.57,0,0,1-.52-.34.57.57,0,0,1,.29-.75l.23-.1Z" transform="translate(-59.55 -31.17)"/><path class="cls-34" d="M203.44,179.35v1.25l-18.53,8a.54.54,0,0,1-.23,0,.57.57,0,0,1-.52-.34.57.57,0,0,1,.29-.75l.23-.1Z" transform="translate(-59.55 -31.17)"/><path class="cls-34" d="M203.44,174.11v1.25l-18.53,8a.54.54,0,0,1-.23,0,.57.57,0,0,1-.52-.34.57.57,0,0,1,.29-.75l.23-.1Z" transform="translate(-59.55 -31.17)"/><path class="cls-34" d="M203.44,168.86v1.25l-18.53,8a.54.54,0,0,1-.23,0,.57.57,0,0,1-.52-.34.57.57,0,0,1,.29-.75l.23-.1Z" transform="translate(-59.55 -31.17)"/><path class="cls-34" d="M203.44,163.62v1.25l-18.53,8a.54.54,0,0,1-.23,0,.57.57,0,0,1-.23-1.09l.23-.1Z" transform="translate(-59.55 -31.17)"/><path class="cls-34" d="M203.44,158.38v1.25l-18.53,8a.54.54,0,0,1-.23,0,.57.57,0,0,1-.23-1.09l.23-.1Z" transform="translate(-59.55 -31.17)"/><path class="cls-34" d="M203.44,153.14v1.25l-18.53,8a.54.54,0,0,1-.23,0,.57.57,0,0,1-.23-1.09l.23-.1Z" transform="translate(-59.55 -31.17)"/><path class="cls-34" d="M203.44,129.15v1.23l-18.53,8a.54.54,0,0,1-.23,0,.57.57,0,0,1-.23-1.09l.23-.1Z" transform="translate(-59.55 -31.17)"/><path class="cls-34" d="M203.44,105.16v1.23l-18.53,8a.54.54,0,0,1-.23,0,.57.57,0,0,1-.23-1.09l.23-.1Z" transform="translate(-59.55 -31.17)"/><path class="cls-34" d="M203.44,99.92v1.23l-18.53,8a.54.54,0,0,1-.23,0,.57.57,0,0,1-.23-1.09l.23-.1Z" transform="translate(-59.55 -31.17)"/><path class="cls-34" d="M203.44,94.68v1.23l-18.53,8a.8.8,0,0,1-.23,0,.57.57,0,0,1-.23-1.09l.23-.1Z" transform="translate(-59.55 -31.17)"/><path class="cls-34" d="M203.44,68.84v1.23l-18.53,8a.8.8,0,0,1-.23,0,.57.57,0,0,1-.23-1.09l.23-.1Z" transform="translate(-59.55 -31.17)"/><path class="cls-34" d="M203.44,63.6v1.23l-18.53,8a.8.8,0,0,1-.23,0,.57.57,0,0,1-.23-1.09l.23-.1Z" transform="translate(-59.55 -31.17)"/><path class="cls-34" d="M203.44,58.36v1.23l-18.53,8a.8.8,0,0,1-.23,0,.58.58,0,0,1-.52-.34.57.57,0,0,1,.29-.75l.23-.1Z" transform="translate(-59.55 -31.17)"/><path class="cls-35" d="M185.2,188.26a.58.58,0,0,1-.52.35.49.49,0,0,1-.22,0l-18.54-7.85V179.5l18.76,7.94.22.09A.56.56,0,0,1,185.2,188.26Z" transform="translate(-59.55 -31.17)"/><path class="cls-35" d="M185.2,183a.58.58,0,0,1-.52.35.49.49,0,0,1-.22,0l-18.54-7.85v-1.22l18.76,7.94.22.09A.56.56,0,0,1,185.2,183Z" transform="translate(-59.55 -31.17)"/><path class="cls-35" d="M185.2,177.77a.58.58,0,0,1-.52.35.49.49,0,0,1-.22,0l-18.54-7.85V169l18.76,7.94.22.09A.55.55,0,0,1,185.2,177.77Z" transform="translate(-59.55 -31.17)"/><path class="cls-35" d="M165.92,165l18.54,7.85a.49.49,0,0,0,.22,0,.58.58,0,0,0,.52-.35.55.55,0,0,0-.31-.74l-.22-.09-18.76-7.94Z" transform="translate(-59.55 -31.17)"/><path class="cls-35" d="M185.2,167.29a.58.58,0,0,1-.52.35.73.73,0,0,1-.22,0l-18.54-7.85v-1.22l18.76,7.94.22.09A.55.55,0,0,1,185.2,167.29Z" transform="translate(-59.55 -31.17)"/><path class="cls-35" d="M185.2,162a.58.58,0,0,1-.52.35.49.49,0,0,1-.22,0l-18.54-7.85v-1.22l18.76,7.94.22.09A.55.55,0,0,1,185.2,162Z" transform="translate(-59.55 -31.17)"/><path class="cls-35" d="M185.2,156.81a.58.58,0,0,1-.52.35.49.49,0,0,1-.22,0l-18.54-7.85V148L184.68,156l.22.09A.55.55,0,0,1,185.2,156.81Z" transform="translate(-59.55 -31.17)"/><path class="cls-35" d="M185.2,151.57a.58.58,0,0,1-.52.35.73.73,0,0,1-.22,0L165.92,144V142.8l18.76,7.94.22.09A.55.55,0,0,1,185.2,151.57Z" transform="translate(-59.55 -31.17)"/><path class="cls-35" d="M185.2,146.32a.58.58,0,0,1-.52.35.73.73,0,0,1-.22,0l-18.54-7.85v-1.22l18.76,7.94.22.09A.55.55,0,0,1,185.2,146.32Z" transform="translate(-59.55 -31.17)"/><path class="cls-35" d="M185.2,141.08a.58.58,0,0,1-.52.35.73.73,0,0,1-.22,0l-18.54-7.85v-1.22l18.76,7.94.22.09A.55.55,0,0,1,185.2,141.08Z" transform="translate(-59.55 -31.17)"/><path class="cls-35" d="M185.2,135.84a.58.58,0,0,1-.52.35.73.73,0,0,1-.22,0l-18.54-7.85v-1.22L184.68,135l.22.09A.55.55,0,0,1,185.2,135.84Z" transform="translate(-59.55 -31.17)"/><path class="cls-35" d="M185.2,130.6a.58.58,0,0,1-.52.35.73.73,0,0,1-.22,0l-18.54-7.85v-1.22l18.76,7.94.22.09A.55.55,0,0,1,185.2,130.6Z" transform="translate(-59.55 -31.17)"/><path class="cls-35" d="M185.2,103.46a.57.57,0,0,1-.52.34.49.49,0,0,1-.22,0l-18.54-7.85V94.69l18.76,7.94.22.09A.57.57,0,0,1,185.2,103.46Z" transform="translate(-59.55 -31.17)"/><path class="cls-35" d="M185.2,98.22a.57.57,0,0,1-.52.34.49.49,0,0,1-.22,0l-18.54-7.85V89.45l18.76,7.94.22.09A.57.57,0,0,1,185.2,98.22Z" transform="translate(-59.55 -31.17)"/><path class="cls-35" d="M185.2,93a.56.56,0,0,1-.52.35.49.49,0,0,1-.22,0l-18.54-7.85V84.21l18.76,7.94.22.09A.56.56,0,0,1,185.2,93Z" transform="translate(-59.55 -31.17)"/><path class="cls-35" d="M185.2,87.74a.57.57,0,0,1-.52.34.49.49,0,0,1-.22,0l-18.54-7.85V79l18.76,7.94.22.09A.57.57,0,0,1,185.2,87.74Z" transform="translate(-59.55 -31.17)"/><path class="cls-36" d="M181.85,50.05V234.62a17.1,17.1,0,0,0,2.83.28V47.22A2.83,2.83,0,0,0,181.85,50.05Z" transform="translate(-59.55 -31.17)"/><path class="cls-37" d="M187.51,50.05a2.83,2.83,0,0,0-2.83-2.83V234.9a17.05,17.05,0,0,0,2.83-.19Z" transform="translate(-59.55 -31.17)"/><path class="cls-24" d="M363.92,309.72l0,12.82c0-4.95-2-9.9-5.94-14.41A40,40,0,0,0,347.78,300c-21.37-12.34-55.91-12.34-77.14,0a39.33,39.33,0,0,0-10.08,8.08c-3.84,4.42-5.76,9.26-5.77,14.1l0-12.82c0-4.84,1.94-9.68,5.77-14.1a39.34,39.34,0,0,1,10.08-8.08c21.23-12.34,55.77-12.34,77.14,0A40,40,0,0,1,358,295.31C362,299.82,363.93,304.77,363.92,309.72Z" transform="translate(-59.55 -31.17)"/><path class="cls-22" d="M374.3,309.75l0,12.82c0,9.56-6.31,19.11-18.87,26.41-25.27,14.69-66.38,14.68-91.82,0-12.8-7.39-19.19-17.09-19.17-26.78l0-12.82c0,9.69,6.37,19.39,19.17,26.78,25.44,14.69,66.55,14.69,91.82,0C368,328.86,374.27,319.31,374.3,309.75Z" transform="translate(-59.55 -31.17)"/><g class="cls-1"><path class="cls-22" d="M246.32,348.71l0-8.55a1.76,1.76,0,0,0,1,1.44l0,8.55A1.76,1.76,0,0,1,246.32,348.71Z" transform="translate(-59.55 -31.17)"/><polygon class="cls-24" points="208.87 309.45 208.84 318 199.9 323.19 199.92 314.64 208.87 309.45"/><path class="cls-22" d="M259.48,345.81l0,8.55a5.29,5.29,0,0,1-4.79,0l0-8.55A5.29,5.29,0,0,0,259.48,345.81Z" transform="translate(-59.55 -31.17)"/><polygon class="cls-24" points="195.13 314.64 195.11 323.19 170.45 337.46 170.47 328.91 195.13 314.64"/></g><g class="cls-38"><path class="cls-39" d="M363.67,312.66a18.62,18.62,0,0,1-1.08,4c-2.17,5.61-7,10.92-14.51,15.29-21.24,12.33-55.77,12.33-77.15,0-7.55-4.36-12.46-9.68-14.69-15.28a19.88,19.88,0,0,1-1.16-4.14,22.56,22.56,0,0,1,5.54-11.16,39.09,39.09,0,0,1,10.07-8.09c21.24-12.34,55.77-12.34,77.15,0A39.8,39.8,0,0,1,358,301.32,22.89,22.89,0,0,1,363.67,312.66Z" transform="translate(-59.55 -31.17)"/></g><path class="cls-40" d="M255.62,334.08l-8.89,5.16c-1.31.76-1.31,2,.07,2.79l-24.46,14.21L225.4,358l35.43-20.47A55.82,55.82,0,0,1,255.62,334.08Z" transform="translate(-59.55 -31.17)"/><path class="cls-28" d="M261.25,337.8l-.42-.25L225.4,358l.53.31,3.6,2.08L254,346.22a5.26,5.26,0,0,0,4.76,0l8.89-5.16A68.25,68.25,0,0,1,261.25,337.8Z" transform="translate(-59.55 -31.17)"/><g class="cls-1"><polygon class="cls-41" points="95.99 365.58 95.95 378.4 89.88 374.89 89.92 362.07 95.99 365.58"/><polygon class="cls-41" points="171.36 328.82 171.33 341.64 102.03 381.91 102.07 369.09 171.36 328.82"/><polygon class="cls-42" points="102.07 369.09 102.03 381.91 95.95 378.4 95.99 365.58 102.07 369.09"/></g><polygon class="cls-43" points="165.28 325.31 159.21 321.8 89.92 362.07 95.99 365.58 96.02 365.59 165.29 325.31 165.28 325.31"/><polygon class="cls-44" points="171.36 328.82 165.29 325.31 96.02 365.59 102.07 369.09 171.36 328.82"/><path class="cls-45" d="M270.67,287.22a39.34,39.34,0,0,0-10.08,8.08c-5.76,6.63-7.21,14.2-4.36,21.32,2.19,5.5,7,10.73,14.3,15l77.12-44.54C326.28,274.88,291.86,274.91,270.67,287.22Z" transform="translate(-59.55 -31.17)"/><path class="cls-45" d="M270.92,331.9c21.37,12.34,55.91,12.34,77.15,0,7.51-4.36,12.35-9.68,14.52-15.29,2.76-7.11,1.23-14.68-4.61-21.31a40,40,0,0,0-10.16-8.09l-.15-.08-77.12,44.54Z" transform="translate(-59.55 -31.17)"/><path class="cls-46" d="M256.23,316.62c-2.85-7.12-1.4-14.69,4.36-21.32a39.34,39.34,0,0,1,10.08-8.08c21.19-12.31,55.61-12.34,77-.08L355,282.9c-25.45-14.61-66.46-14.59-91.69.07s-25.13,38.23-.11,52.93l7.33-4.23C263.2,327.35,258.42,322.12,256.23,316.62Z" transform="translate(-59.55 -31.17)"/><path class="cls-28" d="M355.13,283l-.13-.07-7.34,4.24.15.08A40,40,0,0,1,358,295.31c5.84,6.63,7.37,14.2,4.61,21.31-2.17,5.61-7,10.92-14.52,15.29-21.23,12.34-55.77,12.34-77.15,0l-.39-.23-7.33,4.23.4.25c25.44,14.69,66.55,14.69,91.82,0S380.57,297.65,355.13,283Z" transform="translate(-59.55 -31.17)"/><polygon class="cls-22" points="243.56 263.99 244.18 266.76 246.95 267.38 244.18 268 243.56 270.76 242.94 268 240.17 267.38 242.94 266.76 243.56 263.99"/><polygon class="cls-22" points="233.98 267.38 234.42 269.35 236.39 269.79 234.42 270.23 233.98 272.21 233.53 270.23 231.56 269.79 233.53 269.35 233.98 267.38"/><g class="cls-47"><path class="cls-48" d="M320.16,312.64a17.72,17.72,0,0,1,4.5,3.58c2.59,2.94,3.26,6.29,2,9.45-1,2.48-3.11,4.84-6.43,6.77-9.41,5.47-24.72,5.47-34.2,0-3.35-1.93-5.52-4.29-6.51-6.78-1.26-3.15-.62-6.51,1.93-9.45a17.46,17.46,0,0,1,4.47-3.58C295.37,307.17,310.68,307.17,320.16,312.64Z" transform="translate(-59.55 -31.17)"/></g><g class="cls-49"><path class="cls-23" d="M297.86,316a5.93,5.93,0,0,1,1.51,1.2,3,3,0,0,1,.68,3.16,4.73,4.73,0,0,1-2.15,2.27,12.61,12.61,0,0,1-11.44,0,4.81,4.81,0,0,1-2.18-2.27,3,3,0,0,1,.65-3.16,5.84,5.84,0,0,1,1.5-1.2A12.6,12.6,0,0,1,297.86,316Z" transform="translate(-59.55 -31.17)"/></g><path class="cls-24" d="M153.73,397.74a7.72,7.72,0,1,1-13.33,6.71,9.45,9.45,0,1,0,13.33-6.71Z" transform="translate(-59.55 -31.17)"/><path class="cls-28" d="M148,410.56a7.7,7.7,0,0,0,5.78-12.81,9.43,9.43,0,0,0-13.33,6.71A7.73,7.73,0,0,0,148,410.56Z" transform="translate(-59.55 -31.17)"/><circle class="cls-46" cx="86.68" cy="371.66" r="2.58"/><polygon class="cls-23" points="113.98 18.63 114.78 22.18 118.33 22.98 114.78 23.77 113.98 27.32 113.19 23.77 109.64 22.98 113.19 22.18 113.98 18.63"/></svg>