<svg xmlns="http://www.w3.org/2000/svg" xmlns:xlink="http://www.w3.org/1999/xlink" viewBox="0 0 82.49 82.49"><defs><style>.cls-1{isolation:isolate;}.cls-2{opacity:0.4;}.cls-2,.cls-3,.cls-5{mix-blend-mode:multiply;}.cls-3{fill:#424242;}.cls-4,.cls-7{fill:#fff;}.cls-5{opacity:0.8;fill:url(#Degradado_sin_nombre_44);}.cls-6{fill:url(#Nueva_muestra_de_degradado_4);}.cls-7{fill-rule:evenodd;}</style><radialGradient id="Degradado_sin_nombre_44" cx="43.98" cy="43.66" r="37.29" gradientUnits="userSpaceOnUse"><stop offset="0"/><stop offset="0.86" stop-color="#777" stop-opacity="0.53"/><stop offset="1" stop-color="#fff" stop-opacity="0"/></radialGradient><linearGradient id="Nueva_muestra_de_degradado_4" x1="18.37" y1="18.37" x2="64.11" y2="64.11" gradientUnits="userSpaceOnUse"><stop offset="0" stop-color="#00cdff"/><stop offset="1" stop-color="#0080ff"/></linearGradient></defs><title>tw-footer</title><g class="cls-1"><g id="Layer_1" data-name="Layer 1"><g class="cls-2"><circle class="cls-3" cx="41.24" cy="41.24" r="40.98"/></g><circle class="cls-4" cx="41.24" cy="41.24" r="41.24"/><circle class="cls-5" cx="43.98" cy="43.66" r="37.29"/><circle class="cls-6" cx="41.24" cy="41.24" r="32.34"/><path class="cls-4" d="M60.84,28.8a16.45,16.45,0,0,1-4,1.15c.65-.11,1.6-1.28,2-1.76a7.39,7.39,0,0,0,1.34-2.44c0-.07.06-.16,0-.21a.23.23,0,0,0-.21,0,20.57,20.57,0,0,1-4.78,1.83.32.32,0,0,1-.33-.09,3.88,3.88,0,0,0-.42-.43,8.46,8.46,0,0,0-2.32-1.42,8.06,8.06,0,0,0-3.55-.57,8.49,8.49,0,0,0-3.37,1,8.68,8.68,0,0,0-2.72,2.22,8.35,8.35,0,0,0-1.62,3.25,8.81,8.81,0,0,0-.09,3.43c0,.19,0,.22-.16.19-6.57-1-12-3.33-16.43-8.36-.19-.22-.3-.22-.45,0-1.93,2.9-1,7.55,1.42,9.84.32.3.65.61,1,.89a8.37,8.37,0,0,1-3.17-.89c-.19-.12-.29-.05-.3.17a5,5,0,0,0,.05.94,8.42,8.42,0,0,0,5.19,6.71,4.91,4.91,0,0,0,1.05.32,9.39,9.39,0,0,1-3.11.1c-.23,0-.31.07-.23.29,1.37,3.73,4.32,4.84,6.53,5.47.3.05.59.05.89.12L33,50.6c-.73,1.12-3.28,2-4.46,2.36a16,16,0,0,1-6.77.87c-.36-.05-.44,0-.54,0s0,.15.1.24c.46.3.93.58,1.41.84a22.36,22.36,0,0,0,4.53,1.81c8.14,2.25,17.31.6,23.42-5.48,4.8-4.77,6.48-11.34,6.48-17.93,0-.26.3-.4.49-.54a15.84,15.84,0,0,0,3.19-3.31,1,1,0,0,0,.21-.63v0C61,28.69,61,28.73,60.84,28.8Z" transform="translate(0.07 -0.03)"/><path class="cls-7" d="M33,57.74Z" transform="translate(0.07 -0.03)"/><path class="cls-7" d="M33,57.74Z" transform="translate(0.07 -0.03)"/><path class="cls-7" d="M34.31,57.78c0-.07.71,0,0,0C34.31,57.74,34.39,57.78,34.31,57.78Z" transform="translate(0.07 -0.03)"/></g></g></svg>