<svg xmlns="http://www.w3.org/2000/svg" xmlns:xlink="http://www.w3.org/1999/xlink" viewBox="0 0 81.55 82.4"><defs><style>.cls-1{isolation:isolate;}.cls-2{opacity:0.4;}.cls-2,.cls-3,.cls-5{mix-blend-mode:multiply;}.cls-3{fill:#424242;}.cls-4{fill:#fff;}.cls-5{opacity:0.8;fill:url(#Degradado_sin_nombre_44);}.cls-6{fill:url(#Nueva_muestra_de_degradado_3);}</style><radialGradient id="Degradado_sin_nombre_44" cx="44.44" cy="44.27" r="37.29" gradientTransform="translate(-0.45 -0.6) scale(0.99 1)" gradientUnits="userSpaceOnUse"><stop offset="0"/><stop offset="0.86" stop-color="#777" stop-opacity="0.53"/><stop offset="1" stop-color="#fff" stop-opacity="0"/></radialGradient><linearGradient id="Nueva_muestra_de_degradado_3" x1="18.05" y1="18.47" x2="63.5" y2="63.92" gradientUnits="userSpaceOnUse"><stop offset="0" stop-color="red"/><stop offset="1" stop-color="#9b0000"/></linearGradient></defs><title>yo-footer</title><g class="cls-1"><g id="Layer_1" data-name="Layer 1"><g class="cls-2"><ellipse class="cls-3" cx="40.77" cy="41.2" rx="40.51" ry="40.93"/></g><ellipse class="cls-4" cx="40.77" cy="41.2" rx="40.77" ry="41.2"/><ellipse class="cls-5" cx="43.48" cy="43.61" rx="36.86" ry="37.25"/><ellipse class="cls-6" cx="40.77" cy="41.2" rx="31.97" ry="32.31"/><path class="cls-4" d="M60.31,36.49a8.72,8.72,0,0,0-8.68-8.77H29.44a8.72,8.72,0,0,0-8.68,8.77V46.93a8.72,8.72,0,0,0,8.68,8.77H51.63a8.72,8.72,0,0,0,8.68-8.77Zm-13,6-9.95,5c-.39.21-1.72-.07-1.72-.52V36.73c0-.45,1.34-.74,1.73-.51l9.52,5.24C47.24,41.69,47.66,42.27,47.26,42.49Z" transform="translate(-0.45 -0.6)"/></g></g></svg>