<svg xmlns="http://www.w3.org/2000/svg" viewBox="0 0 491 249.79"><defs><style>.cls-1{isolation:isolate;}.cls-2,.cls-3{fill:#00b8d4;}.cls-3,.cls-9{mix-blend-mode:multiply;}.cls-4{font-size:107.99px;}.cls-12,.cls-4,.cls-8{fill:#fff;font-family:Montserrat-Bold, Montserrat Bold;font-weight:700;}.cls-11,.cls-5,.cls-7{fill:none;stroke-miterlimit:10;stroke-width:2px;}.cls-5{stroke:#00b8d4;}.cls-6{fill:#ff4081;}.cls-7{stroke:#ff4081;}.cls-8{font-size:115.92px;}.cls-9{fill:#c73265;opacity:0.5;}.cls-10{fill:#ffab00;}.cls-11{stroke:#ffab00;}.cls-12{font-size:96.93px;}</style></defs><title>questions</title><g class="cls-1"><g id="OBJECTS"><polygon class="cls-2" points="76.76 160.43 88.74 194.73 46.79 160.43 76.76 160.43"/><rect class="cls-2" x="14.32" y="40.55" width="177.82" height="119.88" rx="16" ry="16"/><path class="cls-3" d="M158.61,191.29a16,16,0,0,0-16,16v48h39.29a16,16,0,0,0,16-16v-48Z" transform="translate(-5.76 -94.84)"/><text class="cls-4" transform="translate(72.15 138.17)">?</text><path class="cls-5" d="M13.42,238.58v-86.5a22.89,22.89,0,0,1,22.89-22.89H93" transform="translate(-5.76 -94.84)"/><path class="cls-5" d="M99.59,261.47h82.08a22.89,22.89,0,0,0,22.89-22.89v-86.5" transform="translate(-5.76 -94.84)"/><path class="cls-6" d="M324.44,179.14H167.88a17.16,17.16,0,0,0-17.16,17.16v94.36a17.16,17.16,0,0,0,17.16,17.16h17.84l-12.87,36.82,45-36.82H324.44a17.16,17.16,0,0,0,17.16-17.16V196.29A17.16,17.16,0,0,0,324.44,179.14Z" transform="translate(-5.76 -94.84)"/><path class="cls-7" d="M138.57,256.43V192a25.38,25.38,0,0,1,25.38-25.38h50" transform="translate(-5.76 -94.84)"/><path class="cls-7" d="M172.85,320.32h-8.9a25.38,25.38,0,0,1-25.38-25.38" transform="translate(-5.76 -94.84)"/><line class="cls-7" x1="318.54" y1="225.48" x2="205.27" y2="225.48"/><path class="cls-7" d="M240.53,166.63h87.84A25.38,25.38,0,0,1,353.75,192V294.95" transform="translate(-5.76 -94.84)"/><path class="cls-7" d="M145.63,215.68V194.51a19.84,19.84,0,0,1,19.84-19.84H263" transform="translate(-5.76 -94.84)"/><path class="cls-7" d="M177.17,312.28H165.47a19.84,19.84,0,0,1-19.84-19.84V236.33" transform="translate(-5.76 -94.84)"/><line class="cls-7" x1="265.06" y1="217.44" x2="216.27" y2="217.44"/><path class="cls-7" d="M346.69,292.44a19.84,19.84,0,0,1-19.84,19.84H279.67" transform="translate(-5.76 -94.84)"/><path class="cls-7" d="M301.92,174.67h24.93a19.84,19.84,0,0,1,19.84,19.84v76.4" transform="translate(-5.76 -94.84)"/><text class="cls-8" transform="translate(207.04 189.08)">?</text><path class="cls-9" d="M324.44,179.14H311.74V225A13.26,13.26,0,0,0,325,238.28h16.59v-42A17.16,17.16,0,0,0,324.44,179.14Z" transform="translate(-5.76 -94.84)"/><line class="cls-5" x1="109.89" y1="34.35" x2="234.76" y2="34.35"/><line class="cls-5" x1="58.28" y1="26.19" x2="192.14" y2="26.19"/><line class="cls-5" x1="1" y1="95.45" x2="1" y2="172.96"/><polygon class="cls-10" points="367.46 134.86 356.7 165.64 394.36 134.86 367.46 134.86"/><rect class="cls-10" x="314.56" y="27.26" width="159.6" height="107.6" rx="12.37" ry="12.37"/><line class="cls-11" x1="308.79" y1="65.12" x2="308.79" y2="36.43"/><path class="cls-11" d="M485.68,149.22v71.31a15.55,15.55,0,0,1-15.55,15.55h-63.8" transform="translate(-5.76 -94.84)"/><line class="cls-11" x1="269.39" y1="20.88" x2="449.09" y2="20.88"/><text class="cls-12" transform="translate(366.46 114.88)">?</text><line class="cls-11" x1="291.37" y1="14" x2="421.3" y2="14"/><line class="cls-11" x1="421.3" y1="147.33" x2="491" y2="147.33"/><circle class="cls-7" cx="273.9" cy="46.33" r="5.78"/><circle class="cls-11" cx="388.57" cy="167.17" r="5.78"/><circle class="cls-5" cx="37" cy="189.08" r="5.78"/><circle class="cls-6" cx="216.94" cy="45.66" r="1.34"/><circle class="cls-6" cx="222.83" cy="45.66" r="1.34"/><circle class="cls-6" cx="228.73" cy="45.66" r="1.34"/><circle class="cls-6" cx="234.63" cy="45.66" r="1.34"/><circle class="cls-6" cx="240.53" cy="45.66" r="1.34"/><circle class="cls-6" cx="246.42" cy="45.66" r="1.34"/><circle class="cls-6" cx="252.32" cy="45.66" r="1.34"/><circle class="cls-6" cx="216.94" cy="50.77" r="1.34"/><circle class="cls-6" cx="222.83" cy="50.77" r="1.34"/><circle class="cls-6" cx="228.73" cy="50.77" r="1.34"/><circle class="cls-6" cx="234.63" cy="50.77" r="1.34"/><circle class="cls-6" cx="240.53" cy="50.77" r="1.34"/><circle class="cls-6" cx="246.42" cy="50.77" r="1.34"/><circle class="cls-6" cx="252.32" cy="50.77" r="1.34"/><circle class="cls-6" cx="216.94" cy="55.89" r="1.34"/><circle class="cls-6" cx="222.83" cy="55.89" r="1.34"/><circle class="cls-6" cx="228.73" cy="55.89" r="1.34"/><circle class="cls-6" cx="234.63" cy="55.89" r="1.34"/><circle class="cls-6" cx="240.53" cy="55.89" r="1.34"/><circle class="cls-6" cx="246.42" cy="55.89" r="1.34"/><circle class="cls-6" cx="252.32" cy="55.89" r="1.34"/><circle class="cls-6" cx="216.94" cy="61.01" r="1.34"/><circle class="cls-6" cx="222.83" cy="61.01" r="1.34"/><circle class="cls-6" cx="228.73" cy="61.01" r="1.34"/><circle class="cls-6" cx="234.63" cy="61.01" r="1.34"/><circle class="cls-6" cx="240.53" cy="61.01" r="1.34"/><circle class="cls-6" cx="246.42" cy="61.01" r="1.34"/><circle class="cls-6" cx="252.32" cy="61.01" r="1.34"/><circle class="cls-2" cx="29.76" cy="1.34" r="1.34"/><circle class="cls-2" cx="35.66" cy="1.34" r="1.34"/><circle class="cls-2" cx="41.56" cy="1.34" r="1.34"/><circle class="cls-2" cx="47.45" cy="1.34" r="1.34"/><circle class="cls-2" cx="53.35" cy="1.34" r="1.34"/><circle class="cls-2" cx="59.25" cy="1.34" r="1.34"/><circle class="cls-2" cx="65.15" cy="1.34" r="1.34"/><circle class="cls-2" cx="29.76" cy="6.46" r="1.34"/><circle class="cls-2" cx="35.66" cy="6.46" r="1.34"/><circle class="cls-2" cx="41.56" cy="6.46" r="1.34"/><circle class="cls-2" cx="47.45" cy="6.46" r="1.34"/><circle class="cls-2" cx="53.35" cy="6.46" r="1.34"/><circle class="cls-2" cx="59.25" cy="6.46" r="1.34"/><circle class="cls-2" cx="65.15" cy="6.46" r="1.34"/><circle class="cls-2" cx="29.76" cy="11.57" r="1.34"/><circle class="cls-2" cx="35.66" cy="11.57" r="1.34"/><circle class="cls-2" cx="41.56" cy="11.57" r="1.34"/><circle class="cls-2" cx="47.45" cy="11.57" r="1.34"/><circle class="cls-2" cx="53.35" cy="11.57" r="1.34"/><circle class="cls-2" cx="59.25" cy="11.57" r="1.34"/><circle class="cls-2" cx="65.15" cy="11.57" r="1.34"/><circle class="cls-2" cx="29.76" cy="16.69" r="1.34"/><circle class="cls-2" cx="35.66" cy="16.69" r="1.34"/><circle class="cls-2" cx="41.56" cy="16.69" r="1.34"/><circle class="cls-2" cx="47.45" cy="16.69" r="1.34"/><circle class="cls-2" cx="53.35" cy="16.69" r="1.34"/><circle class="cls-2" cx="59.25" cy="16.69" r="1.34"/><circle class="cls-2" cx="65.15" cy="16.69" r="1.34"/><circle class="cls-10" cx="431.23" cy="164.3" r="1.34"/><circle class="cls-10" cx="431.23" cy="170.2" r="1.34"/><circle class="cls-10" cx="431.23" cy="176.1" r="1.34"/><circle class="cls-10" cx="431.23" cy="181.99" r="1.34"/><circle class="cls-10" cx="431.23" cy="187.89" r="1.34"/><circle class="cls-10" cx="431.23" cy="193.79" r="1.34"/><circle class="cls-10" cx="431.23" cy="199.69" r="1.34"/><circle class="cls-10" cx="426.11" cy="164.3" r="1.34"/><circle class="cls-10" cx="426.11" cy="170.2" r="1.34"/><circle class="cls-10" cx="426.11" cy="176.1" r="1.34"/><circle class="cls-10" cx="426.11" cy="181.99" r="1.34"/><circle class="cls-10" cx="426.11" cy="187.89" r="1.34"/><circle class="cls-10" cx="426.11" cy="193.79" r="1.34"/><circle class="cls-10" cx="426.11" cy="199.69" r="1.34"/><circle class="cls-10" cx="421" cy="164.3" r="1.34"/><circle class="cls-10" cx="421" cy="170.2" r="1.34"/><circle class="cls-10" cx="421" cy="176.1" r="1.34"/><circle class="cls-10" cx="421" cy="181.99" r="1.34"/><circle class="cls-10" cx="421" cy="187.89" r="1.34"/><circle class="cls-10" cx="421" cy="193.79" r="1.34"/><circle class="cls-10" cx="421" cy="199.69" r="1.34"/><circle class="cls-10" cx="415.88" cy="164.3" r="1.34"/><circle class="cls-10" cx="415.88" cy="170.2" r="1.34"/><circle class="cls-10" cx="415.88" cy="176.1" r="1.34"/><circle class="cls-10" cx="415.88" cy="181.99" r="1.34"/><circle class="cls-10" cx="415.88" cy="187.89" r="1.34"/><circle class="cls-10" cx="415.88" cy="193.79" r="1.34"/><circle class="cls-10" cx="415.88" cy="199.69" r="1.34"/></g></g></svg>