<svg id="OBJECTS" xmlns="http://www.w3.org/2000/svg" xmlns:xlink="http://www.w3.org/1999/xlink" viewBox="0 0 453.31 325.52"><defs><style>.cls-1,.cls-11,.cls-12,.cls-14,.cls-20,.cls-27{fill:none;}.cls-2{fill:#eff0f0;}.cls-3{fill:#00b94e;}.cls-4{fill:#bfc4c4;}.cls-5{fill:#b57053;}.cls-6{fill:#da5955;}.cls-7{fill:#393762;}.cls-8{fill:#e69d35;}.cls-9{fill:#f2957e;}.cls-10{fill:#f6ba99;}.cls-11,.cls-12,.cls-14{stroke:#333;}.cls-11,.cls-14,.cls-20,.cls-27{stroke-linecap:round;}.cls-11,.cls-12,.cls-14,.cls-20,.cls-27{stroke-miterlimit:10;}.cls-11,.cls-12,.cls-20{stroke-width:0.5px;}.cls-13{fill:#333;}.cls-14{stroke-width:0.75px;}.cls-15{fill:#82819c;}.cls-16{fill:#e9a94d;}.cls-17{fill:#68addb;}.cls-18{fill:#7eb9f5;}.cls-19{fill:#fff;}.cls-20,.cls-27{stroke:#393762;}.cls-21{fill:#005d8e;}.cls-22{clip-path:url(#clip-path);}.cls-23{fill:#eeb3b1;}.cls-24{fill:#1d1d1d;}.cls-25{fill:#bfbfc0;}.cls-26{fill:#c2defa;}</style><clipPath id="clip-path" transform="translate(-25.64 -15.51)"><path class="cls-1" d="M164.44,39.7,44,51.66l4.33,94.46a7.56,7.56,0,0,1,.85-3.34c3.55-6.77,12.58-7.1,16.45-9s2.9-6.45,0-11,1.29-13.23,9-16.78a18.39,18.39,0,0,1,14.24-.44,4.52,4.52,0,0,1,1.52,0,15.33,15.33,0,0,1,7.4,2.11,11.92,11.92,0,0,1,1.15.75c.21.16.4.32.6.49l.37.31c.26.23.49.47.71.72l.1.1a13.74,13.74,0,0,1,3.1,9.88c-.4,1,3.42,5,3.21,6.63s-2.21,2.81-2.21,2.81-1.61,6.23-3.62,9c-.89,1.25-2.49,1.43-4,1.24a12.08,12.08,0,0,1-1.85,5.72,21.69,21.69,0,0,1,3.72,1.08L110,217.31,160.45,212,173.74,66.72Z"/></clipPath></defs><title>2350619</title><path class="cls-2" d="M400.37,285.1c31.26-18,53.65-55.15,62-89.41,15-61.38-.79-128.27-41.71-138.5S369.51,91,297.91,62.7c-37.16-14.7-78.63-44.41-121-34.91-54.79,12.28-32,65.23-48.2,103.37-16.84,39.66-102.67,47.46-81.34,104.26,12.72,33.86,57.39,50.77,90.78,50.77,47.21,0,74.76-29.12,129.84-18.89,25.7,4.77,47.35,19.22,72.26,25.92C362.48,299.19,382.83,295.18,400.37,285.1Z" transform="translate(-25.64 -15.51)"/><path class="cls-3" d="M404.2,148.28s-7.32,7.36-11.13,9.14-11.16,7.87-11.16,7.87l2.54,10.4s11.93-5.33,16-5.33,8.12-3,8.12-3S407.71,148,404.2,148.28Z" transform="translate(-25.64 -15.51)"/><ellipse class="cls-4" cx="404.22" cy="307.99" rx="49.09" ry="10.86"/><ellipse class="cls-4" cx="331.64" cy="306.75" rx="21.09" ry="4.66"/><path class="cls-5" d="M428.89,102.37a11.91,11.91,0,0,1,8.83-.22c5.17,1.72,6.89,5.39,7.11,9.69a16.66,16.66,0,0,0,2.8,9c1.51,2.37,1.72,4.09,1.72,11.42s-3.88,9.69-3.45,12.06,8.4,5.39,9.69,11.42-3.45,7.75-4.09,11.2,1.51,6,.43,9.91-4.74,8.83-12.71,9.26-15.29-13.57-21.33-20.46-10.77-13.79-9.91-20.25,5.6-6.89,5.6-11.63-5-8.4-3-13.57,3.66-4.74,4.74-9.91S420.7,102.58,428.89,102.37Z" transform="translate(-25.64 -15.51)"/><path class="cls-6" d="M401.37,198.72s-6.73,42.85-5.72,56,15.58,59.34,15.58,59.34-9.62,5.73-9.85,8c-.39,3.93,15.14-3.22,15.64-6.25s-6.08-45.68-4.65-57.9c.46-3.89,2.24-13.19,2.75-16.72S419,222.29,419,222.29,427,256.39,430,263s12.36,23.7,21.31,39.18a77.24,77.24,0,0,1,5.13,11.34s-.57,14.14,1.52,15c3.52,1.42,4-13.15,4-14.66s-3.49-9.18-7-25.86-9.35-24.68-9.85-30.24-1.22-47.21-4.3-56.48S404.93,190.83,401.37,198.72Z" transform="translate(-25.64 -15.51)"/><path class="cls-7" d="M417,315.82v0a12.58,12.58,0,0,1-5.8-1.72s-9.62,5.73-9.85,8C401,326,416.51,318.86,417,315.82Z" transform="translate(-25.64 -15.51)"/><path class="cls-7" d="M456.45,313.48s-.57,14.14,1.52,15c3.52,1.42,4-13.15,4-14.66C457.78,316.39,456.45,313.48,456.45,313.48Z" transform="translate(-25.64 -15.51)"/><path class="cls-8" d="M440.72,200.54c-2-10.71-3.28-12.46-3.28-13.78S441.59,166,441.59,166s9.14-2.82,4.15-16c-1.39-3.66-14-7.22-17.49-7.87s-12.25.44-12.25.44-10.5,3.94-11.81,5.69,0,8.31,0,11.15.44,2.84,0,3.94-2.62,3.06-2.41,7.43,2.62,8.53,2.84,11.37c.16,2.12-1.5,8.16-3.27,16.54,3.19,2,8.71,4.29,17.26,4.67a87.38,87.38,0,0,0,22.2-2.17C440.79,201,440.75,200.76,440.72,200.54Z" transform="translate(-25.64 -15.51)"/><path class="cls-9" d="M421,129.59s.66,2-1.53,7.87-1.75,16.18.87,15.31,7.65-10.71,8.31-15.09,1.31-9.84,1.31-9.84Z" transform="translate(-25.64 -15.51)"/><path class="cls-10" d="M439.43,121.27s-.31.55-1.28-7.48c-1.09-9-7.07-8.68-14.43-9-4.31-.22-4.46,3.65-5.6,8S416,122,416,122a13.13,13.13,0,0,0-1.51,5,29.5,29.5,0,0,0,3,10.56c.65,1.08,1.72,1.94,4.31,1.94,8.83-1.51,14-10.19,14-10.19s2.5,2,5-1.59S443.3,120.13,439.43,121.27Z" transform="translate(-25.64 -15.51)"/><line class="cls-11" x1="394.58" y1="115.88" x2="395.66" y2="116.43"/><path class="cls-5" d="M423.93,109.91s-3.23-1.94-5,.22-1.51,6.25-2.15,7.54-2.58,4.09-2.58,4.09,1.29-4.31.22-7.75-1.94-8.83,1.51-11.63,11.2-1.29,13.79.86S423.93,109.91,423.93,109.91Z" transform="translate(-25.64 -15.51)"/><path class="cls-5" d="M423.93,109.91s3.23-.22,4.74,4.52,3.66,11.42,6.89,13.79,3.45,3,1.94,6.89-3,5.39-2.15,8.4,8,3.88,8,3.88-3-4.09-1.72-6.89,5.6-8.4,4.52-13.14-5.6-5.6-5.17-8.83,3.66-8,1.51-11.85-7.11-2.8-9.48-3.88S425,101.08,423.93,109.91Z" transform="translate(-25.64 -15.51)"/><path class="cls-5" d="M423.93,109.91s-.65,5.39,1.94,8.4a6.31,6.31,0,0,0,6,2.15s-5.39-1.29-5.17-6.46-1.72-7.11-1.72-7.11Z" transform="translate(-25.64 -15.51)"/><path class="cls-5" d="M422.64,109.69s-1.29-.65-2.8,1.72-1.72,4.31-2.8,5.6-3.88,1.51-3.88,1.51,2.58-.86,3.23-4.74,2.58-6,5.17-6" transform="translate(-25.64 -15.51)"/><path class="cls-5" d="M413.38,108s1.94,4.31.22,6.25a6.29,6.29,0,0,1-4.31,1.94,6,6,0,0,0,3.88,2.37c2.37.22,5-5.17,5-5.17" transform="translate(-25.64 -15.51)"/><path class="cls-12" d="M422.56,124.35s0,2.13-1.49,2.35.64,1.92.64,1.92" transform="translate(-25.64 -15.51)"/><ellipse class="cls-13" cx="427.6" cy="125.42" rx="1.74" ry="0.64" transform="translate(191.25 502.55) rotate(-78.13)"/><ellipse class="cls-13" cx="419.9" cy="123.04" rx="1.74" ry="0.64" transform="translate(187.48 493.14) rotate(-78.13)"/><path class="cls-14" d="M418.4,119.41s1.92-2,3.5.23" transform="translate(-25.64 -15.51)"/><path class="cls-14" d="M426.87,121.33a2,2,0,0,1,2.94,1.24" transform="translate(-25.64 -15.51)"/><path class="cls-10" d="M372.17,138.15S370,154.38,371,162.86s6.79,11.63,9.69,9.45,2.67-13.81,1.21-21.08-2.67-12.36-3.88-14.54S373.14,133.3,372.17,138.15Z" transform="translate(-25.64 -15.51)"/><path class="cls-10" d="M356.12,136.22s5.87,3.14,9.27,3.63,10.42-1.94,10.42-1.94a12.52,12.52,0,0,0-6.06-1.94c-3.15,0-10.42-1.45-11.87-1.45S356.12,136.22,356.12,136.22Z" transform="translate(-25.64 -15.51)"/><path class="cls-15" d="M338.84,211.32v-6.27c0-32.25,40.84-33.65,40.84-56.62,0-10-8.12-16.47-20.19-16.47-13.23,0-21.58,7.19-21.58,17.4v2.55c0,2.55-1.39,3.71-3.95,3.71l-24.83-.93c-2.32,0-3.94-1.16-3.94-2.78v-2.55c0-28.08,22.27-47.34,55-47.34,32,0,52.67,18.1,52.67,45.25,0,38.52-41.54,38.75-41.54,59.87v4.18c0,2.55-1.39,3.94-3.95,3.94h-24.6C340.23,215.26,338.84,213.87,338.84,211.32Zm-2.09,37.36c0-10.21,9-18.56,20-18.56,10.44,0,19.72,8.36,19.72,18.56s-9.28,18.56-20,18.56C345.57,267.24,336.75,258.89,336.75,248.67Z" transform="translate(-25.64 -15.51)"/><path class="cls-7" d="M338.84,214.37V208.1c0-32.25,40.84-33.65,40.84-56.62,0-10-8.12-16.47-20.19-16.47-13.23,0-21.58,7.19-21.58,17.4V155c0,2.55-1.39,3.71-3.95,3.71l-24.83-.93c-2.32,0-3.94-1.16-3.94-2.78v-2.55c0-28.08,22.27-47.34,55-47.34,32,0,52.67,18.1,52.67,45.25,0,38.52-41.54,38.75-41.54,59.87v4.18c0,2.55-1.39,3.94-3.95,3.94h-24.6C340.23,218.31,338.84,216.92,338.84,214.37Zm-2.09,37.36c0-10.21,9-18.56,20-18.56,10.44,0,19.72,8.36,19.72,18.56s-9.28,18.56-20,18.56C345.57,270.29,336.75,261.94,336.75,251.72Z" transform="translate(-25.64 -15.51)"/><path class="cls-10" d="M446.1,152.42s-1.89-4.31-7.54-2.15-12.93,17.24-19.93,20.2-23.16,10.23-27.47,13.2-23.7,9.16-23.7,9.16l-4.85-1.89s-4.28-1.53-4.45-.64,1.54,2.17,3.4,2.91c-1.44.16-1.56.19-3,.35s-2.71.08-4.06.26a3.06,3.06,0,0,0-1.69.48c-.48.48-.48,1.33.33,1.33,1.35,0,5.18.4,5.18.4l-5,1a1.09,1.09,0,0,0,.52,2.1s10.38-2.39,2,.53c-1.1.38-2,.66-1.7,1.78.46,1.71,5.82-.75,7-1.05-.87.39-1.73.81-2.58,1.25-.39.2-1.54.58-1.69,1-.25.72.84,1.33,1.45,1.16a8,8,0,0,0,1.29-.67l4-2.08,7.4-3.82c6.8-1.63,24.17-5.74,30.6-6.6,8.08-1.08,20.47-5.93,24.78-7.81s15.08-13.47,18.58-19.12A13.08,13.08,0,0,0,446.1,152.42Z" transform="translate(-25.64 -15.51)"/><path class="cls-16" d="M445,163.74a13.08,13.08,0,0,0,1.08-11.31s-1.89-4.31-7.54-2.15-12.93,17.24-19.93,20.2c-5.38,2.28-16.17,7.1-22.83,10.55L399,191.09c1-.17,1.88-.32,2.62-.42,8.08-1.08,20.47-5.93,24.78-7.81S441.52,169.39,445,163.74Z" transform="translate(-25.64 -15.51)"/><path class="cls-10" d="M357.77,132.23s-2.89,3.62-1.65,4,2.69-3.08,2.89-3.8S358.6,131.69,357.77,132.23Z" transform="translate(-25.64 -15.51)"/><path class="cls-10" d="M360.06,131.36s-3.39,4.85-1.94,5.33,3.15-4.12,3.39-5.09S361,130.63,360.06,131.36Z" transform="translate(-25.64 -15.51)"/><path class="cls-10" d="M362,131.6s-3.39,4.85-1.94,5.33,3.15-4.12,3.39-5.09S363,130.88,362,131.6Z" transform="translate(-25.64 -15.51)"/><path class="cls-10" d="M363.93,132.57s-3.39,4.85-1.94,5.33,3.15-4.12,3.39-5.09S364.9,131.85,363.93,132.57Z" transform="translate(-25.64 -15.51)"/><ellipse class="cls-4" cx="100.36" cy="316.42" rx="21.09" ry="4.66"/><path class="cls-7" d="M89.14,105.67a18.29,18.29,0,0,0-14.52.32c-7.74,3.55-11.94,12.26-9,16.78s3.87,9,0,11-12.9,2.26-16.45,9,5.16,15.81,5.16,19.68-5.16,3.55-7.42,11.61,1.29,16.78,17.42,17.74,21.61-12.58,23.23-19.36-2.26-17.1,1-20,8.39-6.45,8.71-12.9S93,122.13,92.69,116.32s-.32-8.07-.32-8.07l-1.94-1.94Z" transform="translate(-25.64 -15.51)"/><path class="cls-17" d="M101.12,148.62s1.56-1.22,3.75,2.59,7.34,17.84,10.75,22.37,7.79,10.48,7.79,10.48-4.73,1.8-7.12,4.67-2.68,4.19-2.68,4.19A61.47,61.47,0,0,1,104.55,179a118,118,0,0,1-7.09-25.15c-.68-5.21,2.88-5.89,2.88-5.89Z" transform="translate(-25.64 -15.51)"/><ellipse class="cls-4" cx="52.66" cy="308.48" rx="52.66" ry="10.12"/><path class="cls-10" d="M63,245.12s1.21,8,.61,9-8.29,12.75-11.1,20.58-9.39,30.67-10.6,35.69-4.42,9.24-3.62,11.45S50.37,331.5,52,331.3s.8-2.41-.6-6-5.62-8.24-5.22-11.45,14.26-28.33,19.08-35.16,7.43-13.46,9.84-19.08a104.9,104.9,0,0,0,4.42-14.46Z" transform="translate(-25.64 -15.51)"/><path class="cls-7" d="M47.47,318.3l-3.93,1.75-3.3-4.84c-1.24,2.86-2.45,5.19-1.92,6.65.8,2.21,12.05,9.64,13.66,9.44s.8-2.41-.6-6C50.54,323.13,48.73,320.65,47.47,318.3Z" transform="translate(-25.64 -15.51)"/><path class="cls-10" d="M92.76,247.13a43.34,43.34,0,0,1,1.17,10.48c0,6.23,4.25,24.48,4.45,33.12s2.21,18.28,1.61,21.9-.4,5,.2,5.22,19.08,1,20.29,0,2.41-.6,1.41-2-15.67-8-15.67-9.64,0-26.12.4-36,1.41-19.69.6-24.11S92.76,247.13,92.76,247.13Z" transform="translate(-25.64 -15.51)"/><path class="cls-18" d="M81.31,145.88s-13.46,2.41-13.66,3.62,2.81,21.9,4.82,27.12,1.81,5.22.8,10.25-7,12.46-9.64,26.32-3,33.15-3,34,8.84,5,24.71,4,22.9-3.82,23.71-5.22-4.62-40.58-6.23-47.21-3.42-15.47-2.21-18.68,3.62-6,3.82-10.45-3.42-10.85-3.21-13.86,2.61-4.22,1.21-6.83-8-4-11.85-4A63.38,63.38,0,0,0,81.31,145.88Z" transform="translate(-25.64 -15.51)"/><path class="cls-19" d="M86.73,141.66s-5.62.6-7,2.81,0,12.46,1,14.66,6.23-4.62,8.24-4.62,5.42,4.22,6.63,2.61S96.57,144.47,86.73,141.66Z" transform="translate(-25.64 -15.51)"/><path class="cls-10" d="M103.81,120s1-8.24-6-12.25-14.26-2-19.08,3.21S76.28,128,77.89,131s5.83,3.82,6.83,5.83.4,4.42-.6,7.43,3.21,10.25,4.82,10.25,1.61-6,2.61-9.44,2-6.43,2-6.43,5.62,2.61,7.63-.2,3.62-9,3.62-9,2-1.21,2.21-2.81S103.4,121,103.81,120Z" transform="translate(-25.64 -15.51)"/><ellipse class="cls-7" cx="76.15" cy="106.63" rx="0.78" ry="1.91"/><ellipse class="cls-7" cx="101.86" cy="131.84" rx="1.91" ry="0.78" transform="translate(-75.34 185.52) rotate(-76.85)"/><path class="cls-20" d="M99.67,118.88s.21-1.66,1.35-2,1.86,1,1.86,1" transform="translate(-25.64 -15.51)"/><path class="cls-7" d="M97.78,107.71c-7-4-15.12-1.75-19.94,3.47a8.1,8.1,0,0,0-.66.84c-4.33,9-1.7,13.95-1.7,13.95a14.37,14.37,0,0,0,2,5.24c1.24,2.33,4.48,3.14,6.15,4.4,1.7-1.16,1.77-3.07,2.93-5.4a49.4,49.4,0,0,1,3.21-6c1-1.41-3.21-3.62,1.41-9.44,3.14-4,7.67-4.11,10.25-3.81A11.46,11.46,0,0,0,97.78,107.71Z" transform="translate(-25.64 -15.51)"/><path class="cls-21" d="M90.94,105.79s-9.56,5.21-6.81,19c0,0-6.23-9.85,1.88-18.39C86,106.36,89.2,104.92,90.94,105.79Z" transform="translate(-25.64 -15.51)"/><path class="cls-10" d="M88.94,127.2s-3-5-5.83-1.61,1.21,6.63,2.21,7,4.62-1.21,4.62-1.21" transform="translate(-25.64 -15.51)"/><path class="cls-5" d="M100.47,186.82a43.73,43.73,0,0,1-12.74,2.85c-7.73.76-12.26-1-14.55-2.47-1.2,5-7,12.42-9.56,26-2.61,13.86-3,33.15-3,34s8.84,5,24.71,4,22.9-3.82,23.71-5.22-4.62-40.58-6.23-47.21A111.92,111.92,0,0,1,100.47,186.82Z" transform="translate(-25.64 -15.51)"/><path class="cls-19" d="M125.4,182.94s-2.48-3.32-5.7-2.1-8.09,8.23-7.27,11.54,2.58,3.71,4.82,3.56,9.12-5.79,9.8-8.86A3.5,3.5,0,0,0,125.4,182.94Z" transform="translate(-25.64 -15.51)"/><path class="cls-10" d="M139.63,203.12s-11.38-12.19-13-14.21-3.6-3-6.45-1.45-4,5.54-1.88,7.92,19.18,11.45,19.18,11.45.61,3.17,2.92,3.9a14.48,14.48,0,0,0,5.56.21s5.08-2.74,4.73-3.91-.62-2.67-.62-2.67l-9.56-.92Z" transform="translate(-25.64 -15.51)"/><path class="cls-7" d="M109.51,308.77l-1.68,5.05-7.94-.5c-.46,3.08-.25,4.33.31,4.51s19.08,1,20.29,0,2.41-.6,1.41-2C121.19,314.85,113.89,311.35,109.51,308.77Z" transform="translate(-25.64 -15.51)"/><g class="cls-22"><path class="cls-23" d="M109.77,159.72l-1.6-6.06c-8.22-31.19,30.92-42.94,25.07-65.15-2.54-9.65-12.05-13.86-23.72-10.79C96.74,81.09,90.5,90.17,93.1,100l.65,2.47c.65,2.47-.4,3.95-2.87,4.6l-24.25,5.43c-2.24.59-4.11-.12-4.52-1.69l-.65-2.47c-7.15-27.15,9.48-51.45,41.12-59.78,31-8.16,55.55,4.08,62.46,30.34,9.81,37.25-30.29,48.05-24.91,68.47l1.06,4c.65,2.47-.34,4.17-2.81,4.82l-23.79,6.27C112.13,163.18,110.42,162.19,109.77,159.72Zm7.5,36.66c-2.6-9.87,4-20.26,14.57-23,10.1-2.66,21.2,3.05,23.8,12.93s-4.25,20.32-14.57,23C130.53,212.08,119.87,206.25,117.27,196.38Z" transform="translate(-25.64 -15.51)"/><path class="cls-6" d="M109.77,161.62l-1.6-6.06c-8.22-31.19,30.92-42.94,25.07-65.15-2.54-9.65-12.05-13.86-23.72-10.79C96.74,83,90.5,92.08,93.1,101.95l.65,2.47c.65,2.47-.4,3.95-2.87,4.6l-24.25,5.43c-2.24.59-4.11-.12-4.52-1.69l-.65-2.47c-7.15-27.15,9.48-51.45,41.12-59.78,31-8.16,55.55,4.08,62.46,30.34,9.81,37.25-30.29,48.05-24.91,68.47l1.06,4c.65,2.47-.34,4.17-2.81,4.82l-23.79,6.27C112.13,165.08,110.42,164.09,109.77,161.62Zm7.5,36.66c-2.6-9.87,4-20.26,14.57-23,10.1-2.66,21.2,3.05,23.8,12.93s-4.25,20.32-14.57,23C130.53,214,119.87,208.16,117.27,198.28Z" transform="translate(-25.64 -15.51)"/></g><path class="cls-10" d="M123.4,202.9s5.52-.75,7.1-.75,9.06,1.47,6.7,2.6-5.91,0-5.91,0a10.5,10.5,0,0,1,4,3.11c1.56,2.12,5.13,3.51,5.13,3.51s-7.52,2.34-11.46,2-9.47-7.47-9.47-7.47Z" transform="translate(-25.64 -15.51)"/><path class="cls-18" d="M67.65,149.49s-3.51,2.7,0,12.83S75.44,183.27,79.91,188s14.83,10.59,14.83,10.59-.71-8.24,0-9.65a7.89,7.89,0,0,1,1.88-2.35l-.47-1.65a59.67,59.67,0,0,1-8.71-10.83c-3.53-5.88-8.71-15.3-10.83-20S71.15,147.73,67.65,149.49Z" transform="translate(-25.64 -15.51)"/><path class="cls-19" d="M103.45,192s0-3.53-2.12-5.18-4.94-3.3-7.06-2.59-5.18,7.06-4.71,10.12,4.94,5.88,7.06,5.88S103.45,192,103.45,192Z" transform="translate(-25.64 -15.51)"/><path class="cls-10" d="M123.4,202.9s-12.42-7.63-17.83-10.69-7.3-5.41-10.36-1.65-1.88,5.88,3.3,8.71c3.52,1.92,20.95,6.61,20.95,6.61Z" transform="translate(-25.64 -15.51)"/><ellipse class="cls-4" cx="223.56" cy="314.66" rx="53.81" ry="10.86"/><path class="cls-7" d="M210,207l1,12-5.5,53.5L215,320s-9.5,10.5-7.5,13S221,321,221,321l-1.5-47,16-44,22,43,21,46.5s3,10.5,8,11-4-13-4-13l-12-49-19.5-70S226,209,210,207Z" transform="translate(-25.64 -15.51)"/><path class="cls-24" d="M251,198.5S226,209,210,207l.24,2.83C214.36,211.71,225,216,232.5,214c7-1.83,15.53-8.22,19.61-11.51Z" transform="translate(-25.64 -15.51)"/><polygon class="cls-25" points="201.3 195.74 202.41 199.38 208.88 198.27 208.09 194.8 201.3 195.74"/><polyline class="cls-7" points="218.51 194.32 217.25 189.11 218.35 188.32 220.41 193.85"/><polyline class="cls-7" points="188.83 196.69 188.19 192.11 189.93 192.43 190.56 197.48"/><path class="cls-10" d="M241.5,132l25.24,12.84a3.37,3.37,0,0,0,4.64-1.73L283.5,113.5l7,2-11.5,40a6.85,6.85,0,0,1-8.82,5l-25.68-6Z" transform="translate(-25.64 -15.51)"/><path class="cls-5" d="M267.41,145.1a3.38,3.38,0,0,1-.67-.25L241.5,132l3,22.5,20.22,4.7Z" transform="translate(-25.64 -15.51)"/><path class="cls-5" d="M212,134.5l-19,11L210,207s12,6,22,4,19-12.5,19-12.5L241.5,132,218,133Z" transform="translate(-25.64 -15.51)"/><path class="cls-10" d="M203.85,118.39s-4.35-4.69-5-1.34,4,6,5.69,6.36S203.85,118.39,203.85,118.39Z" transform="translate(-25.64 -15.51)"/><path class="cls-10" d="M223.77,117s.89-6.33,3.35-4,.15,7.24-1,8.47S223.77,117,223.77,117Z" transform="translate(-25.64 -15.51)"/><path class="cls-9" d="M208.47,128l2.08,11.47,3.4,2.58a7,7,0,0,0,10.31-2l1.69-2.88-2.72-11.5Z" transform="translate(-25.64 -15.51)"/><path class="cls-10" d="M211.88,98.65s-4.78-1-8.61,5c-3.06,4.81.53,18.73,2.08,24.08a4.93,4.93,0,0,0,2.61,3.07l6.59,3.15a5,5,0,0,0,6.34-1.86l3.75-6.06a5,5,0,0,0,.65-3.53l-3.12-16.37a9.23,9.23,0,0,0-7.94-7.48A10.47,10.47,0,0,0,211.88,98.65Z" transform="translate(-25.64 -15.51)"/><ellipse class="cls-7" cx="215.58" cy="125.37" rx="0.83" ry="1.51" transform="translate(-49.06 38.65) rotate(-13.59)"/><path class="cls-7" d="M203.85,118.39a1.67,1.67,0,0,0,1.34-2c-.33-1.67-1.67-4.35-1-7.7s4.69-5.35,4.69-5.35.67,1.34,5,3a21.79,21.79,0,0,0,7,1.67s0,4.35,1,5.69,2.68,3.68,3,1.34-1.34-9.71-1.34-9.71,2.34,0,1-4.35-9.71-6.36-15.73-6.36-13.05,9.37-11,13.05A30,30,0,0,1,200.5,114S202.85,119.06,203.85,118.39Z" transform="translate(-25.64 -15.51)"/><path class="cls-26" d="M234.53,118.46l1.56-6.07c8-31.24,47.92-22.45,53.62-44.7,2.48-9.67-3.78-18-15.46-21-12.81-3.28-22.69,1.61-25.23,11.5l-.63,2.47c-.63,2.47-2.27,3.25-4.74,2.62l-23.82-7.07c-2.25-.58-3.53-2.1-3.13-3.68l.63-2.47c7-27.2,33.33-40.32,65-32.2,31,8,46.53,30.61,39.79,56.91-9.57,37.31-49.86,27.22-55.1,47.68l-1,4c-.63,2.47-2.33,3.47-4.8,2.84l-23.83-6.11C234.9,122.63,233.89,120.93,234.53,118.46Zm-11.3,35.67c2.54-9.89,13.38-15.73,23.94-13,10.12,2.59,17,13,14.5,22.88s-13.6,15.68-23.94,13C227.16,174.3,220.69,164,223.23,154.13Z" transform="translate(-25.64 -15.51)"/><path class="cls-18" d="M234.53,121.51l1.56-6.07c8-31.24,47.92-22.45,53.62-44.7,2.48-9.67-3.78-18-15.46-21-12.81-3.28-22.69,1.61-25.23,11.5l-.63,2.47c-.63,2.47-2.27,3.25-4.74,2.62l-23.82-7.07c-2.25-.58-3.53-2.1-3.13-3.68l.63-2.47c7-27.2,33.33-40.32,65-32.2,31,8,46.53,30.61,39.79,56.91-9.57,37.31-49.86,27.22-55.1,47.68l-1,4c-.63,2.47-2.33,3.47-4.8,2.84l-23.83-6.11C234.9,125.68,233.89,124,234.53,121.51Zm-11.3,35.67c2.54-9.89,13.38-15.74,23.94-13,10.12,2.59,17,13,14.5,22.88s-13.6,15.68-23.94,13C227.16,177.35,220.69,167.07,223.23,157.18Z" transform="translate(-25.64 -15.51)"/><path class="cls-10" d="M290.5,115.5,299,107l2-14.5s-1,0-4,2-6,9.5-6,9.5-4.5,4-6,5.5a6.34,6.34,0,0,0-1.5,4Z" transform="translate(-25.64 -15.51)"/><polygon class="cls-10" points="196.36 156.49 210.36 152.99 218.86 154.49 217.86 156.99 210.86 156.99 217.36 161.49 224.86 163.49 222.36 165.99 209.86 166.99 198.86 161.49 196.36 156.49"/><path class="cls-10" d="M193,145.5l-14.78,36.31a3.73,3.73,0,0,0,4.31,5L225,177.12,222,172l-25,.5,2-6Z" transform="translate(-25.64 -15.51)"/><path class="cls-5" d="M197,172.5l2-6-6-21-9.49,23.32C192.26,167.79,197,172.5,197,172.5Z" transform="translate(-25.64 -15.51)"/><ellipse class="cls-7" cx="209.72" cy="117.51" rx="0.73" ry="1.32" transform="matrix(0.99, -0.17, 0.17, 0.99, -42.55, 21.83)"/><ellipse class="cls-7" cx="217.25" cy="116.19" rx="0.73" ry="1.32" transform="translate(-42.22 23.1) rotate(-9.78)"/><path class="cls-27" d="M207.4,113.2s.4-1.45,2.78-1.45" transform="translate(-25.64 -15.51)"/><path class="cls-27" d="M215.26,113.35s1.08-2.25,2.94-1.54" transform="translate(-25.64 -15.51)"/><polyline class="cls-20" points="188.51 98.83 189.96 105.3 188.24 105.7"/><path class="cls-5" d="M221,321c-5,1-6-1-6-1s-9.5,10.5-7.5,13S221,321,221,321Z" transform="translate(-25.64 -15.51)"/><path class="cls-5" d="M278.68,320.09c.72,2.22,3.53,10,7.82,10.41,5,.5-4-13-4-13A6,6,0,0,1,278.68,320.09Z" transform="translate(-25.64 -15.51)"/></svg>