<svg xmlns="http://www.w3.org/2000/svg" viewBox="0 0 238.46 228.51"><defs><style>.cls-1{isolation:isolate;}.cls-2,.cls-4,.cls-6,.cls-7,.cls-8{mix-blend-mode:multiply;}.cls-3,.cls-6{fill:#ffb412;}.cls-4{fill:#f76800;}.cls-5{fill:#fff;}.cls-7{fill:#0087eb;}.cls-8{fill:#00d6ca;}</style></defs><title>questions</title><g class="cls-1"><g id="Layer_1" data-name="Layer 1"><g class="cls-2"><path class="cls-3" d="M173.77,236.35A4.39,4.39,0,0,1,172,236a4.83,4.83,0,0,1-1.48-1,4.64,4.64,0,0,1-1.46,1,4.39,4.39,0,0,1-1.8.37,4.47,4.47,0,0,1-1.77-.36,4.52,4.52,0,0,1-2.42-2.41,4.41,4.41,0,0,1-.36-1.77V217.89a4.41,4.41,0,0,1,.36-1.77,4.52,4.52,0,0,1,2.42-2.41,4.47,4.47,0,0,1,1.77-.36,4.42,4.42,0,0,1,1.77.36,4.67,4.67,0,0,1,1.45,1,4.51,4.51,0,0,1,1,1.44,4.41,4.41,0,0,1,.36,1.77V231.8a1.85,1.85,0,0,0,.16.77,2.09,2.09,0,0,0,1.06,1.06,1.86,1.86,0,0,0,.77.16Zm-8.52-18.46V231.8a1.86,1.86,0,0,0,.16.77,2.07,2.07,0,0,0,1.06,1.06,1.95,1.95,0,0,0,1.54,0,2,2,0,0,0,1-1.05,1.91,1.91,0,0,0,.16-.77V217.89a1.86,1.86,0,0,0-.16-.76,2.14,2.14,0,0,0-.42-.63,1.87,1.87,0,0,0-.63-.42,2,2,0,0,0-.77-.15,1.89,1.89,0,0,0-.77.16,2.11,2.11,0,0,0-.63.42,2,2,0,0,0-.43.62A1.86,1.86,0,0,0,165.25,217.89Z" transform="translate(-23.46 -26.96)"/><path class="cls-3" d="M175.28,218.07h2.52v13.75a1.86,1.86,0,0,0,.16.77,2,2,0,0,0,.43.62,2,2,0,0,0,.64.42,2,2,0,0,0,.77.15,1.94,1.94,0,0,0,.77-.15,2,2,0,0,0,.62-.42,2.05,2.05,0,0,0,.42-.62,1.85,1.85,0,0,0,.16-.77V218.07h2.53v13.77a4.32,4.32,0,0,1-.36,1.74,4.58,4.58,0,0,1-2.4,2.4,4.49,4.49,0,0,1-3.5,0,4.58,4.58,0,0,1-2.4-2.4,4.32,4.32,0,0,1-.36-1.74Z" transform="translate(-23.46 -26.96)"/><path class="cls-3" d="M191,236.35a4.47,4.47,0,0,1-1.77-.36,4.52,4.52,0,0,1-2.42-2.41,4.41,4.41,0,0,1-.36-1.77v-9.26a4.36,4.36,0,0,1,.36-1.76,4.54,4.54,0,0,1,2.42-2.4A4.47,4.47,0,0,1,191,218a4.42,4.42,0,0,1,1.77.36,4.68,4.68,0,0,1,1.45,1,4.55,4.55,0,0,1,1,1.43,4.36,4.36,0,0,1,.36,1.76v4.67H189v4.59a1.82,1.82,0,0,0,.16.75,2.09,2.09,0,0,0,1.06,1.06,1.86,1.86,0,0,0,.77.16,1.91,1.91,0,0,0,.77-.16,2.12,2.12,0,0,0,.64-.42,1.88,1.88,0,0,0,.42-.62,1.93,1.93,0,0,0,.15-.77V229h2.56v2.85a4.42,4.42,0,0,1-.36,1.77,4.51,4.51,0,0,1-1,1.44,4.67,4.67,0,0,1-1.45,1A4.42,4.42,0,0,1,191,236.35Zm-2-11.69h4v-2.11a1.94,1.94,0,0,0-.15-.77,2,2,0,0,0-.42-.63,2.06,2.06,0,0,0-.64-.43,1.91,1.91,0,0,0-.77-.16,1.86,1.86,0,0,0-.77.16,2.09,2.09,0,0,0-.63.43,2.07,2.07,0,0,0-.43.64,1.87,1.87,0,0,0-.16.76Z" transform="translate(-23.46 -26.96)"/><path class="cls-3" d="M202.19,236.36a4.43,4.43,0,0,1-1.77-.36,4.69,4.69,0,0,1-1.45-1,4.54,4.54,0,0,1-1-1.43,4.36,4.36,0,0,1-.36-1.76v-1.3h2.56v1.3a1.85,1.85,0,0,0,.16.76,2,2,0,0,0,.43.62,2.12,2.12,0,0,0,.63.42,1.9,1.9,0,0,0,.77.16,1.84,1.84,0,0,0,.76-.16,2.08,2.08,0,0,0,1.06-1.06,1.82,1.82,0,0,0,.16-.75v-.91a2.27,2.27,0,0,0-.1-.73,1,1,0,0,0-.36-.48,2.48,2.48,0,0,0-.71-.35q-.45-.15-1.15-.32t-1.37-.39a4.83,4.83,0,0,1-1.37-.7,3.69,3.69,0,0,1-1.06-1.23,4.17,4.17,0,0,1-.42-2v-2.18a4.36,4.36,0,0,1,.36-1.75,4.43,4.43,0,0,1,1-1.43,4.77,4.77,0,0,1,1.45-1,4.57,4.57,0,0,1,3.54,0,4.66,4.66,0,0,1,1.44,1,4.49,4.49,0,0,1,1,1.43,4.37,4.37,0,0,1,.36,1.75v1.29h-2.56v-1.28a1.84,1.84,0,0,0-.16-.76,2,2,0,0,0-.43-.62,2,2,0,0,0-.63-.42,1.94,1.94,0,0,0-.76-.15,2,2,0,0,0-.77.15,2,2,0,0,0-.63.42,2,2,0,0,0-.43.62,1.86,1.86,0,0,0-.16.76v2.18a2.27,2.27,0,0,0,.1.73,1,1,0,0,0,.36.48,2.36,2.36,0,0,0,.71.34q.45.14,1.15.31t1.37.39a4.82,4.82,0,0,1,1.37.7,3.67,3.67,0,0,1,1.06,1.24,4.22,4.22,0,0,1,.42,2v.91a4.34,4.34,0,0,1-.36,1.76A4.56,4.56,0,0,1,204,236,4.43,4.43,0,0,1,202.19,236.36Z" transform="translate(-23.46 -26.96)"/><path class="cls-3" d="M217.34,236.27h-1.27a4.35,4.35,0,0,1-1.76-.36,4.69,4.69,0,0,1-1.44-1,4.54,4.54,0,0,1-1-1.43,4.32,4.32,0,0,1-.36-1.74V220.64h-3.31v-2.56h3.31v-4.55h2.56v4.55h3.25v2.56h-3.25v11.14a1.91,1.91,0,0,0,.15.75,1.82,1.82,0,0,0,.42.62,2.08,2.08,0,0,0,.63.41,2,2,0,0,0,.77.15h1.27Z" transform="translate(-23.46 -26.96)"/><path class="cls-3" d="M218.85,216.18v-2.65h2.55v2.65Zm0,20.09V218h2.56v18.23Z" transform="translate(-23.46 -26.96)"/><path class="cls-3" d="M228.05,236.36a4.43,4.43,0,0,1-1.77-.36,4.66,4.66,0,0,1-1.44-1,4.51,4.51,0,0,1-1-1.43,4.36,4.36,0,0,1-.36-1.76v-9.34a4.38,4.38,0,0,1,.36-1.75,4.54,4.54,0,0,1,2.42-2.41,4.53,4.53,0,0,1,3.52,0,4.68,4.68,0,0,1,1.45,1,4.52,4.52,0,0,1,1,1.44,4.37,4.37,0,0,1,.36,1.75v9.34a4.35,4.35,0,0,1-.36,1.76,4.45,4.45,0,0,1-1,1.43,4.75,4.75,0,0,1-1.45,1A4.39,4.39,0,0,1,228.05,236.36Zm-2-4.5a1.87,1.87,0,0,0,.16.77,2.05,2.05,0,0,0,.42.62,2,2,0,0,0,.63.42,1.89,1.89,0,0,0,.77.16,1.84,1.84,0,0,0,.76-.16,2.08,2.08,0,0,0,1.06-1.06,1.82,1.82,0,0,0,.16-.75v-9.34a1.82,1.82,0,0,0-.16-.75,2,2,0,0,0-.43-.62,2.15,2.15,0,0,0-.63-.42,1.85,1.85,0,0,0-.76-.16,2,2,0,0,0-.77.15,1.92,1.92,0,0,0-.63.42,2.05,2.05,0,0,0-.42.62,1.87,1.87,0,0,0-.16.77Z" transform="translate(-23.46 -26.96)"/><path class="cls-3" d="M243.71,236.27H241.2V222.51a1.85,1.85,0,0,0-.16-.76,2,2,0,0,0-.43-.62,2,2,0,0,0-1.41-.57,2,2,0,0,0-1.39.57,2.06,2.06,0,0,0-.42.62,1.86,1.86,0,0,0-.16.76v13.75h-2.53V222.5a4.32,4.32,0,0,1,.36-1.74,4.58,4.58,0,0,1,2.4-2.4,4.48,4.48,0,0,1,3.5,0,4.58,4.58,0,0,1,2.4,2.4,4.33,4.33,0,0,1,.36,1.74Z" transform="translate(-23.46 -26.96)"/></g><polygon class="cls-4" points="14.88 206.11 18.25 228.51 29.84 204.14 109.61 193.6 111 121.47 0 132.85 10.35 206.71 14.88 206.11"/><path class="cls-5" d="M75.94,194.71a36.81,36.81,0,0,1,5.89-6.37,31.8,31.8,0,0,0,4.67-5,6.91,6.91,0,0,0,1-5,6.24,6.24,0,0,0-2.7-4.41,10.37,10.37,0,0,0-6.12-1.65,14,14,0,0,0-7,1.74,13.54,13.54,0,0,0-5,5l-9.59-6.86A20.7,20.7,0,0,1,66,163.62a29.42,29.42,0,0,1,13.8-3.07q8.74,0,14.48,4.05a15.4,15.4,0,0,1,6.68,10.91,15.79,15.79,0,0,1-.46,7.22,14.61,14.61,0,0,1-2.85,5.08,55.25,55.25,0,0,1-4.77,4.63A40.06,40.06,0,0,0,88,197.38a8.7,8.7,0,0,0-1.84,4.94H73.68A14.16,14.16,0,0,1,75.94,194.71Z" transform="translate(-23.46 -26.96)"/><circle class="cls-5" cx="56.38" cy="186.27" r="6.95"/><path class="cls-6" d="M144.16,194.68l-3,15.88,18-8.83c29.77,10.22,62.71,2.9,71.92-17.05,14.38-31.18-6.19-59.5-42.46-63.82-30.7-3.65-73.82,16.61-61.51,53.95C129.81,182.92,136,189.57,144.16,194.68Z" transform="translate(-23.46 -26.96)"/><path class="cls-5" d="M175.18,167.5a36.8,36.8,0,0,1,5.89-6.37,31.8,31.8,0,0,0,4.67-5,6.91,6.91,0,0,0,1-5,6.24,6.24,0,0,0-2.7-4.41A10.37,10.37,0,0,0,178,145a14,14,0,0,0-7,1.74,13.54,13.54,0,0,0-5,5l-9.59-6.86a20.7,20.7,0,0,1,8.86-8.51,29.42,29.42,0,0,1,13.8-3.07q8.74,0,14.48,4.05a15.4,15.4,0,0,1,6.68,10.91,15.79,15.79,0,0,1-.46,7.22,14.61,14.61,0,0,1-2.85,5.08,55.26,55.26,0,0,1-4.77,4.63,40.09,40.09,0,0,0-4.89,4.94,8.7,8.7,0,0,0-1.84,4.94H172.92A14.16,14.16,0,0,1,175.18,167.5Z" transform="translate(-23.46 -26.96)"/><circle class="cls-5" cx="155.62" cy="159.06" r="6.95"/><path class="cls-7" d="M169.48,114.72l80.62,5.49C262.23,37.39,258.24,56,261.92,27L145.29,45.12,143,112.91l11.69.8,4.88,17.71Z" transform="translate(-23.46 -26.96)"/><path class="cls-5" d="M193.82,79.06a36.8,36.8,0,0,1,5.89-6.37,31.8,31.8,0,0,0,4.67-5,6.91,6.91,0,0,0,1-5,6.24,6.24,0,0,0-2.7-4.41,10.37,10.37,0,0,0-6.12-1.65,14,14,0,0,0-7,1.74,13.54,13.54,0,0,0-5,5L175,56.48A20.7,20.7,0,0,1,183.85,48a29.42,29.42,0,0,1,13.8-3.07q8.74,0,14.48,4.05a15.4,15.4,0,0,1,6.68,10.91,15.79,15.79,0,0,1-.46,7.22,14.61,14.61,0,0,1-2.85,5.08,55.25,55.25,0,0,1-4.77,4.63,40.08,40.08,0,0,0-4.89,4.94A8.7,8.7,0,0,0,204,86.68H191.56A14.16,14.16,0,0,1,193.82,79.06Z" transform="translate(-23.46 -26.96)"/><circle class="cls-5" cx="174.26" cy="70.62" r="6.95"/><path class="cls-8" d="M94.64,146.42c1.22-.06,2.39-.17,3.57-.29l13.23,15.16,3.23-18.93c37.92-14.34,47.92-62.3,28.82-80.15C121.36,41.55,77.18,48,58.13,79.23,44.59,101.43,40.55,148.87,94.64,146.42Z" transform="translate(-23.46 -26.96)"/><path class="cls-5" d="M97.15,105.08A36.81,36.81,0,0,1,103,98.71a31.81,31.81,0,0,0,4.67-5,6.91,6.91,0,0,0,1-5,6.24,6.24,0,0,0-2.7-4.41,10.37,10.37,0,0,0-6.12-1.65,14,14,0,0,0-7,1.74,13.54,13.54,0,0,0-5,5L78.32,82.5A20.7,20.7,0,0,1,87.18,74,29.42,29.42,0,0,1,101,70.92q8.74,0,14.48,4.05a15.4,15.4,0,0,1,6.68,10.91,15.79,15.79,0,0,1-.46,7.22,14.61,14.61,0,0,1-2.85,5.08,55.25,55.25,0,0,1-4.77,4.63,40.06,40.06,0,0,0-4.89,4.94,8.7,8.7,0,0,0-1.84,4.94H94.89A14.16,14.16,0,0,1,97.15,105.08Z" transform="translate(-23.46 -26.96)"/><circle class="cls-5" cx="77.58" cy="96.64" r="6.95"/></g></g></svg>